<svg xmlns="http://www.w3.org/2000/svg" width="19.65" height="19.04" viewBox="0 0 19.65 19.04">
  <title>Asset 14</title>
  <g id="Layer_2" data-name="Layer 2">
    <g id="Art">
      <g id="YEK087">
        <path d="M10.88,3.64c0-.6,0-1.19,0-1.77s0-1,0-1.51c0-.12.06-.33.12-.34a.49.49,0,0,1,.38.11Q13.56,2,15.72,4L19.4,7.21c.34.3.34.35,0,.64l-7.86,7a1,1,0,0,1-.22.19.45.45,0,0,1-.31,0,.32.32,0,0,1-.13-.25c0-.86,0-1.73,0-2.59,0-.28,0-.55,0-.88a12.28,12.28,0,0,0-1.5.08A11.24,11.24,0,0,0,1.28,17a15,15,0,0,0-.75,1.69,1.75,1.75,0,0,0-.06.18c0,.14-.11.24-.28.22S0,18.9,0,18.75c0-.56,0-1.12.06-1.68a19.72,19.72,0,0,1,1.07-5.49A12.52,12.52,0,0,1,4.89,6a9.83,9.83,0,0,1,5.85-2.35Z" style="fill: #fff"/>
      </g>
    </g>
  </g>
</svg>
