<svg xmlns="http://www.w3.org/2000/svg" viewBox="0 0 22.93 19.66"><defs><style>.cls-1{fill:#ccc;fill-rule:evenodd;}</style></defs><title>Asset 5</title><g id="Layer_2" data-name="Layer 2"><g id="Layer_1-2" data-name="Layer 1"><path class="cls-1" d="M20.23,3.11A4.93,4.93,0,0,0,22.3.36a9.13,9.13,0,0,1-3,1.2A4.58,4.58,0,0,0,15.88,0a4.84,4.84,0,0,0-4.7,5,5.19,5.19,0,0,0,.12,1.13A13.14,13.14,0,0,1,1.6.91,5.16,5.16,0,0,0,1,3.4,5,5,0,0,0,3.05,7.53,4.54,4.54,0,0,1,.92,6.91V7A4.9,4.9,0,0,0,4.7,11.84,4.38,4.38,0,0,1,3.46,12a4.43,4.43,0,0,1-.88-.09A4.75,4.75,0,0,0,7,15.37,9.13,9.13,0,0,1,1.12,17.5,8.88,8.88,0,0,1,0,17.43a12.83,12.83,0,0,0,7.21,2.23c8.66,0,13.39-7.56,13.39-14.12,0-.22,0-.43,0-.64a9.84,9.84,0,0,0,2.35-2.57,9,9,0,0,1-2.7.78Zm0,0"/></g></g></svg>