<svg xmlns="http://www.w3.org/2000/svg" viewBox="0 0 24.03 24.03"><defs><style>.cls-1{fill:#ccc;fill-rule:evenodd;}</style></defs><title>Asset 2</title><g id="Layer_2" data-name="Layer 2"><g id="Layer_1-2" data-name="Layer 1"><path class="cls-1" d="M22.55,6.25a8.91,8.91,0,0,1,.08,1.24,11.33,11.33,0,0,1-.92,4.3L18.06,22.4a12,12,0,0,0,4.5-16.15ZM12.23,13.07,8.62,23.54A12,12,0,0,0,16,23.34a1,1,0,0,1-.09-.16L12.23,13.07Zm7.9-1.66a6.33,6.33,0,0,0-1-3.31A5.62,5.62,0,0,1,18,5.28a2.08,2.08,0,0,1,2-2.13h.15A12,12,0,0,0,2,5.42l.77,0C4,5.43,6,5.28,6,5.28a.5.5,0,0,1,.07,1s-.65.08-1.37.11L9,19.39l2.63-7.88L9.78,6.38c-.65,0-1.26-.11-1.26-.11a.5.5,0,0,1,.08-1s2,.15,3.16.15S15,5.28,15,5.28a.5.5,0,0,1,.07,1s-.65.08-1.37.11L18,19.29l1.2-4a11.23,11.23,0,0,0,.91-3.88ZM0,12A12,12,0,0,0,6.77,22.82L1,7.12A11.94,11.94,0,0,0,0,12Zm0,0"/></g></g></svg>