<svg xmlns="http://www.w3.org/2000/svg" xmlns:xlink="http://www.w3.org/1999/xlink" width="142.12" height="91.32" viewBox="0 0 142.12 91.32">
  <defs>
    <linearGradient id="linear-gradient" x1="37.32" y1="71.82" x2="113.57" y2="71.82" gradientUnits="userSpaceOnUse">
      <stop offset="0" stop-color="#1c79c4"/>
      <stop offset="0.51" stop-color="#0389ff"/>
      <stop offset="1" stop-color="#0dd4ff"/>
    </linearGradient>
    <linearGradient id="linear-gradient-2" y1="59.13" x2="43.93" y2="59.13" gradientUnits="userSpaceOnUse">
      <stop offset="0" stop-color="#1c79c4"/>
      <stop offset="0.51" stop-color="#0389ff"/>
      <stop offset="1" stop-color="#0dd4ff"/>
    </linearGradient>
    <linearGradient id="linear-gradient-3" x1="36.17" y1="62.56" x2="114.68" y2="62.56" xlink:href="#linear-gradient"/>
    <linearGradient id="linear-gradient-4" x1="42.37" y1="26" x2="115.43" y2="26" xlink:href="#linear-gradient-2"/>
    <linearGradient id="linear-gradient-5" x1="42.78" y1="46.13" x2="114.65" y2="46.13" xlink:href="#linear-gradient-2"/>
    <linearGradient id="linear-gradient-6" x1="70.74" y1="70.65" x2="70.74" y2="44.51" xlink:href="#linear-gradient-2"/>
    <linearGradient id="linear-gradient-7" x1="88" y1="49.97" x2="97.78" y2="49.97" gradientUnits="userSpaceOnUse">
      <stop offset="0" stop-color="#1c79c4"/>
      <stop offset="1" stop-color="#0389ff"/>
    </linearGradient>
    <linearGradient id="linear-gradient-8" x1="100.15" y1="39.07" x2="109.93" y2="39.07" xlink:href="#linear-gradient-2"/>
    <linearGradient id="linear-gradient-9" x1="75.18" y1="52.14" x2="84.28" y2="52.14" xlink:href="#linear-gradient-2"/>
    <linearGradient id="linear-gradient-10" x1="41.54" y1="36.69" x2="73.03" y2="36.69" xlink:href="#linear-gradient-2"/>
    <linearGradient id="linear-gradient-11" x1="102.52" y1="6.7" x2="120.79" y2="6.7" xlink:href="#linear-gradient-2"/>
    <linearGradient id="linear-gradient-12" x1="41.5" y1="24.46" x2="120.03" y2="24.46" xlink:href="#linear-gradient-2"/>
    <linearGradient id="linear-gradient-13" x1="74.74" y1="45.39" x2="93.42" y2="-11.98" xlink:href="#linear-gradient-2"/>
    <linearGradient id="linear-gradient-14" x1="70.72" y1="59.18" x2="114.39" y2="59.18" xlink:href="#linear-gradient-2"/>
  </defs>
  <title>Asset 15</title>
  <g id="Layer_2" data-name="Layer 2">
    <g id="Art">
      <g>
        <g>
          <circle cx="25.14" cy="51.64" r="0.97" style="fill: #0dd4ff;opacity: 0.7000000000000001"/>
          <circle cx="29.32" cy="42.98" r="0.97" style="fill: #0dd4ff;opacity: 0.7000000000000001"/>
          <circle cx="33.78" cy="46.76" r="0.97" style="fill: #0dd4ff;opacity: 0.7000000000000001"/>
          <circle cx="36.72" cy="41.87" r="0.97" style="fill: #0dd4ff;opacity: 0.7000000000000001"/>
          <circle cx="36.3" cy="34.61" r="0.97" style="fill: #0dd4ff;opacity: 0.7000000000000001"/>
        </g>
        <g>
          <circle cx="121.53" cy="40.31" r="0.97" transform="translate(11.11 105.13) rotate(-48.76)" style="fill: #0dd4ff;opacity: 0.7000000000000001"/>
          <circle cx="130.38" cy="36.55" r="0.97" transform="translate(16.95 110.51) rotate(-48.76)" style="fill: #0dd4ff;opacity: 0.7000000000000001"/>
          <circle cx="131.25" cy="42.34" r="0.97" transform="translate(12.9 113.13) rotate(-48.76)" style="fill: #0dd4ff;opacity: 0.7000000000000001"/>
          <circle cx="136.69" cy="40.6" r="0.97" transform="translate(16.06 116.63) rotate(-48.76)" style="fill: #0dd4ff;opacity: 0.7000000000000001"/>
          <circle cx="141.15" cy="34.85" r="0.97" transform="translate(21.9 118.03) rotate(-48.76)" style="fill: #0dd4ff;opacity: 0.7000000000000001"/>
        </g>
        <g>
          <polygon points="37.32 77.88 87.07 52.86 113.57 66.29 64.91 90.77 37.32 77.88" style="fill-opacity: 0.7000000000000001;stroke: #fff;stroke-miterlimit: 10;fill: url(#linear-gradient)"/>
          <line x1="43.7" y1="47.7" x2="0.23" y2="70.57" style="fill: #fff;stroke-miterlimit: 10;stroke: url(#linear-gradient-2)"/>
          <polygon points="37.32 68.63 87.07 43.61 113.57 57.04 64.91 81.51 37.32 68.63" style="fill: #fff;fill-opacity: 0.7000000000000001;stroke-miterlimit: 10;stroke: url(#linear-gradient-3)"/>
          <polygon points="43.51 30.9 87.61 7.49 114.3 21.1 70.19 44.51 43.51 30.9" style="fill: none;stroke-miterlimit: 10;stroke-width: 1.05020245701054px;stroke: url(#linear-gradient-4)"/>
          <polyline points="114.16 21.04 114.16 47.78 70.69 70.65 43.28 57.04 43.28 31.17" style="fill: #fff;stroke-miterlimit: 10;stroke: url(#linear-gradient-5)"/>
          <line x1="70.74" y1="44.51" x2="70.74" y2="70.65" style="fill: none;stroke-miterlimit: 10;stroke-width: 0.806659519672394px;stroke: url(#linear-gradient-6)"/>
          <polyline points="88.5 61.54 88.5 43.56 97.28 39.2 97.28 56.82" style="fill: none;stroke-miterlimit: 10;stroke: url(#linear-gradient-7)"/>
          <polygon points="109.43 41.79 109.43 31.99 100.66 36.35 100.66 46.15 109.43 41.79" style="fill: none;stroke-miterlimit: 10;stroke: url(#linear-gradient-8)"/>
          <polygon points="83.78 54.86 83.78 45.06 75.68 49.41 75.68 59.22 83.78 54.86" style="fill: none;stroke-miterlimit: 10;stroke: url(#linear-gradient-9)"/>
          <polyline points="42.18 24.67 42.05 33.26 72.81 48.27" style="fill: #fff;stroke-miterlimit: 10;stroke: url(#linear-gradient-10)"/>
          <line x1="120.57" y1="2.14" x2="102.75" y2="11.25" style="fill: #fff;stroke-miterlimit: 10;stroke: url(#linear-gradient-11)"/>
          <polygon points="42.42 24.73 88.7 0.59 119.11 24.19 72.82 48.33 42.42 24.73" style="fill: #fff;stroke-miterlimit: 10;stroke: url(#linear-gradient-12)"/>
          <path d="M106.38,30.44,77.62,6.61l5.74-3,28.46,24.14Zm-7.45,3.9L70.36,10.41l-5.62,2.9L93.52,37.18ZM86,41.12,57.37,17l-5.69,3L80.54,44Z" style="opacity: 0.9;fill: url(#linear-gradient-13)"/>
          <line x1="70.95" y1="70.57" x2="114.15" y2="47.78" style="fill: #fff;stroke-miterlimit: 10;stroke: url(#linear-gradient-14)"/>
        </g>
      </g>
    </g>
  </g>
</svg>
