<svg xmlns="http://www.w3.org/2000/svg" xmlns:xlink="http://www.w3.org/1999/xlink" width="76.38" height="106.67" viewBox="0 0 76.38 106.67">
  <defs>
    <linearGradient id="linear-gradient" x1="22.15" y1="52.74" x2="54.48" y2="5.14" gradientUnits="userSpaceOnUse">
      <stop offset="0" stop-color="#1c79c4"/>
      <stop offset="0.51" stop-color="#0389ff"/>
      <stop offset="1" stop-color="#0dd4ff"/>
    </linearGradient>
    <linearGradient id="linear-gradient-2" x1="23.08" y1="51.76" x2="41.17" y2="25.12" xlink:href="#linear-gradient"/>
    <linearGradient id="linear-gradient-3" x1="56" y1="6.82" x2="56" y2="6.82" xlink:href="#linear-gradient"/>
    <linearGradient id="linear-gradient-4" x1="32.13" y1="19.32" x2="32.13" y2="19.32" xlink:href="#linear-gradient"/>
    <linearGradient id="linear-gradient-5" x1="30.85" y1="21.11" x2="45.57" y2="-0.56" xlink:href="#linear-gradient"/>
    <linearGradient id="linear-gradient-6" x1="42.45" y1="41.06" x2="42.45" y2="41.06" xlink:href="#linear-gradient"/>
    <linearGradient id="linear-gradient-7" x1="47.75" y1="42.82" x2="47.75" y2="42.82" xlink:href="#linear-gradient"/>
    <linearGradient id="linear-gradient-8" x1="11.88" y1="61.32" x2="11.88" y2="61.32" xlink:href="#linear-gradient"/>
    <linearGradient id="linear-gradient-9" x1="8.15" y1="84.85" x2="40.19" y2="37.68" xlink:href="#linear-gradient"/>
    <linearGradient id="linear-gradient-10" x1="5.88" y1="82.33" x2="17.87" y2="64.67" gradientUnits="userSpaceOnUse">
      <stop offset="0" stop-color="#1c79c4"/>
      <stop offset="1" stop-color="#0389ff"/>
    </linearGradient>
    <linearGradient id="linear-gradient-11" x1="13.43" y1="64.44" x2="34.32" y2="33.69" xlink:href="#linear-gradient"/>
    <linearGradient id="linear-gradient-12" x1="24.18" y1="56.31" x2="33.5" y2="42.59" xlink:href="#linear-gradient"/>
    <linearGradient id="linear-gradient-13" x1="12.93" y1="50.62" x2="22.25" y2="36.9" xlink:href="#linear-gradient"/>
    <linearGradient id="linear-gradient-14" x1="75.88" y1="54.7" x2="75.88" y2="54.7" xlink:href="#linear-gradient"/>
    <linearGradient id="linear-gradient-15" x1="49.86" y1="68.12" x2="49.86" y2="68.12" xlink:href="#linear-gradient"/>
    <linearGradient id="linear-gradient-16" x1="46.86" y1="85.62" x2="70.69" y2="50.54" xlink:href="#linear-gradient"/>
    <linearGradient id="linear-gradient-17" x1="45.53" y1="83.47" x2="54.19" y2="70.72" xlink:href="#linear-gradient"/>
    <linearGradient id="linear-gradient-18" x1="50.87" y1="70.9" x2="66.42" y2="48" xlink:href="#linear-gradient"/>
  </defs>
  <title>Asset 14</title>
  <g id="Layer_2" data-name="Layer 2">
    <g id="Art">
      <g>
        <g>
          <polygon points="20.25 50.82 20.25 13.32 44.13 0.57 56 6.82 56 44.32 56 44.85 56 45.13 32.13 57.57 20.25 50.82" style="fill: #fff;fill-opacity: 0.7000000000000001;stroke-miterlimit: 10;stroke: url(#linear-gradient)"/>
          <line x1="32.13" y1="57.57" x2="32.13" y2="19.32" style="fill: none;stroke-miterlimit: 10;stroke: url(#linear-gradient-2)"/>
          <path d="M56,6.82" style="fill: none;stroke-miterlimit: 10;stroke: url(#linear-gradient-3)"/>
          <path d="M32.13,19.32" style="fill: none;stroke-miterlimit: 10;stroke: url(#linear-gradient-4)"/>
          <polyline points="20.25 13.32 32.13 19.32 56 6.82" style="fill: none;stroke-miterlimit: 10;stroke: url(#linear-gradient-5)"/>
        </g>
        <g>
          <circle cx="51.13" cy="33.94" r="0.87" style="fill: #0dd4ff;fill-opacity: 0.7000000000000001"/>
          <circle cx="54.88" cy="26.19" r="0.87" style="fill: #0dd4ff;fill-opacity: 0.7000000000000001"/>
          <circle cx="58.88" cy="29.57" r="0.87" style="fill: #0dd4ff;fill-opacity: 0.7000000000000001"/>
          <circle cx="61.51" cy="25.19" r="0.87" style="fill: #0dd4ff;fill-opacity: 0.7000000000000001"/>
          <circle cx="61.13" cy="18.69" r="0.87" style="fill: #0dd4ff;fill-opacity: 0.7000000000000001"/>
        </g>
        <path d="M42.45,41.06" style="stroke: #fff;stroke-miterlimit: 10;stroke-width: 1.30191540718079px;fill: url(#linear-gradient-6)"/>
        <g>
          <path d="M47.75,42.82" style="fill: none;stroke-miterlimit: 10;stroke: url(#linear-gradient-7)"/>
          <path d="M11.88,61.32" style="fill: none;stroke-miterlimit: 10;stroke: url(#linear-gradient-8)"/>
          <polygon points="0 79.32 0 55.32 35.88 36.57 47.75 42.82 47.75 66.82 47.75 68.06 47.75 68.07 11.88 86.07 0 79.32" style="fill-opacity: 0.8;fill: url(#linear-gradient-9)"/>
          <line x1="11.88" y1="86.07" x2="11.88" y2="60.94" style="fill: none;stroke-miterlimit: 10;stroke: url(#linear-gradient-10)"/>
          <g>
            <polygon points="47.75 42.82 11.88 61.32 0 55.32 36 36.63 47.75 42.82" style="fill: #fff;opacity: 0.7000000000000001"/>
            <path d="M36,37.76l9.59,5L11.87,60.19,2.19,55.3,36,37.76m0-1.13L0,55.32l11.88,6,35.88-18.5L36,36.63Z" style="fill: url(#linear-gradient-11)"/>
          </g>
          <path d="M23.13,55.25V50.66a3.75,3.75,0,0,1,2-3.33l7.41-3.82a1.5,1.5,0,0,1,2.19,1.33v4.41" style="fill: none;stroke-miterlimit: 10;stroke: url(#linear-gradient-12)"/>
          <path d="M11.88,49.57V45a3.75,3.75,0,0,1,2-3.33l7.41-3.82a1.5,1.5,0,0,1,2.19,1.33v4.41" style="fill: none;stroke-miterlimit: 10;stroke: url(#linear-gradient-13)"/>
        </g>
        <g>
          <path d="M75.88,54.7" style="fill: none;stroke-miterlimit: 10;stroke: url(#linear-gradient-14)"/>
          <path d="M49.86,68.12" style="fill: none;stroke-miterlimit: 10;stroke: url(#linear-gradient-15)"/>
          <polygon points="41.25 81.17 41.25 63.77 67.26 50.17 75.88 54.7 75.88 72.11 75.88 73.01 75.88 73.01 49.86 86.07 41.25 81.17" style="fill: #fff;fill-opacity: 0.7000000000000001;stroke-miterlimit: 10;stroke: url(#linear-gradient-16)"/>
          <line x1="49.86" y1="86.07" x2="49.86" y2="68.12" style="fill: none;stroke-miterlimit: 10;stroke: url(#linear-gradient-17)"/>
          <polyline points="41.25 63.77 49.86 68.12 75.88 54.7" style="fill: none;stroke-miterlimit: 10;stroke: url(#linear-gradient-18)"/>
        </g>
        <g>
          <circle cx="27" cy="105.81" r="0.87" style="fill: #0dd4ff;fill-opacity: 0.7000000000000001"/>
          <circle cx="30.74" cy="98.06" r="0.87" style="fill: #0dd4ff;fill-opacity: 0.7000000000000001"/>
          <circle cx="34.74" cy="101.44" r="0.87" style="fill: #0dd4ff;fill-opacity: 0.7000000000000001"/>
          <circle cx="37.38" cy="97.06" r="0.87" style="fill: #0dd4ff;fill-opacity: 0.7000000000000001"/>
          <circle cx="36.99" cy="90.56" r="0.87" style="fill: #0dd4ff;fill-opacity: 0.7000000000000001"/>
        </g>
        <polyline points="55 55.94 63.63 61.32 64 79.57" style="fill: none;stroke: #0dd4ff;stroke-linecap: round;stroke-miterlimit: 10"/>
        <polyline points="45.25 83.94 45.25 66 71 52.16" style="fill: none;stroke: #0dd4ff;stroke-linecap: round;stroke-linejoin: round"/>
        <polygon points="57 70.69 51.75 73.44 51.75 69.69 57 66.94 57 70.69" style="fill: none;stroke: #0dd4ff;stroke-miterlimit: 10"/>
        <polygon points="40.88 26.82 35.63 29.57 35.63 21.69 40.88 18.94 40.88 26.82" style="fill: none;stroke: #0dd4ff;stroke-miterlimit: 10"/>
        <line x1="38.31" y1="22.91" x2="44.41" y2="19.72" style="fill: none;stroke: #0dd4ff;stroke-linecap: round;stroke-miterlimit: 10"/>
        <line x1="38.41" y1="24.88" x2="44.5" y2="21.69" style="fill: none;stroke: #0dd4ff;stroke-linecap: round;stroke-miterlimit: 10"/>
      </g>
    </g>
  </g>
</svg>
