<svg xmlns="http://www.w3.org/2000/svg" xmlns:xlink="http://www.w3.org/1999/xlink" width="76.38" height="82.38" viewBox="0 0 76.38 82.38">
  <defs>
    <linearGradient id="linear-gradient" x1="0.01" y1="41.19" x2="63.37" y2="41.19" gradientUnits="userSpaceOnUse">
      <stop offset="0" stop-color="#1c79c4"/>
      <stop offset="0.51" stop-color="#0389ff"/>
      <stop offset="1" stop-color="#0dd4ff"/>
    </linearGradient>
    <linearGradient id="linear-gradient-2" x1="0" y1="20.93" x2="62.81" y2="20.93" xlink:href="#linear-gradient"/>
    <linearGradient id="linear-gradient-3" x1="13.09" y1="46.73" x2="29.75" y2="46.73" xlink:href="#linear-gradient"/>
    <linearGradient id="linear-gradient-4" x1="18.15" y1="50.96" x2="31.73" y2="50.96" xlink:href="#linear-gradient"/>
    <linearGradient id="linear-gradient-5" x1="39.03" y1="34.73" x2="52.96" y2="34.73" xlink:href="#linear-gradient"/>
    <linearGradient id="linear-gradient-6" x1="23.61" y1="56.42" x2="37.19" y2="56.42" xlink:href="#linear-gradient"/>
    <linearGradient id="linear-gradient-7" x1="29.5" y1="62.31" x2="43.08" y2="62.31" xlink:href="#linear-gradient"/>
    <linearGradient id="linear-gradient-8" x1="56.55" y1="50.01" x2="76.38" y2="50.01" xlink:href="#linear-gradient"/>
  </defs>
  <title>Asset 17</title>
  <g id="Layer_2" data-name="Layer 2">
    <g id="Art">
      <g>
        <polygon points="62.87 49.95 0.51 81.56 0.51 32.42 62.87 0.81 62.87 49.95" style="fill: #fff;stroke-miterlimit: 10;stroke: url(#linear-gradient)"/>
        <line x1="0.23" y1="36.73" x2="62.58" y2="5.12" style="fill: #fff;stroke-miterlimit: 10;stroke: url(#linear-gradient-2)"/>
        <polygon points="29.25 51.05 13.59 58.72 13.59 42.41 29.25 34.74 29.25 51.05" style="fill: #fff;stroke-miterlimit: 10;stroke: url(#linear-gradient-3)"/>
        <g>
          <polygon points="31.73 54.95 18.15 61.41 18.15 46.97 31.73 40.51 31.73 54.95" style="opacity: 0.8;fill: url(#linear-gradient-4)"/>
          <polygon points="31.23 50.2 31.23 54.66 28.42 55.95 31.23 50.2" style="fill: #fff"/>
        </g>
        <path d="M52.4,33.54c-.48,4.88-3.75,9.38-7.29,10s-6-2.77-5.53-7.65,3.75-9.38,7.29-10S52.89,28.65,52.4,33.54Z" style="fill: #fff;stroke-miterlimit: 10;stroke: url(#linear-gradient-5)"/>
        <g>
          <polygon points="37.19 60.41 23.61 66.87 23.61 52.43 37.19 45.97 37.19 60.41" style="opacity: 0.8;fill: url(#linear-gradient-6)"/>
          <polygon points="36.69 55.66 36.69 60.12 33.88 61.41 36.69 55.66" style="fill: #fff"/>
        </g>
        <g>
          <polygon points="43.08 66.3 29.5 72.76 29.5 58.32 43.08 51.86 43.08 66.3" style="opacity: 0.8;fill: url(#linear-gradient-7)"/>
          <polygon points="42.58 61.56 42.58 66.01 39.77 67.3 42.58 61.56" style="fill: #fff"/>
        </g>
        <polygon points="56.55 46.72 56.55 50.24 58.27 49.27 58.27 47.74 66.03 43.42 66.03 60.59 62.59 62.45 62.59 64.16 71.21 59.41 71.21 57.88 67.76 59.71 67.76 42.48 67.85 42.48 74.65 38.77 74.65 40.76 76.38 39.79 76.38 35.85 56.55 46.72" style="fill: url(#linear-gradient-8)"/>
      </g>
    </g>
  </g>
</svg>
