<svg xmlns="http://www.w3.org/2000/svg" xmlns:xlink="http://www.w3.org/1999/xlink" width="89.7" height="90.42" viewBox="0 0 89.7 90.42">
  <defs>
    <linearGradient id="linear-gradient" x1="3.34" y1="51.8" x2="35.97" y2="51.8" gradientUnits="userSpaceOnUse">
      <stop offset="0" stop-color="#1c79c4"/>
      <stop offset="0.51" stop-color="#0389ff"/>
      <stop offset="1" stop-color="#0dd4ff"/>
    </linearGradient>
    <linearGradient id="linear-gradient-2" x1="4.96" y1="52.46" x2="35.97" y2="52.46" xlink:href="#linear-gradient"/>
    <linearGradient id="linear-gradient-3" x1="6.99" y1="52.81" x2="35.97" y2="52.81" xlink:href="#linear-gradient"/>
    <linearGradient id="linear-gradient-4" x1="8.91" y1="53.11" x2="35.97" y2="53.11" xlink:href="#linear-gradient"/>
    <linearGradient id="linear-gradient-5" x1="11.24" y1="53.42" x2="35.97" y2="53.42" xlink:href="#linear-gradient"/>
    <linearGradient id="linear-gradient-6" x1="13.67" y1="53.82" x2="35.97" y2="53.82" xlink:href="#linear-gradient"/>
    <linearGradient id="linear-gradient-7" x1="15128.7" y1="35.8" x2="16319.53" y2="35.8" gradientTransform="matrix(-1, 0, 0, 1, 16354.47, 0)" xlink:href="#linear-gradient"/>
    <linearGradient id="linear-gradient-8" x1="39.91" y1="38.05" x2="49.17" y2="13.28" xlink:href="#linear-gradient"/>
    <linearGradient id="linear-gradient-9" x1="43.44" y1="17.14" x2="45.73" y2="11.02" xlink:href="#linear-gradient"/>
    <linearGradient id="linear-gradient-10" x1="48" y1="56.39" x2="89.7" y2="56.39" xlink:href="#linear-gradient"/>
    <linearGradient id="linear-gradient-11" x1="51.04" y1="56.38" x2="85.85" y2="56.38" xlink:href="#linear-gradient"/>
    <linearGradient id="linear-gradient-12" x1="53.41" y1="56.38" x2="89.7" y2="56.38" xlink:href="#linear-gradient"/>
    <linearGradient id="linear-gradient-13" x1="76.15" y1="45.75" x2="85.85" y2="45.75" xlink:href="#linear-gradient"/>
    <linearGradient id="linear-gradient-14" x1="56.3" y1="50.1" x2="74.11" y2="50.1" xlink:href="#linear-gradient"/>
    <linearGradient id="linear-gradient-15" x1="56.61" y1="53.65" x2="74.62" y2="53.65" xlink:href="#linear-gradient"/>
    <linearGradient id="linear-gradient-16" x1="56.61" y1="56.28" x2="74.62" y2="56.28" xlink:href="#linear-gradient"/>
    <linearGradient id="linear-gradient-17" x1="56.61" y1="61.49" x2="74.31" y2="61.49" xlink:href="#linear-gradient"/>
    <linearGradient id="linear-gradient-18" x1="56.61" y1="61.24" x2="86.06" y2="61.24" xlink:href="#linear-gradient"/>
    <linearGradient id="linear-gradient-19" x1="56.61" y1="63.87" x2="86.06" y2="63.87" xlink:href="#linear-gradient"/>
    <linearGradient id="linear-gradient-20" x1="56.61" y1="66.51" x2="86.06" y2="66.51" xlink:href="#linear-gradient"/>
    <linearGradient id="linear-gradient-21" x1="56.61" y1="71.11" x2="78.77" y2="71.11" xlink:href="#linear-gradient"/>
  </defs>
  <title>Asset 13</title>
  <g id="Layer_2" data-name="Layer 2">
    <g id="Art">
      <g>
        <g>
          <path d="M.5,36.05,30.27,20.87l-.65-.29a.61.61,0,0,1,0-1.1l7.29-3.64a3,3,0,0,1,2.59-.06L40,16,69.15.82l.61,49.82L40.6,65.82l-1.82-1.22L27.84,70.07l3,1.22L1.11,85.87Z" style="fill: none;stroke: #0389ff;stroke-linecap: round;stroke-miterlimit: 10"/>
          <g>
            <polygon points="3.85 36.66 35.47 17.73 35.47 68.86 3.85 85.87 3.85 36.66" style="fill: #fff;fill-opacity: 0.7000000000000001;stroke-linecap: round;stroke-linejoin: round;stroke: url(#linear-gradient)"/>
            <polygon points="5.46 37.98 35.47 17.73 35.47 68.86 5.46 87.19 5.46 37.98" style="fill: #fff;fill-opacity: 0.7000000000000001;stroke-linecap: round;stroke-linejoin: round;stroke: url(#linear-gradient-2)"/>
            <polygon points="7.49 38.69 35.47 17.73 35.47 68.86 7.49 87.89 7.49 38.69" style="fill: #fff;fill-opacity: 0.7000000000000001;stroke-linecap: round;stroke-linejoin: round;stroke: url(#linear-gradient-3)"/>
            <polygon points="9.41 39.29 35.47 17.73 35.47 68.86 9.41 88.5 9.41 39.29" style="fill: #fff;fill-opacity: 0.7000000000000001;stroke-linecap: round;stroke-linejoin: round;stroke: url(#linear-gradient-4)"/>
            <polygon points="11.74 39.9 35.47 17.73 35.47 68.86 11.74 89.11 11.74 39.9" style="fill: #fff;fill-opacity: 0.7000000000000001;stroke-linecap: round;stroke-linejoin: round;stroke: url(#linear-gradient-5)"/>
            <polygon points="14.17 40.71 35.47 17.73 35.47 68.86 14.17 89.92 14.17 40.71" style="fill: #fff;fill-opacity: 0.7000000000000001;stroke-linecap: round;stroke-linejoin: round;stroke: url(#linear-gradient-6)"/>
          </g>
          <polygon points="72.93 2.74 35.44 17.73 35.44 68.86 72.93 51.95 72.93 2.74" style="fill: #fff;fill-opacity: 0.7000000000000001;stroke-linecap: round;stroke-linejoin: round;stroke: url(#linear-gradient-7)"/>
          <polygon points="39.48 15.78 47.74 11.6 49.71 12.36 49.71 35.24 46.07 32.41 42.27 39.5 41.66 16.61 39.48 15.78" style="opacity: 0.7000000000000001;fill: url(#linear-gradient-8)"/>
          <g>
            <circle cx="60.75" cy="32.06" r="0.7" style="fill: #0dd4ff;fill-opacity: 0.7000000000000001"/>
            <circle cx="63.78" cy="25.78" r="0.7" style="fill: #0dd4ff;fill-opacity: 0.7000000000000001"/>
            <circle cx="67.02" cy="28.53" r="0.7" style="fill: #0dd4ff;fill-opacity: 0.7000000000000001"/>
            <circle cx="69.16" cy="24.97" r="0.7" style="fill: #0dd4ff;fill-opacity: 0.7000000000000001"/>
            <circle cx="68.85" cy="19.71" r="0.7" style="fill: #0dd4ff;fill-opacity: 0.7000000000000001"/>
          </g>
          <g>
            <circle cx="71.43" cy="16.77" r="0.7" style="fill: #0dd4ff;fill-opacity: 0.7000000000000001"/>
            <circle cx="74.46" cy="10.49" r="0.7" style="fill: #0dd4ff;fill-opacity: 0.7000000000000001"/>
            <circle cx="77.7" cy="13.23" r="0.7" style="fill: #0dd4ff;fill-opacity: 0.7000000000000001"/>
            <circle cx="79.83" cy="9.68" r="0.7" style="fill: #0dd4ff;fill-opacity: 0.7000000000000001"/>
            <circle cx="79.52" cy="4.41" r="0.7" style="fill: #0dd4ff;fill-opacity: 0.7000000000000001"/>
          </g>
          <polygon points="49.71 12.36 41.59 16.58 39.47 15.75 47.84 11.53 49.71 12.36" style="opacity: 0.7000000000000001;fill: url(#linear-gradient-9)"/>
        </g>
        <g>
          <path d="M54,81.29,87,64.51a3.64,3.64,0,0,0,2-3.33l.25-29.7L54.78,50.1l.17,29.11q0,.17,0,.34c-.28,3.35-5.35,3-5.36-.34L48.5,49.09l34-18.22.61,3.85" style="fill: #fff;stroke-linecap: round;stroke-linejoin: round;stroke: url(#linear-gradient-10)"/>
          <polygon points="85.35 30.97 51.54 49.4 51.54 81.8 85.35 63.37 85.35 30.97" style="fill: #fff;stroke-linecap: round;stroke-linejoin: round;stroke: url(#linear-gradient-11)"/>
          <path d="M54,81.28,86,65a5.77,5.77,0,0,0,2.27-1.67A5.79,5.79,0,0,0,89,60l.23-28.56L54.8,50.09q-.11,7.45-.06,14.9,0,3.66.09,7.32c.05,3,.71,6.23-.92,8.94" style="fill: #fff;stroke-linecap: round;stroke-linejoin: round;stroke: url(#linear-gradient-12)"/>
          <polygon points="85.35 48.48 76.65 52.94 76.65 43.02 85.35 38.56 85.35 48.48" style="fill: #fff;stroke-linecap: round;stroke-linejoin: round;stroke: url(#linear-gradient-13)"/>
          <polygon points="73.61 47.07 56.8 55.57 56.8 53.14 73.61 44.64 73.61 47.07" style="fill: #fff;stroke-linecap: round;stroke-linejoin: round;stroke: url(#linear-gradient-14)"/>
          <line x1="57.11" y1="57.9" x2="74.12" y2="49.39" style="fill: none;stroke-linecap: round;stroke-linejoin: round;stroke: url(#linear-gradient-15)"/>
          <line x1="57.11" y1="60.53" x2="74.12" y2="52.03" style="fill: none;stroke-linecap: round;stroke-linejoin: round;stroke: url(#linear-gradient-16)"/>
          <line x1="57.11" y1="65.8" x2="73.81" y2="57.19" style="fill: none;stroke-linecap: round;stroke-linejoin: round;stroke: url(#linear-gradient-17)"/>
          <line x1="57.11" y1="68.43" x2="85.56" y2="54.05" style="fill: none;stroke-linecap: round;stroke-linejoin: round;stroke: url(#linear-gradient-18)"/>
          <line x1="57.11" y1="71.06" x2="85.56" y2="56.68" style="fill: none;stroke-linecap: round;stroke-linejoin: round;stroke: url(#linear-gradient-19)"/>
          <line x1="57.11" y1="73.69" x2="85.56" y2="59.32" style="fill: none;stroke-linecap: round;stroke-linejoin: round;stroke: url(#linear-gradient-20)"/>
          <line x1="57.11" y1="76.33" x2="78.27" y2="65.9" style="fill: none;stroke-linecap: round;stroke-linejoin: round;stroke: url(#linear-gradient-21)"/>
        </g>
      </g>
    </g>
  </g>
</svg>
