<svg id="Layer_1" data-name="Layer 1" xmlns="http://www.w3.org/2000/svg" xmlns:xlink="http://www.w3.org/1999/xlink" viewBox="0 0 150 150"><defs><style>.cls-1{opacity:0.9;fill:url(#linear-gradient);}.cls-2,.cls-4,.cls-5,.cls-6,.cls-7{fill:#fff;}.cls-2{fill-opacity:0.7;stroke-linecap:round;stroke-linejoin:round;stroke:url(#linear-gradient-2);}.cls-3{fill:none;stroke:url(#linear-gradient-3);}.cls-3,.cls-4,.cls-5,.cls-6,.cls-7{stroke-miterlimit:10;}.cls-4{stroke:url(#linear-gradient-4);}.cls-5{stroke:url(#linear-gradient-5);}.cls-6{stroke:url(#linear-gradient-6);}.cls-7{stroke:url(#linear-gradient-7);}.cls-8{fill:#0dd7ff;opacity:0.7;}</style><linearGradient id="linear-gradient" x1="27.54" y1="80.76" x2="72.06" y2="80.76" gradientUnits="userSpaceOnUse"><stop offset="0" stop-color="#1c79c4"/><stop offset="0.51" stop-color="#0389ff"/><stop offset="1" stop-color="#0dd4ff"/></linearGradient><linearGradient id="linear-gradient-2" x1="44.06" y1="84.02" x2="88.75" y2="84.02" gradientUnits="userSpaceOnUse"><stop offset="0" stop-color="#1c79c4"/><stop offset="0.51" stop-color="#0389ff"/><stop offset="1" stop-color="#0dd7ff"/></linearGradient><linearGradient id="linear-gradient-3" x1="69.48" y1="101.01" x2="118.06" y2="52.43" xlink:href="#linear-gradient-2"/><linearGradient id="linear-gradient-4" x1="73.97" y1="80.33" x2="79.96" y2="74.34" xlink:href="#linear-gradient-2"/><linearGradient id="linear-gradient-5" x1="57.78" y1="95.27" x2="63.77" y2="89.29" xlink:href="#linear-gradient-2"/><linearGradient id="linear-gradient-6" x1="93.89" y1="92.78" x2="99.88" y2="86.79" xlink:href="#linear-gradient-2"/><linearGradient id="linear-gradient-7" x1="123.77" y1="64.14" x2="129.76" y2="58.15" xlink:href="#linear-gradient-2"/></defs><title>who_icon_adtech</title><polygon class="cls-1" points="27.54 65.29 71.01 43.01 72.06 95.89 28.38 118.51 27.54 65.29"/><polygon class="cls-2" points="44.78 69.32 88.25 47.04 88.25 98.39 44.56 121 44.78 69.32"/><polyline class="cls-3" points="60.78 92.28 76.96 77.34 96.88 89.79 126.77 61.15"/><circle class="cls-4" cx="76.96" cy="77.34" r="3.74"/><circle class="cls-5" cx="60.78" cy="92.28" r="3.74"/><circle class="cls-6" cx="96.88" cy="89.79" r="3.74"/><circle class="cls-7" cx="126.76" cy="61.15" r="3.74"/><ellipse class="cls-8" cx="101.89" cy="58.55" rx="1.78" ry="1.77"/><ellipse class="cls-8" cx="109.59" cy="42.69" rx="1.78" ry="1.77"/><ellipse class="cls-8" cx="117.83" cy="49.61" rx="1.78" ry="1.77"/><ellipse class="cls-8" cx="123.25" cy="40.64" rx="1.78" ry="1.77"/><ellipse class="cls-8" cx="122.46" cy="27.34" rx="1.78" ry="1.77"/></svg>