<svg xmlns="http://www.w3.org/2000/svg" xmlns:xlink="http://www.w3.org/1999/xlink" viewBox="0 0 98.33 99.08"><defs><style>.cls-1,.cls-14,.cls-15,.cls-16,.cls-17,.cls-18{fill:none;}.cls-1{stroke:#0389ff;stroke-miterlimit:10;}.cls-1,.cls-10,.cls-11,.cls-12,.cls-13,.cls-14,.cls-15,.cls-16,.cls-17,.cls-18,.cls-2,.cls-3,.cls-4,.cls-5,.cls-9{stroke-linecap:round;}.cls-10,.cls-11,.cls-12,.cls-13,.cls-2,.cls-3,.cls-4,.cls-5,.cls-9{fill:#fff;}.cls-2,.cls-3,.cls-4,.cls-5,.cls-7{fill-opacity:0.7;}.cls-10,.cls-11,.cls-12,.cls-13,.cls-14,.cls-15,.cls-16,.cls-17,.cls-18,.cls-2,.cls-3,.cls-4,.cls-5,.cls-9{stroke-linejoin:round;}.cls-2{stroke:url(#linear-gradient);}.cls-3{stroke:url(#linear-gradient-2);}.cls-4{stroke:url(#linear-gradient-3);}.cls-5{stroke:url(#linear-gradient-4);}.cls-6,.cls-8{opacity:0.7;}.cls-6{fill:url(#linear-gradient-5);}.cls-7{fill:#0dd4ff;}.cls-8{fill:url(#linear-gradient-6);}.cls-9{stroke:url(#linear-gradient-7);}.cls-10{stroke:url(#linear-gradient-8);}.cls-11{stroke:url(#linear-gradient-9);}.cls-12{stroke:url(#linear-gradient-10);}.cls-13{stroke:url(#linear-gradient-11);}.cls-14{stroke:url(#linear-gradient-12);}.cls-15{stroke:url(#linear-gradient-13);}.cls-16{stroke:url(#linear-gradient-14);}.cls-17{stroke:url(#linear-gradient-15);}.cls-18{stroke:url(#linear-gradient-16);}</style><linearGradient id="linear-gradient" x1="3.67" y1="56.76" x2="39.37" y2="56.76" gradientUnits="userSpaceOnUse"><stop offset="0" stop-color="#1c79c4"/><stop offset="0.51" stop-color="#0389ff"/><stop offset="1" stop-color="#0dd4ff"/></linearGradient><linearGradient id="linear-gradient-2" x1="7.67" y1="57.87" x2="39.37" y2="57.87" xlink:href="#linear-gradient"/><linearGradient id="linear-gradient-3" x1="15" y1="58.98" x2="39.37" y2="58.98" xlink:href="#linear-gradient"/><linearGradient id="linear-gradient-4" x1="15138.83" y1="39.2" x2="16336.38" y2="39.2" gradientTransform="matrix(-1, 0, 0, 1, 16374.72, 0)" xlink:href="#linear-gradient"/><linearGradient id="linear-gradient-5" x1="43.74" y1="41.67" x2="53.9" y2="14.5" xlink:href="#linear-gradient"/><linearGradient id="linear-gradient-6" x1="47.62" y1="18.72" x2="50.12" y2="12.02" xlink:href="#linear-gradient"/><linearGradient id="linear-gradient-7" x1="52.67" y1="61.79" x2="98.33" y2="61.79" xlink:href="#linear-gradient"/><linearGradient id="linear-gradient-8" x1="56" y1="61.78" x2="94.11" y2="61.78" xlink:href="#linear-gradient"/><linearGradient id="linear-gradient-9" x1="58.6" y1="61.78" x2="98.32" y2="61.78" xlink:href="#linear-gradient"/><linearGradient id="linear-gradient-10" x1="83.55" y1="50.12" x2="94.11" y2="50.12" xlink:href="#linear-gradient"/><linearGradient id="linear-gradient-11" x1="61.78" y1="54.9" x2="81.22" y2="54.9" xlink:href="#linear-gradient"/><linearGradient id="linear-gradient-12" x1="62.11" y1="58.78" x2="81.77" y2="58.78" xlink:href="#linear-gradient"/><linearGradient id="linear-gradient-13" x1="62.11" y1="67.39" x2="81.44" y2="67.39" xlink:href="#linear-gradient"/><linearGradient id="linear-gradient-14" x1="62.11" y1="67.12" x2="94.33" y2="67.12" xlink:href="#linear-gradient"/><linearGradient id="linear-gradient-15" x1="62.11" y1="70.01" x2="94.33" y2="70.01" xlink:href="#linear-gradient"/><linearGradient id="linear-gradient-16" x1="62.11" y1="77.95" x2="86.33" y2="77.95" xlink:href="#linear-gradient"/></defs><title>who_icon_publishers</title><g id="Layer_2" data-name="Layer 2"><g id="Art"><path class="cls-1" d="M.5,39.48,33.17,22.82l-.71-.32a.67.67,0,0,1,0-1.21l8-4a3.33,3.33,0,0,1,2.84-.06l.56.25L75.83.82l.67,54.66-32,16.66-2-1.33-12,6,3.33,1.33-32.66,16Z"/><polygon class="cls-2" points="4.17 40.15 38.87 19.37 38.87 75.48 4.17 94.14 4.17 40.15"/><polygon class="cls-3" points="8.17 42.37 38.87 19.37 38.87 75.48 8.17 96.36 8.17 42.37"/><polygon class="cls-4" points="15.5 44.59 38.87 19.37 38.87 75.48 15.5 98.58 15.5 44.59"/><polygon class="cls-5" points="79.98 2.93 38.83 19.37 38.83 75.48 79.98 56.92 79.98 2.93"/><polygon class="cls-6" points="43.27 17.23 52.33 12.65 54.5 13.48 54.5 38.59 50.5 35.48 46.33 43.26 45.66 18.15 43.27 17.23"/><circle class="cls-7" cx="66.61" cy="35.1" r="0.77"/><circle class="cls-7" cx="69.94" cy="28.21" r="0.77"/><circle class="cls-7" cx="73.49" cy="31.22" r="0.77"/><circle class="cls-7" cx="75.83" cy="27.32" r="0.77"/><circle class="cls-7" cx="75.49" cy="21.55" r="0.77"/><circle class="cls-7" cx="78.33" cy="18.32" r="0.77"/><circle class="cls-7" cx="81.65" cy="11.43" r="0.77"/><circle class="cls-7" cx="85.21" cy="14.44" r="0.77"/><circle class="cls-7" cx="87.55" cy="10.54" r="0.77"/><circle class="cls-7" cx="87.21" cy="4.76" r="0.77"/><polygon class="cls-8" points="54.5 13.48 45.59 18.11 43.26 17.21 52.45 12.57 54.5 13.48"/><path class="cls-9" d="M59.17,89.11,95.36,70.7A4,4,0,0,0,97.55,67l.28-32.59L60.05,54.9l.18,31.94q0,.19,0,.37c-.31,3.67-5.87,3.31-5.88-.37L53.17,53.79l37.33-20L91.16,38"/><polygon class="cls-10" points="93.61 33.9 56.5 54.12 56.5 89.67 93.61 69.45 93.61 33.9"/><path class="cls-11" d="M59.16,89.11,94.33,71.24a6.33,6.33,0,0,0,2.49-1.84,6.35,6.35,0,0,0,.75-3.6l.25-31.34L60.08,54.88Q60,63.06,60,71.23q0,4,.1,8c.06,3.29.78,6.83-1,9.81"/><polygon class="cls-12" points="93.61 53.12 84.05 58.01 84.05 47.12 93.61 42.23 93.61 53.12"/><polygon class="cls-13" points="80.72 51.56 62.28 60.9 62.28 58.23 80.72 48.9 80.72 51.56"/><line class="cls-14" x1="62.61" y1="63.45" x2="81.27" y2="54.12"/><line class="cls-15" x1="62.61" y1="72.12" x2="80.94" y2="62.67"/><line class="cls-16" x1="62.61" y1="75" x2="93.83" y2="59.23"/><line class="cls-17" x1="62.61" y1="77.89" x2="93.83" y2="62.12"/><line class="cls-18" x1="62.61" y1="83.67" x2="85.83" y2="72.23"/></g></g></svg>