<svg xmlns="http://www.w3.org/2000/svg" xmlns:xlink="http://www.w3.org/1999/xlink" viewBox="0 0 83.19 67.56"><defs><style>.cls-1{opacity:0.9;fill:url(#linear-gradient);}.cls-2,.cls-4,.cls-5,.cls-6,.cls-7{fill:#fff;}.cls-2,.cls-8{fill-opacity:0.7;}.cls-2,.cls-3,.cls-4,.cls-5,.cls-6,.cls-7{stroke-miterlimit:10;}.cls-2{stroke:url(#linear-gradient-2);}.cls-3{fill:none;stroke:url(#linear-gradient-3);}.cls-4{stroke:url(#linear-gradient-4);}.cls-5{stroke:url(#linear-gradient-5);}.cls-6{stroke:url(#linear-gradient-6);}.cls-7{stroke:url(#linear-gradient-7);}.cls-8{fill:#0dd4ff;}</style><linearGradient id="linear-gradient" y1="34.43" x2="35.76" y2="34.43" gradientUnits="userSpaceOnUse"><stop offset="0" stop-color="#1c79c4"/><stop offset="0.51" stop-color="#0389ff"/><stop offset="1" stop-color="#0dd4ff"/></linearGradient><linearGradient id="linear-gradient-2" x1="13.17" y1="37.05" x2="49.26" y2="37.05" gradientUnits="userSpaceOnUse"><stop offset="0" stop-color="#1c79c4"/><stop offset="0.51" stop-color="#0389ff"/><stop offset="1" stop-color="#0dd7ff"/></linearGradient><linearGradient id="linear-gradient-3" x1="33.68" y1="50.69" x2="72.7" y2="11.67" xlink:href="#linear-gradient-2"/><linearGradient id="linear-gradient-4" x1="37.22" y1="34.15" x2="42.17" y2="29.2" xlink:href="#linear-gradient-2"/><linearGradient id="linear-gradient-5" x1="24.22" y1="46.15" x2="29.17" y2="41.2" xlink:href="#linear-gradient-2"/><linearGradient id="linear-gradient-6" x1="53.22" y1="44.15" x2="58.17" y2="39.2" xlink:href="#linear-gradient-2"/><linearGradient id="linear-gradient-7" x1="77.22" y1="21.15" x2="82.17" y2="16.2" xlink:href="#linear-gradient-2"/></defs><title>who_icon_adtech</title><g id="Layer_2" data-name="Layer 2"><g id="Art"><polygon class="cls-1" points="0 22.01 34.91 4.11 35.76 46.58 0.67 64.74 0 22.01"/><polygon class="cls-2" points="13.85 25.24 48.76 7.35 48.76 48.58 13.67 66.74 13.85 25.24"/><polyline class="cls-3" points="26.69 43.68 39.69 31.68 55.69 41.68 79.69 18.68"/><circle class="cls-4" cx="39.69" cy="31.68" r="3"/><circle class="cls-5" cx="26.69" cy="43.68" r="3"/><circle class="cls-6" cx="55.69" cy="41.68" r="3"/><circle class="cls-7" cx="79.69" cy="18.68" r="3"/><circle class="cls-8" cx="68.24" cy="0.96" r="0.96" transform="translate(2.11 17.81) rotate(-15.1)"/><circle class="cls-8" cx="66.49" cy="10.29" r="0.96" transform="translate(-0.38 17.67) rotate(-15.1)"/><circle class="cls-8" cx="61.25" cy="7.83" r="0.96" transform="translate(0.07 16.23) rotate(-15.1)"/><circle class="cls-8" cx="59.71" cy="13.26" r="0.96" transform="translate(-1.39 16.01) rotate(-15.1)"/><circle class="cls-8" cx="61.98" cy="20.07" r="0.96" transform="translate(-3.09 16.84) rotate(-15.1)"/></g></g></svg>