<svg id="Layer_1" data-name="Layer 1" xmlns="http://www.w3.org/2000/svg" xmlns:xlink="http://www.w3.org/1999/xlink" viewBox="0 0 150 150"><defs><style>.cls-1,.cls-2,.cls-5,.cls-6{fill:#fff;}.cls-1,.cls-2,.cls-4{stroke-miterlimit:10;}.cls-1{stroke:url(#linear-gradient);}.cls-2,.cls-5,.cls-6,.cls-7{fill-opacity:0.7;}.cls-2{stroke:url(#linear-gradient-2);}.cls-3{opacity:0.9;fill:url(#linear-gradient-3);}.cls-4{fill:none;stroke:url(#linear-gradient-4);}.cls-4,.cls-5,.cls-6{stroke-linecap:round;}.cls-5,.cls-6{stroke-linejoin:round;}.cls-5{stroke:url(#linear-gradient-5);}.cls-6{stroke:url(#linear-gradient-6);}.cls-7{fill:url(#linear-gradient-7);}.cls-8{fill:#0dd7ff;opacity:0.7;}</style><linearGradient id="linear-gradient" x1="23.76" y1="107.53" x2="130.3" y2="107.53" gradientTransform="translate(-0.07 0.08) rotate(-0.05)" gradientUnits="userSpaceOnUse"><stop offset="0" stop-color="#1c79c4"/><stop offset="0.51" stop-color="#0389ff"/><stop offset="1" stop-color="#0dd4ff"/></linearGradient><linearGradient id="linear-gradient-2" x1="24.03" y1="94.02" x2="129.98" y2="94.02" xlink:href="#linear-gradient"/><linearGradient id="linear-gradient-3" x1="52.35" y1="107.11" x2="94.34" y2="76.6" gradientTransform="translate(-0.07 0.08) rotate(-0.05)" gradientUnits="userSpaceOnUse"><stop offset="0" stop-color="#1c79c4"/><stop offset="0.51" stop-color="#0389ff"/><stop offset="1" stop-color="#0dd4ff"/></linearGradient><linearGradient id="linear-gradient-4" x1="101.4" y1="106.15" x2="111.96" y2="106.15" xlink:href="#linear-gradient"/><linearGradient id="linear-gradient-5" x1="30.43" y1="54.58" x2="72.53" y2="54.58" xlink:href="#linear-gradient"/><linearGradient id="linear-gradient-6" x1="67.31" y1="69.33" x2="109.41" y2="69.33" xlink:href="#linear-gradient"/><linearGradient id="linear-gradient-7" x1="80.44" y1="68.8" x2="96.64" y2="68.8" xlink:href="#linear-gradient"/></defs><title>who_icon_advertisers</title><polyline class="cls-1" points="24.27 86.59 24.74 94.74 92.43 128 129.81 107.74 129.43 100.5"/><polygon class="cls-2" points="25.18 86.67 93.67 119.71 128.9 100.62 62.36 68.35 25.18 86.67"/><polygon class="cls-3" points="37.79 87.12 84.67 109.99 108.92 96.63 63.24 74.58 37.79 87.12"/><line class="cls-4" x1="101.93" y1="108.89" x2="111.48" y2="103.38"/><path class="cls-5" d="M56.33,75.62,30.92,63.71l0-37.69L72,45.52l0,37.69L62.55,78.4ZM51.45,41.1,36,33.38l0,27.39,15.46,7.71Zm3.87,4.21,11.6,5.61m-11.59-.69,11.6,5.61m-11.59-.69,8.52,4.07"/><path class="cls-6" d="M77.31,93.14,67.83,98l0-37.69,41.08-19.58,0,37.69-25.39,12Z"/><polygon class="cls-7" points="89.09 62.76 87.08 57.88 86.6 64.46 82.63 63.2 84.85 67.81 80.44 70.65 84.51 71.55 81.33 77.4 85.7 74.23 84.98 80.86 87.98 74.84 89.98 79.72 90.46 73.14 94.43 74.41 92.21 69.79 96.63 66.95 92.55 66.05 95.73 60.2 91.36 63.37 92.09 56.74 89.09 62.76"/><ellipse class="cls-8" cx="140.83" cy="52.58" rx="1.83" ry="1.82" transform="translate(-0.87 2.39) rotate(-0.97)"/><ellipse class="cls-8" cx="133.19" cy="69.02" rx="1.83" ry="1.82" transform="translate(-1.15 2.26) rotate(-0.97)"/><ellipse class="cls-8" cx="124.6" cy="62.04" rx="1.83" ry="1.82" transform="translate(-1.03 2.11) rotate(-0.97)"/><ellipse class="cls-8" cx="119.18" cy="71.36" rx="1.83" ry="1.82" transform="translate(-1.19 2.02) rotate(-0.97)"/><ellipse class="cls-8" cx="120.23" cy="85.02" rx="1.83" ry="1.82" transform="translate(-1.42 2.04) rotate(-0.97)"/></svg>