<svg id="Layer_1" data-name="Layer 1" xmlns="http://www.w3.org/2000/svg" xmlns:xlink="http://www.w3.org/1999/xlink" viewBox="0 0 150 150"><defs><style>.cls-1,.cls-13,.cls-14,.cls-15,.cls-16,.cls-17{fill:none;}.cls-1{stroke:#0389ff;}.cls-1,.cls-10,.cls-11,.cls-12,.cls-13,.cls-14,.cls-15,.cls-16,.cls-17,.cls-2,.cls-3,.cls-4,.cls-5,.cls-8,.cls-9{stroke-linecap:round;}.cls-1,.cls-2,.cls-3,.cls-4,.cls-5{stroke-miterlimit:10;}.cls-10,.cls-11,.cls-12,.cls-2,.cls-3,.cls-4,.cls-5,.cls-8,.cls-9{fill:#fff;}.cls-2,.cls-3,.cls-4,.cls-5{fill-opacity:0.7;}.cls-2{stroke:url(#linear-gradient);}.cls-3{stroke:url(#linear-gradient-2);}.cls-4{stroke:url(#linear-gradient-3);}.cls-5{stroke:url(#linear-gradient-4);}.cls-6,.cls-7{opacity:0.7;}.cls-6{fill:url(#linear-gradient-5);}.cls-7{fill:url(#linear-gradient-6);}.cls-10,.cls-11,.cls-12,.cls-13,.cls-14,.cls-15,.cls-16,.cls-17,.cls-8,.cls-9{stroke-linejoin:round;}.cls-8{stroke:url(#linear-gradient-7);}.cls-9{stroke:url(#linear-gradient-8);}.cls-10{stroke:url(#linear-gradient-9);}.cls-11{stroke:url(#linear-gradient-10);}.cls-12{stroke:url(#linear-gradient-11);}.cls-13{stroke:url(#linear-gradient-12);}.cls-14{stroke:url(#linear-gradient-13);}.cls-15{stroke:url(#linear-gradient-14);}.cls-16{stroke:url(#linear-gradient-15);}.cls-17{stroke:url(#linear-gradient-16);}</style><linearGradient id="linear-gradient" x1="20.87" y1="83.67" x2="63.23" y2="83.67" gradientUnits="userSpaceOnUse"><stop offset="0" stop-color="#1c79c4"/><stop offset="0.51" stop-color="#0389ff"/><stop offset="1" stop-color="#0dd4ff"/></linearGradient><linearGradient id="linear-gradient-2" x1="25.64" y1="84.98" x2="63.23" y2="84.98" xlink:href="#linear-gradient"/><linearGradient id="linear-gradient-3" x1="34.38" y1="86.29" x2="63.23" y2="86.29" xlink:href="#linear-gradient"/><linearGradient id="linear-gradient-4" x1="6980.83" y1="62.88" x2="7030.87" y2="62.88" gradientTransform="matrix(-1, 0, 0, 1, 7093.06, 0)" xlink:href="#linear-gradient"/><linearGradient id="linear-gradient-5" x1="68.56" y1="65.8" x2="80.62" y2="33.54" xlink:href="#linear-gradient"/><linearGradient id="linear-gradient-6" x1="73.16" y1="38.57" x2="76.14" y2="30.6" xlink:href="#linear-gradient"/><linearGradient id="linear-gradient-7" x1="79.27" y1="89.66" x2="133.5" y2="89.66" xlink:href="#linear-gradient"/><linearGradient id="linear-gradient-8" x1="83.25" y1="89.66" x2="128.47" y2="89.66" xlink:href="#linear-gradient"/><linearGradient id="linear-gradient-9" x1="86.35" y1="89.65" x2="133.5" y2="89.65" xlink:href="#linear-gradient"/><linearGradient id="linear-gradient-10" x1="116.08" y1="75.81" x2="128.47" y2="75.81" xlink:href="#linear-gradient"/><linearGradient id="linear-gradient-11" x1="90.13" y1="81.48" x2="113.11" y2="81.48" xlink:href="#linear-gradient"/><linearGradient id="linear-gradient-12" x1="90.53" y1="86.1" x2="113.77" y2="86.1" xlink:href="#linear-gradient"/><linearGradient id="linear-gradient-13" x1="90.53" y1="96.31" x2="113.38" y2="96.31" xlink:href="#linear-gradient"/><linearGradient id="linear-gradient-14" x1="90.53" y1="95.98" x2="128.74" y2="95.98" xlink:href="#linear-gradient"/><linearGradient id="linear-gradient-15" x1="90.53" y1="99.41" x2="128.74" y2="99.41" xlink:href="#linear-gradient"/><linearGradient id="linear-gradient-16" x1="90.53" y1="108.84" x2="119.2" y2="108.84" xlink:href="#linear-gradient"/></defs><title>who_icon_publishers</title><path class="cls-1" d="M17,63.19,55.93,43.42,55.09,43a.79.79,0,0,1,0-1.43l9.53-4.74A4,4,0,0,1,68,36.8l.67.3,38.14-19.77.79,64.85L69.44,101.95l-2.38-1.58-14.3,7.12,4,1.58L17.8,128Z"/><polygon class="cls-2" points="21.37 63.98 62.73 39.33 62.73 105.9 21.37 128.05 21.37 63.98"/><polygon class="cls-3" points="26.14 66.62 62.73 39.33 62.73 105.9 26.14 130.68 26.14 66.62"/><polygon class="cls-4" points="34.88 69.26 62.73 39.33 62.73 105.9 34.88 133.32 34.88 69.26"/><polygon class="cls-5" points="111.73 19.82 62.69 39.33 62.69 105.9 111.73 83.89 111.73 19.82"/><polygon class="cls-6" points="67.97 36.8 78.78 31.36 81.36 32.35 81.36 62.14 76.59 58.45 71.63 67.67 70.83 37.88 67.97 36.8"/><polygon class="cls-7" points="81.36 32.35 70.74 37.84 67.97 36.76 78.92 31.27 81.36 32.35"/><path class="cls-8" d="M86.92,122.08l43.14-21.85a4.74,4.74,0,0,0,2.6-4.34L133,57.23,88,81.48l.22,37.9q0,.22,0,.44c-.37,4.36-7,3.93-7-.44l-1.4-39.22,44.49-23.73.79,5"/><polygon class="cls-9" points="127.97 56.57 83.75 80.56 83.75 122.74 127.97 98.75 127.97 56.57"/><path class="cls-10" d="M86.92,122.08l41.91-21.21a7.54,7.54,0,0,0,3-2.18,7.5,7.5,0,0,0,.9-4.27l.3-37.18L88,81.46q-.14,9.7-.08,19.4,0,4.77.12,9.54c.07,3.9.93,8.11-1.21,11.64"/><polygon class="cls-11" points="127.97 79.37 116.58 85.17 116.58 72.26 127.97 66.46 127.97 79.37"/><polygon class="cls-12" points="112.61 77.53 90.63 88.6 90.63 85.44 112.61 74.36 112.61 77.53"/><line class="cls-13" x1="91.03" y1="91.63" x2="113.27" y2="80.56"/><line class="cls-14" x1="91.03" y1="101.91" x2="112.88" y2="90.71"/><line class="cls-15" x1="91.03" y1="105.34" x2="128.24" y2="86.62"/><line class="cls-16" x1="91.03" y1="108.77" x2="128.24" y2="90.05"/><line class="cls-17" x1="91.03" y1="115.62" x2="118.7" y2="102.05"/></svg>