<svg xmlns="http://www.w3.org/2000/svg" xmlns:xlink="http://www.w3.org/1999/xlink" viewBox="0 0 90.42 81.22"><defs><style>.cls-1,.cls-2,.cls-6,.cls-7{fill:#fff;}.cls-1,.cls-2,.cls-4{stroke-miterlimit:10;}.cls-1{stroke:url(#linear-gradient);}.cls-2,.cls-5,.cls-6,.cls-7{fill-opacity:0.7;}.cls-2{stroke:url(#linear-gradient-2);}.cls-3{opacity:0.9;fill:url(#linear-gradient-3);}.cls-4{fill:none;stroke:url(#linear-gradient-4);}.cls-4,.cls-6,.cls-7{stroke-linecap:round;}.cls-5{fill:#0dd4ff;}.cls-6,.cls-7{stroke-linejoin:round;}.cls-6{stroke:url(#linear-gradient-5);}.cls-7{stroke:url(#linear-gradient-6);}</style><linearGradient id="linear-gradient" x1="6.56" y1="64.63" x2="90.42" y2="64.63" gradientUnits="userSpaceOnUse"><stop offset="0" stop-color="#1c79c4"/><stop offset="0.51" stop-color="#0389ff"/><stop offset="1" stop-color="#0dd4ff"/></linearGradient><linearGradient id="linear-gradient-2" x1="6.64" y1="53.96" x2="90.3" y2="53.96" xlink:href="#linear-gradient"/><linearGradient id="linear-gradient-3" x1="29.11" y1="64.24" x2="62.08" y2="40.28" gradientUnits="userSpaceOnUse"><stop offset="0" stop-color="#1c79c4"/><stop offset="0.51" stop-color="#0389ff"/><stop offset="1" stop-color="#0dd4ff"/></linearGradient><linearGradient id="linear-gradient-4" x1="67.52" y1="63.49" x2="76.03" y2="63.49" xlink:href="#linear-gradient"/><linearGradient id="linear-gradient-5" x1="11.8" y1="22.98" x2="45.07" y2="22.98" xlink:href="#linear-gradient"/><linearGradient id="linear-gradient-6" x1="40.76" y1="34.56" x2="74.03" y2="34.56" xlink:href="#linear-gradient"/></defs><title>who_icon_advertisers</title><g id="Layer_2" data-name="Layer 2"><g id="Art"><polyline class="cls-1" points="7.06 48.08 7.42 54.48 60.55 80.65 89.91 64.76 89.62 59.07"/><polygon class="cls-2" points="7.78 48.14 61.53 74.14 89.2 59.17 36.98 33.78 7.78 48.14"/><polygon class="cls-3" points="17.68 48.5 54.46 66.5 73.52 56.02 37.66 38.67 17.68 48.5"/><line class="cls-4" x1="68.02" y1="65.65" x2="75.53" y2="61.33"/><circle class="cls-5" cx="77.73" cy="36.25" r="0.96"/><circle class="cls-5" cx="81.86" cy="27.7" r="0.96"/><circle class="cls-5" cx="86.27" cy="31.43" r="0.96"/><circle class="cls-5" cx="89.18" cy="26.59" r="0.96"/><circle class="cls-5" cx="88.75" cy="19.42" r="0.96"/><circle class="cls-5" cx="2.65" cy="3.32" r="0.96" transform="translate(-1.59 3.26) rotate(-50.62)"/><circle class="cls-5" cx="6.64" cy="11.93" r="0.96" transform="translate(-6.79 9.49) rotate(-50.62)"/><circle class="cls-5" cx="0.96" cy="12.97" r="0.96" transform="matrix(0.63, -0.77, 0.77, 0.63, -9.68, 5.48)"/><circle class="cls-5" cx="2.85" cy="18.29" r="0.96" transform="translate(-13.09 8.89) rotate(-50.62)"/><circle class="cls-5" cx="8.66" cy="22.51" r="0.96" transform="translate(-14.23 14.92) rotate(-50.62)"/><path class="cls-6" d="M32.24,39.49,12.3,30.11V.5L44.57,15.85V45.46l-7.45-3.78ZM28.43,12.36,16.3,6.29V27.8l12.14,6.07Zm3,3.31,9.1,4.41m-9.1-.55,9.1,4.41m-9.1-.55,6.69,3.21"/><path class="cls-7" d="M48.7,53.26,41.26,57V27.43L73.53,12.08V41.69L53.58,51.07Z"/></g></g></svg>