<svg viewBox="0 0 65 65" xmlns="http://www.w3.org/2000/svg"><g stroke="#00e676" stroke-miterlimit="10"><path d="m41.63 33.11a9.15 9.15 0 1 0 -16.46 5.5 16.83 16.83 0 0 1 3.39 9.61h7.84a16.83 16.83 0 0 1 3.39-9.61 9.1 9.1 0 0 0 1.84-5.5z" fill="#fff"/><g fill="none"><path d="m34.39 33.14a1.29 1.29 0 1 1 1.29 1.29h-6.4a1.29 1.29 0 1 1 1.29-1.29v15.08h3.82z"/><g stroke-linecap="round"><path d="m32.48 11.86v7.07"/><path d="m17.9 16.91 5 5"/><path d="m11.88 31.5h7.07"/><path d="m53.12 31.46h-7.07"/><path d="m47.07 16.88-5 5"/></g><path d="m28.52 48.22h7.92v3.62h-7.92z"/></g></g></svg>