<svg viewBox="0 0 65 65" xmlns="http://www.w3.org/2000/svg" xmlns:xlink="http://www.w3.org/1999/xlink"><symbol id="a" viewBox="0 0 36.32 32.27"><path d="m.5 31.77 17.66-31.27 17.66 31.27z" fill="#fff" fill-opacity=".7" stroke="#ff5252" stroke-linejoin="round"/><circle cx="18.16" cy="24.8" fill="#fff" opacity=".7" r="1.53"/><path d="m18.16 23.77a1 1 0 1 1 -1 1 1 1 0 0 1 1-1m0-1a2 2 0 1 0 2 2 2 2 0 0 0 -2-2z" fill="#ff5252"/><path d="m17 21.23-.79-8.22h3.9l-.79 8.22z" fill="#fff" opacity=".7"/><path d="m19.56 13.51-.69 7.22h-1.42l-.69-7.22h2.79m1.1-1h-5l.1 1.09.69 7.22.09.91h3.24l.09-.91.69-7.22z" fill="#ff5252"/></symbol><use height="32.27" transform="translate(14.15 15.48)" width="36.32" xlink:href="#a"/></svg>