<svg viewBox="0 0 65 65" xmlns="http://www.w3.org/2000/svg"><g stroke="#00e676" stroke-miterlimit="10"><path d="M41.63 33.11a9.15 9.15 0 10-16.46 5.5 16.83 16.83 0 013.39 9.61h7.84a16.83 16.83 0 013.39-9.61 9.1 9.1 0 001.84-5.5z" fill="#fff"/><g fill="none"><path d="M34.39 33.14a1.29 1.29 0 111.29 1.29h-6.4a1.29 1.29 0 111.29-1.29v15.08h3.82z"/><g stroke-linecap="round"><path d="M32.48 11.86v7.07M17.9 16.91l5 5M11.88 31.5h7.07M53.12 31.46h-7.07M47.07 16.88l-5 5"/></g><path d="M28.52 48.22h7.92v3.62h-7.92z"/></g></g></svg>