<svg xmlns="http://www.w3.org/2000/svg" viewBox="0 0 65 65"><defs><style>.cls-1{fill:#fff;fill-opacity:0.7;}.cls-1,.cls-2,.cls-3,.cls-4{stroke:#0389ff;}.cls-1,.cls-3,.cls-4{stroke-miterlimit:10;}.cls-2,.cls-3,.cls-4{fill:none;}.cls-2{stroke-linejoin:round;}.cls-4{stroke-linecap:round;}</style></defs><title>icon_note1</title><g id="Layer_1" data-name="Layer 1"><polygon class="cls-1" points="40.41 45.75 40.41 45.75 18.28 45.75 18.28 18.26 45.77 18.26 45.77 41.31 40.41 45.75"/><polygon class="cls-2" points="45.77 41.28 40.64 41.31 40.74 45.75 45.77 41.28"/><line class="cls-3" x1="22.2" y1="28.36" x2="39.35" y2="28.36"/><line class="cls-3" x1="22.2" y1="31.5" x2="33.79" y2="31.5"/><line class="cls-3" x1="22.2" y1="34.64" x2="36.35" y2="34.64"/><path class="cls-4" d="M23.18,17.81a1.84,1.84,0,0,1,1.76-1.3h0"/><path class="cls-4" d="M24.95,16.51a1.83,1.83,0,0,1,1.84,1.82v4.62a1.83,1.83,0,0,1-1.84,1.82h0a1.83,1.83,0,0,1-1.84-1.82V20.71"/></g></svg>