<svg xmlns="http://www.w3.org/2000/svg" viewBox="0 0 457 457">
  <path
    d="M451 36H7c-4 0-7 2-7 5v374c0 4 3 6 7 6h444c4 0 6-2 6-5V41c1-3-2-5-6-5zM24 132h410v228H24V132zm410-73v50H24V59h410zM24 395v-15h410v15H24zM55 70c8 0 13 6 13 14s-5 13-13 13c-9 0-14-5-14-13s7-14 14-14zm34 0c8 0 13 6 13 14s-5 13-13 13-14-5-14-13 7-14 14-14zm33 0c8 0 13 6 13 14s-5 13-13 13-14-5-14-13 7-14 14-14zm243 232l-79-100c-2-2-3-3-6-3-1 0-4 0-5 3l-59 69-34-45c-1-1-3-3-6-3-2 0-4 0-5 3l-63 75c-3 2-2 6 0 8l4 1c1 0 4 0 5-3l59-69 33 40-18 21c-2 3-1 7 0 8 3 2 7 2 8 0l81-93 74 95 6 2 4-1c2-3 4-7 1-8zm-171-94c11 0 19-8 19-19 0-9-8-18-19-18s-19 8-19 18c0 11 8 19 19 19z"
    fill="#FFF" fill-rule="evenodd" opacity=".2" />
</svg>