<svg xmlns="http://www.w3.org/2000/svg" xmlns:xlink="http://www.w3.org/1999/xlink" width="67" height="65" viewBox="0 0 67 65">
    <defs>
        <path id="momhldmcza" d="M0 0H67V64H0z"/>
    </defs>
    <g fill="none" fill-rule="evenodd">
        <g>
            <g>
                <g>
                    <g transform="translate(-973 -1420) translate(105 1100) translate(840 290) translate(28 30.34)">
                        <mask id="k0u1fuzclb" fill="#fff">
                            <use xlink:href="#momhldmcza"/>
                        </mask>
                        <path fill="#20202A" d="M51.604 21.66c1.536.007 1.628.06 2.086.548.232.209.412.47.516.783.013.04.036.125.07.257l.026.108c.322 1.308 1.39 6.057 3.745 16.913l.232 1.044 1.573-8.822c.877-4.828 1.625-8.978 1.676-9.16.232-.784.696-1.358 1.238-1.54.191-.086.365-.102 1.111-.104h1.983l.284.156c.154.078.309.208.412.313.361.444.516 1.435.413 2.323-.037.208-1.246 6.586-2.559 13.477l-.168.882-.168.885-.169.885c-1.32 6.93-2.608 13.652-2.79 14.511-.953 4.672-2.165 6.916-4.228 7.96-.567.287-1.16.47-1.805.522-.541.079-.799.079-1.573 0-1.315-.104-2.243-.47-2.862-1.122-.644-.652-.773-1.07-.773-2.323 0-1.279.206-2.036.645-2.505.49-.496.928-.522 2.217-.13.412.13.85.26 1.006.26.206.026.232.026.386-.156.774-.888 1.238-2.924 1.006-4.385l-.006-.04-.012-.084c-.171-1.161-.688-3.22-3.772-15.431C48.33 25.816 48.059 24.7 48.02 24.122l-.004-.06c-.077-.993.104-1.645.516-2.037.34-.321.421-.36 1.789-.364zm-13.571-13c1.242.026 1.35.026 1.62.13.486.233.865.673 1 1.19.074.238.103.824.107 4.988v1.228l.028 5.93h1.998c1.945.025 1.972.025 2.27.155.566.233.945.777 1.08 1.554.054.854.054 1.709 0 2.59-.054.414-.243.854-.514 1.164-.486.492-.756.544-3.052.544h-1.782v8.572c-.027 3.159 0 6.266.054 9.426.08 1.346.243 2.045.567 2.926.351.828.432.88 2.269.88h.553c.598.003 1.111.012 1.256.052.73.104 1.216.466 1.405 1.062.081.284.108.492.108 1.735v.576c-.003.76-.02.924-.108 1.159-.108.388-.405.75-.81.932l-.027.026-.351.181h-5.078c-2.242-.233-4.025-1.372-4.997-3.237-.595-1.062-1.027-2.693-1.243-4.506l-.007-.063-.013-.13c-.112-1.115-.161-2.746-.168-9.223v-10.29l-.865-.052c-1.054-.026-1.35-.13-1.729-.518-.486-.492-.648-1.243-.594-2.874.027-1.269.189-1.735.648-2.201.324-.311.621-.363 1.675-.415.42-.042.767-.05.88-.051h.038l.297-5.775c.216-4.454.324-5.878.405-6.137.162-.7.487-1.165.919-1.347.289-.149.651-.175 1.525-.18zm-29.814.03c.855-.156 1.448.311 1.686 1.272.06.213.082.776.09 6.262v.537l.001.28v.584l.001.304v.96l.001.337.001 1.815v.39L10 31.301v1.202l-.001 10.888v2.041l-.001.313v.888l-.001.281v.799l-.001.251v.483l-.002.673v.415c-.008 3.09-.022 3.953-.05 4.271l-.003.039-.012.086c-.19.857-.452 1.35-.88 1.61-.151.084-.225.114-.757.118H7.94c-.271-.003-.62-.007-1.076-.014-1.592.026-2.02 0-2.186-.077-.546-.208-.831-.676-1.045-1.663l-.006-.034-.004-.028c-.045-.341-.07-1.602-.08-8.118v-.589l-.001-.935v-.66l-.001-.341v-1.068l-.001-.372v-1.564l-.001-.412v-4.578c-.024-14.167-.047-18.133-.093-18.305-.027-.005-.43.124-.882.228-1.187.338-1.639.338-2.042-.13C.07 16.507 0 16.091 0 14.066v-.248c.007-1.839.091-2.24.546-2.687.31-.312.5-.39 1.26-.598.332-.103 1.828-.545 3.372-.986 1.52-.442 2.874-.806 3.04-.858zm16.298-.03c.79 0 1.292.52 1.435 1.482.024.13.036 1.734.042 5.253v.492l.001.255v.527l.001.273.001.856v1.228l.001.323v1.71l.001.361L26 31.603v.527l-.024 21.599-.096.416c-.191.727-.454 1.17-.885 1.403-.147.092-.276.103-1.576.104h-.6c-.323.004-.599.007-.835.008h-.325c-1.045-.006-1.122-.071-1.4-.294-.288-.286-.503-.701-.599-1.117l-.095-.416-.024-18.48c-.024-12.58-.024-18.454-.072-18.454-.311.078-.622.156-.933.26-1.292.338-1.603.312-2.058-.182-.143-.182-.263-.364-.358-.598-.097-.252-.116-.3-.12-1.377v-1.916c.004-.922.018-1.111.083-1.292l.023-.06.014-.033c.12-.39.382-.702.741-.884.24-.13 1.292-.468 3.804-1.17 1.329-.387 2.18-.626 2.742-.771l.323-.081c.447-.108.646-.135.787-.135z" mask="url(#k0u1fuzclb)"/>
                    </g>
                </g>
            </g>
        </g>
    </g>
</svg>
