<svg xmlns="http://www.w3.org/2000/svg" width="64" height="64" viewBox="0 0 64 64">
    <g fill="none" fill-rule="evenodd">
        <g fill="#FF7272">
            <g>
                <g>
                    <g>
                        <g>
                            <g>
                                <path d="M46.559 4c4.61-.019 9.043 1.782 12.318 5.005 6.83 6.87 6.83 17.916 0 24.784L32 59.607 5.125 33.232C1.848 30.042 0 25.677 0 21.12s1.848-8.924 5.126-12.115C8.85 5.379 14.001 3.58 19.19 4.094c5.189.515 9.88 3.288 12.81 7.572C35.257 6.852 40.72 3.975 46.56 4zM33.862 20l-7.557 12.637s-.151.276-.151.439c0 .38.307.687.686.687h.058l4.206-.007L29.746 42h1.373l7.582-12.652c.085-.115.145-.25.145-.404 0-.38-.307-.688-.685-.688l-.055.001h-.012l-4.227.005 1.392-8.256L33.862 20z" transform="translate(-975 -3948) translate(0 3043.16) translate(105 530) translate(840 350) translate(30 24.84)"/>
                            </g>
                        </g>
                    </g>
                </g>
            </g>
        </g>
    </g>
</svg>
