<svg xmlns="http://www.w3.org/2000/svg" width="64" height="64" viewBox="0 0 64 64">
    <g fill="none" fill-rule="evenodd">
        <g fill="#FFDC00">
            <g>
                <g>
                    <g>
                        <g>
                            <path d="M22.424 0l4.063.016-4.05 24.02 12.297-.015.196-.003c1.1 0 1.993.895 1.993 2 0 .449-.174.843-.423 1.176L14.445 64H10.45l3.95-23.982-12.234.018-.171.003c-1.101 0-1.995-.896-1.995-2 0-.475.441-1.277.441-1.277L22.424 0zm32.74 0l2.476.01-2.468 14.637 7.494-.01h.045l.074-.001c.671 0 1.215.545 1.215 1.219 0 .273-.106.513-.258.717L50.302 39h-2.434l2.407-14.614-7.455.011-.104.002c-.671 0-1.216-.546-1.216-1.22 0-.288.269-.777.269-.777L55.164 0z" transform="translate(-135 -3603) translate(0 3043.16) translate(105 530) translate(30 29.84)"/>
                        </g>
                    </g>
                </g>
            </g>
        </g>
    </g>
</svg>
