<svg xmlns="http://www.w3.org/2000/svg" width="64" height="64" viewBox="0 0 64 64">
    <g fill="none" fill-rule="evenodd">
        <g fill="#00DCC0">
            <g>
                <g>
                    <g>
                        <g>
                            <g>
                                <path d="M48.188 5H17.811l.115 2.303c.23 4.778.86 9.671 2.694 14.104s4.814 7.83 8.711 10.593c.057.058.172.115.23.173 3.896 2.763 8.023 5.18 10.602 9.326 2.464 3.915 3.324 8.52 3.496 13.068H22.455c.687-8.52 3.152-14.162 8.138-18.25-1.376-.805-2.636-1.611-3.783-2.532-2.235 2.015-3.954 4.375-5.33 7.023-2.12 4.203-3.266 9.269-3.553 15.89L17.813 59h30.375v-2.188c0-4.835-.574-9.844-2.522-14.334-1.891-4.433-5.1-7.715-9.055-10.478-.172-.115-.402-.288-.573-.403-3.726-2.533-7.967-5.009-10.374-9.038-2.292-3.915-3.21-8.405-3.553-12.896h21.32c-.344 8.405-2.866 13.99-8.196 18.25 1.376.806 2.636 1.612 3.84 2.533 2.292-2.015 4.07-4.26 5.445-6.851 2.292-4.318 3.38-9.557 3.38-16.177V5h.288z" transform="translate(-135 -3948) translate(0 3043.16) translate(105 530) translate(0 349.84) translate(30 25) rotate(-41 33 32)"/>
                            </g>
                        </g>
                    </g>
                </g>
            </g>
        </g>
    </g>
</svg>
