<svg xmlns="http://www.w3.org/2000/svg" width="64" height="64" viewBox="0 0 64 64">
    <g fill="none" fill-rule="evenodd">
        <g fill="#A6E22E" fill-rule="nonzero">
            <g>
                <g>
                    <g>
                        <g>
                            <g>
                                <g>
                                    <path d="M3.715.942c2.712-1.566 6.601-1.438 9.176 2.375 1.277 1.893 5.086 8.389 7.218 12.048.438-.32.834-.563 1.101-.717 1.009-.582 3.245-1.672 5.574-1.48.732-.938 1.714-1.785 2.854-2.443 2.656-1.533 5.548-1.742 7.9-.65 3.5-1.859 7.513-.108 10.782 4.73 2.167 3.205 6.728 17.624 4.8 23.724 1.371 1.686 5.232 7.986 4.758 11.105-.179 1.164-.871 2.546-7.307 6.617-.719.453-2.387 1.493-4.407 2.66-4.171 2.408-9.842 5.352-11.754 4.78-.734-.22-2.663-.82-7.115-10.698-.993-.04-1.945-.195-2.81-.524-1.503-.57-5.58-2.67-9.748-4.904l-.834-.448C9.18 44.57 4.553 41.972 3.64 41.35c-.564-.38-1.494-1.312-1.423-3.265.084-2.313 1.622-5.607 4.304-7.156 1.366-.788 2.893-1.048 4.424-.751.397.077.797.164 1.189.256-2.935-4.895-6.33-11.212-8.64-15.514l-.126-.233-.25-.465c-.954-1.775-1.854-3.44-2.06-3.752C.09 9.042-.227 7.327.162 5.638.603 3.727 1.93 1.972 3.715.942zm46.682 41.33c-2.202 2.043-5.35 4.162-7.946 5.66-2.636 1.522-6.613 3.542-10.522 4.514 1.342 2.828 2.87 5.655 3.75 6.77 3.484-1.18 15.64-8.134 17.794-10.522-.205-1.342-1.968-4.714-3.076-6.423zM9.215 5.801c-1.17-1.732-2.431-1.51-3.282-1.02-.726.42-1.283 1.13-1.448 1.853-.115.495-.032.936.248 1.354.328.485 1.056 1.831 2.666 4.83 1.411 2.624 3.232 6.012 5.088 9.34l.587 1.048c2.251 4.002 4.496 7.789 6.072 9.899.598.798.587 1.894-.022 2.685-.61.79-1.673 1.073-2.596.695-.032-.013-3.32-1.35-6.427-1.952-.487-.094-.92-.02-1.364.237-1.2.693-1.95 2.362-2.076 3.237 3.064 1.819 16.536 9.227 19.393 10.31 2.513.953 8.078-.707 14.178-4.23 4.92-2.84 7.975-5.61 8.573-6.671 1.628-2.893-1.885-16.756-4.163-20.13-.501-.744-3.11-4.4-5.1-3.252-.154.09-.312.204-.469.343-.804.707-2.009.737-2.848.067-1.62-1.292-3.752-.235-4.368.12-.921.533-1.69 1.305-1.965 1.971-.227.56-.674 1-1.243 1.225-.564.222-1.195.2-1.746-.055-.69-.322-2.118 0-3.474.784-1.074.62-1.657 1.27-1.756 1.47-.362.728-1.11 1.228-1.928 1.252-.815.025-1.592-.375-2.001-1.084-.036-.061-1.906-3.296-3.924-6.724l-.357-.606-.18-.303-.357-.606C11.378 9.273 9.889 6.8 9.215 5.802zm20.254 20.452c1.162-.39 2.418.236 2.81 1.399l1.815 5.424c.342 1.016-.096 2.106-.992 2.624-.127.073-.262.134-.407.183-1.161.389-2.419-.238-2.81-1.399l-1.814-5.425c-.39-1.16.23-2.416 1.398-2.806zm7.848-3.222c1.158-.4 2.422.212 2.822 1.369l1.945 5.608c.354 1.023-.081 2.127-.984 2.648-.12.069-.248.127-.383.174-1.16.403-2.423-.21-2.824-1.367l-1.945-5.61c-.4-1.158.22-2.422 1.37-2.822z" transform="translate(-555 -3948) translate(0 3043.16) translate(105 530) translate(420 350) translate(29.676 24.84) translate(.324)"/>
                                </g>
                            </g>
                        </g>
                    </g>
                </g>
            </g>
        </g>
    </g>
</svg>
