<svg xmlns="http://www.w3.org/2000/svg" width="102" height="64" viewBox="0 0 102 64">
    <g fill="none" fill-rule="evenodd">
        <g fill="#20202A">
            <g>
                <g>
                    <path d="M32.231 46.516L63 94 50.285 76.508 31.866 48.784l-.08 27.724H30V46.516h2.231zm41.573 0v1.593h-17.08V60.1h16.062v1.594H56.724v13.164H74v1.594H55V46.516h18.804zM109 30L88.111 61.133l10.764 15.319h-2.144L86.938 62.51l-9.834 13.942H75l10.845-15.32L75.728 46.65h2.064l9.146 13.106 9.347-13.106L109 30zm13 16.516v1.593h-10.135v28.343h-1.77V48.109H100v-1.593h22zm-.5 26.839c.29 0 .5.225.5.516 0 .29-.21.516-.5.516-.286 0-.5-.225-.5-.516 0-.291.214-.516.5-.516zm5.5-5.161v4.278c0 1.215-.758 1.915-2.014 1.915-1.178 0-1.986-.679-1.986-1.718h.993c.014.499.407.834.984.834.646 0 1.012-.36 1.012-1.035v-4.274H127zm3.038 0c1.059 0 1.832.7 1.879 1.694h-.788c-.076-.544-.495-.884-1.102-.884-.64 0-1.066.348-1.066.88 0 .422.275.663.954.843l.575.16c1.07.283 1.51.774 1.51 1.662 0 1.13-.773 1.838-2.009 1.838-1.156 0-1.933-.675-1.991-1.731h.802c.069.56.553.916 1.25.916.65 0 1.128-.38 1.128-.904 0-.45-.304-.72-.994-.905l-.672-.184c-.943-.25-1.373-.766-1.373-1.633 0-1.052.759-1.752 1.897-1.752z" transform="translate(-135 -1420) translate(105 1100) translate(0 290)"/>
                </g>
            </g>
        </g>
    </g>
</svg>
