<svg xmlns="http://www.w3.org/2000/svg" width="64" height="64" viewBox="0 0 64 64">
    <g fill="none" fill-rule="evenodd">
        <g fill="#20202A">
            <g>
                <g>
                    <path d="M62 30c17.643 0 32 14.355 32 32 0 17.646-14.357 32-32 32-17.645 0-32-14.354-32-32 0-17.645 14.355-32 32-32zm0 1.467c-16.836 0-30.533 13.697-30.533 30.532 0 16.837 13.697 30.534 30.532 30.534S92.53 78.836 92.53 62c0-16.835-13.695-30.532-30.53-30.532zM62.3 64l8.503 23.07c.055.135.123.26.197.377C68.125 88.448 65.035 89 61.814 89c-2.715 0-5.336-.395-7.814-1.116L62.3 64zM37.303 50L50 86c-8.878-4.465-15-13.887-15-24.79 0-3.993.828-7.784 2.304-11.21zm48.493-1C87.84 52.815 89 57.194 89 61.85c0 9.88-5.228 18.507-13 23.15l7.986-23.653c1.492-3.82 1.987-6.875 1.987-9.593 0-.985-.063-1.9-.176-2.754zm-23.57-15c7.238 0 13.827 2.712 18.773 7.155-.12-.007-.237-.022-.36-.022-2.73 0-4.668 2.333-4.668 4.838 0 2.245 1.32 4.146 2.73 6.392 1.058 1.815 2.292 4.148 2.292 7.517 0 2.333-.914 5.04-2.116 8.81l-2.773 9.085-10.046-29.299c1.672-.086 3.181-.26 3.181-.26 1.498-.174 1.322-2.332-.178-2.245 0 0-2.206.17-4.526.271l-.748.03c-.746.027-1.48.045-2.135.045h-.213c-.724-.005-1.56-.031-2.397-.067l-.502-.023c-2.17-.102-4.21-.256-4.21-.256-1.498-.087-1.674 2.16-.176 2.245 0 0 1.418.174 2.915.26l4.332 11.635L55.318 78 45.194 48.477c1.676-.086 3.182-.26 3.182-.26 1.497-.174 1.32-2.332-.178-2.245l-.074.006-.125.009c-.593.043-2.421.173-4.327.256l-.748.03c-.746.027-1.48.045-2.135.045-.522 0-1.137-.014-1.789-.033C43.97 38.885 52.515 34 62.227 34z" transform="translate(-555 -1420) translate(105 1100) translate(420 290)"/>
                </g>
            </g>
        </g>
    </g>
</svg>
