<svg xmlns="http://www.w3.org/2000/svg" xmlns:xlink="http://www.w3.org/1999/xlink" width="110.19" height="129.3" viewBox="0 0 110.19 129.3">
  <defs>
    <linearGradient id="linear-gradient" x1="0.54" y1="1569.82" x2="67.54" y2="1569.82" gradientTransform="matrix(1, 0, 0, -1, 0, 1684)" gradientUnits="userSpaceOnUse">
      <stop offset="0" stop-color="#198af9"/>
      <stop offset="1" stop-color="#29d5fb"/>
    </linearGradient>
    <linearGradient id="linear-gradient-2" x1="0" y1="1578.9" x2="67.55" y2="1578.9" xlink:href="#linear-gradient"/>
    <linearGradient id="linear-gradient-3" x1="8" y1="1579.9" x2="57.38" y2="1579.9" xlink:href="#linear-gradient"/>
    <linearGradient id="linear-gradient-4" x1="13.63" y1="1629.85" x2="62.52" y2="1678.75" xlink:href="#linear-gradient"/>
    <linearGradient id="linear-gradient-5" x1="10.58" y1="1607.04" x2="51.9" y2="1648.35" xlink:href="#linear-gradient"/>
    <linearGradient id="linear-gradient-6" x1="30.14" y1="1611.67" x2="93.62" y2="1675.16" xlink:href="#linear-gradient"/>
    <linearGradient id="linear-gradient-7" x1="38.14" y1="1608.15" x2="88.91" y2="1658.93" xlink:href="#linear-gradient"/>
    <linearGradient id="linear-gradient-8" x1="32.94" y1="1583.23" x2="66.6" y2="1616.89" xlink:href="#linear-gradient"/>
    <linearGradient id="linear-gradient-9" x1="51.74" y1="1634.73" x2="72.33" y2="1655.32" xlink:href="#linear-gradient"/>
    <linearGradient id="linear-gradient-10" x1="55.23" y1="1618.72" x2="75.83" y2="1639.31" xlink:href="#linear-gradient"/>
    <linearGradient id="linear-gradient-11" x1="62.09" y1="1637.8" x2="75.21" y2="1650.92" xlink:href="#linear-gradient"/>
    <linearGradient id="linear-gradient-12" x1="62.84" y1="1629.55" x2="75.96" y2="1642.67" xlink:href="#linear-gradient"/>
    <linearGradient id="linear-gradient-13" x1="69.06" y1="1638.09" x2="78.24" y2="1647.29" xlink:href="#linear-gradient"/>
    <linearGradient id="linear-gradient-14" x1="92.71" y1="1632.76" x2="95.02" y2="1632.76" gradientTransform="matrix(1, 0, 0, -1, 0, 1684)" gradientUnits="userSpaceOnUse">
      <stop offset="0" stop-color="#247bbf"/>
      <stop offset="0.5" stop-color="#198af9"/>
      <stop offset="1" stop-color="#29d5fb"/>
    </linearGradient>
    <linearGradient id="linear-gradient-15" x1="101.71" y1="1635.09" x2="104.02" y2="1635.09" xlink:href="#linear-gradient-14"/>
    <linearGradient id="linear-gradient-16" x1="99.71" y1="1627.09" x2="102.02" y2="1627.09" xlink:href="#linear-gradient-14"/>
    <linearGradient id="linear-gradient-17" x1="107.88" y1="1650.93" x2="110.19" y2="1650.93" xlink:href="#linear-gradient-14"/>
    <linearGradient id="linear-gradient-18" x1="97.56" y1="1643.27" x2="99.87" y2="1643.27" xlink:href="#linear-gradient-14"/>
    <linearGradient id="linear-gradient-19" x1="2.71" y1="1639.61" x2="5.02" y2="1639.61" xlink:href="#linear-gradient-14"/>
    <linearGradient id="linear-gradient-20" x1="8.05" y1="1635.09" x2="10.36" y2="1635.09" xlink:href="#linear-gradient-14"/>
    <linearGradient id="linear-gradient-21" x1="11.56" y1="1640.94" x2="13.87" y2="1640.94" xlink:href="#linear-gradient-14"/>
    <linearGradient id="linear-gradient-22" x1="11.05" y1="1649.61" x2="13.36" y2="1649.61" xlink:href="#linear-gradient-14"/>
    <linearGradient id="linear-gradient-23" x1="49.03" y1="1569.69" x2="55.6" y2="1569.69" xlink:href="#linear-gradient"/>
  </defs>
  <title>Asset 9</title>
  <g id="Layer_2" data-name="Layer 2">
    <g id="Layer_1-2" data-name="Layer 1">
      <g id="Layer_2-2" data-name="Layer 2">
        <g id="Art">
          <g>
            <polyline points="1.04 99.06 1.04 104.31 44.1 128.73 67.04 115.56 66.97 110.44" style="fill: none;stroke-miterlimit: 10;stroke: url(#linear-gradient)"/>
            <polygon points="1.05 98.99 44.04 123.26 66.54 110.39 24.66 86.92 1.05 98.99" style="fill: none;stroke-miterlimit: 10;stroke: url(#linear-gradient-2)"/>
            <polygon points="9.05 99.29 40.97 117.15 56.37 108.35 25.2 91.03 9.05 99.29" style="fill: none;stroke-miterlimit: 10;stroke: url(#linear-gradient-3)"/>
            <polygon points="56 38.28 19.4 58.54 20.16 21.12 56.76 0.86 56 38.28" style="fill: none;stroke-miterlimit: 10;stroke: url(#linear-gradient-4)"/>
            <polygon points="49.16 57.28 12.55 77.54 13.31 55.32 49.92 35.06 49.16 57.28" style="fill: none;stroke-miterlimit: 10;stroke: url(#linear-gradient-5)"/>
            <polygon points="88.54 47.07 35.23 76.07 35.23 34.09 88.54 5.09 88.54 47.07" style="fill: none;stroke-miterlimit: 10;stroke: url(#linear-gradient-6)"/>
            <polygon points="81.83 61.31 45.23 81.58 45.23 39.6 81.83 19.33 81.83 61.31" style="fill: none;stroke-miterlimit: 10;stroke: url(#linear-gradient-7)"/>
            <polygon points="64.15 85.94 35.4 101.88 35.4 81.94 64.15 66 64.15 85.94" style="fill: none;stroke-miterlimit: 10;stroke: url(#linear-gradient-8)"/>
            <line x1="48.91" y1="46.24" x2="75.16" y2="31.7" style="fill: none;stroke-miterlimit: 10;stroke: url(#linear-gradient-9)"/>
            <line x1="52.41" y1="62.25" x2="78.66" y2="47.71" style="fill: none;stroke-miterlimit: 10;stroke: url(#linear-gradient-10)"/>
            <line x1="60.4" y1="44.31" x2="76.91" y2="34.96" style="fill: none;stroke-miterlimit: 10;stroke: url(#linear-gradient-11)"/>
            <line x1="61.15" y1="52.56" x2="77.66" y2="43.21" style="fill: none;stroke-miterlimit: 10;stroke: url(#linear-gradient-12)"/>
            <line x1="67.9" y1="44.56" x2="79.41" y2="38.06" style="fill: none;stroke-miterlimit: 10;stroke: url(#linear-gradient-13)"/>
            <g>
              <circle cx="93.87" cy="51.24" r="1.15" style="fill-opacity: 0.699999988079071;fill: url(#linear-gradient-14)"/>
              <circle cx="102.87" cy="48.91" r="1.15" style="fill-opacity: 0.699999988079071;fill: url(#linear-gradient-15)"/>
              <circle cx="100.87" cy="56.91" r="1.15" style="fill-opacity: 0.699999988079071;fill: url(#linear-gradient-16)"/>
              <circle cx="109.04" cy="33.07" r="1.15" style="fill-opacity: 0.699999988079071;fill: url(#linear-gradient-17)"/>
              <circle cx="98.71" cy="40.73" r="1.15" style="fill-opacity: 0.699999988079071;fill: url(#linear-gradient-18)"/>
            </g>
            <circle cx="3.87" cy="44.39" r="1.15" style="fill: url(#linear-gradient-19)"/>
            <circle cx="9.2" cy="48.91" r="1.15" style="fill: url(#linear-gradient-20)"/>
            <circle cx="12.71" cy="43.06" r="1.15" style="fill: url(#linear-gradient-21)"/>
            <circle cx="12.2" cy="34.39" r="1.15" style="fill: url(#linear-gradient-22)"/>
            <line x1="49.29" y1="116.12" x2="55.35" y2="112.5" style="fill: none;stroke-miterlimit: 10;stroke: url(#linear-gradient-23)"/>
            <text transform="translate(65.53 101.88)" style="isolation: isolate;font-size: 14px;fill: #0dd7ff;font-family: Roboto-Regular, Roboto;letter-spacing: 0.03899274553571429em">FPO</text>
          </g>
        </g>
      </g>
    </g>
  </g>
</svg>
