<svg xmlns="http://www.w3.org/2000/svg" xmlns:xlink="http://www.w3.org/1999/xlink" width="114.21" height="105.6" viewBox="0 0 114.21 105.6">
  <defs>
    <linearGradient id="linear-gradient" x1="65.27" y1="1638.75" x2="79.73" y2="1638.75" gradientTransform="matrix(1, 0, 0, -1, 0, 1672)" gradientUnits="userSpaceOnUse">
      <stop offset="0" stop-color="#198af9"/>
      <stop offset="1" stop-color="#29d5fb"/>
    </linearGradient>
    <linearGradient id="linear-gradient-2" x1="58.04" y1="1642.93" x2="72.5" y2="1642.93" xlink:href="#linear-gradient"/>
    <linearGradient id="linear-gradient-3" x1="52.16" y1="1649.02" x2="66.62" y2="1649.02" xlink:href="#linear-gradient"/>
    <linearGradient id="linear-gradient-4" x1="16.68" y1="1575.8" x2="103.48" y2="1662.6" xlink:href="#linear-gradient"/>
    <linearGradient id="linear-gradient-5" x1="46.07" y1="1593.96" x2="63.61" y2="1611.49" xlink:href="#linear-gradient"/>
    <linearGradient id="linear-gradient-6" x1="42.44" y1="1585.13" x2="57.8" y2="1600.5" xlink:href="#linear-gradient"/>
    <linearGradient id="linear-gradient-7" x1="34.33" y1="1604.2" x2="66.57" y2="1636.43" xlink:href="#linear-gradient"/>
    <linearGradient id="linear-gradient-8" x1="71.72" y1="1614.61" x2="86.49" y2="1614.61" xlink:href="#linear-gradient"/>
    <linearGradient id="linear-gradient-9" x1="36.31" y1="1621.4" x2="54.1" y2="1639.2" xlink:href="#linear-gradient"/>
    <linearGradient id="linear-gradient-10" x1="67.6" y1="1622.93" x2="90.9" y2="1646.24" xlink:href="#linear-gradient"/>
    <linearGradient id="linear-gradient-11" x1="79.85" y1="1630.1" x2="94.31" y2="1630.1" xlink:href="#linear-gradient"/>
    <linearGradient id="linear-gradient-12" x1="87.7" y1="1625.4" x2="102.16" y2="1625.4" xlink:href="#linear-gradient"/>
    <linearGradient id="linear-gradient-13" x1="95.54" y1="1620.34" x2="110" y2="1620.34" xlink:href="#linear-gradient"/>
    <linearGradient id="linear-gradient-14" x1="89.72" y1="1638.03" x2="92.96" y2="1638.03" xlink:href="#linear-gradient"/>
    <linearGradient id="linear-gradient-15" x1="102.33" y1="1641.3" x2="105.57" y2="1641.3" xlink:href="#linear-gradient"/>
    <linearGradient id="linear-gradient-16" x1="11.91" y1="1628.47" x2="15.15" y2="1628.47" xlink:href="#linear-gradient"/>
    <linearGradient id="linear-gradient-17" x1="99.53" y1="1630.09" x2="102.76" y2="1630.09" xlink:href="#linear-gradient"/>
    <linearGradient id="linear-gradient-18" x1="0" y1="1623.77" x2="3.24" y2="1623.77" xlink:href="#linear-gradient"/>
    <linearGradient id="linear-gradient-19" x1="110.97" y1="1663.47" x2="114.2" y2="1663.47" xlink:href="#linear-gradient"/>
    <linearGradient id="linear-gradient-20" x1="96.51" y1="1652.75" x2="99.75" y2="1652.75" xlink:href="#linear-gradient"/>
  </defs>
  <title>Asset 6</title>
  <g id="Layer_2" data-name="Layer 2">
    <g id="Layer_1-2" data-name="Layer 1">
      <g id="Layer_2-2" data-name="Layer 2">
        <g id="Art">
          <g>
            <g>
              <polygon points="79.73 40.62 65.27 49.33 65.27 25.89 79.73 17.18 79.73 40.62" style="fill: #fff;opacity: 0.699999988079071;isolation: isolate"/>
              <path d="M78.61,19.16V40L66.39,47.36V26.52l12.22-7.36m1.12-2L65.27,25.87V49.33l14.46-8.71V17.16Z" style="fill: url(#linear-gradient)"/>
            </g>
            <g>
              <polygon points="72.5 36.45 58.04 45.16 58.04 22.62 72.5 13.01 72.5 36.45" style="fill: #fff;opacity: 0.699999988079071;isolation: isolate"/>
              <path d="M71.38,15.09V35.82L59.19,43.18v-20l12.22-8.12M72.53,13,58.07,22.59V45.16l14.46-8.71V13Z" style="fill: url(#linear-gradient-2)"/>
            </g>
            <g>
              <polygon points="66.62 30.35 52.16 39.05 52.16 16.51 66.62 6.91 66.62 30.35" style="fill: #fff;opacity: 0.699999988079071;isolation: isolate"/>
              <path d="M65.5,9V29.72L53.28,37.08v-20L65.5,9m1.12-2.08L52.19,16.51V39l14.46-8.71V6.91Z" style="fill: url(#linear-gradient-3)"/>
            </g>
            <g>
              <polygon points="94.08 61.06 26.13 105.59 26.13 44.54 94.08 0 94.08 61.06" style="fill: #fff;opacity: 0.699999988079071;isolation: isolate"/>
              <path d="M93,2.07V60.45L27.25,103.52V45.14L93,2.07M94.08,0l-68,44.54V105.6l68-44.54Z" style="fill: url(#linear-gradient-4)"/>
            </g>
            <line x1="44.2" y1="76" x2="65.48" y2="62.55" style="fill: none;stroke-miterlimit: 10;stroke-width: 1.116942048072815px;stroke: url(#linear-gradient-5)"/>
            <line x1="40.85" y1="85.11" x2="59.39" y2="73.26" style="fill: none;stroke-miterlimit: 10;stroke-width: 1.116942048072815px;stroke: url(#linear-gradient-6)"/>
            <g>
              <polygon points="66.62 47.48 34.26 67.74 34.26 55.88 66.62 35.62 66.62 47.48" style="fill: #fff;opacity: 0.699999988079071;isolation: isolate"/>
              <path d="M65.5,37.64v9.23L35.38,65.73V56.5L65.5,37.64m1.12-2L34.27,55.9V67.74L66.62,47.48V35.64Z" style="fill: url(#linear-gradient-7)"/>
            </g>
            <g>
              <polygon points="86.18 57.05 71.72 65.76 72.02 57.65 86.48 48.95 86.18 57.05" style="fill: #fff;opacity: 0.699999988079071;isolation: isolate"/>
              <path d="M85.29,51l-.2,5.44L72.92,63.77l.2-5.44L85.29,51m1.19-2L72,57.71l-.3,8.11,14.47-8.76.3-8.11Z" style="fill: url(#linear-gradient-8)"/>
            </g>
            <line x1="34.56" y1="48.69" x2="55.84" y2="34.71" style="fill: none;stroke-miterlimit: 10;stroke-width: 1.116942048072815px;stroke: url(#linear-gradient-9)"/>
            <polygon points="86.48 44.78 72.02 53.49 72.02 30.05 86.48 21.34 86.48 44.78" style="fill-opacity: 0.699999988079071;fill: url(#linear-gradient-10)"/>
            <g>
              <polygon points="94.32 49.28 79.86 57.98 79.86 34.54 94.32 25.83 94.32 49.28" style="fill: #fff;opacity: 0.699999988079071;isolation: isolate"/>
              <path d="M93.19,27.81V48.64L81,56V35.17l12.21-7.36m1.12-2L79.85,34.52V58l14.46-8.71V25.81Z" style="fill: url(#linear-gradient-11)"/>
            </g>
            <g>
              <polygon points="102.16 53.98 87.7 62.69 87.7 39.24 102.16 30.54 102.16 53.98" style="fill: #fff;opacity: 0.699999988079071;isolation: isolate"/>
              <path d="M101,32.51V53.35L88.82,60.71V39.88L101,32.52m1.12-2L87.7,39.23V62.69L102.19,54V30.54Z" style="fill: url(#linear-gradient-12)"/>
            </g>
            <g>
              <polygon points="109.99 59.05 95.53 67.75 95.53 44.31 109.99 35.61 109.99 59.05" style="fill: #fff;opacity: 0.699999988079071;isolation: isolate"/>
              <path d="M108.88,37.58V58.42L96.66,65.78V44.94l12.22-7.36m1.12-2L95.54,44.29V67.75L110,59V35.58Z" style="fill: url(#linear-gradient-13)"/>
            </g>
            <g>
              <circle cx="91.34" cy="33.97" r="1.62" style="fill-opacity: 0.699999988079071;fill: url(#linear-gradient-14)"/>
              <circle cx="103.95" cy="30.7" r="1.62" style="fill-opacity: 0.699999988079071;fill: url(#linear-gradient-15)"/>
              <circle cx="13.53" cy="43.53" r="1.62" style="fill-opacity: 0.699999988079071;fill: url(#linear-gradient-16)"/>
              <circle cx="101.15" cy="41.91" r="1.62" style="fill-opacity: 0.699999988079071;fill: url(#linear-gradient-17)"/>
              <circle cx="1.62" cy="48.23" r="1.62" style="fill-opacity: 0.699999988079071;fill: url(#linear-gradient-18)"/>
              <circle cx="112.59" cy="8.53" r="1.62" style="fill-opacity: 0.699999988079071;fill: url(#linear-gradient-19)"/>
              <circle cx="98.13" cy="19.25" r="1.62" style="fill-opacity: 0.699999988079071;fill: url(#linear-gradient-20)"/>
            </g>
            <text transform="translate(68.49 90.46)" style="isolation: isolate;font-size: 14px;fill: #0dd7ff;font-family: Roboto-Regular, Roboto;letter-spacing: 0.03899274553571429em">FPO</text>
          </g>
        </g>
      </g>
    </g>
  </g>
</svg>
