<svg xmlns="http://www.w3.org/2000/svg" viewBox="0 0 56.52 32.62"><defs><style>.cls-1{fill:#2a6cbf;}</style></defs><title>globo_logo</title><g id="Layer_2" data-name="Layer 2"><g id="Art"><path class="cls-1" d="M14.72.06a1.67,1.67,0,0,1,1.87.71,2.88,2.88,0,0,1,.35,1.63q0,7.14,0,14.28a3.87,3.87,0,0,1-.22,1.42,1.74,1.74,0,0,1-2.58.68,2.17,2.17,0,0,1-.75-2c0-5,0-10,0-15A1.75,1.75,0,0,1,14.72.06Z"/><path class="cls-1" d="M2.4,6.85a4.94,4.94,0,0,1,5.67-.67,5.36,5.36,0,0,1,1,1,3.33,3.33,0,0,1,.63-1.08,1.84,1.84,0,0,1,2.38.15,2.56,2.56,0,0,1,.56,1.9q0,4.75,0,9.52a7.39,7.39,0,0,1-.8,3.69,5.56,5.56,0,0,1-2,2.05,8.61,8.61,0,0,1-5.33.84,9.75,9.75,0,0,1-3.27-1.07,1.88,1.88,0,0,1-1-1.44,1.82,1.82,0,0,1,.9-1.44c.65-.34,1.35,0,2,.24a6.82,6.82,0,0,0,3.6.66,2.67,2.67,0,0,0,2.17-1.63,5.67,5.67,0,0,0,.22-2,4.67,4.67,0,0,1-1.58,1.29,5.17,5.17,0,0,1-5.59-1A6.38,6.38,0,0,1,.21,14.44a8.52,8.52,0,0,1,0-3.84A6.83,6.83,0,0,1,2.4,6.85Zm3.75,2a2.32,2.32,0,0,0-1.73.91,4.52,4.52,0,0,0-.86,2.76,4.46,4.46,0,0,0,.8,2.54,2.51,2.51,0,0,0,3.13.69,3,3,0,0,0,1.38-1.82,4.86,4.86,0,0,0,0-2.9A3.27,3.27,0,0,0,7.75,9.28a2.34,2.34,0,0,0-1.6-.44Z"/><path class="cls-1" d="M23.69,5.57a6,6,0,0,1,4,1.41,7.28,7.28,0,0,1,2.39,6.64,6.7,6.7,0,0,1-3.05,4.75,6.29,6.29,0,0,1-6,.22,6,6,0,0,1-2.39-2.17A7.6,7.6,0,0,1,17.49,12a7,7,0,0,1,3.26-5.58,5.93,5.93,0,0,1,2.95-.86Zm0,3.27a2.31,2.31,0,0,0-1.71.8,4.64,4.64,0,0,0-.52,4.76A2.6,2.6,0,0,0,23.8,16a2.52,2.52,0,0,0,2.38-1.56,4.73,4.73,0,0,0,.22-3.54,3.14,3.14,0,0,0-1.11-1.62,2.34,2.34,0,0,0-1.6-.44Z"/><path class="cls-1" d="M31.15.65a1.76,1.76,0,0,1,2.71,0,2.54,2.54,0,0,1,.42,1.69c0,1.48,0,3,0,4.43a5.32,5.32,0,0,1,6.26-.35A6.33,6.33,0,0,1,43,10.1a8.85,8.85,0,0,1,.25,3.56,7.32,7.32,0,0,1-1.76,3.82,5.4,5.4,0,0,1-3.37,1.74,4,4,0,0,1-3.86-1.56,3.07,3.07,0,0,1-.69,1.14A1.85,1.85,0,0,1,31,18.26a3,3,0,0,1-.28-1.5q0-7.31,0-14.62A2.35,2.35,0,0,1,31.15.65ZM37,8.83a2.41,2.41,0,0,0-1.78.81,4.09,4.09,0,0,0-.88,2.7,4.1,4.1,0,0,0,1.22,3.11,2.42,2.42,0,0,0,3.37-.27,4.49,4.49,0,0,0-.14-5.67A2.35,2.35,0,0,0,37,8.83Z"/><path class="cls-1" d="M50,5.57A6,6,0,0,1,54,7a7.28,7.28,0,0,1,2.39,6.64,6.7,6.7,0,0,1-3.05,4.75,6.29,6.29,0,0,1-6,.22,5.93,5.93,0,0,1-2.39-2.17A7.6,7.6,0,0,1,43.81,12a7,7,0,0,1,3.26-5.58A5.93,5.93,0,0,1,50,5.57Zm0,3.27a2.31,2.31,0,0,0-1.71.8,4.64,4.64,0,0,0-.52,4.76A2.6,2.6,0,0,0,50.13,16a2.52,2.52,0,0,0,2.38-1.56,4.73,4.73,0,0,0,.22-3.54,3.14,3.14,0,0,0-1.11-1.62A2.34,2.34,0,0,0,50,8.84Z"/><path class="cls-1" d="M16.76,20.67a6.48,6.48,0,0,1,3.13.48,2.51,2.51,0,0,1,1.06.85,1.49,1.49,0,0,1-.86,2.07c-.67.12-1.25-.33-1.88-.47a2.49,2.49,0,0,0-2.4.53A3.92,3.92,0,0,0,15.1,28a2.53,2.53,0,0,0,2.18,1.71,5.4,5.4,0,0,0,2.16-.54,1.29,1.29,0,0,1,1.63,1.3,1.6,1.6,0,0,1-1,1.43,5.86,5.86,0,0,1-4.69.35A5.64,5.64,0,0,1,11.9,28a6.44,6.44,0,0,1,.88-4.9,5.37,5.37,0,0,1,4-2.48Z"/><path class="cls-1" d="M37.07,20.85a3.92,3.92,0,0,1,3.52.48,6.16,6.16,0,0,1,.94.85,5.13,5.13,0,0,1,2.79-1.51,4.52,4.52,0,0,1,3.57,1A4.13,4.13,0,0,1,49,24.78c0,1.92,0,3.86,0,5.78a1.84,1.84,0,0,1-.6,1.58,1.54,1.54,0,0,1-2.14-.22,3.26,3.26,0,0,1-.39-1.84c0-1.7,0-3.4,0-5.1a1.9,1.9,0,0,0-1-1.59,1.81,1.81,0,0,0-1.92.24,2.16,2.16,0,0,0-.69,1.75c0,1.81,0,3.63,0,5.44a1.53,1.53,0,0,1-1.48,1.63,1.37,1.37,0,0,1-1.2-.5,2.56,2.56,0,0,1-.41-1.54c-.06-1.82,0-3.63,0-5.44a2.14,2.14,0,0,0-.66-1.38,1.87,1.87,0,0,0-2.55.28,2.77,2.77,0,0,0-.39,1.65c0,1.7,0,3.4,0,5.1a1.92,1.92,0,0,1-.36,1.27,1.54,1.54,0,0,1-2.28.14,2.69,2.69,0,0,1-.49-1.82c0-2.26,0-4.54,0-6.8a4.31,4.31,0,0,1,.22-1.77,1.5,1.5,0,0,1,2.43-.46,1.79,1.79,0,0,1,.37.72,4.19,4.19,0,0,1,1.62-1.06Z"/><path class="cls-1" d="M25.87,20.67a5.19,5.19,0,0,1,4.38,1.61,6.45,6.45,0,0,1,0,8.77,5.53,5.53,0,0,1-7,.61,6.27,6.27,0,0,1-2.37-6A6.08,6.08,0,0,1,24,21.24a5.16,5.16,0,0,1,1.87-.57Zm.2,2.86A2.76,2.76,0,0,0,24,26.28a3.32,3.32,0,0,0,1.48,3.29,2.24,2.24,0,0,0,2.82-.82,4.11,4.11,0,0,0,0-4.23,2.13,2.13,0,0,0-2.22-1Z"/><path class="cls-1" d="M9.75,29.31a1.66,1.66,0,1,1-1.29,1.91,1.68,1.68,0,0,1,1.29-1.91Z"/></g></g></svg>