<svg xmlns="http://www.w3.org/2000/svg" xmlns:xlink="http://www.w3.org/1999/xlink" width="51.53" height="61.19" viewBox="0 0 51.53 61.19">
  <defs>
    <linearGradient id="linear-gradient" x1="45.56" y1="19.09" x2="45.56" y2="19.09" gradientUnits="userSpaceOnUse">
      <stop offset="0" stop-color="#1c79c4"/>
      <stop offset="0.51" stop-color="#0389ff"/>
      <stop offset="1" stop-color="#0dd4ff"/>
    </linearGradient>
    <linearGradient id="linear-gradient-2" x1="50.45" y1="20.71" x2="50.45" y2="20.71" xlink:href="#linear-gradient"/>
    <linearGradient id="linear-gradient-3" x1="17.35" y1="37.78" x2="17.35" y2="37.78" xlink:href="#linear-gradient"/>
    <linearGradient id="linear-gradient-4" x1="5.89" y1="37.78" x2="50.95" y2="37.78" xlink:href="#linear-gradient"/>
    <linearGradient id="linear-gradient-5" x1="16.85" y1="49.03" x2="17.85" y2="49.03" xlink:href="#linear-gradient"/>
    <linearGradient id="linear-gradient-6" x1="5.29" y1="26.39" x2="51.53" y2="26.39" xlink:href="#linear-gradient"/>
    <linearGradient id="linear-gradient-7" x1="27.23" y1="26.44" x2="38.95" y2="26.44" xlink:href="#linear-gradient"/>
    <linearGradient id="linear-gradient-8" x1="16.85" y1="21.19" x2="28.57" y2="21.19" xlink:href="#linear-gradient"/>
  </defs>
  <title>Asset 15</title>
  <g id="Layer_2" data-name="Layer 2">
    <g id="Art">
      <g>
        <path d="M45.56,19.09" style="fill: none;stroke-miterlimit: 10;stroke: url(#linear-gradient)"/>
        <g style="opacity: 0.7000000000000001">
          <path d="M50.45,20.71" style="fill: none;stroke-miterlimit: 10;stroke: url(#linear-gradient-2)"/>
          <path d="M17.35,37.78" style="fill: none;stroke-miterlimit: 10;stroke: url(#linear-gradient-3)"/>
          <polygon points="6.39 54.39 6.39 32.24 39.49 14.94 50.45 20.71 50.45 42.85 50.45 44.01 50.45 44.01 17.35 60.62 6.39 54.39" style="fill: none;stroke-miterlimit: 10;stroke: url(#linear-gradient-4)"/>
          <line x1="17.35" y1="60.62" x2="17.35" y2="37.43" style="fill: none;stroke-miterlimit: 10;stroke: url(#linear-gradient-5)"/>
          <polygon points="50.45 20.71 17.35 37.78 6.39 32.24 39.61 15 50.45 20.71" style="fill: none;stroke-miterlimit: 10;stroke: url(#linear-gradient-6)"/>
          <path d="M27.73,32.18V27.95a3.46,3.46,0,0,1,1.87-3.08l6.84-3.53a1.38,1.38,0,0,1,2,1.23v4.07" style="fill: none;stroke-miterlimit: 10;stroke: url(#linear-gradient-7)"/>
          <path d="M17.35,26.94V22.7a3.46,3.46,0,0,1,1.87-3.08l6.84-3.53a1.38,1.38,0,0,1,2,1.23V21.4" style="fill: none;stroke-miterlimit: 10;stroke: url(#linear-gradient-8)"/>
        </g>
        <g>
          <circle cx="1.18" cy="21.99" r="1.18" style="fill: #93d0e8;fill-opacity: 0.7000000000000001"/>
          <circle cx="6.29" cy="11.42" r="1.18" style="fill: #93d0e8;fill-opacity: 0.7000000000000001"/>
          <circle cx="11.74" cy="16.03" r="1.18" style="fill: #93d0e8;fill-opacity: 0.7000000000000001"/>
          <circle cx="15.34" cy="10.05" r="1.18" style="fill: #93d0e8;fill-opacity: 0.7000000000000001"/>
          <circle cx="14.81" cy="1.18" r="1.18" style="fill: #93d0e8;fill-opacity: 0.7000000000000001"/>
        </g>
      </g>
    </g>
  </g>
</svg>
