<svg xmlns="http://www.w3.org/2000/svg" viewBox="0 0 153 20.14"><defs><style>.cls-1{fill:#1a1a1a;}</style></defs><title>nyt_logo</title><g id="Layer_2" data-name="Layer 2"><g id="Art"><path class="cls-1" d="M11.48,2.06C11.48.42,9.94-.05,8.65,0V.26c.77,0,1.37.28,1.37.79,0,.36-.26.81-1,.81a11.63,11.63,0,0,1-2.75-.67A9.85,9.85,0,0,0,3.37.5,2.75,2.75,0,0,0,.51,3.19,1.89,1.89,0,0,0,1.8,5l.12-.2A.87.87,0,0,1,1.45,4a1,1,0,0,1,1.15-.93,13.35,13.35,0,0,1,3,.71,24.73,24.73,0,0,0,3,.69V7l-1.27,1v.1L8.69,9.29v3.54a4.13,4.13,0,0,1-2.06.48A4.15,4.15,0,0,1,3.37,12l3.41-1.64V4.66L2.59,6.52a5,5,0,0,1,2.2-2.38l-.06-.2A6.28,6.28,0,0,0,0,9.71a5.84,5.84,0,0,0,5.84,5.86,5.33,5.33,0,0,0,5.46-5.42l-.2,0A5.75,5.75,0,0,1,9,12.73V9.29l1.35-1.07,0-.12L9,7V4.46a2.4,2.4,0,0,0,2.51-2.4ZM4.26,11.27l-1,.49a5,5,0,0,1-1-3.17,5.78,5.78,0,0,1,.24-1.78L4.28,6l0,5.23Zm8.81,1.84L12,13.94l.14.16.53-.38,1.86,1.7L17,13.76l-.12-.18-.65.42-.81-.81V7.49l.67-.5L17.5,8.14v5c0,3.15-.69,3.66-2.12,4.18v.22c2.36.1,4.47-.69,4.47-4.73V7.43l.75-.59-.14-.18-.65.51-2-1.76L15.4,7.19V.34h-.18l-2.95,2V2.5a1.19,1.19,0,0,1,.79,1.29v9.32Zm15.2-.89-2,1.58-2.12-1.66v-1l3.94-2.63V8.4l-2-3-4.3,2.3v5.46l-.85.65.14.18.77-.61,2.81,2,3.76-3-.16-.22Zm-4.16-1.37V6.78l.14-.1,1.82,2.87-2,1.31ZM44.19,1.31A2.34,2.34,0,0,0,44,.54h-.2c-.26.69-.57,1.07-1.39,1.07A2.22,2.22,0,0,1,40.88.86s-2.38,2.75-2.38,2.75l.2.18L39.38,3a2.8,2.8,0,0,0,2,.79v6.93L36.55,2.3A2.64,2.64,0,0,0,34.37.72a2.53,2.53,0,0,0-2.36,3h.24c.06-.51.32-1.07.89-1.07a1.45,1.45,0,0,1,1.09.83V6.22c-1.5,0-2.49.69-2.49,1.92A1.85,1.85,0,0,0,33.1,10l0-.18a.76.76,0,0,1-.28-.57c0-.46.34-.75,1-.75a2.68,2.68,0,0,1,.44,0V12.1c-1.76,0-3.13,1-3.13,2.65s1.37,2.34,2.79,2.26l0-.2c-.89-.1-1.37-.51-1.37-1.09a1.06,1.06,0,0,1,1.17-1.09,2.34,2.34,0,0,1,1.68.89l2.4-2.67-.2-.18-.61.69a4.11,4.11,0,0,0-2.47-1.27V3.77l6.71,11.7h.48V3.81a2.56,2.56,0,0,0,2.49-2.49Zm6,10.91-2,1.58L46,12.14v-1L50,8.52V8.4l-2-3-4.3,2.3v5.46l-.85.65L43,14l.77-.61,2.81,2,3.76-3-.16-.22ZM46,10.85V6.78l.14-.1L48,9.55l-2,1.31ZM63.81,6.3l-.61.46L61.61,5.41,59.77,7.07l.75.71v6.28l-2-1.29V7.67l.65-.46-1.94-1.8-1.8,1.66.75.71v6l-.26.16-1.76-1.25v-5c0-1.15-.55-1.48-1.29-1.94S52,5,52,4.44s.48-.75.71-.89a.75.75,0,0,1,0-.2,2.59,2.59,0,0,0-2.44,2.28A1.89,1.89,0,0,0,51,7.21a1.92,1.92,0,0,1,.79,1.46v4.81l-.89.69.14.18.81-.63,2.2,1.72L56.15,14l2.3,1.41,4.42-2.57V7.29l1.09-.79-.14-.2ZM79.23,1.73l-.83.75L76.54.86l-2.71,2V1h-.28l.06,13.48c-.28,0-1-.2-1.6-.3L71.95,2.9a2,2,0,0,0-2.08-2,2.42,2.42,0,0,0-2.51,2.34h.24c.08-.49.34-.93.83-.93s1,.32,1,1.43V7c-1.52.06-2.4.91-2.4,2a1.53,1.53,0,0,0,1.37,1.7l0-.2a.6.6,0,0,1-.44-.57c0-.47.46-.67,1.09-.67h.3v5.15a2.38,2.38,0,0,0-1.76,2.32,2.5,2.5,0,0,0,2.73,2.44,13.91,13.91,0,0,0,3.19-.44,15.85,15.85,0,0,1,2.38-.38c.63,0,.91.3.91.75a.79.79,0,0,1-.59.89l0,.2a2.3,2.3,0,0,0,2.16-2.3c0-1.27-1.21-2-2.55-2a17.29,17.29,0,0,0-3.09.46,16,16,0,0,1-2.67.38c-.57,0-1.29-.28-1.29-1s.57-1.25,2-1.25a11.82,11.82,0,0,1,2.59.34,13.88,13.88,0,0,0,2.77.5c1.21,0,2.3-.44,2.3-2.2V2.74l1-.83-.18-.18ZM75.83,6.85a1.39,1.39,0,0,1-1,.48,1.52,1.52,0,0,1-1-.48V3.15l.85-.57,1.15,1V6.85Zm0,2.47a1.44,1.44,0,0,0-1-.42,1.65,1.65,0,0,0-1,.42V7.15a1.66,1.66,0,0,0,1,.44,1.45,1.45,0,0,0,1-.44V9.33Zm0,3.88a1.28,1.28,0,0,1-1.33,1.33c-.14,0-.53,0-.67,0V9.63a1.56,1.56,0,0,1,1-.46,1.5,1.5,0,0,1,1,.46v3.58Zm11.36-5.9L84.5,5.39l-4,2.32v5.42l-.83.67.12.18.65-.53,2.67,2,4.12-2.51V7.31Zm-4.42,5.25V6.62l2.1,1.5v5.94l-2.1-1.5ZM95.13,5.61s-.16,0-.16,0a1.19,1.19,0,0,1-.73.34,1.31,1.31,0,0,1-.93-.45h-.16L91.74,7,90.3,5.49l-2.46,1.7.12.2L88.62,7l.85.91v5.25l-1.11.83.14.16.53-.38,2,1.7,2.59-1.72-.12-.18-.73.44-1-.87V7.25a2.15,2.15,0,0,0,1.49.85c1.11,0,1.72-1.23,1.84-2.49Zm10,8-2.83,1.86-3.84-5.8,2.71-4.22.18,0a2.18,2.18,0,0,0,1.39.65,1.46,1.46,0,0,0,1.21-.65s.16,0,.16,0A2.54,2.54,0,0,1,102,8a2.89,2.89,0,0,1-1.74-.67l-.26.38,4.16,6.16.83-.51.12.2ZM96,13.11l-1.11.83.14.16.53-.38,1.86,1.7,2.49-1.66-.14-.18-.63.42-.81-.81V.34h-.18l-3,2v.18A1.17,1.17,0,0,1,96,3.79v9.32Zm22.95-11c0-1.64-1.54-2.12-2.83-2.06V.26c.77,0,1.37.28,1.37.79,0,.36-.26.81-1,.81a11.63,11.63,0,0,1-2.75-.67A9.85,9.85,0,0,0,110.81.5,2.75,2.75,0,0,0,108,3.19,1.89,1.89,0,0,0,109.25,5l.12-.2a.87.87,0,0,1-.48-.81A1,1,0,0,1,110,3.05a13.35,13.35,0,0,1,3,.71,24.73,24.73,0,0,0,3,.69V7l-1.27,1v.1l1.27,1.11v3.54a4.69,4.69,0,0,1-5.33-.85l3.41-1.64V4.66L110,6.52a5,5,0,0,1,2.2-2.38l-.06-.2a6.28,6.28,0,0,0-4.73,5.76,5.84,5.84,0,0,0,5.84,5.86,5.33,5.33,0,0,0,5.46-5.42l-.2,0a5.75,5.75,0,0,1-2.14,2.61V9.29l1.35-1.07,0-.12L116.41,7V4.46a2.4,2.4,0,0,0,2.51-2.4Zm-7.23,9.21-1,.49a5,5,0,0,1-1-3.17A5.78,5.78,0,0,1,110,6.82L111.72,6l0,5.23Zm10.08-10-.12,0L120,2.68V2.8l1.41,1.58h.14L123.2,3l0-.1-1.41-1.6Zm2.53,12.3-.63.42-.81-.81V7.45l.79-.59-.16-.2-.61.47-1.45-1.72-2.38,1.66.14.22.59-.4.73.91v5.39l-1.07.81.12.16.55-.4L122,15.43l2.49-1.66-.14-.18Zm13.86-.1-.59.4-.89-.81V7.43l.85-.63-.14-.18-.73.55-1.9-1.76-2.46,1.74-1.88-1.74L128,7.13l-1.48-1.72-2.38,1.66.12.22.59-.4.81.89v5.39l-.65.65,1.9,1.6,1.84-1.66-.75-.71V7.43l.71-.48L130,8.14v5l-.63.65,1.92,1.6,1.8-1.66-.75-.71V7.39L133,7l1.37,1.17v4.95l-.55.57,1.94,1.76,2.55-1.74-.12-.2Zm7.23-1.27-2,1.58-2.12-1.66v-1l3.94-2.63V8.4l-2-3-4.3,2.3v5.64l2.87,2.08,3.76-3-.16-.22Zm-4.16-1.37V6.78l.14-.1,1.82,2.87-2,1.31ZM153,10.08l-1.6-1.21a4.22,4.22,0,0,0,1.48-3c0-.12,0-.34,0-.53h-.2a1.12,1.12,0,0,1-1.13.81A2,2,0,0,1,150,5.33l-3.74,2v3l1.39,1.09c-1.41,1.25-1.66,2.12-1.66,2.75a1.68,1.68,0,0,0,1.09,1.7l.1-.18a.7.7,0,0,1-.34-.63c0-.28.34-.67,1-.67a2.07,2.07,0,0,1,1.56.85s3.6-2.16,3.6-2.16V10.08Zm-.89-2.49a10.22,10.22,0,0,1-2.55,2.52l-.91-.71v-3a2.46,2.46,0,0,0,3.46,1.15Zm-1.47,6.61a2.71,2.71,0,0,0-2.38-1.6,2.93,2.93,0,0,0-1.56.4,9.28,9.28,0,0,1,2.91-2.67l1,.79V14.2Z"/></g></g></svg>