<svg xmlns="http://www.w3.org/2000/svg" xmlns:xlink="http://www.w3.org/1999/xlink" viewBox="0 0 76.17 60.26"><defs><style>.cls-1{fill:none;stroke:#0389ff;stroke-miterlimit:10;}.cls-1,.cls-2,.cls-3{stroke-linecap:round;}.cls-2,.cls-3{fill:#fff;stroke-linejoin:round;}.cls-2,.cls-3,.cls-5{fill-opacity:0.7;}.cls-2{stroke:url(#linear-gradient);}.cls-3{stroke:url(#linear-gradient-2);}.cls-4{opacity:0.7;fill:url(#linear-gradient-3);}.cls-5{fill:#0dd7ff;}</style><linearGradient id="linear-gradient" x1="4.73" y1="36.01" x2="24.67" y2="36.01" gradientUnits="userSpaceOnUse"><stop offset="0" stop-color="#1c79c4"/><stop offset="0.51" stop-color="#0389ff"/><stop offset="1" stop-color="#0dd7ff"/></linearGradient><linearGradient id="linear-gradient-2" x1="11001.87" y1="26.75" x2="11033.76" y2="26.75" gradientTransform="matrix(-1, 0, 0, 1, 11057.41, 0)" xlink:href="#linear-gradient"/><linearGradient id="linear-gradient-3" x1="27.17" y1="26.02" x2="33.44" y2="9.26" xlink:href="#linear-gradient"/></defs><title>publisher_icon_intro</title><g id="Layer_2" data-name="Layer 2"><g id="Art"><path class="cls-1" d="M.5,24.67,20.65,14.39l-.44-.19a.41.41,0,0,1,0-.74L25.13,11a2.06,2.06,0,0,1,1.75,0l.35.15L47,.82l.41,33.72L27.64,44.82,26.41,44,19,47.7l2.06.82L.91,58.39Z"/><polygon class="cls-2" points="5.23 26.45 24.17 12.26 24.17 46.88 5.23 59.76 5.23 26.45"/><polygon class="cls-3" points="55.03 6.62 24.15 12.26 24.15 46.88 55.03 39.93 55.03 6.62"/><polygon class="cls-4" points="26.89 10.95 32.48 8.12 33.81 8.63 33.81 24.12 31.34 22.2 28.77 27 28.36 11.51 26.89 10.95"/><circle class="cls-5" cx="62.48" cy="26.67" r="1.06"/><circle class="cls-5" cx="67.04" cy="17.23" r="1.06"/><circle class="cls-5" cx="71.91" cy="21.35" r="1.06"/><circle class="cls-5" cx="75.12" cy="16.01" r="1.06"/><circle class="cls-5" cx="74.65" cy="8.09" r="1.06"/></g></g></svg>