<svg xmlns="http://www.w3.org/2000/svg" xmlns:xlink="http://www.w3.org/1999/xlink" viewBox="0 0 101.89 99.69"><defs><style>.cls-1,.cls-2{fill:#fff;fill-opacity:0.7;}.cls-1,.cls-2,.cls-3,.cls-4,.cls-5{stroke-miterlimit:10;}.cls-1{stroke:url(#linear-gradient);}.cls-2{stroke:url(#linear-gradient-2);}.cls-3,.cls-4,.cls-5{fill:none;}.cls-3{stroke:url(#linear-gradient-3);}.cls-4{stroke:url(#linear-gradient-4);}.cls-5{stroke:url(#linear-gradient-5);}.cls-6{fill:#0dd4ff;opacity:0.7;}</style><linearGradient id="linear-gradient" x1="-5.17" y1="84.96" x2="66.47" y2="13.33" gradientUnits="userSpaceOnUse"><stop offset="0" stop-color="#1c79c4"/><stop offset="0.51" stop-color="#0389ff"/><stop offset="1" stop-color="#0dd4ff"/></linearGradient><linearGradient id="linear-gradient-2" x1="13.37" y1="94.53" x2="85.01" y2="22.89" xlink:href="#linear-gradient"/><linearGradient id="linear-gradient-3" x1="41.54" y1="67.41" x2="59.85" y2="49.1" xlink:href="#linear-gradient"/><linearGradient id="linear-gradient-4" x1="31.78" y1="73.19" x2="45.37" y2="59.59" xlink:href="#linear-gradient"/><linearGradient id="linear-gradient-5" x1="54.45" y1="57.75" x2="68.78" y2="43.43" xlink:href="#linear-gradient"/></defs><title>publisher_icon_simple</title><g id="Layer_2" data-name="Layer 2"><g id="Art"><polygon class="cls-1" points="60.8 56.48 0.5 89.29 0.5 41.8 60.8 9 60.8 56.48"/><polygon class="cls-2" points="79.34 66.05 19.04 98.85 19.04 51.37 79.34 18.57 79.34 66.05"/><line class="cls-3" x1="53.6" y1="43.24" x2="47.79" y2="73.27"/><polyline class="cls-4" points="41.01 55.35 30.36 70.36 42.95 70.84"/><polyline class="cls-5" points="58.44 45.66 70.06 46.15 58.44 61.64"/><circle class="cls-6" cx="86.9" cy="21.49" r="1.15"/><circle class="cls-6" cx="91.89" cy="11.15" r="1.15"/><circle class="cls-6" cx="97.23" cy="15.67" r="1.15"/><circle class="cls-6" cx="100.74" cy="9.82" r="1.15"/><circle class="cls-6" cx="100.23" cy="1.15" r="1.15"/></g></g></svg>