<svg xmlns="http://www.w3.org/2000/svg" xmlns:xlink="http://www.w3.org/1999/xlink" viewBox="0 0 121.81 116.64"><defs><style>.cls-1,.cls-10,.cls-11,.cls-12,.cls-13,.cls-14,.cls-15,.cls-16,.cls-2,.cls-4,.cls-8,.cls-9{fill:none;}.cls-1,.cls-10,.cls-11,.cls-12,.cls-13,.cls-14,.cls-15,.cls-16,.cls-18,.cls-19,.cls-2,.cls-3,.cls-4,.cls-5,.cls-7,.cls-8,.cls-9{stroke-miterlimit:10;}.cls-1,.cls-2{stroke-width:5.45px;opacity:0.8;}.cls-1{stroke:url(#linear-gradient);}.cls-2{stroke:url(#linear-gradient-2);}.cls-18,.cls-19,.cls-3,.cls-5,.cls-7{fill:#fff;}.cls-3{stroke:url(#linear-gradient-3);}.cls-4{stroke-width:0.95px;stroke:url(#linear-gradient-4);}.cls-18,.cls-19,.cls-5{fill-opacity:0.9;}.cls-5{stroke:url(#linear-gradient-5);}.cls-6{fill:url(#linear-gradient-6);}.cls-7{stroke:url(#linear-gradient-7);}.cls-8{stroke:url(#linear-gradient-8);}.cls-9{stroke:url(#linear-gradient-9);}.cls-10{stroke:url(#linear-gradient-10);}.cls-11{stroke:url(#linear-gradient-11);}.cls-12{stroke:url(#linear-gradient-12);}.cls-13{stroke:url(#linear-gradient-13);}.cls-14{stroke:url(#linear-gradient-14);}.cls-15{stroke:url(#linear-gradient-15);}.cls-16{stroke:url(#linear-gradient-16);}.cls-17{fill:#0dd7ff;fill-opacity:0.7;}.cls-18{stroke:url(#linear-gradient-17);}.cls-19{stroke:url(#linear-gradient-18);}</style><linearGradient id="linear-gradient" x1="-7413.3" y1="219.71" x2="-7378.42" y2="219.71" gradientTransform="translate(7328.11 -1479.22) rotate(-10.05)" gradientUnits="userSpaceOnUse"><stop offset="0" stop-color="#0389ff"/><stop offset="0.5" stop-color="#0dd7ff"/><stop offset="1" stop-color="#fff"/></linearGradient><linearGradient id="linear-gradient-2" x1="-7416.92" y1="228.36" x2="-7357.93" y2="228.36" xlink:href="#linear-gradient"/><linearGradient id="linear-gradient-3" y1="60.33" x2="70" y2="60.33" gradientUnits="userSpaceOnUse"><stop offset="0" stop-color="#1c79c4"/><stop offset="0.51" stop-color="#0389ff"/><stop offset="1" stop-color="#0dd7ff"/></linearGradient><linearGradient id="linear-gradient-4" x1="0.27" y1="44.33" x2="69.73" y2="44.33" xlink:href="#linear-gradient-3"/><linearGradient id="linear-gradient-5" x1="-1302.69" y1="-2808.96" x2="-1246.66" y2="-2808.96" gradientTransform="matrix(0.79, -0.45, 0.1, 1.21, 1341.68, 2889.78)" xlink:href="#linear-gradient-3"/><linearGradient id="linear-gradient-6" x1="59.09" y1="79.96" x2="73.67" y2="71.72" xlink:href="#linear-gradient-3"/><linearGradient id="linear-gradient-7" x1="-1277.63" y1="-2795.2" x2="-1270.73" y2="-2795.2" gradientTransform="matrix(0.79, -0.45, 0.1, 1.21, 1341.68, 2889.78)" xlink:href="#linear-gradient-3"/><linearGradient id="linear-gradient-8" x1="-1275.16" y1="-2819.77" x2="-1275.16" y2="-2822.72" gradientTransform="matrix(0.79, -0.45, 0.1, 1.21, 1341.68, 2889.78)" gradientUnits="userSpaceOnUse"><stop offset="0" stop-color="#0dd7ff"/><stop offset="0.49" stop-color="#0389ff"/><stop offset="1" stop-color="#1c79c4"/></linearGradient><linearGradient id="linear-gradient-9" x1="-19.73" y1="2434.35" x2="-19.73" y2="2431.41" gradientTransform="matrix(0.63, 0.54, -0.49, 1.17, 1281.8, -2786.19)" xlink:href="#linear-gradient-8"/><linearGradient id="linear-gradient-10" x1="-1350.51" y1="-1343.81" x2="-1350.51" y2="-1346.76" gradientTransform="matrix(0.79, -0.19, -0.07, 1.27, 1045.59, 1512.68)" xlink:href="#linear-gradient-8"/><linearGradient id="linear-gradient-11" x1="831.71" y1="3407.9" x2="831.71" y2="3404.95" gradientTransform="matrix(0.53, 0.74, -0.6, 1.05, 1675.78, -4149.19)" xlink:href="#linear-gradient-8"/><linearGradient id="linear-gradient-12" x1="2176.65" y1="4412.96" x2="2176.65" y2="4410.01" gradientTransform="matrix(0.37, 0.97, -0.71, 0.85, 2383.49, -5792.46)" xlink:href="#linear-gradient-8"/><linearGradient id="linear-gradient-13" x1="9838.49" y1="-7424.56" x2="9838.49" y2="-7427.51" gradientTransform="matrix(-0.49, 1.17, 0.63, 0.54, 9551.99, -7464.28)" xlink:href="#linear-gradient-8"/><linearGradient id="linear-gradient-14" x1="12288.4" y1="-4240.39" x2="12288.4" y2="-4243.33" gradientTransform="matrix(-0.75, 0.69, 0.26, 1.09, 10425.35, -3793.05)" xlink:href="#linear-gradient-8"/><linearGradient id="linear-gradient-15" x1="8726.68" y1="-8084.68" x2="8726.68" y2="-8087.63" gradientTransform="matrix(-0.37, 1.25, 0.71, 0.31, 8983.6, -8282.91)" xlink:href="#linear-gradient-8"/><linearGradient id="linear-gradient-16" x1="7140.99" y1="-8616.44" x2="7140.99" y2="-8619.39" gradientTransform="matrix(-0.19, 1.29, 0.77, 0.01, 8085.76, -9017.99)" xlink:href="#linear-gradient-8"/><linearGradient id="linear-gradient-17" x1="8.75" y1="57.83" x2="49.25" y2="57.83" xlink:href="#linear-gradient-3"/><linearGradient id="linear-gradient-18" x1="8.75" y1="66.08" x2="41.75" y2="66.08" xlink:href="#linear-gradient-3"/></defs><title>publisher_icon_fast</title><g id="Layer_2" data-name="Layer 2"><g id="Art"><line class="cls-1" x1="99.5" y1="19.83" x2="68.86" y2="36.74"/><line class="cls-2" x1="120.5" y1="20.83" x2="67.5" y2="49.83"/><polygon class="cls-3" points="0.5 55.83 0.5 103.83 69.5 64.83 69.5 16.83 0.5 55.83"/><line class="cls-4" x1="0.5" y1="63.83" x2="69.5" y2="24.83"/><path class="cls-5" d="M84,71.9C82.53,53.54,71.58,44.18,59.55,51S38.94,78.2,40.41,96.56Z"/><path class="cls-6" d="M62.5,82.53l1.57,1.31L70.91,67a.2.2,0,0,0-.36-.18L61,83.33"/><path class="cls-7" d="M64.93,82.69c-.16-2-1.33-3-2.62-2.24s-2.21,2.92-2.05,4.88,1.33,3,2.62,2.24S65.09,84.66,64.93,82.69Z"/><line class="cls-8" x1="59.16" y1="51.21" x2="59.44" y2="54.77"/><line class="cls-9" x1="73.78" y1="50.31" x2="72.33" y2="53.76"/><line class="cls-10" x1="66.55" y1="48.93" x2="66.35" y2="52.69"/><line class="cls-11" x1="78.3" y1="54.22" x2="76.54" y2="57.32"/><line class="cls-12" x1="81.37" y1="60.32" x2="79.29" y2="62.82"/><line class="cls-13" x1="47.17" y1="64.74" x2="49.03" y2="66.32"/><line class="cls-14" x1="52.79" y1="56.09" x2="53.55" y2="59.3"/><line class="cls-15" x1="42.96" y1="74.83" x2="45.04" y2="75.76"/><line class="cls-16" x1="41.09" y1="83.72" x2="43.38" y2="83.76"/><circle class="cls-17" cx="21.17" cy="115.49" r="1.15"/><circle class="cls-17" cx="26.15" cy="105.15" r="1.15"/><circle class="cls-17" cx="31.49" cy="109.67" r="1.15"/><circle class="cls-17" cx="35" cy="103.82" r="1.15"/><circle class="cls-17" cx="34.49" cy="95.15" r="1.15"/><circle class="cls-17" cx="77.17" cy="21.49" r="1.15"/><circle class="cls-17" cx="7.17" cy="56.49" r="1.15" transform="translate(-49.77 57.41) rotate(-83.69)"/><circle class="cls-17" cx="3.97" cy="58.15" r="1.15" transform="translate(-54.27 55.7) rotate(-83.69)"/><circle class="cls-17" cx="10.37" cy="54.83" r="1.15" transform="translate(-45.27 59.11) rotate(-83.69)"/><circle class="cls-17" cx="82.15" cy="11.15" r="1.15"/><circle class="cls-17" cx="87.49" cy="15.67" r="1.15"/><circle class="cls-17" cx="91" cy="9.82" r="1.15"/><circle class="cls-17" cx="90.49" cy="1.15" r="1.15"/><line class="cls-18" x1="9" y1="69.33" x2="49" y2="46.33"/><line class="cls-19" x1="9" y1="75.33" x2="41.5" y2="56.83"/></g></g></svg>