<svg xmlns="http://www.w3.org/2000/svg" xmlns:xlink="http://www.w3.org/1999/xlink" viewBox="0 0 93.17 103.55"><defs><style>.cls-1{fill:none;stroke:#0389ff;stroke-miterlimit:10;}.cls-1,.cls-2,.cls-3,.cls-4,.cls-5,.cls-8{stroke-linecap:round;}.cls-2,.cls-3,.cls-4,.cls-5,.cls-8{fill:#fff;stroke-linejoin:round;}.cls-2,.cls-3,.cls-4,.cls-5,.cls-7,.cls-8{fill-opacity:0.7;}.cls-2{stroke:url(#linear-gradient);}.cls-3{stroke:url(#linear-gradient-2);}.cls-4{stroke:url(#linear-gradient-3);}.cls-5{stroke:url(#linear-gradient-4);}.cls-6,.cls-9{opacity:0.7;}.cls-6{fill:url(#linear-gradient-5);}.cls-7{fill:#0dd7ff;}.cls-8{stroke:url(#linear-gradient-6);}.cls-9{fill:url(#linear-gradient-7);}</style><linearGradient id="linear-gradient" x1="3.87" y1="59.85" x2="41.49" y2="59.85" gradientUnits="userSpaceOnUse"><stop offset="0" stop-color="#1c79c4"/><stop offset="0.51" stop-color="#0389ff"/><stop offset="1" stop-color="#0dd7ff"/></linearGradient><linearGradient id="linear-gradient-2" x1="8.09" y1="61.02" x2="41.49" y2="61.02" xlink:href="#linear-gradient"/><linearGradient id="linear-gradient-3" x1="13.02" y1="61.72" x2="41.49" y2="61.72" xlink:href="#linear-gradient"/><linearGradient id="linear-gradient-4" x1="9093.2" y1="41.32" x2="9137.62" y2="41.32" gradientTransform="matrix(-1, 0, 0, 1, 9178.07, 0)" xlink:href="#linear-gradient"/><linearGradient id="linear-gradient-5" x1="46.13" y1="43.93" x2="56.85" y2="15.25" xlink:href="#linear-gradient"/><linearGradient id="linear-gradient-6" x1="9097.89" y1="59.14" x2="9137.62" y2="59.14" gradientTransform="matrix(-1, 0, 0, 1, 9178.07, 0)" xlink:href="#linear-gradient"/><linearGradient id="linear-gradient-7" x1="50.22" y1="19.71" x2="52.87" y2="12.63" xlink:href="#linear-gradient"/></defs><title>publisher_icon_business</title><g id="Layer_2" data-name="Layer 2"><g id="Art"><path class="cls-1" d="M.5,41.62,35,24l-.75-.33a.7.7,0,0,1,0-1.27l8.44-4.22a3.52,3.52,0,0,1,3-.07l.59.26L80,.82l.7,57.68L46.93,76.08l-2.11-1.41L32.16,81l3.52,1.41L1.21,99.3Z"/><polygon class="cls-2" points="4.37 42.32 40.99 20.4 40.99 79.6 4.37 99.3 4.37 42.32"/><polygon class="cls-3" points="8.59 44.66 40.99 20.4 40.99 79.6 8.59 101.64 8.59 44.66"/><polygon class="cls-4" points="13.52 46.07 40.99 20.4 40.99 79.6 13.52 103.05 13.52 46.07"/><polygon class="cls-5" points="84.37 3.05 40.95 20.4 40.95 79.6 84.37 60.02 84.37 3.05"/><polygon class="cls-6" points="45.63 18.14 55.19 13.3 57.48 14.18 57.48 40.68 53.26 37.4 48.86 45.6 48.16 19.11 45.63 18.14"/><circle class="cls-7" cx="70.27" cy="36.99" r="0.81"/><circle class="cls-7" cx="73.78" cy="29.73" r="0.81"/><circle class="cls-7" cx="77.53" cy="32.9" r="0.81"/><circle class="cls-7" cx="80" cy="28.79" r="0.81"/><circle class="cls-7" cx="79.64" cy="22.69" r="0.81"/><circle class="cls-7" cx="82.63" cy="19.28" r="0.81"/><circle class="cls-7" cx="86.14" cy="12.02" r="0.81"/><circle class="cls-7" cx="89.89" cy="15.19" r="0.81"/><circle class="cls-7" cx="92.36" cy="11.08" r="0.81"/><circle class="cls-7" cx="92" cy="4.98" r="0.81"/><polygon class="cls-8" points="79.68 40.91 40.95 20.4 40.95 79.6 79.68 97.89 79.68 40.91"/><polygon class="cls-9" points="57.48 14.18 48.08 19.07 45.63 18.11 55.32 13.22 57.48 14.18"/></g></g></svg>