<svg xmlns="http://www.w3.org/2000/svg" xmlns:xlink="http://www.w3.org/1999/xlink" width="117.45" height="142.04" viewBox="0 0 117.45 142.04">
  <defs>
    <linearGradient id="linear-gradient" x1="-7427.27" y1="221.85" x2="-7362.83" y2="221.85" gradientTransform="translate(7329.81 -1486.87) rotate(-10.05)" gradientUnits="userSpaceOnUse">
      <stop offset="0" stop-color="#0386ff"/>
      <stop offset="0.5" stop-color="#0dd4ff"/>
      <stop offset="1" stop-color="#fff"/>
    </linearGradient>
    <linearGradient id="linear-gradient-2" x1="-7440.11" y1="238.83" x2="-7383.77" y2="238.83" xlink:href="#linear-gradient"/>
    <linearGradient id="linear-gradient-3" x1="29.63" y1="69.99" x2="72.54" y2="6.82" gradientUnits="userSpaceOnUse">
      <stop offset="0" stop-color="#1c79c4"/>
      <stop offset="0.51" stop-color="#0389ff"/>
      <stop offset="1" stop-color="#0dd4ff"/>
    </linearGradient>
    <linearGradient id="linear-gradient-4" x1="30.82" y1="68.75" x2="54.84" y2="33.38" xlink:href="#linear-gradient-3"/>
    <linearGradient id="linear-gradient-5" x1="74.67" y1="8.9" x2="74.67" y2="8.9" xlink:href="#linear-gradient-3"/>
    <linearGradient id="linear-gradient-6" x1="42.83" y1="25.57" x2="42.83" y2="25.57" xlink:href="#linear-gradient-3"/>
    <linearGradient id="linear-gradient-7" x1="41.17" y1="27.79" x2="60.66" y2="-0.9" xlink:href="#linear-gradient-3"/>
    <linearGradient id="linear-gradient-8" x1="56.6" y1="54.56" x2="56.6" y2="54.56" xlink:href="#linear-gradient-3"/>
    <linearGradient id="linear-gradient-9" x1="63.67" y1="56.9" x2="63.67" y2="56.9" xlink:href="#linear-gradient-3"/>
    <linearGradient id="linear-gradient-10" x1="15.83" y1="81.57" x2="15.83" y2="81.57" xlink:href="#linear-gradient-3"/>
    <linearGradient id="linear-gradient-11" x1="10.86" y1="112.94" x2="53.58" y2="50.05" xlink:href="#linear-gradient-3"/>
    <linearGradient id="linear-gradient-12" x1="7.89" y1="109.51" x2="23.78" y2="86.12" gradientUnits="userSpaceOnUse">
      <stop offset="0" stop-color="#1c79c4"/>
      <stop offset="1" stop-color="#0389ff"/>
    </linearGradient>
    <linearGradient id="linear-gradient-13" x1="17.91" y1="85.73" x2="45.76" y2="44.73" xlink:href="#linear-gradient-3"/>
    <linearGradient id="linear-gradient-14" x1="32.3" y1="74.82" x2="44.58" y2="56.75" xlink:href="#linear-gradient-3"/>
    <linearGradient id="linear-gradient-15" x1="17.3" y1="67.24" x2="29.58" y2="49.16" xlink:href="#linear-gradient-3"/>
    <linearGradient id="linear-gradient-16" x1="101.17" y1="72.75" x2="101.17" y2="72.75" xlink:href="#linear-gradient-3"/>
    <linearGradient id="linear-gradient-17" x1="66.48" y1="90.64" x2="66.48" y2="90.64" xlink:href="#linear-gradient-3"/>
    <linearGradient id="linear-gradient-18" x1="62.58" y1="113.82" x2="94.15" y2="67.34" xlink:href="#linear-gradient-3"/>
    <linearGradient id="linear-gradient-19" x1="60.76" y1="111.02" x2="72.2" y2="94.18" xlink:href="#linear-gradient-3"/>
    <linearGradient id="linear-gradient-20" x1="67.86" y1="94.17" x2="88.47" y2="63.84" xlink:href="#linear-gradient-3"/>
  </defs>
  <title>Asset 16</title>
  <g id="Layer_2" data-name="Layer 2">
    <g id="Art">
      <g>
        <line x1="116.17" y1="7.07" x2="57.95" y2="38.14" style="fill: none;stroke-miterlimit: 10;stroke-width: 5.45433895845386px;opacity: 0.8;stroke: url(#linear-gradient)"/>
        <line x1="98.83" y1="29.07" x2="47.95" y2="55.48" style="fill: none;stroke-miterlimit: 10;stroke-width: 5.45433895845386px;opacity: 0.8;stroke: url(#linear-gradient-2)"/>
        <g>
          <g>
            <polygon points="27 67.57 27 17.57 58.83 0.57 74.67 8.9 74.67 58.9 74.67 59.61 74.67 59.98 42.83 76.57 27 67.57" style="fill: #fff;fill-opacity: 0.9;stroke-miterlimit: 10;stroke: url(#linear-gradient-3)"/>
            <line x1="42.83" y1="76.57" x2="42.83" y2="25.57" style="fill: none;stroke-miterlimit: 10;stroke: url(#linear-gradient-4)"/>
            <path d="M74.67,8.9" style="fill: none;stroke-miterlimit: 10;stroke: url(#linear-gradient-5)"/>
            <path d="M42.83,25.57" style="fill: none;stroke-miterlimit: 10;stroke: url(#linear-gradient-6)"/>
            <polyline points="27 17.57 42.83 25.57 74.67 8.9" style="fill: none;stroke-miterlimit: 10;stroke: url(#linear-gradient-7)"/>
          </g>
          <g>
            <circle cx="84" cy="57.4" r="1.15" style="fill: #0dd4ff;fill-opacity: 0.7000000000000001"/>
            <circle cx="88.99" cy="47.07" r="1.15" style="fill: #0dd4ff;fill-opacity: 0.7000000000000001"/>
            <circle cx="94.32" cy="51.58" r="1.15" style="fill: #0dd4ff;fill-opacity: 0.7000000000000001"/>
            <circle cx="97.83" cy="45.73" r="1.15" style="fill: #0dd4ff;fill-opacity: 0.7000000000000001"/>
            <circle cx="97.32" cy="37.07" r="1.15" style="fill: #0dd4ff;fill-opacity: 0.7000000000000001"/>
          </g>
          <path d="M56.6,54.56" style="stroke: #fff;stroke-miterlimit: 10;stroke-width: 1.30191540718079px;fill: url(#linear-gradient-8)"/>
          <g>
            <path d="M63.67,56.9" style="fill: none;stroke-miterlimit: 10;stroke: url(#linear-gradient-9)"/>
            <path d="M15.83,81.57" style="fill: none;stroke-miterlimit: 10;stroke: url(#linear-gradient-10)"/>
            <polygon points="0 105.57 0 73.57 47.83 48.57 63.67 56.9 63.67 88.9 63.67 90.56 63.67 90.57 15.83 114.57 0 105.57" style="fill-opacity: 0.8;fill: url(#linear-gradient-11)"/>
            <line x1="15.83" y1="114.57" x2="15.83" y2="81.07" style="fill: none;stroke-miterlimit: 10;stroke: url(#linear-gradient-12)"/>
            <g>
              <polygon points="63.67 56.9 15.83 81.57 0 73.57 48 48.65 63.67 56.9" style="fill: #fff;opacity: 0.7000000000000001"/>
              <path d="M48,49.78,61.5,56.89,15.83,80.44,2.19,73.55,48,49.78m0-1.13L0,73.57l15.83,8L63.67,56.9,48,48.65Z" style="fill: url(#linear-gradient-13)"/>
            </g>
            <path d="M30.83,73.48V67.36a5,5,0,0,1,2.71-4.44l9.88-5.1a2,2,0,0,1,2.92,1.78v5.88" style="fill: none;stroke-miterlimit: 10;stroke: url(#linear-gradient-14)"/>
            <path d="M15.83,65.9V59.78a5,5,0,0,1,2.71-4.44l9.88-5.1A2,2,0,0,1,31.33,52V57.9" style="fill: none;stroke-miterlimit: 10;stroke: url(#linear-gradient-15)"/>
          </g>
          <g>
            <path d="M101.17,72.75" style="fill: none;stroke-miterlimit: 10;stroke: url(#linear-gradient-16)"/>
            <path d="M66.48,90.64" style="fill: none;stroke-miterlimit: 10;stroke: url(#linear-gradient-17)"/>
            <polygon points="55 108.04 55 84.84 89.69 66.71 101.17 72.75 101.17 95.95 101.17 97.16 101.17 97.16 66.48 114.57 55 108.04" style="fill: #fff;fill-opacity: 0.7000000000000001;stroke-miterlimit: 10;stroke: url(#linear-gradient-18)"/>
            <line x1="66.48" y1="114.57" x2="66.48" y2="90.64" style="fill: none;stroke-miterlimit: 10;stroke: url(#linear-gradient-19)"/>
            <polyline points="55 84.84 66.48 90.64 101.17 72.75" style="fill: none;stroke-miterlimit: 10;stroke: url(#linear-gradient-20)"/>
          </g>
          <g>
            <circle cx="36" cy="140.89" r="1.15" style="fill: #0dd4ff;fill-opacity: 0.7000000000000001"/>
            <circle cx="40.99" cy="130.55" r="1.15" style="fill: #0dd4ff;fill-opacity: 0.7000000000000001"/>
            <circle cx="46.32" cy="135.07" r="1.15" style="fill: #0dd4ff;fill-opacity: 0.7000000000000001"/>
            <circle cx="49.83" cy="129.22" r="1.15" style="fill: #0dd4ff;fill-opacity: 0.7000000000000001"/>
            <circle cx="49.32" cy="120.55" r="1.15" style="fill: #0dd4ff;fill-opacity: 0.7000000000000001"/>
          </g>
          <polyline points="73.33 74.4 84.83 81.57 85.33 105.9" style="fill: none;stroke: #0dd4ff;stroke-linecap: round;stroke-miterlimit: 10"/>
          <polyline points="60.33 111.73 60.33 87.82 94.67 69.36" style="fill: none;stroke: #0dd4ff;stroke-linecap: round;stroke-linejoin: round"/>
          <polygon points="76 94.07 69 97.73 69 92.73 76 89.07 76 94.07" style="fill: none;stroke: #0dd4ff;stroke-miterlimit: 10"/>
          <polygon points="54.5 35.57 47.5 39.23 47.5 28.73 54.5 25.07 54.5 35.57" style="fill: none;stroke: #0dd4ff;stroke-miterlimit: 10"/>
          <line x1="51.08" y1="30.36" x2="59.21" y2="26.11" style="fill: none;stroke: #0dd4ff;stroke-linecap: round;stroke-miterlimit: 10"/>
          <line x1="51.21" y1="32.98" x2="59.33" y2="28.73" style="fill: none;stroke: #0dd4ff;stroke-linecap: round;stroke-miterlimit: 10"/>
        </g>
      </g>
    </g>
  </g>
</svg>
