<svg xmlns="http://www.w3.org/2000/svg" xmlns:xlink="http://www.w3.org/1999/xlink" width="161.65" height="158.05" viewBox="0 0 161.65 158.05">
  <defs>
    <linearGradient id="linear-gradient" x1="-7421.54" y1="277.39" x2="-7355.19" y2="277.39" gradientTransform="translate(7321.85 -1544.07) rotate(-10.05)" gradientUnits="userSpaceOnUse">
      <stop offset="0" stop-color="#0386ff"/>
      <stop offset="0.5" stop-color="#0dd4ff"/>
      <stop offset="1" stop-color="#fff"/>
    </linearGradient>
    <linearGradient id="linear-gradient-2" x1="20.07" y1="133.25" x2="110.63" y2="42.69" gradientUnits="userSpaceOnUse">
      <stop offset="0" stop-color="#1c79c4"/>
      <stop offset="0.51" stop-color="#0389ff"/>
      <stop offset="1" stop-color="#0dd4ff"/>
    </linearGradient>
    <linearGradient id="linear-gradient-3" x1="14.9" y1="127.23" x2="74.39" y2="67.74" xlink:href="#linear-gradient-2"/>
    <linearGradient id="linear-gradient-4" x1="76.24" y1="131.37" x2="99.73" y2="107.88" xlink:href="#linear-gradient-2"/>
    <linearGradient id="linear-gradient-5" x1="2.94" y1="111.3" x2="87.08" y2="27.15" xlink:href="#linear-gradient-2"/>
    <linearGradient id="linear-gradient-6" x1="31.75" y1="134.95" x2="90.08" y2="76.62" xlink:href="#linear-gradient-2"/>
    <linearGradient id="linear-gradient-7" x1="0.02" y1="46.31" x2="62.61" y2="46.31" xlink:href="#linear-gradient-2"/>
    <linearGradient id="linear-gradient-8" x1="0" y1="37.96" x2="62.62" y2="37.96" xlink:href="#linear-gradient-2"/>
    <linearGradient id="linear-gradient-9" x1="18" y1="45.73" x2="42.65" y2="27.82" gradientUnits="userSpaceOnUse">
      <stop offset="0" stop-color="#1c79c4"/>
      <stop offset="0.51" stop-color="#0389ff"/>
      <stop offset="1" stop-color="#0dd4ff"/>
    </linearGradient>
    <linearGradient id="linear-gradient-10" x1="45.15" y1="46.48" x2="51.76" y2="46.48" xlink:href="#linear-gradient-2"/>
    <linearGradient id="linear-gradient-11" x1="-7407.15" y1="300.2" x2="-7323.32" y2="300.2" gradientTransform="translate(7321.85 -1544.07) rotate(-10.05)" gradientUnits="userSpaceOnUse">
      <stop offset="0" stop-color="#1c79c4"/>
      <stop offset="1" stop-color="#fff"/>
    </linearGradient>
    <linearGradient id="linear-gradient-12" x1="79.02" y1="59.78" x2="110.02" y2="59.78" xlink:href="#linear-gradient-2"/>
    <linearGradient id="linear-gradient-13" x1="72.43" y1="73.84" x2="116.09" y2="42.12" xlink:href="#linear-gradient-9"/>
    <linearGradient id="linear-gradient-14" x1="76.24" y1="59.02" x2="110" y2="59.02" xlink:href="#linear-gradient-2"/>
    <linearGradient id="linear-gradient-15" x1="92.65" y1="84.86" x2="99.26" y2="84.86" xlink:href="#linear-gradient-2"/>
  </defs>
  <title>Asset 17</title>
  <g id="Layer_2" data-name="Layer 2">
    <g id="Art">
      <g>
        <line x1="125.24" y1="2.39" x2="65.52" y2="35.46" style="fill: none;stroke-miterlimit: 10;stroke-width: 5.45433895845386px;opacity: 0.8;stroke: url(#linear-gradient)"/>
        <polygon points="83.1 16.51 80.95 17.72 4.91 59.1 5.43 117.81 58.56 145.22 136.51 104.87 138.74 103.64 83.19 77.03 83.1 16.51" style="fill: #fff;stroke-miterlimit: 10;stroke: url(#linear-gradient-2)"/>
        <line x1="5.82" y1="117.93" x2="83.47" y2="77.03" style="fill: none;stroke-miterlimit: 10;stroke: url(#linear-gradient-3)"/>
        <polygon points="68.91 122.97 94.03 109.68 107.03 116.28 81.42 129.56 68.91 122.97" style="fill: #fff;stroke-miterlimit: 10;stroke: url(#linear-gradient-4)"/>
        <polyline points="8.53 116.39 8.27 61.17 80.36 21.76 80.95 78.39" style="fill: none;stroke-miterlimit: 10;stroke: url(#linear-gradient-5)"/>
        <polygon points="83.57 82.3 15.79 117.85 38.79 128.75 106.06 93.7 83.57 82.3" style="fill: #fff;stroke-miterlimit: 10;stroke: url(#linear-gradient-6)"/>
        <g>
          <polyline points="0.52 32.26 0.79 37.23 40.07 59.81 62.01 47.47 62.11 42.89" style="fill: #fff;stroke-miterlimit: 10;stroke: url(#linear-gradient-7)"/>
          <polygon points="1.06 32.31 40.8 54.75 61.6 42.86 22.88 21.16 1.06 32.31" style="fill: #fff;fill-opacity: 0.7000000000000001;stroke-miterlimit: 10;stroke: url(#linear-gradient-8)"/>
          <polygon points="8.45 32.59 37.97 49.11 52.2 40.97 23.39 24.96 8.45 32.59" style="fill-opacity: 0.8;fill: url(#linear-gradient-9)"/>
          <line x1="45.65" y1="48.16" x2="51.26" y2="44.8" style="fill: none;stroke-linecap: round;stroke-miterlimit: 10;stroke: url(#linear-gradient-10)"/>
        </g>
        <g>
          <circle cx="121.64" cy="84.03" r="1.15" style="fill: #0dd4ff;opacity: 0.7000000000000001"/>
          <circle cx="126.62" cy="73.7" r="1.15" style="fill: #0dd4ff;opacity: 0.7000000000000001"/>
          <circle cx="131.96" cy="78.21" r="1.15" style="fill: #0dd4ff;opacity: 0.7000000000000001"/>
          <circle cx="135.47" cy="72.36" r="1.15" style="fill: #0dd4ff;opacity: 0.7000000000000001"/>
          <circle cx="134.96" cy="63.7" r="1.15" style="fill: #0dd4ff;opacity: 0.7000000000000001"/>
        </g>
        <line x1="160.41" y1="17.72" x2="83.85" y2="56.96" style="fill: none;stroke-miterlimit: 10;stroke-width: 5.45433895845386px;stroke: url(#linear-gradient-11)"/>
        <g>
          <circle cx="2.12" cy="156.9" r="1.15" style="fill: #0dd4ff;opacity: 0.7000000000000001"/>
          <circle cx="7.11" cy="146.56" r="1.15" style="fill: #0dd4ff;opacity: 0.7000000000000001"/>
          <circle cx="12.45" cy="151.08" r="1.15" style="fill: #0dd4ff;opacity: 0.7000000000000001"/>
          <circle cx="15.96" cy="145.23" r="1.15" style="fill: #0dd4ff;opacity: 0.7000000000000001"/>
          <circle cx="15.45" cy="136.56" r="1.15" style="fill: #0dd4ff;opacity: 0.7000000000000001"/>
        </g>
        <g>
          <polygon points="79.67 37.09 109.52 21.79 109.52 82.24 79.52 97.76 79.67 37.09" style="fill: #fff;fill-opacity: 0.7000000000000001;stroke-miterlimit: 10;stroke: url(#linear-gradient-12)"/>
          <polygon points="83.4 39.39 106.01 28.24 106.01 75.92 82.68 87.94 83.4 39.39" style="fill-opacity: 0.8;fill: url(#linear-gradient-13)"/>
        </g>
        <polyline points="109.78 21.51 106.86 20.05 76.91 35.89 76.74 96.39 79.32 98.14" style="fill: none;stroke-miterlimit: 10;stroke: url(#linear-gradient-14)"/>
        <line x1="93.15" y1="86.53" x2="98.76" y2="83.18" style="fill: none;stroke-linecap: round;stroke-miterlimit: 10;stroke: url(#linear-gradient-15)"/>
      </g>
    </g>
  </g>
</svg>
