<svg xmlns="http://www.w3.org/2000/svg" xmlns:xlink="http://www.w3.org/1999/xlink" viewBox="0 0 65 65"><defs><style>.cls-1,.cls-2{fill:#fff;}.cls-1{fill-opacity:0.7;stroke:#ff5252;stroke-linejoin:round;}.cls-2{opacity:0.7;}.cls-3{fill:#ff5252;}</style><symbol id="New_Symbol_2" data-name="New Symbol 2" viewBox="0 0 36.32 32.27"><polygon class="cls-1" points="0.5 31.77 18.16 0.5 35.82 31.77 0.5 31.77"/><circle class="cls-2" cx="18.16" cy="24.8" r="1.53"/><path class="cls-3" d="M18.16,23.77a1,1,0,1,1-1,1,1,1,0,0,1,1-1m0-1a2,2,0,1,0,2,2,2,2,0,0,0-2-2Z"/><polygon class="cls-2" points="17 21.23 16.21 13.01 20.11 13.01 19.32 21.23 17 21.23"/><path class="cls-3" d="M19.56,13.51l-.69,7.22H17.45l-.69-7.22h2.79m1.1-1h-5l.1,1.09.69,7.22.09.91h3.24l.09-.91.69-7.22.1-1.09Z"/></symbol></defs><title>icon_important1</title><g id="Layer_1" data-name="Layer 1"><use id="New_Symbol_2-3" data-name="New Symbol 2" width="36.32" height="32.27" transform="translate(14.15 15.48)" xlink:href="#New_Symbol_2"/></g></svg>