<svg xmlns="http://www.w3.org/2000/svg" xmlns:xlink="http://www.w3.org/1999/xlink" width="65" height="65" viewBox="0 0 65 65"><defs><style>.cls-1,.cls-4,.cls-6,.cls-7,.cls-8,.cls-9{fill:none;}.cls-1{stroke:#0dd7ff;stroke-linecap:round;}.cls-1,.cls-2,.cls-4,.cls-5,.cls-7,.cls-8,.cls-9{stroke-miterlimit:10;}.cls-2,.cls-3,.cls-5{fill:#fff;}.cls-2{fill-opacity:0.8;stroke:url(#linear-gradient);}.cls-3{opacity:0.7;}.cls-4{stroke:url(#linear-gradient-2);}.cls-5{fill-opacity:0.7;stroke:url(#linear-gradient-3);}.cls-6{stroke-linejoin:round;stroke:url(#linear-gradient-4);}.cls-7{stroke:url(#linear-gradient-5);}.cls-8{stroke:url(#linear-gradient-6);}.cls-9{stroke:url(#linear-gradient-7);}</style><linearGradient id="linear-gradient" x1="262.79" y1="-16.28" x2="292.75" y2="-16.28" gradientTransform="translate(-262.42 44.4) rotate(-2.51)" gradientUnits="userSpaceOnUse"><stop offset="0" stop-color="#1c79c4"/><stop offset="0.51" stop-color="#0389ff"/><stop offset="1" stop-color="#0dd7ff"/></linearGradient><linearGradient id="linear-gradient-2" x1="859.93" y1="12065.9" x2="884.61" y2="12065.9" gradientTransform="translate(2301.7 11893.82) rotate(173.25)" xlink:href="#linear-gradient"/><linearGradient id="linear-gradient-3" x1="859.93" y1="12065.9" x2="884.61" y2="12065.9" gradientTransform="translate(2301.7 11893.82) rotate(173.25)" gradientUnits="userSpaceOnUse"><stop offset="0" stop-color="#1c79c4"/><stop offset="1" stop-color="#0389ff"/></linearGradient><linearGradient id="linear-gradient-4" x1="25" y1="22.75" x2="30.39" y2="22.75" gradientTransform="matrix(1, 0, 0, 1, 0, 0)" xlink:href="#linear-gradient-3"/><linearGradient id="linear-gradient-5" x1="692.64" y1="-47.26" x2="707.13" y2="-47.26" gradientTransform="translate(-673.84 138.43) rotate(-6.49)" xlink:href="#linear-gradient"/><linearGradient id="linear-gradient-6" x1="692.87" y1="-40.59" x2="706.97" y2="-40.59" gradientTransform="translate(-673.84 138.43) rotate(-6.49)" xlink:href="#linear-gradient"/><linearGradient id="linear-gradient-7" x1="692.76" y1="-43.91" x2="704.26" y2="-43.91" gradientTransform="translate(-673.84 138.43) rotate(-6.49)" xlink:href="#linear-gradient"/><symbol id="New_Symbol_1" data-name="New Symbol 1" viewBox="0 0 30.41 30.34"><path class="cls-1" d="M12.28,1.84A1.89,1.89,0,0,1,14.1.5h0"/><rect class="cls-2" x="0.5" y="2.11" width="27.73" height="27.73"/><polygon class="cls-3" points="4.05 3.73 27.57 0.94 29.89 20.54 26.11 24.96 6.84 27.24 4.05 3.73"/><polygon class="cls-4" points="4.05 3.73 27.57 0.94 29.89 20.54 26.11 24.96 6.84 27.24 4.05 3.73"/><polygon class="cls-5" points="4.05 3.73 27.57 0.94 29.89 20.54 26.11 24.96 6.84 27.24 4.05 3.73"/><path class="cls-1" d="M14.1.5A1.89,1.89,0,0,1,16,2.38V7.14A1.89,1.89,0,0,1,14.1,9h0A1.89,1.89,0,0,1,12.2,7.14V4.83"/><polygon class="cls-6" points="29.89 20.54 25.5 21.18 26.11 24.96 29.89 20.54"/><line class="cls-7" x1="9.03" y1="13.2" x2="23.43" y2="11.57"/><line class="cls-8" x1="10.01" y1="19.81" x2="24.01" y2="18.21"/><line class="cls-9" x1="9.52" y1="16.52" x2="20.95" y2="15.22"/></symbol></defs><title>icon_note</title><g id="Layer_1" data-name="Layer 1"><use width="30.41" height="30.33" transform="translate(17.3 17.33)" xlink:href="#New_Symbol_1"/></g></svg>