<svg xmlns="http://www.w3.org/2000/svg" viewBox="0 0 65 65"><defs><style>.cls-1{fill:#fff;}.cls-1,.cls-2,.cls-3{stroke:#00e676;stroke-miterlimit:10;}.cls-2,.cls-3{fill:none;}.cls-3{stroke-linecap:round;}</style></defs><title>icon_tip1</title><g id="Layer_1" data-name="Layer 1"><path class="cls-1" d="M41.63,33.11a9.15,9.15,0,1,0-16.46,5.5h0a16.83,16.83,0,0,1,3.39,9.61H36.4a16.83,16.83,0,0,1,3.39-9.61h0A9.1,9.1,0,0,0,41.63,33.11Z"/><path class="cls-2" d="M34.39,33.14a1.29,1.29,0,1,1,1.29,1.29H29.28a1.29,1.29,0,1,1,1.29-1.29V48.22h3.82Z"/><line class="cls-3" x1="32.48" y1="11.86" x2="32.48" y2="18.93"/><line class="cls-3" x1="17.9" y1="16.91" x2="22.9" y2="21.91"/><line class="cls-3" x1="11.88" y1="31.5" x2="18.95" y2="31.5"/><line class="cls-3" x1="53.12" y1="31.46" x2="46.05" y2="31.46"/><line class="cls-3" x1="47.07" y1="16.88" x2="42.07" y2="21.88"/><rect class="cls-2" x="28.52" y="48.22" width="7.92" height="3.62"/></g></svg>