<svg xmlns="http://www.w3.org/2000/svg" xmlns:xlink="http://www.w3.org/1999/xlink" width="65" height="65" viewBox="0 0 65 65"><defs><style>.cls-1{fill:#fff;fill-opacity:0.7;stroke:url(#linear-gradient);}.cls-1,.cls-2,.cls-3,.cls-4{stroke-miterlimit:10;}.cls-2,.cls-3,.cls-4{fill:none;}.cls-2{stroke:url(#linear-gradient-2);}.cls-3{stroke:#0dd7ff;stroke-linecap:round;}.cls-4{stroke:url(#linear-gradient-3);}</style><linearGradient id="linear-gradient" x1="11.45" y1="24.73" x2="30.76" y2="24.73" gradientUnits="userSpaceOnUse"><stop offset="0" stop-color="#1c79c4"/><stop offset="0.51" stop-color="#0389ff"/><stop offset="1" stop-color="#0dd7ff"/></linearGradient><linearGradient id="linear-gradient-2" x1="6232.14" y1="28.68" x2="6242.11" y2="28.68" gradientTransform="matrix(-1, 0, 0, 1, 6258.22, 0)" xlink:href="#linear-gradient"/><linearGradient id="linear-gradient-3" x1="16.64" y1="38.67" x2="25.56" y2="38.67" gradientUnits="userSpaceOnUse"><stop offset="0" stop-color="#1c79c4"/><stop offset="1" stop-color="#0389ff"/></linearGradient><symbol id="New_Symbol" data-name="New Symbol" viewBox="0 0 42.24 40.98"><path class="cls-1" d="M30.26,21.75a9.15,9.15,0,1,0-16.46,5.5h0a16.83,16.83,0,0,1,3.39,9.61H25a16.83,16.83,0,0,1,3.39-9.61h0A9.1,9.1,0,0,0,30.26,21.75Z"/><path class="cls-2" d="M23,21.78a1.29,1.29,0,1,1,1.29,1.29H17.9a1.29,1.29,0,1,1,1.29-1.29V36.86H23Z"/><line class="cls-3" x1="21.1" y1="0.5" x2="21.1" y2="7.57"/><line class="cls-3" x1="6.53" y1="5.55" x2="11.53" y2="10.55"/><line class="cls-3" x1="0.5" y1="20.14" x2="7.57" y2="20.14"/><line class="cls-3" x1="41.74" y1="20.1" x2="34.67" y2="20.1"/><line class="cls-3" x1="35.69" y1="5.52" x2="30.69" y2="10.52"/><rect class="cls-4" x="17.14" y="36.86" width="7.92" height="3.62"/></symbol></defs><title>icon_tip</title><g id="Layer_1" data-name="Layer 1"><use id="New_Symbol-3" data-name="New Symbol" width="42.24" height="40.98" transform="translate(11.38 12.01)" xlink:href="#New_Symbol"/></g></svg>