<svg xmlns="http://www.w3.org/2000/svg" xmlns:xlink="http://www.w3.org/1999/xlink" width="65" height="65" viewBox="0 0 65 65"><defs><style>.cls-1,.cls-3{fill:#fff;}.cls-1{fill-opacity:0.7;stroke:url(#linear-gradient);}.cls-1,.cls-2{stroke-linejoin:round;}.cls-2{fill:none;stroke:#0dd7ff;stroke-linecap:round;}.cls-3{opacity:0.7;}.cls-4{fill:url(#linear-gradient-2);}.cls-5{fill:url(#linear-gradient-3);}</style><linearGradient id="linear-gradient" y1="16.13" x2="36.32" y2="16.13" gradientUnits="userSpaceOnUse"><stop offset="0" stop-color="#1c79c4"/><stop offset="0.51" stop-color="#0389ff"/><stop offset="1" stop-color="#0dd7ff"/></linearGradient><linearGradient id="linear-gradient-2" x1="18.16" y1="22.77" x2="18.16" y2="26.82" xlink:href="#linear-gradient"/><linearGradient id="linear-gradient-3" x1="15.67" y1="17.12" x2="20.66" y2="17.12" xlink:href="#linear-gradient"/><symbol id="New_Symbol_2" data-name="New Symbol 2" viewBox="0 0 36.32 32.27"><polygon class="cls-1" points="0.5 31.77 18.16 0.5 35.82 31.77 0.5 31.77"/><polygon class="cls-2" points="18.07 4.93 31.93 29.47 4.39 29.16 18.07 4.93"/><circle class="cls-3" cx="18.16" cy="24.8" r="1.03"/><path class="cls-4" d="M18.16,23.77a1,1,0,1,1-1,1,1,1,0,0,1,1-1m0-1a2,2,0,1,0,2,2,2,2,0,0,0-2-2Z"/><polygon class="cls-3" points="16.77 13.51 19.56 13.51 18.87 20.73 17.45 20.73 16.77 13.51"/><path class="cls-5" d="M19.56,13.51l-.69,7.22H17.45l-.69-7.22h2.79m1.1-1h-5l.1,1.09.69,7.22.09.91h3.24l.09-.91.69-7.22.1-1.09Z"/></symbol></defs><title>icon_important</title><g id="Layer_1" data-name="Layer 1"><use width="36.32" height="32.27" transform="translate(14.34 16.37)" xlink:href="#New_Symbol_2"/></g></svg>