<svg xmlns="http://www.w3.org/2000/svg" xmlns:xlink="http://www.w3.org/1999/xlink" width="65" height="65" viewBox="0 0 65 65"><defs><style>.cls-1,.cls-4,.cls-6{fill:#fff;}.cls-1,.cls-4{fill-opacity:0.7;}.cls-1,.cls-2,.cls-4{stroke-miterlimit:10;}.cls-1{stroke:url(#linear-gradient);}.cls-2,.cls-5{fill:none;}.cls-2{stroke:url(#linear-gradient-2);}.cls-3{fill:#0dd7ff;}.cls-4{stroke-linecap:square;stroke:url(#linear-gradient-3);}.cls-5{stroke:#0dd7ff;stroke-linejoin:round;}.cls-6{opacity:0.7;}.cls-7{fill:url(#linear-gradient-4);}</style><linearGradient id="linear-gradient" y1="15.95" x2="27.17" y2="15.95" gradientUnits="userSpaceOnUse"><stop offset="0" stop-color="#1c79c4"/><stop offset="0.51" stop-color="#0389ff"/><stop offset="1" stop-color="#0dd7ff"/></linearGradient><linearGradient id="linear-gradient-2" x1="5.11" y1="13.41" x2="22.07" y2="13.41" gradientUnits="userSpaceOnUse"><stop offset="0" stop-color="#1c79c4"/><stop offset="1" stop-color="#0389ff"/></linearGradient><linearGradient id="linear-gradient-3" y1="31.93" x2="27.17" y2="31.93" xlink:href="#linear-gradient"/><linearGradient id="linear-gradient-4" x1="13.04" y1="7.98" x2="13.04" y2="18.81" xlink:href="#linear-gradient"/><symbol id="New_Symbol_3" data-name="New Symbol 3" viewBox="0 0 27.17 35.06"><polyline class="cls-1" points="0.5 31.91 0.5 0.5 26.67 0.5 26.67 29.31"/><rect class="cls-2" x="5.61" y="5.43" width="15.96" height="15.96"/><circle class="cls-3" cx="10.81" cy="25.62" r="0.75"/><circle class="cls-3" cx="13.59" cy="25.62" r="0.75"/><circle class="cls-3" cx="16.36" cy="25.62" r="0.75"/><path class="cls-4" d="M26.67,34.56H2.3c-1,0-1.8-1.16-1.8-2.6v0c0-1.43.8-2.6,1.8-2.6H26.67"/><line class="cls-5" x1="23.1" y1="31.91" x2="3.13" y2="31.91"/><polygon class="cls-6" points="15.82 15.61 11.52 13.4 15.82 11.19 15.82 9.62 10.27 12.48 10.27 13.4 10.27 14.32 15.82 17.18 15.82 15.61"/><path class="cls-7" d="M15.82,9.62v1.57l-4.3,2.21,4.3,2.21v1.57l-5.56-2.86V12.48l5.56-2.86m1-1.64-1.46.75L9.81,11.59l-.54.28v3.06l.54.28,5.56,2.86,1.46.75V15l-.54-.28L13.71,13.4l2.57-1.32.54-.28V8Z"/></symbol></defs><title>icon_read</title><g id="Layer_1" data-name="Layer 1"><use width="27.17" height="35.06" transform="translate(18.91 14.97)" xlink:href="#New_Symbol_3"/></g></svg>