<svg id="bolt-code" viewBox="0 0 44 44" version="1.1" xmlns="http://www.w3.org/2000/svg" xmlns:xlink="http://www.w3.org/1999/xlink">
    <!-- Generator: Sketch 52.4 (67378) - http://www.bohemiancoding.com/sketch -->
    <g id="bolt-code" stroke="none" stroke-width="1" fill="none" fill-rule="evenodd">
        <g id="Artboard" transform="translate(-763.000000, -4158.000000)">
            <g id="Group-6" transform="translate(764.000000, 4148.000000)">
                <g id="Group-5">
                    <g id="Oval-4" transform="translate(0.000000, 11.000000)">
                        <circle id="Oval" stroke="#005AF0" stroke-width="2" stroke-linejoin="round" cx="21" cy="21" r="21"></circle>
                        <path d="M19.512477,31.2095833 L18.2642577,31.2095833 L19.4983341,23.6368278 L15.676575,23.6423769 C15.676575,23.6423769 15.6405336,23.6433018 15.6231972,23.6433018 C15.2792069,23.6433018 15,23.3602946 15,23.0116223 C15,22.8617949 15.1377786,22.6083832 15.1377786,22.6083832 L22.0048095,11 L23.274015,11.0050867 L22.0089156,18.5898655 L25.8502922,18.5852412 C25.8502922,18.5852412 25.8918082,18.5843163 25.9114257,18.5843163 C26.255416,18.5843163 26.5341667,18.8668611 26.5341667,19.2159959 C26.5341667,19.3574995 26.4798764,19.4818932 26.4018627,19.5873272 L19.512477,31.2095833 Z" id="Fill-7-path" fill="#005AF0" fill-rule="nonzero" transform="translate(20.767083, 21.104792) rotate(-360.000000) translate(-20.767083, -21.104792) "></path>
                        <path d="M11.7999058,15.0058353 C11.5523817,15.0295477 11.3205021,15.1369216 11.1429093,15.3100635 L5.34321612,20.7185826 C5.12422273,20.9230702 5,21.2085446 5,21.5073224 C5,21.8061001 5.12422273,22.0915745 5.34321612,22.2960621 L11.1429093,27.7045632 C11.4261833,27.9703178 11.8304796,28.0655397 12.2034776,27.9543537 C12.5764757,27.8431677 12.8614967,27.542469 12.9511576,27.1655472 C13.0408185,26.7886254 12.921495,26.3927557 12.6381427,26.1270837 L7.68799582,21.5073224 L12.6381427,16.887543 C12.9892474,16.5746143 13.097693,16.0723059 12.9067083,15.6435759 C12.7157236,15.2148459 12.2688017,14.9573291 11.7999058,15.0058353 Z M28.9532983,15.0091049 C28.5297189,15.0614102 28.1760938,15.3554499 28.049198,15.7608653 C27.9223021,16.1662808 28.0456153,16.6080573 28.3644683,16.8903391 L33.312923,21.5089561 L28.3644683,26.127555 C28.0812128,26.3931601 27.9619301,26.7889303 28.0515604,27.1657572 C28.1411906,27.5425841 28.4261142,27.8432072 28.7989847,27.9543652 C29.1718553,28.0655232 29.5760134,27.9703253 29.8591905,27.7046375 L35.6569012,22.2974973 C35.8758197,22.0930612 36,21.8076586 36,21.5089561 C36,21.2102535 35.8758197,20.9248509 35.6569012,20.7204148 L29.8591905,15.3132566 C29.6206483,15.0781365 29.286275,14.9658713 28.9532983,15.0091049 Z" id="Shape" fill="#005AF0" fill-rule="nonzero"></path>
                    </g>
                </g>
            </g>
        </g>
    </g>
</svg>