<svg id="bolt" viewBox="0 0 28 47" version="1.1" xmlns="http://www.w3.org/2000/svg" xmlns:xlink="http://www.w3.org/1999/xlink">
    <!-- Generator: Sketch 52.4 (67378) - http://www.bohemiancoding.com/sketch -->
    <g id="bolt" stroke="none" stroke-width="1" fill="none" fill-rule="evenodd">
        <g id="Artboard" transform="translate(-189.000000, -4287.000000)" fill-rule="nonzero" stroke="#005AF0" stroke-width="2">
            <g id="Group-5" transform="translate(109.000000, 3629.000000)">
                <path d="M90.9896544,703.409588 L88.2263651,703.409588 L90.9583452,686.843765 L82.4977916,686.855905 C82.4977916,686.855905 82.4180037,686.857928 82.3796246,686.857928 C81.6181041,686.857928 81,686.238834 81,685.476094 C81,685.148338 81.3050121,684.593986 81.3050121,684.593986 L96.5071432,659.200005 L99.3168913,659.211132 L96.516233,675.803256 L105.020215,675.79314 C105.020215,675.79314 105.112123,675.791117 105.155552,675.791117 C105.917072,675.791117 106.534167,676.409199 106.534167,677.172951 C106.534167,677.482498 106.41398,677.754616 106.241274,677.985259 L90.9896544,703.409588 Z" id="bolt" transform="translate(93.767083, 681.304796) rotate(-180.000000) translate(-93.767083, -681.304796) "></path>
            </g>
        </g>
    </g>
</svg>