<svg id="news" xmlns="http://www.w3.org/2000/svg" viewBox="0 0 93 72">
<g id="Page-1">
	<g id="Artboard" transform="translate(-234.000000, -136.000000)">
		<g id="Group" transform="translate(234.000000, 136.000000)">
			<path id="Path" class="st0" d="M17.9,38.9h-1.6l1.6-10h-5h-0.1c-0.5,0-0.8-0.4-0.8-0.9c0-0.2,0.2-0.6,0.2-0.6l9-15.4h1.7l-1.7,10
				h5.1h0.1c0.5,0,0.8,0.4,0.8,0.9c0,0.2-0.1,0.4-0.2,0.5L17.9,38.9z"/>
			<path class="st1" d="M61,15H34c-0.6,0-1-0.4-1-1s0.4-1,1-1h27c0.6,0,1,0.4,1,1S61.6,15,61,15z M34,13.5l0,0.5c0,0,0,0,0,0V13.5z"
				/>
			<path class="st1" d="M61,26H34c-0.6,0-1-0.4-1-1s0.4-1,1-1h27c0.6,0,1,0.4,1,1S61.6,26,61,26z M34,24.5l0,0.5c0,0,0,0,0,0V24.5z"
				/>
			<path class="st1" d="M61,37H34c-0.6,0-1-0.4-1-1s0.4-1,1-1h27c0.6,0,1,0.4,1,1S61.6,37,61,37z M34,35.5l0,0.5c0,0,0,0,0,0V35.5z"
				/>
			<path class="st1" d="M61,48H13c-0.6,0-1-0.4-1-1s0.4-1,1-1h48c0.6,0,1,0.4,1,1S61.6,48,61,48z M13,46.5l0,0.5c0,0,0,0,0,0V46.5z"
				/>
			<path class="st1" d="M61,59H13c-0.6,0-1-0.4-1-1s0.4-1,1-1h48c0.6,0,1,0.4,1,1S61.6,59,61,59z M13,57.5l0,0.5c0,0,0,0,0,0V57.5z"
				/>
			<path class="st1" d="M82,20L82,20c0.6,0,1,0.4,1,1v37c0,0.6-0.4,1-1,1l0,0c-0.6,0-1-0.4-1-1V21C81,20.4,81.4,20,82,20z"/>
			<path class="st1" d="M93,21c0-0.6-0.4-1-1-1s-1,0.4-1,1c0,0,0,0,0,0h0v40c0,5-4,9-9,9s-9-4-9-9v-1.8V21V2.6c0-0.7,0-1.1-0.3-1.5
				c-0.2-0.3-0.4-0.6-0.8-0.8C71.5,0,71.2,0,70.4,0H2.6C1.8,0,1.5,0,1,0.3C0.7,0.4,0.4,0.7,0.3,1C0,1.5,0,1.8,0,2.6v59.2
				c0,3.2,0.2,4.6,1.1,6.2c0.7,1.3,1.7,2.3,3,3c1.5,0.8,3,1.1,6.2,1.1h71.8l0,0c6,0,10.9-5,10.9-11V21L93,21C93,21,93,21,93,21z
				 M10.3,70c-3.1,0-4.2-0.3-5.2-0.8c-1-0.5-1.7-1.3-2.2-2.2C2.3,65.9,2,64.9,2,61.7V2.6C2,2.2,2,2,2,2C2,2,2.2,2,2.6,2h67.9
				C70.8,2,71,2,71,2c0,0.1,0,0.2,0,0.6V21v38.2V61c0,3.7,1.9,7,4.7,9H10.3z"/>
		</g>
	</g>
</g>
</svg>
