<svg xmlns="http://www.w3.org/2000/svg" id="questionmark" ><g fill="none" fill-rule="evenodd"><circle cx="8" cy="8" r="8" fill="#FFF"/><g fill="#005AF0" fill-rule="nonzero" transform="translate(5.333 3.556)"><ellipse cx="2.637" cy="8.247" rx="1" ry="1"/><path d="M4.628.616C4.163.206 3.543 0 2.767 0 1.886 0 1.203.233.718.7.283 1.12.081 1.885.01 2.478a.195.195 0 0 0 0 .042.527.527 0 0 0 .534.566.53.53 0 0 0 .534-.474 6.06 6.06 0 0 1 .007-.075c.054-.488.195-.864.424-1.126.273-.314.676-.47 1.21-.47.432 0 .78.12 1.045.359.265.24.397.555.397.948 0 .277-.052.526-.157.747-.106.222-.281.45-.528.683l-.473.456c-.343.327-.59.656-.74.99a2.759 2.759 0 0 0-.217 1.266l.005.067v.008c0 .289.243.523.542.523.29 0 .527-.22.542-.496v-.008l.002-.019a9.763 9.763 0 0 1-.006-.248c0-.323.051-.595.154-.817.103-.221.313-.476.628-.764l.509-.467a2.87 2.87 0 0 0 .679-.89c.15-.318.224-.661.224-1.03 0-.678-.232-1.222-.697-1.632z"/></g></g></svg>
