<svg xmlns="http://www.w3.org/2000/svg" id="questionmark" viewBox="0 0 16 16"><path d="M8 0a8 8 0 1 0 8 8 8 8 0 0 0-8-8zm0 12.44a.64.64 0 1 1 .67-.64.65.65 0 0 1-.67.64zm2.46-5.61a2.78 2.78 0 0 1-.67.89l-.51.47a2.57 2.57 0 0 0-.66.81 2 2 0 0 0-.16.82v.19V10a.55.55 0 0 1-1.09 0v-.06a.57.57 0 0 1 0-.12 2.73 2.73 0 0 1 .23-1.14 3.08 3.08 0 0 1 .74-1l.47-.46a2.38 2.38 0 0 0 .53-.68 1.79 1.79 0 0 0 .15-.75 1.24 1.24 0 0 0-.39-1 1.52 1.52 0 0 0-1-.35A1.51 1.51 0 0 0 6.84 5a1.94 1.94 0 0 0-.42 1.12v.08a.54.54 0 0 1-1.07 0V6a3.1 3.1 0 0 1 .71-1.77 2.83 2.83 0 0 1 2.05-.7 2.69 2.69 0 0 1 1.89.64 2.06 2.06 0 0 1 .7 1.63 2.36 2.36 0 0 1-.27 1.03z" fill="#fff" fill-rule="evenodd"/></svg>
