<svg xmlns="http://www.w3.org/2000/svg" xmlns:xlink="http://www.w3.org/1999/xlink" viewBox="0 0 33.11 33.11"><defs><style>.cls-1{fill:#0389ff;}.cls-2{fill:none;stroke-miterlimit:10;stroke:url(#linear-gradient);}</style><linearGradient id="linear-gradient" y1="16.55" x2="33.11" y2="16.55" gradientUnits="userSpaceOnUse"><stop offset="0" stop-color="#0dcdff"/><stop offset="0.51" stop-color="#0389ff"/><stop offset="1" stop-color="#1c79c4"/></linearGradient></defs><title>2_outlined</title><g id="Layer_2" data-name="Layer 2"><g id="Layer_1-2" data-name="Layer 1"><path class="cls-1" d="M20.77,22.66h-8v-.8l4.37-5a11.48,11.48,0,0,0,1.5-2.07,3.44,3.44,0,0,0,.42-1.58,2.57,2.57,0,0,0-.71-1.91,2.65,2.65,0,0,0-2-.71,2.75,2.75,0,0,0-2.08.82,3,3,0,0,0-.79,2.13h-1a4,4,0,0,1,.49-2,3.49,3.49,0,0,1,1.38-1.39,4.1,4.1,0,0,1,2-.5,3.85,3.85,0,0,1,2.73.92,3.26,3.26,0,0,1,1,2.5,4.24,4.24,0,0,1-.56,2,14.5,14.5,0,0,1-2,2.64l-3.55,4h6.69Z"/><circle class="cls-2" cx="16.55" cy="16.55" r="16.05"/></g></g></svg>