<svg xmlns="http://www.w3.org/2000/svg" xmlns:xlink="http://www.w3.org/1999/xlink" viewBox="0 0 33.11 33.11"><defs><style>.cls-1{fill:#0389ff;}.cls-2{fill:none;stroke-miterlimit:10;stroke:url(#linear-gradient);}</style><linearGradient id="linear-gradient" y1="16.55" x2="33.11" y2="16.55" gradientUnits="userSpaceOnUse"><stop offset="0" stop-color="#0dcdff"/><stop offset="0.51" stop-color="#0389ff"/><stop offset="1" stop-color="#1c79c4"/></linearGradient></defs><title>3_outlined</title><g id="Layer_2" data-name="Layer 2"><g id="Layer_1-2" data-name="Layer 1"><path class="cls-1" d="M15.12,15.72H16.2a3.64,3.64,0,0,0,1.58-.32,2.4,2.4,0,0,0,1-.87,2.33,2.33,0,0,0,.35-1.28,2.59,2.59,0,0,0-.69-1.92,2.69,2.69,0,0,0-2-.69,2.85,2.85,0,0,0-2,.72,2.47,2.47,0,0,0-.78,1.9h-1a3.4,3.4,0,0,1,.5-1.81,3.35,3.35,0,0,1,1.38-1.26,4.29,4.29,0,0,1,2-.45,3.81,3.81,0,0,1,2.73.95,3.4,3.4,0,0,1,1,2.59A2.76,2.76,0,0,1,19.63,15,3.48,3.48,0,0,1,18,16.13a3.28,3.28,0,0,1,1.8,1.14,3.11,3.11,0,0,1,.61,1.93,3.44,3.44,0,0,1-1.07,2.63,4,4,0,0,1-2.85,1,4.76,4.76,0,0,1-2.09-.46,3.37,3.37,0,0,1-2-3.18h1a2.54,2.54,0,0,0,.85,2,3.13,3.13,0,0,0,2.18.77,3,3,0,0,0,2.11-.7,2.61,2.61,0,0,0,.76-2,2.38,2.38,0,0,0-.82-2,3.72,3.72,0,0,0-2.41-.67h-1Z"/><circle class="cls-2" cx="16.55" cy="16.55" r="16.05"/></g></g></svg>