<svg xmlns="http://www.w3.org/2000/svg" xmlns:xlink="http://www.w3.org/1999/xlink" viewBox="0 0 61.19 89.34"><defs><style>.cls-1{fill:none;}.cls-1,.cls-2{stroke:#fff;stroke-width:0.87px;}.cls-1,.cls-2,.cls-3{stroke-miterlimit:10;}.cls-2,.cls-3{fill-opacity:0.7;stroke-linecap:round;}.cls-2{fill:url(#linear-gradient);}.cls-3{fill:#fff;stroke:url(#linear-gradient-2);}.cls-4{fill-opacity:0.8;fill:url(#linear-gradient-3);}.cls-5{fill:#0dd7ff;opacity:0.7;}</style><linearGradient id="linear-gradient" x1="-5.87" y1="72.19" x2="42.72" y2="23.59" gradientUnits="userSpaceOnUse"><stop offset="0" stop-color="#1c79c4"/><stop offset="0.51" stop-color="#0389ff"/><stop offset="1" stop-color="#7ad5fc"/></linearGradient><linearGradient id="linear-gradient-2" x1="13.46" y1="82.86" x2="63.4" y2="32.92" xlink:href="#linear-gradient"/><linearGradient id="linear-gradient-3" x1="37.02" y1="63.72" x2="52.82" y2="47.92" xlink:href="#linear-gradient"/></defs><title>ads_icon</title><g id="Layer_2" data-name="Layer 2"><g id="Layer_1-2" data-name="Layer 1"><path class="cls-1" d="M36.23,32.51"/><path class="cls-1" d="M18.55,51.77"/><path class="cls-2" d="M36.42,58.57.43,78.49V37.21l36-19.92ZM4,43.74,29.86,29.45M11.76,47.89,4.36,52.1m0,4.24,7.4-4.21"/><path class="cls-3" d="M56.42,68.57l-36,19.92V47.21l36-19.92ZM24,53.74,49.86,39.45M31.76,57.89l-7.4,4.21m0,4.24,7.4-4.21"/><polygon class="cls-4" points="50.57 59.88 39.27 65.96 39.27 51.76 50.57 45.68 50.57 59.88"/><circle class="cls-5" cx="60.04" cy="1.15" r="1.15" transform="translate(0.02 3.08) rotate(-2.94)"/><circle class="cls-5" cx="55.58" cy="11.73" r="1.15" transform="translate(-0.53 2.86) rotate(-2.94)"/><circle class="cls-5" cx="50.03" cy="7.5" r="1.15" transform="translate(-0.32 2.57) rotate(-2.94)"/><circle class="cls-5" cx="46.82" cy="13.51" r="1.15" transform="translate(-0.63 2.42) rotate(-2.94)"/><circle class="cls-5" cx="47.77" cy="22.14" r="1.15" transform="translate(-1.07 2.48) rotate(-2.94)"/></g></g></svg>