<svg xmlns="http://www.w3.org/2000/svg" xmlns:xlink="http://www.w3.org/1999/xlink" viewBox="0 0 102.69 51.15"><defs><style>.cls-1,.cls-2{fill:none;stroke-miterlimit:10;}.cls-1{stroke-linecap:round;stroke:url(#linear-gradient);}.cls-2{stroke:url(#linear-gradient-2);}.cls-3{fill:#00d4ff;opacity:0.7;}</style><linearGradient id="linear-gradient" x1="124.48" y1="34.65" x2="196.07" y2="34.65" gradientTransform="translate(-116.15 12.74) rotate(-7.7)" gradientUnits="userSpaceOnUse"><stop offset="0" stop-color="#1c79c4"/><stop offset="0.51" stop-color="#0389ff"/><stop offset="1" stop-color="#16d2fa"/></linearGradient><linearGradient id="linear-gradient-2" x1="134.77" y1="32.29" x2="196.07" y2="32.29" xlink:href="#linear-gradient"/></defs><title>lighter_ads</title><g id="Layer_2" data-name="Layer 2"><g id="Layer_1-2" data-name="Layer 1"><line class="cls-1" x1="79.56" y1="0.58" x2="15.1" y2="50.65"/><polygon class="cls-2" points="60.97 3.74 56.18 7.42 54.52 13.65 53.35 9.59 39.18 20.46 35.91 28.18 34.79 23.85 26.42 30.37 24.7 43.8 43.2 42.1 51.04 35.62 41.13 36.45 57.41 30.62 74.08 17.52 65.67 16.68 67.92 16.11 79.72 13.08 81.1 12 79.56 0.58 60.97 3.74"/><circle class="cls-3" cx="101.53" cy="25.56" r="1.15" transform="translate(16.57 86.75) rotate(-49.89)"/><circle class="cls-3" cx="91.06" cy="30.25" r="1.15" transform="translate(9.26 80.4) rotate(-49.89)"/><circle class="cls-3" cx="89.89" cy="23.36" r="1.15" transform="translate(14.11 77.06) rotate(-49.89)"/><circle class="cls-3" cx="83.43" cy="25.57" r="1.15" transform="translate(10.13 72.91) rotate(-49.89)"/><circle class="cls-3" cx="78.24" cy="32.53" r="1.15" transform="translate(2.96 71.41) rotate(-49.89)"/><circle class="cls-3" cx="1.16" cy="45.76" r="1.15" transform="translate(-8.94 1.11) rotate(-11.29)"/><circle class="cls-3" cx="4.02" cy="34.65" r="1.15" transform="translate(-6.71 1.46) rotate(-11.29)"/><circle class="cls-3" cx="10.14" cy="38.03" r="1.15" transform="translate(-7.25 2.72) rotate(-11.29)"/><circle class="cls-3" cx="12.44" cy="31.61" r="1.15" transform="translate(-5.95 3.05) rotate(-11.29)"/><circle class="cls-3" cx="10.24" cy="23.21" r="1.15" transform="translate(-4.35 2.45) rotate(-11.29)"/></g></g></svg>