<svg xmlns="http://www.w3.org/2000/svg" viewBox="0 0 131.38 32.54"><defs><style>.cls-1{fill:#2479bd;}.cls-2{fill:#2478bd;}</style></defs><title>amp_ads_outlined</title><g id="Layer_2" data-name="Layer 2"><g id="Layer_6" data-name="Layer 6"><path class="cls-1" d="M70.54,18.3q.18.39.34.8.16-.42.35-.82t.38-.77l3.6-7a1.17,1.17,0,0,1,.2-.28.66.66,0,0,1,.23-.15.79.79,0,0,1,.28,0h2.86V23.89h-2.9v-8q0-.58.06-1.26l-3.72,7.14a1.22,1.22,0,0,1-.47.51,1.3,1.3,0,0,1-.67.17h-.44a1.3,1.3,0,0,1-.67-.17,1.22,1.22,0,0,1-.43-.51L65.8,14.62a3.68,3.68,0,0,0,.06.66,1.56,1.56,0,0,1,0,.61v8H63V10h2.86a.79.79,0,0,1,.28,0,.65.65,0,0,1,.23.15,1.17,1.17,0,0,1,.2.28l3.61,7.05q.19.36.37.75"/><path class="cls-1" d="M87,16.77h1.7a2.4,2.4,0,0,0,1.83-.6,2.37,2.37,0,0,0,.56-1.68,2.49,2.49,0,0,0-.14-.87,1.78,1.78,0,0,0-.44-.67,2,2,0,0,0-.74-.43,3.31,3.31,0,0,0-1.06-.15H87v4.4Zm0,2.43v4.64H83.76V10h5a8.25,8.25,0,0,1,2.55.35,4.9,4.9,0,0,1,1.75,1,3.74,3.74,0,0,1,1,1.44,4.83,4.83,0,0,1,.33,1.79,5.23,5.23,0,0,1-.34,1.91,3.84,3.84,0,0,1-1,1.49,4.87,4.87,0,0,1-1.76,1,8.13,8.13,0,0,1-2.52.35Z"/><path class="cls-1" d="M21.78,14.77,14.89,26.14H13.64l1.23-7.37H11a.62.62,0,0,1-.62-.62h0a1.14,1.14,0,0,1,.16-.38L17.38,6.39h1.27l-1.27,7.38h3.9a.62.62,0,0,1,.62.62h0a.6.6,0,0,1-.13.36ZM16.15,0A16.27,16.27,0,1,0,32.54,16.27,16.27,16.27,0,0,0,16.15,0Z"/><path class="cls-1" d="M50.12,18.58H54l-1.29-3.81-.29-.85q-.17-.49-.33-1.06-.15.58-.32,1.08t-.31.86Zm9,5.31H56.61a1.18,1.18,0,0,1-.7-.2,1,1,0,0,1-.38-.5l-.83-2.42H49.37l-.83,2.43a1.07,1.07,0,0,1-.38.48,1.09,1.09,0,0,1-.68.21H44.93L50.36,10h3.33Z"/><path class="cls-2" d="M109.35,20h-6.13l-1.39,3.79h-1.2l5.11-13.51h1.09l5.11,13.51h-1.19Zm-5.78-1H109l-2.71-7.36Z"/><path class="cls-2" d="M113.23,18.66a6,6,0,0,1,1-3.73,3.36,3.36,0,0,1,2.83-1.39,3.49,3.49,0,0,1,3.1,1.6V9.52h1.1V23.77h-1l0-1.34A3.58,3.58,0,0,1,117.09,24a3.35,3.35,0,0,1-2.8-1.4,6.08,6.08,0,0,1-1.06-3.77Zm1.12.19a5.23,5.23,0,0,0,.77,3A2.49,2.49,0,0,0,117.3,23a3,3,0,0,0,2.91-1.81V16.47a3,3,0,0,0-2.89-2,2.52,2.52,0,0,0-2.18,1.1A5.59,5.59,0,0,0,114.36,18.85Z"/><path class="cls-2" d="M130.27,21.22a1.58,1.58,0,0,0-.66-1.33,5.12,5.12,0,0,0-2-.78,9,9,0,0,1-2.07-.65,2.77,2.77,0,0,1-1.09-.9,2.24,2.24,0,0,1-.36-1.28,2.39,2.39,0,0,1,1-2,4,4,0,0,1,2.54-.77,4.13,4.13,0,0,1,2.7.83,2.67,2.67,0,0,1,1,2.17h-1.11a1.8,1.8,0,0,0-.74-1.47,3.33,3.33,0,0,0-3.62-.1,1.5,1.5,0,0,0-.66,1.27,1.37,1.37,0,0,0,.55,1.16,5.84,5.84,0,0,0,2,.76,9.46,9.46,0,0,1,2.19.73,2.84,2.84,0,0,1,1.08.94,2.58,2.58,0,0,1-.67,3.36,4.38,4.38,0,0,1-2.68.76,4.5,4.5,0,0,1-2.84-.85A2.61,2.61,0,0,1,123.75,21h1.11a1.93,1.93,0,0,0,.82,1.52,3.36,3.36,0,0,0,2,.54,3.15,3.15,0,0,0,1.87-.51A1.53,1.53,0,0,0,130.27,21.22Z"/></g></g></svg>