<svg xmlns="http://www.w3.org/2000/svg" xmlns:xlink="http://www.w3.org/1999/xlink" viewBox="0 0 113.95 91.88"><defs><style>.cls-1,.cls-2,.cls-4{fill:none;}.cls-1,.cls-2,.cls-3,.cls-4,.cls-5,.cls-6,.cls-7,.cls-8{stroke-miterlimit:10;}.cls-1,.cls-2{stroke-width:5.45px;opacity:0.8;}.cls-1{stroke:url(#linear-gradient);}.cls-2{stroke:url(#linear-gradient-2);}.cls-3,.cls-5,.cls-6,.cls-7,.cls-8{fill:#fff;}.cls-3{stroke:url(#linear-gradient-3);}.cls-4{stroke:url(#linear-gradient-4);}.cls-5{stroke:url(#linear-gradient-5);}.cls-6{stroke:url(#linear-gradient-6);}.cls-7{stroke:url(#linear-gradient-7);}.cls-8{stroke:url(#linear-gradient-8);}.cls-9{fill:#7ad5fc;fill-opacity:0.7;}</style><linearGradient id="linear-gradient" x1="-7593.72" y1="746.84" x2="-7538.03" y2="746.84" gradientTransform="translate(-7293.28 2130.75) rotate(169.95)" gradientUnits="userSpaceOnUse"><stop offset="0" stop-color="#0389ff"/><stop offset="0.5" stop-color="#0dd7ff"/><stop offset="1" stop-color="#fff"/></linearGradient><linearGradient id="linear-gradient-2" x1="-7611.26" y1="765.38" x2="-7555.57" y2="765.38" xlink:href="#linear-gradient"/><linearGradient id="linear-gradient-3" x1="32.4" y1="47.97" x2="78.95" y2="47.97" gradientUnits="userSpaceOnUse"><stop offset="0" stop-color="#1c79c4"/><stop offset="0.51" stop-color="#0389ff"/><stop offset="1" stop-color="#7ad5fc"/></linearGradient><linearGradient id="linear-gradient-4" x1="54.45" y1="63.25" x2="103.46" y2="14.23" xlink:href="#linear-gradient-3"/><linearGradient id="linear-gradient-5" x1="67.98" y1="36.72" x2="72.93" y2="31.77" xlink:href="#linear-gradient-3"/><linearGradient id="linear-gradient-6" x1="44.98" y1="58.72" x2="49.93" y2="53.77" xlink:href="#linear-gradient-3"/><linearGradient id="linear-gradient-7" x1="83.98" y1="46.72" x2="88.93" y2="41.77" xlink:href="#linear-gradient-3"/><linearGradient id="linear-gradient-8" x1="107.98" y1="23.72" x2="112.93" y2="18.77" xlink:href="#linear-gradient-3"/></defs><title>roi_icon</title><g id="Layer_2" data-name="Layer 2"><g id="Layer_1-2" data-name="Layer 1"><line class="cls-1" x1="1.42" y1="89.56" x2="50.63" y2="59.49"/><line class="cls-2" x1="15.45" y1="68.24" x2="64.66" y2="38.18"/><polygon class="cls-3" points="32.9 42.93 32.9 81 78.45 53 78.45 14.93 32.9 42.93"/><polyline class="cls-4" points="47.45 56.24 70.45 34.24 86.45 44.24 110.45 21.24"/><circle class="cls-5" cx="70.45" cy="34.24" r="3"/><circle class="cls-6" cx="47.45" cy="56.24" r="3"/><circle class="cls-7" cx="86.45" cy="44.24" r="3"/><circle class="cls-8" cx="110.45" cy="21.24" r="3"/><circle class="cls-9" cx="89.77" cy="21.49" r="1.15"/><circle class="cls-9" cx="94.76" cy="11.15" r="1.15"/><circle class="cls-9" cx="100.1" cy="15.67" r="1.15"/><circle class="cls-9" cx="103.61" cy="9.82" r="1.15"/><circle class="cls-9" cx="103.1" cy="1.15" r="1.15"/></g></g></svg>