<svg xmlns="http://www.w3.org/2000/svg" xmlns:xlink="http://www.w3.org/1999/xlink" viewBox="0 0 90 87.63"><defs><style>.cls-1,.cls-2,.cls-4,.cls-6,.cls-8{fill:none;}.cls-1,.cls-2,.cls-3,.cls-4,.cls-5,.cls-6,.cls-7,.cls-8{stroke-miterlimit:10;}.cls-1,.cls-2{stroke-width:5.45px;opacity:0.8;}.cls-1{stroke:url(#linear-gradient);}.cls-2{stroke:url(#linear-gradient-2);}.cls-3,.cls-5,.cls-7{fill:#fff;}.cls-3{stroke:url(#linear-gradient-3);}.cls-4{stroke:url(#linear-gradient-4);}.cls-5{stroke:url(#linear-gradient-5);}.cls-6{stroke:url(#linear-gradient-6);}.cls-7{stroke:url(#linear-gradient-7);}.cls-8{stroke:url(#linear-gradient-8);}.cls-9{fill:#16d2fa;fill-opacity:0.7;}</style><linearGradient id="linear-gradient" x1="-6249.48" y1="6641.02" x2="-6207.76" y2="6641.02" gradientTransform="translate(-4953.95 7700.61) rotate(169.95)" gradientUnits="userSpaceOnUse"><stop offset="0" stop-color="#0086ff"/><stop offset="0.5" stop-color="#00d4ff"/><stop offset="1" stop-color="#fff"/></linearGradient><linearGradient id="linear-gradient-2" x1="-6272.76" y1="6657.46" x2="-6217.08" y2="6657.46" xlink:href="#linear-gradient"/><linearGradient id="linear-gradient-3" x1="28.36" y1="60.07" x2="74.88" y2="60.07" gradientUnits="userSpaceOnUse"><stop offset="0" stop-color="#1c79c4"/><stop offset="0.51" stop-color="#0389ff"/><stop offset="1" stop-color="#16d2fa"/></linearGradient><linearGradient id="linear-gradient-4" x1="44.85" y1="85.81" x2="44.85" y2="50.65" xlink:href="#linear-gradient-3"/><linearGradient id="linear-gradient-5" x1="28.37" y1="38.23" x2="74.87" y2="38.23" xlink:href="#linear-gradient-3"/><linearGradient id="linear-gradient-6" x1="29.17" y1="60.08" x2="74.1" y2="60.08" xlink:href="#linear-gradient-3"/><linearGradient id="linear-gradient-7" x1="1663.12" y1="26.17" x2="1686.7" y2="26.17" gradientTransform="matrix(-1, 0, 0, 1, 1727.23, 0)" gradientUnits="userSpaceOnUse"><stop offset="0" stop-color="#16d2fa"/><stop offset="0.49" stop-color="#0389ff"/><stop offset="1" stop-color="#1c79c4"/></linearGradient><linearGradient id="linear-gradient-8" x1="53.99" y1="25.04" x2="59.54" y2="25.04" gradientUnits="userSpaceOnUse"><stop offset="0" stop-color="#0f81e2"/><stop offset="0.51" stop-color="#0389ff"/><stop offset="1" stop-color="#16d2fa"/></linearGradient></defs><title>safer_ads</title><g id="Layer_2" data-name="Layer 2"><g id="Layer_1-2" data-name="Layer 1"><line class="cls-1" x1="1.42" y1="85.3" x2="37.83" y2="63.06"/><line class="cls-2" x1="8.2" y1="70.18" x2="57.4" y2="40.11"/><polyline class="cls-3" points="28.86 42.5 29.41 77.47 44.52 85.81 73.86 68.47 74.38 33.77"/><line class="cls-4" x1="44.85" y1="50.65" x2="44.85" y2="85.81"/><polygon class="cls-5" points="29.41 42.47 44.85 50.65 73.86 33.81 59.19 25.81 29.41 42.47"/><polyline class="cls-6" points="29.41 59.81 44.85 68.23 73.86 51.81"/><path class="cls-7" d="M42,43.31A2,2,0,0,1,41,41.62V34.94q0-5.62.41-11.26C42,15.75,46.37,8.35,54.72,8.32c3.85,0,8.89,2.83,8.89,10.23V34.13a2.37,2.37,0,0,1-1.23,2.07,5.86,5.86,0,0,1-2.65.75,6,6,0,0,1-2.66-.66,2.38,2.38,0,0,1-1.36-2.14h0V18c0-.9,0-1.8,0-2.69a1.07,1.07,0,0,0-.15-.54c-.49-.68-1.48-.39-2,0-4.41,3.11-5.12,10.16-5.21,15-.06,3.41,0,6.82.08,10.23,0,.46,0,1.13,0,1.71a2,2,0,0,1-1.22,1.9,6.13,6.13,0,0,1-2,.4A5.94,5.94,0,0,1,42,43.31Z"/><path class="cls-8" d="M54.15,14.42c2-.7,5-.68,4.89,6.91,0,1.5,0,15.11,0,15.11"/><circle class="cls-9" cx="75.01" cy="21.49" r="1.15"/><circle class="cls-9" cx="80" cy="11.15" r="1.15"/><circle class="cls-9" cx="85.33" cy="15.67" r="1.15"/><circle class="cls-9" cx="88.84" cy="9.82" r="1.15"/><circle class="cls-9" cx="88.33" cy="1.15" r="1.15"/></g></g></svg>