<svg xmlns="http://www.w3.org/2000/svg" xmlns:xlink="http://www.w3.org/1999/xlink" viewBox="0 0 90.08 103.33"><defs><style>.cls-1,.cls-6,.cls-8{fill:#fff;}.cls-1{fill-opacity:0.7;stroke:url(#linear-gradient);}.cls-1,.cls-10,.cls-11,.cls-12,.cls-13,.cls-14,.cls-15,.cls-16,.cls-17,.cls-2,.cls-3,.cls-4,.cls-6,.cls-8,.cls-9{stroke-miterlimit:10;}.cls-10,.cls-11,.cls-12,.cls-13,.cls-14,.cls-15,.cls-16,.cls-17,.cls-2,.cls-3,.cls-4,.cls-9{fill:none;}.cls-2{stroke:url(#linear-gradient-2);}.cls-3{stroke:url(#linear-gradient-3);}.cls-10,.cls-11,.cls-12,.cls-13,.cls-14,.cls-15,.cls-16,.cls-17,.cls-4,.cls-9{stroke-linecap:round;}.cls-4{stroke:url(#linear-gradient-4);}.cls-5{fill:#0dd7ff;opacity:0.7;}.cls-6{fill-opacity:0.9;stroke:url(#linear-gradient-5);}.cls-7{fill:url(#linear-gradient-6);}.cls-8{stroke:url(#linear-gradient-7);}.cls-9{stroke:#008cfc;}.cls-10{stroke:#00b8fe;}.cls-11{stroke:#009fff;}.cls-12{stroke:#00c3fe;}.cls-13{stroke:#00cffc;}.cls-14{stroke:#0083df;}.cls-15{stroke:#0088eb;}.cls-16{stroke:#0080d3;}.cls-17{stroke:#007fd0;}</style><linearGradient id="linear-gradient" x1="32.85" y1="56.67" x2="65.06" y2="56.67" gradientTransform="translate(-3.94 1.46) rotate(0.13)" gradientUnits="userSpaceOnUse"><stop offset="0" stop-color="#1c79c4"/><stop offset="0.51" stop-color="#0389ff"/><stop offset="1" stop-color="#0dd7ff"/></linearGradient><linearGradient id="linear-gradient-2" x1="36.12" y1="54.72" x2="61.65" y2="54.72" xlink:href="#linear-gradient"/><linearGradient id="linear-gradient-3" x1="29.96" y1="55.88" x2="65.05" y2="55.88" xlink:href="#linear-gradient"/><linearGradient id="linear-gradient-4" x1="47.03" y1="83.12" x2="53.32" y2="83.12" xlink:href="#linear-gradient"/><linearGradient id="linear-gradient-5" x1="-928.87" y1="-2033.57" x2="-878.93" y2="-2033.57" gradientTransform="matrix(0.79, -0.45, 0.1, 1.21, 972.44, 2094.48)" gradientUnits="userSpaceOnUse"><stop offset="0" stop-color="#1c79c4"/><stop offset="0.51" stop-color="#0389ff"/><stop offset="1" stop-color="#7ad5fc"/></linearGradient><linearGradient id="linear-gradient-6" x1="58.58" y1="53.86" x2="71.54" y2="46.53" gradientTransform="matrix(1, 0, 0, 1, 0, 0)" xlink:href="#linear-gradient-5"/><linearGradient id="linear-gradient-7" x1="-906.58" y1="-2021.33" x2="-900.34" y2="-2021.33" xlink:href="#linear-gradient-5"/></defs><title>speed_icon</title><g id="Layer_2" data-name="Layer 2"><g id="Layer_1-2" data-name="Layer 1"><polygon class="cls-1" points="29.5 34.6 60.58 18.76 60.44 81.63 29.2 97.7 29.5 34.6"/><polygon class="cls-2" points="33.2 37.51 57.15 25.09 56.8 75.05 32.51 87.49 33.2 37.51"/><polyline class="cls-3" points="60.85 18.46 57.82 16.94 26.63 33.34 26.31 96.27 28.99 98.09"/><line class="cls-4" x1="43.41" y1="86.06" x2="48.7" y2="83.31"/><circle class="cls-5" cx="88.93" cy="1.15" r="1.15" transform="translate(0.06 4.56) rotate(-2.94)"/><circle class="cls-5" cx="84.48" cy="11.73" r="1.15" transform="translate(-0.49 4.34) rotate(-2.94)"/><circle class="cls-5" cx="78.92" cy="7.5" r="1.15" transform="translate(-0.28 4.05) rotate(-2.94)"/><circle class="cls-5" cx="75.71" cy="13.51" r="1.15" transform="translate(-0.59 3.9) rotate(-2.94)"/><circle class="cls-5" cx="76.67" cy="22.14" r="1.15" transform="translate(-1.03 3.96) rotate(-2.94)"/><circle class="cls-5" cx="1.15" cy="102.17" r="1.15" transform="translate(-5.23 0.19) rotate(-2.94)"/><circle class="cls-5" cx="5.61" cy="91.59" r="1.15" transform="translate(-4.68 0.41) rotate(-2.94)"/><circle class="cls-5" cx="11.16" cy="95.83" r="1.15" transform="translate(-4.89 0.7) rotate(-2.94)"/><circle class="cls-5" cx="14.37" cy="89.81" r="1.15" transform="translate(-4.58 0.85) rotate(-2.94)"/><circle class="cls-5" cx="13.42" cy="81.18" r="1.15" transform="translate(-4.14 0.79) rotate(-2.94)"/><path class="cls-6" d="M80.73,46.69C79.42,30.36,69.69,22,59,28.09S40.66,52.29,42,68.62Z"/><path class="cls-7" d="M61.61,56.14,63,57.3l6.09-15a.18.18,0,0,0-.32-.16l-8.5,14.68"/><path class="cls-8" d="M63.77,56.28c-.14-1.75-1.18-2.64-2.33-2s-2,2.59-1.82,4.34,1.18,2.64,2.33,2S63.91,58,63.77,56.28Z"/><line class="cls-9" x1="58.64" y1="28.29" x2="58.89" y2="31.46"/><line class="cls-10" x1="71.64" y1="28.38" x2="70.35" y2="30.56"/><line class="cls-11" x1="65.21" y1="26.26" x2="65.03" y2="29.6"/><line class="cls-12" x1="75.66" y1="31.85" x2="74.09" y2="33.72"/><line class="cls-13" x1="78.39" y1="36.39" x2="76.54" y2="38.62"/><line class="cls-14" x1="47.98" y1="40.32" x2="49.63" y2="41.73"/><line class="cls-15" x1="52.56" y1="33.78" x2="53.84" y2="35.61"/><line class="cls-16" x1="44.23" y1="49.29" x2="46.09" y2="50.12"/><line class="cls-17" x1="42.57" y1="57.2" x2="44.6" y2="57.23"/></g></g></svg>