<?xml version="1.0" encoding="UTF-8" standalone="no"?><!-- Generator: Gravit.io --><svg xmlns="http://www.w3.org/2000/svg" xmlns:xlink="http://www.w3.org/1999/xlink" style="isolation:isolate" viewBox="0 0 1500 1000" width="1500pt" height="1000pt"><defs><clipPath id="_clipPath_nIccY6HKWPpsMYiAt2H927tNrylMNY2B"><rect width="1500" height="1000"/></clipPath></defs><g clip-path="url(#_clipPath_nIccY6HKWPpsMYiAt2H927tNrylMNY2B)"><rect width="1500" height="1000" style="fill:rgb(85,191,167)" fill-opacity="0"/><clipPath id="_clipPath_U0mSxVW2upGS1vSi97nddXaPs5HA2J0e"><rect x="160.545" y="373.5" width="1178.91" height="253" transform="matrix(1,0,0,1,0,0)" fill="rgb(255,255,255)"/></clipPath><g clip-path="url(#_clipPath_U0mSxVW2upGS1vSi97nddXaPs5HA2J0e)"><g><clipPath id="_clipPath_UR3sWg8x5wzOCaYs6F4bQSpP5OdyNio9"><rect x="160.545" y="373.5" width="1178.91" height="253" transform="matrix(1,0,0,1,0,0)" fill="rgb(255,255,255)"/></clipPath><g clip-path="url(#_clipPath_UR3sWg8x5wzOCaYs6F4bQSpP5OdyNio9)"><g><g><path d=" M 160.545 626.498 L 1339.445 626.498 L 1339.445 373.5 L 160.545 373.5 L 160.545 626.498 L 160.545 626.498 Z " fill="none"/></g></g></g></g></g><g><g><path d=" M 778.656 567.991 C 778.656 567.192 780.252 563.989 782.02 560.947 C 787.627 551.817 827.672 482.13 830.553 476.37 C 832.796 472.045 832.957 470.601 831.197 468.52 C 829.593 466.44 825.268 466.116 803.963 466.754 C 779.131 467.398 778.656 467.237 778.656 464.036 C 778.656 459.55 788.424 395.318 789.063 394.512 C 790.828 392.914 819.017 399.642 830.392 404.281 C 846.251 410.856 860.346 423.828 867.397 438.405 C 877.326 458.751 876.843 503.92 866.759 524.105 C 854.423 548.452 826.067 564.949 790.828 568.153 C 784.102 568.797 778.656 568.636 778.656 567.991 Z " fill="rgb(20,20,64)"/><path d=" M 208.819 598.336 C 209.054 596.819 211.743 588.29 214.663 579.294 C 222.489 555.106 232.306 523.788 236.866 508.599 C 240.839 495.275 247.847 473.307 258.363 441.411 C 261.288 432.414 264.789 420.609 266.308 415.118 C 270.986 397.475 273.087 391.632 275.659 390.232 C 278.348 388.713 323.331 388.242 329.993 389.76 L 334.083 390.579 L 339.574 408.456 C 342.61 418.155 347.518 433.814 350.444 443.165 C 360.607 474.714 368.322 499.837 369.14 503.808 C 369.604 505.91 376.5 527.995 384.446 552.883 C 392.39 577.657 398.934 598.69 398.934 599.508 C 398.934 600.673 392.626 600.908 369.486 600.673 L 339.927 600.326 L 338.056 592.729 C 337.003 588.521 335.367 581.983 334.431 578.121 C 333.147 572.514 332.329 571.113 330.458 571.231 C 329.292 571.231 321.931 572.049 314.217 572.867 C 302.3 574.15 297.973 574.15 285.939 572.632 L 271.569 570.996 L 269.933 576.839 C 268.532 581.511 264.56 599.273 264.56 600.673 C 264.56 600.79 251.82 600.908 236.395 600.908 L 208.236 600.908 L 208.819 598.336 L 208.819 598.336 Z  M 315.152 528.578 C 317.606 527.995 319.941 527.295 320.178 526.942 C 320.53 526.594 316.671 510.235 311.532 490.367 C 303.236 457.884 300.781 451.345 300.781 461.044 C 300.781 462.444 296.926 477.986 292.249 495.393 L 283.603 527.295 L 288.393 528.348 C 294.703 529.749 309.543 529.866 315.152 528.578 Z " fill="rgb(255,255,255)"/><path d=" M 425.81 530.449 L 425.81 459.872 L 436.091 456.718 C 453.268 451.457 461.801 450.175 481.898 449.474 C 504.331 448.656 518.937 450.41 531.325 455.318 L 539.151 458.473 L 546.514 455.664 C 560.066 450.175 563.456 449.592 582.97 449.709 C 603.773 449.709 611.364 451.11 624.217 457.301 C 634.621 462.326 639.523 467.234 645.249 478.45 C 653.782 495.393 653.899 496.093 654.482 551.599 L 655.065 600.908 L 599.912 600.908 L 599.912 558.608 C 599.912 531.62 599.448 514.443 598.63 511.518 C 595.593 500.418 586.942 494.929 574.09 496.093 C 570.118 496.447 566.493 497.146 566.027 497.729 C 565.444 498.201 565.444 501.002 566.027 503.926 C 566.61 506.845 567.081 529.866 567.198 555.106 L 567.198 600.908 L 512.394 600.908 L 512.046 556.273 C 511.693 511.636 511.693 511.518 508.885 505.792 C 506.668 501.473 504.914 499.6 501.294 497.964 C 496.622 495.864 487.271 495.164 482.246 496.447 L 479.563 497.146 L 479.563 600.908 L 425.81 600.908 L 425.81 530.449 L 425.81 530.449 Z " fill="rgb(255,255,255)"/><path d=" M 687.35 501.194 L 687.35 399.642 L 700.322 397.874 C 716.658 395.47 773.687 392.106 774.969 393.228 C 775.453 393.713 760.552 419.504 741.812 450.418 C 723.233 481.332 708.172 507.759 708.494 509.366 C 708.971 511.77 711.697 512.092 734.6 512.406 L 760.23 512.73 L 759.916 517.216 C 759.109 527.783 749.662 600.025 748.863 601.308 C 748.38 601.954 734.439 602.59 717.626 602.59 L 687.35 602.59 L 687.35 501.194 L 687.35 501.194 Z " fill="rgb(255,255,255)"/><path d=" M 904.824 526.477 L 905.17 452.046 L 909.849 450.993 C 915.922 449.592 943.033 449.357 951.678 450.527 L 958.34 451.457 L 958.34 600.908 L 904.587 600.908 L 904.824 526.477 L 904.824 526.477 Z " fill="rgb(255,255,255)"/><path d=" M 985.216 526.712 L 985.216 452.511 L 1105.455 452.511 L 1106.391 456.954 C 1106.855 459.291 1107.32 467.352 1107.32 474.714 C 1107.32 482.077 1106.855 490.138 1106.391 492.592 L 1105.455 496.911 L 1040.133 496.911 L 1040.133 520.286 L 1092.484 520.286 L 1093.885 530.449 C 1095.286 539.8 1094.938 549.728 1093.067 561.533 L 1092.367 565.852 L 1040.133 565.852 L 1040.133 600.908 L 985.216 600.908 L 985.216 526.712 L 985.216 526.712 Z " fill="rgb(255,255,255)"/><path d=" M 1178.015 578.94 L 1178.015 556.972 L 1169.835 542.601 C 1165.398 534.775 1161.654 528.113 1161.654 527.76 C 1161.654 527.06 1151.839 510.117 1139.921 490.367 C 1135.25 482.658 1129.876 473.078 1128.005 469.106 C 1126.016 465.133 1123.333 459.99 1121.926 457.772 C 1119.943 454.5 1119.589 453.21 1120.644 452.163 C 1122.626 450.175 1174.625 450.175 1177.079 452.163 C 1178.015 452.975 1182.34 460.808 1186.777 469.689 C 1207.927 512.335 1206.526 509.882 1208.044 507.781 C 1208.862 506.728 1215.642 493.639 1223.121 478.687 L 1236.557 451.574 L 1247.89 450.639 C 1260.979 449.709 1290.192 450.875 1291.709 452.392 C 1292.292 452.975 1288.201 461.156 1281.894 471.908 C 1271.731 489.32 1268.922 494.346 1256.771 515.844 C 1254.199 520.515 1247.773 531.62 1242.518 540.612 L 1232.938 556.743 L 1232.938 600.908 L 1178.015 600.908 L 1178.015 578.94 L 1178.015 578.94 Z " fill="rgb(255,255,255)"/><g><g><g opacity="0"><path d=" M 748.702 603.076 C 749.823 598.107 759.431 524.419 759.916 517.216 L 760.23 512.73 L 734.6 512.406 C 711.697 512.092 708.971 511.77 708.494 509.366 C 708.172 507.759 722.911 481.493 741.329 450.901 C 759.594 420.142 776.252 392.269 778.173 388.744 C 780.577 384.103 782.495 382.338 785.223 382.338 C 788.749 382.338 789.063 382.984 788.749 388.744 C 788.588 392.269 786.021 411.009 782.819 430.396 C 779.777 449.78 777.212 466.279 777.051 467.076 C 777.051 467.714 788.424 468.197 802.359 468.036 C 816.136 467.714 828.471 467.714 829.593 467.875 C 832.635 468.197 831.836 473.005 827.833 480.05 C 795.475 535.795 778.656 566.232 778.656 568.636 C 778.656 570.232 774.969 577.768 770.484 585.133 C 765.837 592.499 761.19 600.511 759.916 603.076 C 758.148 606.279 756.391 607.4 752.704 607.4 C 748.219 607.4 747.894 607.076 748.702 603.076 Z " fill="rgb(249,251,251)"/></g></g></g></g></g></g></svg>