<svg height="1000pt" viewBox="0 0 1500 1000" width="2000" xmlns="http://www.w3.org/2000/svg"><clipPath id="a"><path d="M0 0h1500v1000H0z"/></clipPath><clipPath id="b"><path d="M160.545 373.5h1178.91v253H160.545z"/></clipPath><clipPath id="c"><path d="M160.545 373.5h1178.91v253H160.545z"/></clipPath><g clip-path="url(#a)"><path d="M0 0h1500v1000H0z" fill="none"/><g clip-path="url(#b)"><g clip-path="url(#c)"><path d="M160.545 626.498h1178.9V373.5h-1178.9z" fill="none"/></g></g><path d="M778.656 567.991c0-.799 1.596-4.002 3.364-7.044 5.607-9.13 45.652-78.817 48.533-84.577 2.243-4.325 2.404-5.769.644-7.85-1.604-2.08-5.929-2.404-27.234-1.766-24.832.644-25.307.483-25.307-2.718 0-4.486 9.768-68.718 10.407-69.524 1.765-1.598 29.954 5.13 41.329 9.769 15.859 6.575 29.954 19.547 37.005 34.124 9.929 20.346 9.446 65.515-.638 85.7-12.336 24.347-40.692 40.844-75.931 44.048-6.726.644-12.172.483-12.172-.162z" fill="#141440"/><g fill="#fff"><path d="M208.819 598.336c.235-1.517 2.924-10.046 5.844-19.042 7.826-24.188 17.643-55.506 22.203-70.695 3.973-13.324 10.981-35.292 21.497-67.188 2.925-8.997 6.426-20.802 7.945-26.293 4.678-17.643 6.779-23.486 9.351-24.886 2.689-1.519 47.672-1.99 54.334-.472l4.09.819 5.491 17.877c3.036 9.699 7.944 25.358 10.87 34.709 10.163 31.549 17.878 56.672 18.696 60.643.464 2.102 7.36 24.187 15.306 49.075 7.944 24.774 14.488 45.807 14.488 46.625 0 1.165-6.308 1.4-29.448 1.165l-29.559-.347-1.871-7.597a2497.67 2497.67 0 01-3.625-14.608c-1.284-5.607-2.102-7.008-3.973-6.89-1.166 0-8.527.818-16.241 1.636-11.917 1.283-16.244 1.283-28.278-.235l-14.37-1.636-1.636 5.843c-1.401 4.672-5.373 22.434-5.373 23.834 0 .117-12.74.235-28.165.235h-28.159zm106.333-69.758c2.454-.583 4.789-1.283 5.026-1.636.352-.348-3.507-16.707-8.646-36.575-8.296-32.483-10.751-39.022-10.751-29.323 0 1.4-3.855 16.942-8.532 34.349l-8.646 31.902 4.79 1.053c6.31 1.401 21.15 1.518 26.759.23zM425.81 530.449v-70.577l10.281-3.154c17.177-5.261 25.71-6.543 45.807-7.244 22.433-.818 37.039.936 49.427 5.844l7.826 3.155 7.363-2.809c13.552-5.489 16.942-6.072 36.456-5.955 20.803 0 28.394 1.401 41.247 7.592 10.404 5.025 15.306 9.933 21.032 21.149 8.533 16.943 8.65 17.643 9.233 73.149l.583 49.309h-55.153v-42.3c0-26.988-.464-44.165-1.282-47.09-3.037-11.1-11.688-16.589-24.54-15.425-3.972.354-7.597 1.053-8.063 1.636-.583.472-.583 3.273 0 6.197.583 2.919 1.054 25.94 1.171 51.18v45.802h-54.804l-.348-44.635c-.353-44.637-.353-44.755-3.161-50.481-2.217-4.319-3.971-6.192-7.591-7.828-4.672-2.1-14.023-2.8-19.048-1.517l-2.683.699v103.762H425.81zM687.35 501.194V399.642l12.972-1.768c16.336-2.404 73.365-5.768 74.647-4.646.484.485-14.417 26.276-33.157 57.19-18.579 30.914-33.64 57.341-33.318 58.948.477 2.404 3.203 2.726 26.106 3.04l25.63.324-.314 4.486c-.807 10.567-10.254 82.809-11.053 84.092-.483.646-14.424 1.282-31.237 1.282H687.35zM904.824 526.477l.346-74.431 4.679-1.053c6.073-1.401 33.184-1.636 41.829-.466l6.662.93v149.451h-53.753zM985.216 526.712v-74.201h120.239l.936 4.443c.464 2.337.929 10.398.929 17.76 0 7.363-.465 15.424-.929 17.878l-.936 4.319h-65.322v23.375h52.351l1.401 10.163c1.401 9.351 1.053 19.279-.818 31.084l-.7 4.319h-52.234v35.056h-54.917zM1178.015 578.94v-21.968l-8.18-14.371c-4.437-7.826-8.181-14.488-8.181-14.841 0-.7-9.815-17.643-21.733-37.393-4.671-7.709-10.045-17.289-11.916-21.261-1.989-3.973-4.672-9.116-6.079-11.334-1.983-3.272-2.337-4.562-1.282-5.609 1.982-1.988 53.981-1.988 56.435 0 .936.812 5.261 8.645 9.698 17.526 21.15 42.646 19.749 40.193 21.267 38.092.818-1.053 7.598-14.142 15.077-29.094l13.436-27.113 11.333-.935c13.089-.93 42.302.236 43.819 1.753.583.583-3.508 8.764-9.815 19.516-10.163 17.412-12.972 22.438-25.123 43.936-2.572 4.671-8.998 15.776-14.253 24.768l-9.58 16.131v44.165h-54.923z"/></g></g></svg>