<?xml version="1.0" encoding="utf-8"?>
<!-- Generator: Adobe Illustrator 21.1.0, SVG Export Plug-In . SVG Version: 6.00 Build 0)  -->
<svg version="1.1" id="Layer_1" xmlns="http://www.w3.org/2000/svg" xmlns:xlink="http://www.w3.org/1999/xlink" x="0px" y="0px"
	 viewBox="0 0 2372.1 471.3" style="enable-background:new 0 0 2372.1 471.3;" xml:space="preserve">
<style type="text/css">
	.st0{enable-background:new;}
	.st1{fill:#FFFFFF;}
	.trans{fill:transparent;}
</style>
<title>CleverPush Logo</title>
<g id="Layer_2">
	<g id="CLEVERPUSH">
		<g class="st0">
			<path class="st1" d="M173.1,334.6c2.2,0,4.1,0.9,5.9,2.6l15.9,17.2c-8.8,10.9-19.6,19.3-32.5,25c-12.9,5.8-28.3,8.7-46.3,8.7
				c-16.1,0-30.6-2.8-43.4-8.2c-12.9-5.5-23.8-13.1-32.9-23c-9.1-9.8-16.1-21.5-20.9-35.1c-4.9-13.6-7.3-28.4-7.3-44.5
				c0-16.3,2.6-31.2,7.8-44.8c5.2-13.5,12.5-25.2,22-35c9.4-9.8,20.7-17.4,33.8-22.9c13.1-5.4,27.6-8.2,43.5-8.2
				c15.8,0,29.8,2.6,42.1,7.8c12.2,5.2,22.7,12,31.3,20.4l-13.5,18.8c-0.8,1.2-1.8,2.2-3.1,3.1c-1.3,0.9-3,1.4-5.2,1.4
				c-1.5,0-3.1-0.4-4.6-1.3c-1.6-0.8-3.4-1.9-5.2-3.2c-1.9-1.2-4.1-2.6-6.6-4.1c-2.5-1.5-5.4-2.9-8.7-4.1c-3.3-1.2-7.1-2.3-11.5-3.1
				c-4.4-0.8-9.4-1.3-15.1-1.3c-9.7,0-18.6,1.7-26.6,5.2c-8.1,3.5-15,8.5-20.8,15c-5.8,6.6-10.3,14.6-13.5,24
				c-3.2,9.5-4.8,20.2-4.8,32.3c0,12.2,1.7,23.1,5.2,32.5c3.4,9.5,8.1,17.5,14,24c5.9,6.5,12.8,11.5,20.9,14.9
				c8,3.4,16.6,5.2,25.8,5.2c5.5,0,10.5-0.3,14.9-0.9c4.4-0.6,8.5-1.5,12.3-2.8c3.8-1.3,7.3-3,10.6-5c3.3-2,6.7-4.6,10-7.6
				c1-0.9,2-1.6,3.1-2.2C170.7,334.9,171.9,334.6,173.1,334.6z"/>
			<path class="st1" d="M352.7,352.5v33.3H225.6V168.9h40.4v183.6H352.7z"/>
			<path class="st1" d="M424.9,201v60.1h75.9v31.1h-75.9v61.3h96.3v32.2H384.4V168.9h136.8V201H424.9z"/>
			<path class="st1" d="M745.8,168.9l-87.6,216.9h-36.5l-87.6-216.9h32.4c3.5,0,6.3,0.9,8.5,2.6c2.2,1.7,3.8,3.9,5,6.6l51.2,132.3
				c1.7,4.3,3.3,9,4.9,14.2c1.5,5.2,3,10.5,4.4,16.1c1.2-5.6,2.5-11,3.9-16.1c1.4-5.1,2.9-9.9,4.7-14.2L699.9,178
				c0.8-2.3,2.4-4.4,4.7-6.3c2.3-1.9,5.2-2.9,8.6-2.9H745.8z"/>
			<path class="st1" d="M811.8,201v60.1h75.9v31.1h-75.9v61.3h96.3v32.2H771.3V168.9h136.8V201H811.8z"/>
			<path class="st1" d="M1116.1,385.8h-36.5c-6.9,0-11.9-2.7-15-8.1l-45.6-69.5c-1.7-2.6-3.6-4.4-5.6-5.5c-2.1-1.1-5.1-1.7-9.1-1.7
				h-17.2v84.8h-40.3V168.9h66.1c14.7,0,27.3,1.5,37.9,4.6c10.5,3.1,19.2,7.3,26,12.8c6.8,5.5,11.7,12.1,14.9,19.7
				c3.2,7.7,4.8,16.1,4.8,25.3c0,7.3-1.1,14.2-3.2,20.7c-2.2,6.5-5.2,12.4-9.3,17.7c-4,5.3-9.1,10-15,13.9c-6,4-12.7,7.2-20.3,9.5
				c2.6,1.5,5,3.3,7.2,5.3c2.2,2.1,4.2,4.5,6,7.3L1116.1,385.8z M1012.3,272.1c7.6,0,14.2-0.9,19.9-2.8c5.6-1.9,10.3-4.5,14-7.9
				c3.6-3.3,6.4-7.3,8.2-11.9c1.8-4.6,2.7-9.6,2.7-15.2c0-11-3.6-19.4-10.9-25.3c-7.3-5.9-18.3-8.9-33.2-8.9h-25.8v72H1012.3z"/>
		</g>
		<g class="st0">
			<path class="st1" d="M1209.4,170.8c13.6,0,25.4,1.6,35.5,4.7c10,3.1,18.4,7.6,25,13.4c6.6,5.8,11.5,12.8,14.8,21
				c3.2,8.2,4.9,17.4,4.9,27.5c0,10-1.8,19.2-5.2,27.4c-3.5,8.3-8.6,15.5-15.4,21.5s-15.1,10.7-25,14c-10,3.4-21.4,5-34.4,5h-34.5
				v80.4H1146v-215H1209.4z M1209.4,282.3c8.3,0,15.6-1.1,22-3.3c6.3-2.2,11.7-5.3,16-9.2c4.3-3.9,7.6-8.7,9.8-14.2
				c2.2-5.5,3.3-11.5,3.3-18.1c0-13.7-4.2-24.4-12.7-32.1c-8.5-7.7-21.3-11.5-38.5-11.5h-34.5v88.5H1209.4z"/>
			<path class="st1" d="M1412.1,362.7c8.9,0,16.8-1.5,23.9-4.5c7-3,12.9-7.2,17.8-12.6c4.8-5.4,8.5-11.8,11.1-19.3
				s3.8-15.8,3.8-24.8V170.8h29v130.7c0,12.4-2,23.9-5.9,34.5c-4,10.6-9.6,19.8-16.9,27.5c-7.4,7.8-16.3,13.8-26.9,18.2
				c-10.6,4.4-22.5,6.6-35.7,6.6c-13.2,0-25.1-2.2-35.7-6.6c-10.6-4.4-19.6-10.5-27-18.2c-7.4-7.7-13.1-16.9-17-27.5
				c-4-10.6-5.9-22.1-5.9-34.5V170.8h29v130.5c0,9,1.3,17.2,3.8,24.8c2.6,7.5,6.2,14,11.1,19.4c4.8,5.4,10.8,9.6,17.9,12.7
				C1395.2,361.2,1403.2,362.7,1412.1,362.7z"/>
			<path class="st1" d="M1662.7,204.4c-0.9,1.5-1.9,2.6-2.9,3.4c-1,0.8-2.3,1.1-3.8,1.1c-1.7,0-3.7-0.8-6-2.6
				c-2.3-1.7-5.2-3.6-8.6-5.6c-3.5-2-7.6-3.9-12.5-5.6c-4.9-1.7-10.7-2.5-17.6-2.5c-6.5,0-12.2,0.9-17.2,2.6
				c-5,1.8-9.1,4.1-12.5,7.1c-3.4,3-5.9,6.5-7.6,10.6c-1.7,4-2.5,8.4-2.5,13.1c0,6,1.5,11,4.4,14.9c2.9,4,6.8,7.3,11.7,10.1
				c4.8,2.8,10.3,5.2,16.5,7.3c6.1,2.1,12.5,4.2,18.9,6.4c6.5,2.2,12.8,4.7,18.9,7.4c6.2,2.8,11.6,6.2,16.5,10.4
				c4.8,4.2,8.7,9.4,11.7,15.5c2.9,6.1,4.4,13.6,4.4,22.5c0,9.4-1.6,18.2-4.8,26.5c-3.2,8.2-7.9,15.4-14,21.5
				c-6.1,6.1-13.7,10.9-22.6,14.4c-9,3.5-19.1,5.2-30.5,5.2c-14,0-26.7-2.5-38.1-7.6c-11.4-5-21.2-11.9-29.2-20.5l8.4-13.8
				c0.8-1.1,1.8-2,2.9-2.8c1.1-0.8,2.4-1.1,3.8-1.1c1.3,0,2.8,0.5,4.4,1.6c1.7,1.1,3.5,2.4,5.6,4c2.1,1.6,4.5,3.4,7.2,5.2
				c2.7,1.9,5.8,3.7,9.2,5.2c3.4,1.6,7.4,2.9,11.8,4c4.4,1,9.3,1.6,14.9,1.6c6.9,0,13-0.9,18.4-2.8c5.4-1.9,10-4.6,13.7-8
				s6.6-7.6,8.6-12.4c2-4.8,3-10.1,3-16c0-6.5-1.5-11.8-4.4-16c-3-4.1-6.8-7.6-11.6-10.4c-4.8-2.8-10.3-5.2-16.5-7.1
				c-6.2-2-12.5-3.9-18.9-6c-6.4-2-12.7-4.4-18.9-7.1c-6.2-2.7-11.7-6.2-16.5-10.5c-4.8-4.3-8.7-9.7-11.6-16.1
				c-3-6.5-4.4-14.4-4.4-23.9c0-7.6,1.5-14.9,4.4-22c2.9-7.1,7.2-13.4,12.9-18.9c5.6-5.5,12.6-9.9,20.8-13.2
				c8.2-3.3,17.7-4.9,28.4-4.9c12,0,22.9,1.9,32.8,5.7c9.8,3.8,18.5,9.3,26,16.5L1662.7,204.4z"/>
			<path class="st1" d="M1892.7,170.8v215h-29.1V288h-116v97.8h-29.1v-215h29.1v95.9h116v-95.9H1892.7z"/>
		</g>
	</g>
	<g id="speechbubble_Image">
		<path class="trans" d="M2372,243v150h-384c0-50,0-100,0-150c0.4,1.1,0.7,2.2,1,3.3c5.5,28.1,27.4,48.7,56,51.9c7.2,0.8,14.5,0.1,22.7,0.1
			l-33.1,94.7c3-2.4,4.9-3.8,6.7-5.3c35.8-28.5,71.6-57.1,107.4-85.7c2.8-2.3,6.4-3.5,10-3.4c49.8,0.1,99.6,0.1,149.4,0
			c28.5,0,53.5-18.9,61.4-46.2C2370.4,249.4,2371.2,246.2,2372,243z"/>
		<path class="st1" d="M2372,243c-0.9,3.2-1.7,6.4-2.6,9.5c-7.9,27.4-32.9,46.2-61.4,46.2c-49.8,0.1-99.6,0.1-149.4,0
			c-3.6-0.1-7.2,1.1-10,3.4c-35.8,28.7-71.6,57.2-107.4,85.7c-1.8,1.4-3.6,2.9-6.7,5.3l33.2-94.8c-8.2,0-15.5,0.7-22.7-0.1
			c-28.6-3.1-50.5-23.7-56-51.9c-0.3-1.1-0.6-2.2-1-3.3c0-62.7,0-125.3,0-188c0.4-1.2,0.9-2.4,1.2-3.7c5.9-24.6,20.8-41,44.9-48.8
			c2.9-1,6-1.7,8.9-2.5h274c1.2,0.4,2.4,0.9,3.6,1.2c24.8,6,41.2,21,48.9,45.3c1,3.1,1.7,6.3,2.5,9.5L2372,243z M2067.1,346.4
			l0.6,0.5c25.7-23.5,51.4-47,77-70.5c2.2-2.2,5.2-3.4,8.4-3.3c53.2,0.1,106.3,0.2,159.5,0.1c20.3,0,33.6-13.1,33.6-33.4
			c0-60.3,0-120.7,0-181c0.1-2.7-0.1-5.3-0.6-7.9c-3.4-15.8-15.9-25.4-33-25.5c-64.3,0-128.7,0-193,0c-24.5,0-49-0.1-73.5,0
			c-18.5,0.1-32.2,13.6-32.2,31.8c-0.1,61.5-0.1,123,0,184.5c0,17.8,13.7,31.2,31.4,31.5c17.2,0.2,34.3,0.4,51.5,0.6
			c1.4,0,2.9,0.2,4.9,0.3L2067.1,346.4z"/>
		<path class="trans" d="M2372,56c-0.8-3.2-1.5-6.4-2.5-9.5c-7.7-24.4-24.1-39.4-48.9-45.3c-1.2-0.3-2.4-0.8-3.6-1.2h55V56z"/>
		<path class="trans" d="M2043,0c-3,0.8-6,1.6-8.9,2.5c-24.1,7.8-39,24.2-44.9,48.8c-0.3,1.2-0.8,2.4-1.2,3.7V0H2043z"/>
		<path class="trans" d="M2067.1,346.4l34.5-72.3c-2-0.1-3.5-0.3-4.9-0.3c-17.2-0.2-34.3-0.4-51.5-0.6c-17.7-0.2-31.4-13.7-31.4-31.5
			c-0.1-61.5-0.1-123,0-184.5c0-18.2,13.7-31.6,32.2-31.8c24.5-0.2,49,0,73.5,0c64.3,0,128.7,0,193,0c17.1,0,29.6,9.7,33,25.5
			c0.5,2.6,0.7,5.3,0.6,7.9c0,60.3,0,120.7,0,181c0,20.2-13.3,33.4-33.6,33.4c-53.2,0-106.3-0.1-159.5-0.1c-3.1-0.1-6.2,1.1-8.4,3.3
			c-25.6,23.6-51.3,47.1-77,70.5L2067.1,346.4z"/>
	</g>
	<g id="bell_Image">
		<path class="trans" d="M2299,140v115h-233V139c2.1,8.9,3.6,18.1,9.3,25.9l9.9-6c-6.8-12-8.7-24.6-5.4-37.7s11.2-23.1,22.5-30.7l-6.1-10.1
			c-12.7,7.9-21.4,18.3-26,31.8c-1.8,5.1-2.7,10.5-4,15.8V44h233V127c-2.4-7.4-4-15.1-7.2-22.1c-4.8-10.5-12.6-18.5-22.9-24.4
			l-6.1,10.1c11.6,7.6,19.2,17.6,22.5,30.6s1.3,25.7-5.5,37.7l10.2,6.2c1.1-1.8,2.1-3.7,2.9-5.6C2295.1,152.9,2297.1,146.4,2299,140
			z M2270.8,213.3c0-5.4,0.2-10.3-0.1-15.1c-0.1-1.4-1.6-2.9-2.9-3.8c-4-3.2-9.4-5.3-12-9.4c-4.8-7.4-9.1-15.6-11.4-24.1
			c-4.3-15.2-6.6-30.9-10.4-46.2c-3.8-15.1-10.8-28.2-25-36.4c-5.3-3.1-7.7-8.5-8-14.8c-0.7-11.4-8.1-18.8-18.6-18.7
			c-10.2,0.1-17.4,7.5-18.1,18.8c-0.4,6.8-3.6,11.8-9.2,15.7c-4.3,2.8-8.2,6.2-11.7,10c-7.4,8.5-10.8,19-13.3,29.8
			c-3.5,15.2-6.2,30.6-10.2,45.7c-3.4,13-9.9,24.4-23.4,30c-1.1,0.6-1.8,1.7-2,2.9c-0.2,5.1-0.1,10.2-0.1,15.6L2270.8,213.3z
			 M2157.8,229.5c0.5,9.7,4.6,16.8,12.5,21.2c9,5.1,18.2,4.8,26.8-1.1c6.9-4.7,10.6-11.4,10.8-20.2H2157.8z M2107.3,98.9
			c-19.2,11.3-25.8,38.7-13.4,54.9l9.1-5.6c-6.6-17.7-4-27.9,10-39.7L2107.3,98.9z M2252.2,108.4c14.2,12.1,16.7,22,10,39.8l9.4,5.6
			c11.7-18.6,4.4-46.8-13.9-54.6L2252.2,108.4z"/>
		<path class="st1" d="M2066,128c1.3-5.3,2.3-10.7,4-15.8c4.7-13.5,13.3-23.9,26-31.8l6.1,10.1c-11.1,7.6-19.1,17.5-22.3,30.6
			s-1.4,25.7,5.4,37.7l-9.9,6c-5.7-7.8-7.2-17-9.3-25.9L2066,128z"/>
		<path class="st1" d="M2299,140c-2,6.4-3.9,12.9-6,19.4c-0.8,1.9-1.8,3.8-2.9,5.6l-10.2-6.2c6.8-12,8.8-24.5,5.5-37.7
			s-10.9-23-22.5-30.6l6.2-10.1c10.3,5.9,18.1,14,22.9,24.4c3.2,7,4.9,14.7,7.2,22.1L2299,140z"/>
		<path class="st1" d="M2270.8,213.3h-176.5c0-5.4-0.1-10.5,0.1-15.6c0.2-1.2,0.9-2.3,2-2.9c13.5-5.6,19.9-16.9,23.4-30
			c4-15.1,6.7-30.5,10.2-45.7c2.5-10.8,5.9-21.3,13.3-29.8c3.5-3.8,7.4-7.2,11.7-10c5.6-3.9,8.8-8.8,9.2-15.7
			c0.7-11.2,7.9-18.7,18.1-18.8c10.4-0.1,17.9,7.3,18.6,18.7c0.4,6.2,2.7,11.7,8,14.8c14.2,8.2,21.2,21.3,25,36.4
			c3.8,15.3,6.1,31,10.4,46.2c2.4,8.5,6.7,16.6,11.4,24.1c2.6,4,8,6.2,12,9.4c1.2,1,2.8,2.5,2.9,3.8
			C2271,203.1,2270.8,207.9,2270.8,213.3z M2190.1,63.1c-0.2-4.2-3.7-7.4-7.9-7.2c-4,0.2-7.1,3.4-7.2,7.3c-0.1,4.2,3.2,7.6,7.4,7.8
			c4.2,0.1,7.6-3.2,7.8-7.4C2190.2,63.5,2190.2,63.3,2190.1,63.1z"/>
		<path class="st1" d="M2157.8,229.5h50.1c-0.3,8.8-3.9,15.5-10.8,20.2c-8.6,5.8-17.8,6.2-26.8,1.1
			C2162.4,246.2,2158.3,239.2,2157.8,229.5z"/>
		<path class="st1" d="M2107.3,98.9l5.7,9.5c-14,11.8-16.6,22-10,39.7l-9.1,5.6C2081.5,137.6,2088.1,110.1,2107.3,98.9z"/>
		<path class="st1" d="M2252.2,108.4l5.5-9.2c18.3,7.8,25.6,36,13.9,54.6l-9.4-5.6C2268.8,130.4,2266.4,120.5,2252.2,108.4z"/>
		<path class="trans" d="M2190.1,63.1c0.2,4.2-3.1,7.7-7.2,7.9c-4.2,0.2-7.7-3.1-7.9-7.2c0-0.2,0-0.4,0-0.5c0.1-4.2,3.6-7.5,7.8-7.4
			C2186.8,56,2190,59.2,2190.1,63.1z"/>
	</g>
</g>
</svg>
