<?xml version="1.0" encoding="utf-8"?>
<!-- Generator: Adobe Illustrator 22.0.1, SVG Export Plug-In . SVG Version: 6.00 Build 0)  -->
<svg version="1.1" id="Layer_1" xmlns="http://www.w3.org/2000/svg" xmlns:xlink="http://www.w3.org/1999/xlink" x="0px" y="0px"
	 viewBox="0 0 867.9 179.7" style="enable-background:new 0 0 867.9 179.7;" xml:space="preserve">
<style type="text/css">
	.st0{fill:#0D1A2B;}
	.st1{fill-rule:evenodd;clip-rule:evenodd;fill:#0D1A2B;}
</style>
<g>
	<g>
		<path class="st0" d="M202.9,31.1l12,2.4c1.3,0.2,2.2,1.3,2.2,2.6v106.6c0,1.5-1.2,2.7-2.7,2.7h-12c-1.5,0-2.7-1.2-2.7-2.7v-109
			C199.7,32,201.2,30.7,202.9,31.1z"/>
		<path class="st0" d="M304.9,96.1v46.5c0,1.5-1.2,2.7-2.7,2.7h-11.6c-1.5,0-2.7-1.2-2.7-2.7v-48c0-11.3-7.1-17.9-16.5-17.9
			c-10.8,0-17.9,8-17.9,19.1v46.7c0,1.5-1.2,2.7-2.7,2.7h-11.7c-1.5,0-2.7-1.2-2.7-2.7V66.2c0-1.5,1.2-2.7,2.7-2.7h11.4
			c1.5,0,2.7,1.2,2.7,2.7v8c3.6-6.4,12.1-12.7,23-12.7C297.6,61.5,304.9,78.3,304.9,96.1z"/>
		<path class="st0" d="M324.5,124.4c1.2-0.9,2.8-0.7,3.7,0.4c3.7,4.6,9.2,8.5,18,8.5c7.2,0,12.5-3.6,12.5-10.2
			c0-15.7-39.8-10-39.8-38.4c0-14.4,12.2-23.2,28.1-23.2c13.6,0,21.5,7,25.4,12.9c0.8,1.2,0.4,2.8-0.8,3.7l-7.5,5
			c-1.2,0.8-2.7,0.6-3.6-0.5c-2.6-3.4-6.9-7.1-14.5-7.1c-6.3,0-11,3.3-11,8.9c0,15.7,40,9.1,40,37.9c0,15.2-12.9,25.1-29.6,25.1
			c-15.1,0-23.7-7.3-28.2-14.2c-0.8-1.2-0.5-2.7,0.6-3.6L324.5,124.4z"/>
		<path class="st0" d="M394.2,47.1l11.6,2.3c1.2,0.3,2.1,1.4,2.1,2.6v11.5h13.9c1.5,0,2.7,1.2,2.7,2.7V75c0,1.5-1.2,2.7-2.7,2.7H408
			v38.1c0,12.7,4.9,15.5,14,15.5c0.5,0,1.1,0,1.6,0c1.7,0,1.7,2.2,1.7,2.2v10.1c0,1.4-1,2.5-2.4,2.7c-1.4,0.1-3.4,0.3-5.9,0.3
			c-19.9,0-25.9-13.3-25.9-33.4V77.7h-6.4c-1.5,0-2.7-1.2-2.7-2.7v-8.8c0-1.5,1.2-2.7,2.7-2.7h6.4V49.7
			C391,48,392.6,46.8,394.2,47.1z"/>
		<path class="st0" d="M466.5,93.2c9.4,0,16.5,3.1,19.6,6v-7.7c0-9.4-6.6-15-17.4-15c-8,0-15,2.4-20.6,5.2c-1.3,0.6-2.8,0.1-3.5-1.1
			l-4.1-7.4c-0.7-1.3-0.3-2.9,1-3.6c6.7-3.9,16.8-8,29-8c24.3,0,32.6,13.2,32.6,31v50.2c0,1.5-1.2,2.7-2.7,2.7h-10.1
			c-1.2,0-2.3-0.9-2.6-2.1l-0.9-4c-4.2,4.7-10.8,8.2-21,8.2c-17.2,0-30.9-10.8-30.9-27.3C434.9,104.3,447.7,93.2,466.5,93.2z
			 M469.3,133.8c10,0,17.2-5.6,17.2-14.1c0-8.6-7.1-14.1-17.4-14.1c-10.3,0-17.2,6-17.2,14.1C451.9,127.8,459,133.8,469.3,133.8z"/>
		<path class="st0" d="M522.7,64.2l10.8,2.3c1.2,0.3,2.1,1.4,2.1,2.6v5.2c2.2-3,10.5-12.9,26.3-12.9c23.4,0,40,17.9,40,42.8
			c0,25.4-15.5,43.1-38.9,43.1c-15.5,0-24.3-9.4-26.5-12.9v42c0,1.5-1.2,2.7-2.7,2.7h-11.7c-1.5,0-2.7-1.2-2.7-2.7V66.8
			C519.4,65.1,521,63.9,522.7,64.2z M560.3,132.2c14.3,0,24.3-11.4,24.3-27.9c0-16.8-10.5-27.6-24.5-27.6c-15,0-24.3,12.5-24.3,27.6
			C535.9,122,546.7,132.2,560.3,132.2z"/>
		<path class="st0" d="M643.8,93.2c9.4,0,16.5,3.1,19.6,6v-7.7c0-9.4-6.6-15-17.4-15c-8,0-15,2.4-20.6,5.2c-1.3,0.6-2.8,0.1-3.5-1.1
			l-4.1-7.4c-0.7-1.3-0.3-2.9,1-3.6c6.7-3.9,16.8-8,29-8c24.3,0,32.6,13.2,32.6,31v50.2c0,1.5-1.2,2.7-2.7,2.7h-10.1
			c-1.2,0-2.3-0.9-2.6-2.1l-0.9-4c-4.2,4.7-10.8,8.2-21,8.2c-17.2,0-30.9-10.8-30.9-27.3C612.2,104.3,625,93.2,643.8,93.2z
			 M646.7,133.8c10,0,17.2-5.6,17.2-14.1c0-8.6-7.1-14.1-17.4-14.1c-10.3,0-17.2,6-17.2,14.1C629.3,127.8,636.3,133.8,646.7,133.8z"
			/>
		<path class="st0" d="M709,161c0.6-1.4,2.2-2.1,3.6-1.4c4.3,2,12.3,5,21.5,5c13.6,0,25.7-8.9,25.7-24.4v-5.5
			c-1.9,2.7-10,12.7-26.2,12.7c-23.5,0-39.2-17.7-39.2-42.8c0-25.2,16.3-43.1,39.5-43.1c15.4,0,24.1,9.2,26.6,13v-7.7
			c0-1.7,1.6-3,3.2-2.6l10.8,2.3c1.2,0.3,2.1,1.4,2.1,2.6v65.4c0,30.7-18.7,44.8-42.5,44.8c-9.9,0-20.2-2.9-27.4-6.6
			c-1.3-0.6-1.8-2.1-1.3-3.4L709,161z M735.8,76.7c-14.1,0-24.3,11.3-24.3,27.7c0,16.8,10.5,27.7,24.5,27.7
			c14.7,0,24.3-11.6,24.3-27.7C760.3,87.7,749.9,76.7,735.8,76.7z"/>
		<path class="st0" d="M828.5,61.5c24.8,0,39.3,17.1,39.3,42.8c0,0.5,0,1.1,0,1.6c0,1.4-1.2,2.6-2.7,2.6h-59.1
			c0.3,14.6,10.8,24,25.4,24c10.6,0,17.3-5.1,21-9.4c0.9-1.1,2.5-1.3,3.7-0.5l7.2,5.4c1.2,0.9,1.4,2.5,0.6,3.7
			c-4.8,6.7-15.3,15.7-32.8,15.7c-25.6,0-42.5-17.9-42.5-42.6C788.7,79.4,806.1,61.5,828.5,61.5z M850.5,96.8
			c-0.6-13.5-10-21-21.8-21c-11.8,0-20.8,8.2-21.9,21H850.5z"/>
		<path class="st0" d="M39.1,161v-144c0-1.3-1-2.5-2.3-2.7l-8.6-1.1c-1.6-0.2-3.1,1-3.1,2.6v146.4c0,1.6,1.5,2.9,3.1,2.7l8.6-1.3
			C38.1,163.5,39.1,162.4,39.1,161z"/>
		<path class="st0" d="M14,147.5V29.9c0-1.4-1-2.5-2.4-2.7L3,26.4c-1.6-0.2-3,1.1-3,2.7v119.5c0,1.6,1.4,2.8,3,2.7l8.6-1
			C12.9,150,14,148.9,14,147.5z"/>
		<path class="st1" d="M164.3,18.2L53.4,0c-1.6-0.3-3.1,1-3.1,2.6v174.4c0,1.7,1.5,2.9,3.1,2.6l110.9-19.6c1.3-0.2,2.2-1.3,2.2-2.6
			V20.8C166.6,19.5,165.6,18.4,164.3,18.2z M152.5,145c0,1.3-1,2.5-2.3,2.7l-78.3,11.2c-1.6,0.2-3.1-1-3.1-2.7V25.3
			c0-1.6,1.4-2.9,3-2.7l78.3,9.8c1.3,0.2,2.3,1.3,2.3,2.7V145z"/>
	</g>
</g>
</svg>
