<svg viewBox="0 0 867.9 179.7" xmlns="http://www.w3.org/2000/svg"><g fill="#0d1a2b"><path d="M202.9 31.1l12 2.4c1.3.2 2.2 1.3 2.2 2.6v106.6c0 1.5-1.2 2.7-2.7 2.7h-12c-1.5 0-2.7-1.2-2.7-2.7v-109c0-1.7 1.5-3 3.2-2.6zM304.9 96.1v46.5c0 1.5-1.2 2.7-2.7 2.7h-11.6c-1.5 0-2.7-1.2-2.7-2.7v-48c0-11.3-7.1-17.9-16.5-17.9-10.8 0-17.9 8-17.9 19.1v46.7c0 1.5-1.2 2.7-2.7 2.7h-11.7c-1.5 0-2.7-1.2-2.7-2.7V66.2c0-1.5 1.2-2.7 2.7-2.7h11.4c1.5 0 2.7 1.2 2.7 2.7v8c3.6-6.4 12.1-12.7 23-12.7 21.4 0 28.7 16.8 28.7 34.6zM324.5 124.4c1.2-.9 2.8-.7 3.7.4 3.7 4.6 9.2 8.5 18 8.5 7.2 0 12.5-3.6 12.5-10.2 0-15.7-39.8-10-39.8-38.4 0-14.4 12.2-23.2 28.1-23.2 13.6 0 21.5 7 25.4 12.9.8 1.2.4 2.8-.8 3.7l-7.5 5c-1.2.8-2.7.6-3.6-.5-2.6-3.4-6.9-7.1-14.5-7.1-6.3 0-11 3.3-11 8.9 0 15.7 40 9.1 40 37.9 0 15.2-12.9 25.1-29.6 25.1-15.1 0-23.7-7.3-28.2-14.2-.8-1.2-.5-2.7.6-3.6zM394.2 47.1l11.6 2.3c1.2.3 2.1 1.4 2.1 2.6v11.5h13.9c1.5 0 2.7 1.2 2.7 2.7V75c0 1.5-1.2 2.7-2.7 2.7H408v38.1c0 12.7 4.9 15.5 14 15.5h1.6c1.7 0 1.7 2.2 1.7 2.2v10.1c0 1.4-1 2.5-2.4 2.7-1.4.1-3.4.3-5.9.3-19.9 0-25.9-13.3-25.9-33.4V77.7h-6.4c-1.5 0-2.7-1.2-2.7-2.7v-8.8c0-1.5 1.2-2.7 2.7-2.7h6.4V49.7c-.1-1.7 1.5-2.9 3.1-2.6zM466.5 93.2c9.4 0 16.5 3.1 19.6 6v-7.7c0-9.4-6.6-15-17.4-15-8 0-15 2.4-20.6 5.2-1.3.6-2.8.1-3.5-1.1l-4.1-7.4c-.7-1.3-.3-2.9 1-3.6 6.7-3.9 16.8-8 29-8 24.3 0 32.6 13.2 32.6 31v50.2c0 1.5-1.2 2.7-2.7 2.7h-10.1c-1.2 0-2.3-.9-2.6-2.1l-.9-4c-4.2 4.7-10.8 8.2-21 8.2-17.2 0-30.9-10.8-30.9-27.3 0-16 12.8-27.1 31.6-27.1zm2.8 40.6c10 0 17.2-5.6 17.2-14.1 0-8.6-7.1-14.1-17.4-14.1s-17.2 6-17.2 14.1 7.1 14.1 17.4 14.1zM522.7 64.2l10.8 2.3c1.2.3 2.1 1.4 2.1 2.6v5.2c2.2-3 10.5-12.9 26.3-12.9 23.4 0 40 17.9 40 42.8 0 25.4-15.5 43.1-38.9 43.1-15.5 0-24.3-9.4-26.5-12.9v42c0 1.5-1.2 2.7-2.7 2.7h-11.7c-1.5 0-2.7-1.2-2.7-2.7V66.8c0-1.7 1.6-2.9 3.3-2.6zm37.6 68c14.3 0 24.3-11.4 24.3-27.9 0-16.8-10.5-27.6-24.5-27.6-15 0-24.3 12.5-24.3 27.6.1 17.7 10.9 27.9 24.5 27.9zM643.8 93.2c9.4 0 16.5 3.1 19.6 6v-7.7c0-9.4-6.6-15-17.4-15-8 0-15 2.4-20.6 5.2-1.3.6-2.8.1-3.5-1.1l-4.1-7.4c-.7-1.3-.3-2.9 1-3.6 6.7-3.9 16.8-8 29-8 24.3 0 32.6 13.2 32.6 31v50.2c0 1.5-1.2 2.7-2.7 2.7h-10.1c-1.2 0-2.3-.9-2.6-2.1l-.9-4c-4.2 4.7-10.8 8.2-21 8.2-17.2 0-30.9-10.8-30.9-27.3 0-16 12.8-27.1 31.6-27.1zm2.9 40.6c10 0 17.2-5.6 17.2-14.1 0-8.6-7.1-14.1-17.4-14.1s-17.2 6-17.2 14.1 7 14.1 17.4 14.1zM709 161c.6-1.4 2.2-2.1 3.6-1.4 4.3 2 12.3 5 21.5 5 13.6 0 25.7-8.9 25.7-24.4v-5.5c-1.9 2.7-10 12.7-26.2 12.7-23.5 0-39.2-17.7-39.2-42.8 0-25.2 16.3-43.1 39.5-43.1 15.4 0 24.1 9.2 26.6 13v-7.7c0-1.7 1.6-3 3.2-2.6l10.8 2.3c1.2.3 2.1 1.4 2.1 2.6v65.4c0 30.7-18.7 44.8-42.5 44.8-9.9 0-20.2-2.9-27.4-6.6-1.3-.6-1.8-2.1-1.3-3.4zm26.8-84.3c-14.1 0-24.3 11.3-24.3 27.7 0 16.8 10.5 27.7 24.5 27.7 14.7 0 24.3-11.6 24.3-27.7 0-16.7-10.4-27.7-24.5-27.7zM828.5 61.5c24.8 0 39.3 17.1 39.3 42.8v1.6c0 1.4-1.2 2.6-2.7 2.6H806c.3 14.6 10.8 24 25.4 24 10.6 0 17.3-5.1 21-9.4.9-1.1 2.5-1.3 3.7-.5l7.2 5.4c1.2.9 1.4 2.5.6 3.7-4.8 6.7-15.3 15.7-32.8 15.7-25.6 0-42.5-17.9-42.5-42.6.1-25.4 17.5-43.3 39.9-43.3zm22 35.3c-.6-13.5-10-21-21.8-21s-20.8 8.2-21.9 21zM39.1 161V17c0-1.3-1-2.5-2.3-2.7l-8.6-1.1c-1.6-.2-3.1 1-3.1 2.6v146.4c0 1.6 1.5 2.9 3.1 2.7l8.6-1.3c1.3-.1 2.3-1.2 2.3-2.6zM14 147.5V29.9c0-1.4-1-2.5-2.4-2.7L3 26.4c-1.6-.2-3 1.1-3 2.7v119.5c0 1.6 1.4 2.8 3 2.7l8.6-1c1.3-.3 2.4-1.4 2.4-2.8z"/><path clip-rule="evenodd" d="M164.3 18.2L53.4 0c-1.6-.3-3.1 1-3.1 2.6V177c0 1.7 1.5 2.9 3.1 2.6L164.3 160c1.3-.2 2.2-1.3 2.2-2.6V20.8c.1-1.3-.9-2.4-2.2-2.6zM152.5 145c0 1.3-1 2.5-2.3 2.7l-78.3 11.2c-1.6.2-3.1-1-3.1-2.7V25.3c0-1.6 1.4-2.9 3-2.7l78.3 9.8c1.3.2 2.3 1.3 2.3 2.7V145z" fill-rule="evenodd"/></g></svg>