<svg width="750" height="375" viewBox="0 0 750 375" fill="none" xmlns="http://www.w3.org/2000/svg">
<rect width="750" height="375" fill="#0D1117"/>
<mask id="path-2-inside-1_194_269" fill="white">
<path d="M122.281 208.686C118.356 205.265 120.494 198.586 125.738 197.883L192.963 188.875C194.553 188.662 196.139 189.095 197.374 190.078L231.643 217.38C235.808 220.699 233.748 227.626 228.38 228.346L161.233 237.343C157.874 237.793 154.534 236.803 152.02 234.611L122.281 208.686Z"/>
</mask>
<path d="M122.281 208.686C118.356 205.265 120.494 198.586 125.738 197.883L192.963 188.875C194.553 188.662 196.139 189.095 197.374 190.078L231.643 217.38C235.808 220.699 233.748 227.626 228.38 228.346L161.233 237.343C157.874 237.793 154.534 236.803 152.02 234.611L122.281 208.686Z" fill="#198CFF"/>
<path d="M161.233 237.343L161.664 241.906L161.233 237.343ZM197.374 190.078L200.252 186.417L197.374 190.078ZM126.169 202.446L193.394 193.438L192.532 184.312L125.307 193.32L126.169 202.446ZM194.496 193.739L228.765 221.041L234.52 213.719L200.252 186.417L194.496 193.739ZM227.949 223.782L160.802 232.78L161.664 241.906L228.811 232.909L227.949 223.782ZM155.044 231.073L125.305 205.147L119.256 212.225L148.996 238.15L155.044 231.073ZM160.802 232.78C158.703 233.061 156.615 232.442 155.044 231.073L148.996 238.15C152.452 241.164 157.045 242.525 161.664 241.906L160.802 232.78ZM228.765 221.041C229.806 221.871 229.291 223.603 227.949 223.782L228.811 232.909C238.204 231.65 241.81 219.527 234.52 213.719L228.765 221.041ZM193.394 193.438C193.791 193.385 194.188 193.493 194.496 193.739L200.252 186.417C198.091 184.696 195.315 183.939 192.532 184.312L193.394 193.438ZM125.307 193.32C116.129 194.549 112.389 206.238 119.256 212.225L125.305 205.147C124.323 204.292 124.858 202.622 126.169 202.446L125.307 193.32Z" fill="#0D1117" mask="url(#path-2-inside-1_194_269)"/>
<mask id="path-4-inside-2_194_269" fill="white">
<path d="M122.281 182.826C118.356 179.405 120.494 172.726 125.738 172.023L192.963 163.016C194.553 162.802 196.139 163.235 197.374 164.219L231.643 191.52C235.808 194.839 233.748 201.767 228.38 202.486L161.233 211.484C157.874 211.934 154.534 210.943 152.02 208.752L122.281 182.826Z"/>
</mask>
<path d="M122.281 182.826C118.356 179.405 120.494 172.726 125.738 172.023L192.963 163.016C194.553 162.802 196.139 163.235 197.374 164.219L231.643 191.52C235.808 194.839 233.748 201.767 228.38 202.486L161.233 211.484C157.874 211.934 154.534 210.943 152.02 208.752L122.281 182.826Z" fill="#389BFF"/>
<path d="M161.233 211.484L161.664 216.047L161.233 211.484ZM197.374 164.219L200.252 160.557L197.374 164.219ZM126.169 176.587L193.394 167.579L192.532 158.452L125.307 167.46L126.169 176.587ZM194.496 167.88L228.765 195.181L234.52 187.859L200.252 160.557L194.496 167.88ZM227.949 197.923L160.802 206.92L161.664 216.047L228.811 207.049L227.949 197.923ZM155.044 205.213L125.305 179.287L119.256 186.365L148.996 212.291L155.044 205.213ZM160.802 206.92C158.703 207.202 156.615 206.583 155.044 205.213L148.996 212.291C152.452 215.304 157.045 216.666 161.664 216.047L160.802 206.92ZM228.765 195.181C229.806 196.011 229.291 197.743 227.949 197.923L228.811 207.049C238.204 205.791 241.81 193.667 234.52 187.859L228.765 195.181ZM193.394 167.579C193.791 167.526 194.188 167.634 194.496 167.88L200.252 160.557C198.091 158.836 195.315 158.079 192.532 158.452L193.394 167.579ZM125.307 167.46C116.129 168.69 112.389 180.378 119.256 186.365L125.305 179.287C124.323 178.432 124.858 176.762 126.169 176.587L125.307 167.46Z" fill="#0D1117" mask="url(#path-4-inside-2_194_269)"/>
<mask id="path-6-inside-3_194_269" fill="white">
<path d="M122.281 156.966C118.356 153.545 120.494 146.866 125.738 146.163L190.479 137.488C193.66 137.062 196.832 137.927 199.302 139.894L231.643 165.66C235.808 168.979 233.748 175.907 228.38 176.626L161.233 185.624C157.874 186.074 154.534 185.083 152.02 182.892L122.281 156.966Z"/>
</mask>
<path d="M122.281 156.966C118.356 153.545 120.494 146.866 125.738 146.163L190.479 137.488C193.66 137.062 196.832 137.927 199.302 139.894L231.643 165.66C235.808 168.979 233.748 175.907 228.38 176.626L161.233 185.624C157.874 186.074 154.534 185.083 152.02 182.892L122.281 156.966Z" fill="#56ABFF"/>
<path d="M161.233 185.624L161.664 190.187L161.233 185.624ZM126.169 150.727L190.91 142.052L190.048 132.925L125.307 141.6L126.169 150.727ZM196.424 143.555L228.765 169.321L234.52 161.999L202.179 136.233L196.424 143.555ZM227.949 172.063L160.802 181.06L161.664 190.187L228.811 181.189L227.949 172.063ZM155.044 179.353L125.305 153.427L119.256 160.505L148.996 186.431L155.044 179.353ZM160.802 181.06C158.703 181.342 156.615 180.723 155.044 179.353L148.996 186.431C152.452 189.444 157.045 190.806 161.664 190.187L160.802 181.06ZM228.765 169.321C229.806 170.151 229.291 171.883 227.949 172.063L228.811 181.189C238.204 179.931 241.81 167.807 234.52 161.999L228.765 169.321ZM190.91 142.052C192.898 141.785 194.881 142.326 196.424 143.555L202.179 136.233C198.784 133.528 194.422 132.339 190.048 132.925L190.91 142.052ZM125.307 141.6C116.129 142.83 112.389 154.518 119.256 160.505L125.305 153.427C124.323 152.572 124.858 150.902 126.169 150.727L125.307 141.6Z" fill="#0D1117" mask="url(#path-6-inside-3_194_269)"/>
<path d="M280.339 227V147.264H311.797C317.845 147.264 322.997 148.419 327.254 150.73C331.511 153.014 334.755 156.193 336.987 160.268C339.245 164.317 340.374 168.989 340.374 174.284C340.374 179.579 339.232 184.251 336.948 188.3C334.664 192.349 331.355 195.503 327.02 197.761C322.712 200.019 317.495 201.148 311.369 201.148H291.318V187.638H308.644C311.888 187.638 314.562 187.08 316.664 185.964C318.792 184.822 320.376 183.252 321.414 181.253C322.478 179.229 323.01 176.906 323.01 174.284C323.01 171.637 322.478 169.327 321.414 167.354C320.376 165.355 318.792 163.811 316.664 162.721C314.536 161.605 311.836 161.047 308.566 161.047H297.197V227H280.339ZM366.46 228.129C362.644 228.129 359.244 227.467 356.259 226.143C353.274 224.794 350.912 222.808 349.173 220.187C347.46 217.539 346.604 214.243 346.604 210.298C346.604 206.975 347.214 204.185 348.434 201.927C349.654 199.669 351.315 197.852 353.417 196.476C355.52 195.101 357.907 194.062 360.581 193.362C363.28 192.661 366.109 192.168 369.068 191.882C372.546 191.519 375.35 191.181 377.478 190.87C379.606 190.532 381.151 190.039 382.111 189.39C383.071 188.741 383.552 187.781 383.552 186.509V186.276C383.552 183.81 382.773 181.902 381.216 180.552C379.684 179.203 377.504 178.528 374.675 178.528C371.69 178.528 369.315 179.19 367.55 180.514C365.785 181.811 364.617 183.447 364.046 185.419L348.706 184.173C349.485 180.54 351.016 177.399 353.3 174.751C355.584 172.078 358.53 170.028 362.138 168.6C365.772 167.146 369.977 166.42 374.753 166.42C378.075 166.42 381.254 166.809 384.291 167.588C387.354 168.366 390.066 169.573 392.428 171.208C394.816 172.844 396.698 174.946 398.074 177.516C399.449 180.059 400.137 183.109 400.137 186.665V227H384.408V218.707H383.941C382.981 220.576 381.696 222.224 380.086 223.652C378.477 225.053 376.544 226.156 374.285 226.961C372.027 227.74 369.419 228.129 366.46 228.129ZM371.21 216.683C373.649 216.683 375.804 216.202 377.673 215.242C379.541 214.256 381.008 212.932 382.072 211.271C383.136 209.61 383.668 207.728 383.668 205.626V199.279C383.149 199.617 382.435 199.928 381.527 200.214C380.645 200.473 379.645 200.72 378.529 200.954C377.413 201.161 376.297 201.356 375.181 201.538C374.065 201.693 373.053 201.836 372.144 201.966C370.197 202.251 368.497 202.706 367.044 203.329C365.59 203.951 364.461 204.795 363.657 205.859C362.852 206.897 362.45 208.195 362.45 209.753C362.45 212.011 363.267 213.737 364.902 214.931C366.564 216.099 368.666 216.683 371.21 216.683ZM413.005 227V167.198H429.084V177.632H429.707C430.797 173.921 432.627 171.118 435.197 169.223C437.766 167.302 440.725 166.342 444.073 166.342C444.904 166.342 445.8 166.394 446.76 166.498C447.72 166.601 448.564 166.744 449.291 166.926V181.643C448.512 181.409 447.435 181.201 446.059 181.02C444.683 180.838 443.425 180.747 442.283 180.747C439.843 180.747 437.662 181.279 435.742 182.343C433.847 183.382 432.342 184.835 431.225 186.704C430.135 188.573 429.59 190.727 429.59 193.167V227H413.005ZM482.102 228.168C475.976 228.168 470.707 226.87 466.295 224.275C461.908 221.653 458.534 218.019 456.172 213.373C453.836 208.727 452.668 203.38 452.668 197.333C452.668 191.207 453.849 185.834 456.211 181.214C458.599 176.568 461.986 172.948 466.373 170.352C470.759 167.73 475.976 166.42 482.024 166.42C487.241 166.42 491.809 167.367 495.728 169.262C499.648 171.157 502.749 173.817 505.033 177.243C507.317 180.669 508.576 184.692 508.81 189.313H493.159C492.717 186.328 491.549 183.927 489.655 182.11C487.786 180.267 485.333 179.346 482.296 179.346C479.727 179.346 477.482 180.046 475.561 181.448C473.666 182.824 472.187 184.835 471.122 187.483C470.058 190.13 469.526 193.336 469.526 197.099C469.526 200.915 470.045 204.159 471.083 206.833C472.148 209.506 473.64 211.543 475.561 212.945C477.482 214.347 479.727 215.047 482.296 215.047C484.191 215.047 485.891 214.658 487.397 213.879C488.928 213.101 490.187 211.972 491.173 210.492C492.185 208.987 492.847 207.183 493.159 205.081H508.81C508.55 209.649 507.304 213.672 505.072 217.15C502.866 220.602 499.816 223.301 495.923 225.248C492.03 227.195 487.423 228.168 482.102 228.168ZM546.682 228.168C540.531 228.168 535.236 226.922 530.798 224.43C526.385 221.913 522.985 218.357 520.597 213.763C518.209 209.143 517.015 203.679 517.015 197.372C517.015 191.22 518.209 185.821 520.597 181.175C522.985 176.529 526.346 172.909 530.681 170.313C535.041 167.717 540.155 166.42 546.02 166.42C549.966 166.42 553.638 167.056 557.039 168.327C560.465 169.573 563.45 171.455 565.993 173.973C568.563 176.49 570.561 179.657 571.989 183.472C573.417 187.262 574.13 191.7 574.13 196.788V201.343H523.634V191.065H558.518C558.518 188.677 557.999 186.561 556.961 184.718C555.923 182.876 554.482 181.435 552.639 180.397C550.822 179.333 548.707 178.8 546.293 178.8C543.775 178.8 541.543 179.384 539.596 180.552C537.676 181.695 536.17 183.239 535.08 185.186C533.99 187.106 533.432 189.248 533.406 191.61V201.382C533.406 204.341 533.951 206.897 535.041 209.052C536.157 211.206 537.728 212.867 539.752 214.035C541.777 215.203 544.178 215.787 546.955 215.787C548.798 215.787 550.485 215.528 552.016 215.009C553.548 214.489 554.858 213.711 555.949 212.673C557.039 211.634 557.869 210.362 558.44 208.857L573.78 209.869C573.001 213.555 571.405 216.774 568.991 219.525C566.603 222.25 563.515 224.378 559.725 225.91C555.961 227.415 551.614 228.168 546.682 228.168ZM601.539 147.264V227H584.954V147.264H601.539Z" fill="#FCFDFF"/>
</svg>
