<svg width="800" height="400" fill="none" xmlns="http://www.w3.org/2000/svg"><path fill="#33FEB5" d="M0 0h800v400H0z"/><path fill-rule="evenodd" clip-rule="evenodd" d="M169 144h40v112h-91v-40h16v24h59v-80h-24v-16z" fill="#000"/><path fill-rule="evenodd" clip-rule="evenodd" d="M118 160H99v-16h54v16h-19v40h-16v-40z" fill="#000"/><path d="M335.714 225.429h-1C332 229.286 328 232 320.714 232c-13 0-23.428-11.429-23.428-26.714 0-15.286 10.285-26.572 23.285-26.572 6.429 0 11 2.572 14 6h1V180h14v50.714h-14v-5.285h.143zm.143-20c0-8.429-5.571-13.143-12.286-13.143-6.714 0-12.142 5.143-12.142 13.143s5.428 13.142 12.285 13.142c7.429 0 12.143-6 12.143-13.142zm77.429 0c0 14.857-9.857 26.571-22.857 26.571-7.858 0-12.286-3.429-14.429-6.429h-1V250h-14.143v-70h14v4.714h1c2.572-3.143 6.572-6 13.714-6 13.143.143 23.715 11.572 23.715 26.715zm-14.143 0c0-7.858-5.429-13.143-12.286-13.143-7.286 0-12.143 6-12.143 13.143 0 8.428 5.572 13.428 12.286 13.428 6.857-.143 12.143-5.571 12.143-13.428zm74.571 0c0 14.857-9.857 26.571-22.857 26.571-7.857 0-12.286-3.429-14.428-6.429h-1.143V250h-14v-70h14v4.714h1c2.571-3.143 6.714-6 13.714-6 13.143.143 23.714 11.572 23.714 26.715zm-14.285 0c0-7.858-5.429-13.143-12.286-13.143-7.286 0-12.143 6-12.143 13.143 0 8.428 5.571 13.428 12.286 13.428 6.857-.143 12.143-5.571 12.143-13.428zm137 0c0 15.142-10.572 26.714-23.715 26.714-7.285 0-11.285-2.857-13.714-6h-1v4.714h-14V160h14v25.429h1c2.429-3 6.714-6.429 14.429-6.429 13.142-.143 23 11.571 23 26.429zm-14.286 0c0-8-5.286-13.286-12.143-13.286-6.571 0-12.286 4.857-12.286 13.286 0 7.142 4.857 13.285 12.143 13.285 6.857 0 12.286-5.285 12.286-13.285zM618.571 160h-14.142v70.714h14V160h.142zm59.143 48.857H641c0 4.286 2.143 7.572 5.429 9.286 5.142 2.714 14.285 2 16.142-3.429h14l-.428 1.715C672.429 227.857 662.714 232 652.857 232c-15.428 0-26.286-11.286-26.286-26.571 0-15.858 11.715-26.715 25.858-26.715 15.571 0 25.285 11.572 25.285 26.572v3.571zm-14.143-9.286c-.714-5.142-5.142-9.142-11.142-9.142-6.572 0-10.715 4.571-11.429 9.142h22.571zm-144.714 25.858h-1c-2.714 3.857-6.714 6.571-14 6.571-13 0-23.428-11.429-23.428-26.714 0-15.286 10.285-26.572 23.285-26.572 6.429 0 11 2.572 14 6h1V180h14v50.714h-14v-5.285h.143zm.143-20c0-8.429-5.571-13.143-12.286-13.143-6.714 0-12.143 5.143-12.143 13.143s5.429 13.142 12.286 13.142c7.286 0 12.143-6 12.143-13.142zm-252.857 25.857h14.428v-54.429h18.143v-13.571H248v13.571h18.143v54.429z" fill="#000"/></svg>