<svg enable-background="new 0 0 194.263 45" viewBox="0 0 194.263 45" xmlns="http://www.w3.org/2000/svg"><g fill="#fff"><path d="m22.5 0c-12.427 0-22.5 10.074-22.5 22.5s10.073 22.5 22.5 22.5 22.5-10.074 22.5-22.5-10.073-22.5-22.5-22.5zm-6.221 38.325c.248-1.602.486-3.074.708-4.432-4.955-2.484-8.095-7.484-7.294-13.263 1.094-7.85 7.136-11.875 14.737-11.19.576-.815 1.209-1.598 1.929-2.356 1.282-1.434 3.189-1.479 2.331.22-1.728 3.271-2.412 5.74-3.896 9.706-1.48 4.217-3.766 10.408-6.812 21.278-.221.996-1.782.838-1.703.037zm19.041-14.414c-.988 7.494-7.993 11.747-14.955 11.012.506-1.709.745-2.437 1.33-3.815.442-.795 2.097-1.12 3.381-1.666 2.61-.938 4.614-3.268 4.992-6.207.266-2.084-.342-4.082-1.535-5.625-.834-1.059-1.621-1.701-1.353-2.695.395-1.342.698-2.338 1.435-4.025 4.576 2.459 7.428 7.563 6.705 13.021z"/><path d="m14.949 21.301c-.258 2.005.288 3.919 1.382 5.428.729.975 1.288 1.543 1.562 1.989.902-4.882 1.552-7.408 2.419-10.242.389-1.184 1.032-2.844 1.499-3.974-.556.186-1.345.393-1.989.645-2.552.957-4.502 3.262-4.873 6.154z"/><path d="m194.263 23.264c-.111-5.332-3.283-9.082-8.649-9.082-5.014 0-8.915 3.74-8.915 8.716 0 5.014 3.701 8.715 9.431 8.715 3.103 0 5.019-.853 6.542-2.237.423-.464.207-.762-.075-1.069-.182-.182-1.069-1.144-1.285-1.36-.307-.331-.655-.39-1.061 0-.974.769-2.27 1.284-4.161 1.284-2.841 0-4.553-1.335-5.168-3.462-.049-.167.032-.517.311-.517h12.204c.653-.002.82-.358.826-.988zm-4.506-1.799h-8.527s-.514.08-.286-.602c.635-2.134 2.337-3.338 4.71-3.338 2.559 0 3.942 1.41 4.428 3.398.109.542-.325.542-.325.542z"/><path d="m175.687 28.144c-.215-.202-1.412-1.184-1.571-1.344-.309-.242-.712-.416-1.128.041-.94.806-1.83 1.295-3.563 1.295-2.984 0-4.775-2.189-4.775-5.173 0-2.985 1.791-5.174 4.775-5.174 1.472 0 2.498.467 3.361 1.329.497.416.806.429 1.168.107.198-.198 1.515-1.166 1.678-1.329.336-.349.416-.524.054-1.061-1.491-1.517-3.323-2.588-6.262-2.588-5.094 0-8.915 3.74-8.915 8.716 0 5.014 3.82 8.715 8.915 8.715 3.018 0 4.65-.943 6.303-2.434.591-.59.215-.885-.04-1.1z"/><path d="m152.798 14.181c-2.356-.049-4.019.005-5.65 1.475l-.001-.323c0-.522-.261-.794-.899-.794-.228 0-3.04 0-3.04 0s.001 15.108.001 15.606c0 .779.198 1.108 1.027 1.108h1.973c.846 0 1.019-.296 1.019-1.158 0-.446 0-7.915 0-7.915 0-2.706 1.711-4.298 4.338-4.298 2.348 0 3.461 1.393 3.461 3.781v8.433c0 1.045.26 1.161 1.305 1.161.342 0 .914 0 1.446-.001 1.046 0 1.268-.138 1.268-1.184 0-.851 0-8.726 0-8.726 0-4.538-2.548-7.087-6.248-7.165z"/><path d="m137.723 15.654v8.04c0 2.866-1.075 4.417-3.741 4.417s-3.741-1.552-3.741-4.417c0 0 0-7.588 0-8.051 0-.846-.235-1.102-1.04-1.102-.531 0-1.353 0-1.867 0-.886 0-1.111.282-1.111 1.114v8.158c0 4.895 2.706 7.84 7.601 7.84 4.974 0 7.919-2.945 7.919-7.84v-9.273l-2.765.01c-.953 0-1.255.218-1.255 1.104z"/><path d="m97.666 14.133c-1.98 0-3.807.651-5.281 1.75.004-5.021.006-9.43.006-9.587 0-.765-.18-1.066-1.026-1.066-.272 0-1.449-.008-1.996-.008-.792 0-.937.211-.937 1.018v25.015s3.264 0 3.33 0c.447 0 .611-.268.611-.646 0-.024 0-.218 0-.545 1.475 1.103 3.308 1.757 5.291 1.757 4.884 0 8.843-3.96 8.843-8.844.003-4.885-3.957-8.844-8.841-8.844zm-.044 14.061c-2.882 0-5.218-2.336-5.218-5.218 0-2.883 2.336-5.218 5.218-5.218s5.218 2.336 5.218 5.218-2.336 5.218-5.218 5.218z"/><path d="m80.72 14.181c-2.356-.049-4.019.005-5.651 1.475l-.001-.323c0-.522-.261-.794-.899-.794-.228 0-3.039 0-3.039 0s0 15.108 0 15.606c0 .779.198 1.108 1.028 1.108h1.974c.846 0 1.019-.296 1.019-1.158 0-.446 0-7.915 0-7.915 0-2.706 1.711-4.298 4.338-4.298 2.348 0 3.462 1.393 3.462 3.781v8.433c0 1.045.26 1.161 1.305 1.161.771 0 2.714-.003 2.714-.003v-9.909c-.002-4.537-2.55-7.086-6.25-7.164z"/><path d="m65.645 15.636v8.058c-.172 2.866-1.075 4.417-3.74 4.417-2.667 0-3.573-1.552-3.741-4.417 0 0 0-7.708 0-8.04 0-.716-.139-1.114-.872-1.114h-2.202c-.733 0-.935.325-.935 1.077 0 .315-.011 8.195-.011 8.195 0 4.895 2.706 7.84 7.601 7.84 4.974 0 7.919-2.945 7.919-7.84v-9.272s-2.672 0-3.092 0c-.66 0-.927.325-.927 1.096z"/><path d="m122.748 29.241c-1.736 1.607-3.858 2.411-6.398 2.411s-4.662-.804-6.398-2.411c-1.736-1.64-2.605-3.697-2.605-6.173s.868-4.533 2.605-6.141c1.736-1.64 3.858-2.443 6.398-2.443s4.662.804 6.398 2.443c1.769 1.64 2.636 3.666 2.636 6.141 0 2.476-.867 4.533-2.636 6.173zm-9.87-2.476c.932.932 2.09 1.415 3.472 1.415s2.54-.482 3.472-1.415c.932-.965 1.415-2.186 1.415-3.697 0-1.479-.482-2.701-1.447-3.665-.932-.965-2.09-1.447-3.44-1.447s-2.508.482-3.44 1.447-1.415 2.186-1.415 3.665c.001 1.511.451 2.733 1.383 3.697z"/></g></svg>