<?xml version="1.0" encoding="utf-8"?>
<!-- Generator: Adobe Illustrator 19.2.1, SVG Export Plug-In . SVG Version: 6.00 Build 0)  -->
<svg version="1.1" id="Layer_1" xmlns="http://www.w3.org/2000/svg" xmlns:xlink="http://www.w3.org/1999/xlink" x="0px" y="0px"
	 viewBox="0 0 194.263 45" style="enable-background:new 0 0 194.263 45;" xml:space="preserve">
<style type="text/css">
	.st0{fill:#FFFFFF;}
	.st1{fill:none;enable-background:new    ;}
</style>
<g>
	<g>
		<path class="st0" d="M22.5,0C10.073,0,0,10.074,0,22.5S10.073,45,22.5,45S45,34.926,45,22.5S34.927,0,22.5,0z M16.279,38.325
			c0.248-1.602,0.486-3.074,0.708-4.432c-4.955-2.484-8.095-7.484-7.294-13.263C10.787,12.78,16.829,8.755,24.43,9.44
			c0.576-0.815,1.209-1.598,1.929-2.356c1.282-1.434,3.189-1.479,2.331,0.22c-1.728,3.271-2.412,5.74-3.896,9.706
			c-1.48,4.217-3.766,10.408-6.812,21.278C17.761,39.284,16.2,39.126,16.279,38.325z M35.32,23.911
			c-0.988,7.494-7.993,11.747-14.955,11.012c0.506-1.709,0.745-2.437,1.33-3.815c0.442-0.795,2.097-1.12,3.381-1.666
			c2.61-0.938,4.614-3.268,4.992-6.207c0.266-2.084-0.342-4.082-1.535-5.625c-0.834-1.059-1.621-1.701-1.353-2.695
			c0.395-1.342,0.698-2.338,1.435-4.025C33.191,13.349,36.043,18.453,35.32,23.911z"/>
		<path class="st0" d="M14.949,21.301c-0.258,2.005,0.288,3.919,1.382,5.428c0.729,0.975,1.288,1.543,1.562,1.989
			c0.902-4.882,1.552-7.408,2.419-10.242c0.389-1.184,1.032-2.844,1.499-3.974c-0.556,0.186-1.345,0.393-1.989,0.645
			C17.27,16.104,15.32,18.409,14.949,21.301z"/>
	</g>
	<path class="st0" d="M194.263,23.264c-0.111-5.332-3.283-9.082-8.649-9.082c-5.014,0-8.915,3.74-8.915,8.716
		c0,5.014,3.701,8.715,9.431,8.715c3.103,0,5.019-0.853,6.542-2.237c0.423-0.464,0.207-0.762-0.075-1.069
		c-0.182-0.182-1.069-1.144-1.285-1.36c-0.307-0.331-0.655-0.39-1.061,0c-0.974,0.769-2.27,1.284-4.161,1.284
		c-2.841,0-4.553-1.335-5.168-3.462c-0.049-0.167,0.032-0.517,0.311-0.517c2.14,0,11.461,0,12.204,0
		C194.09,24.25,194.257,23.894,194.263,23.264z M189.757,21.465h-8.527c0,0-0.514,0.08-0.286-0.602
		c0.635-2.134,2.337-3.338,4.71-3.338c2.559,0,3.942,1.41,4.428,3.398C190.191,21.465,189.757,21.465,189.757,21.465z"/>
	<path class="st0" d="M175.687,28.144c-0.215-0.202-1.412-1.184-1.571-1.344c-0.309-0.242-0.712-0.416-1.128,0.041
		c-0.94,0.806-1.83,1.295-3.563,1.295c-2.984,0-4.775-2.189-4.775-5.173c0-2.985,1.791-5.174,4.775-5.174
		c1.472,0,2.498,0.467,3.361,1.329c0.497,0.416,0.806,0.429,1.168,0.107c0.198-0.198,1.515-1.166,1.678-1.329
		c0.336-0.349,0.416-0.524,0.054-1.061c-1.491-1.517-3.323-2.588-6.262-2.588c-5.094,0-8.915,3.74-8.915,8.716
		c0,5.014,3.82,8.715,8.915,8.715c3.018,0,4.65-0.943,6.303-2.434C176.318,28.654,175.942,28.359,175.687,28.144z"/>
	<path class="st0" d="M152.798,14.181c-2.356-0.049-4.019,0.005-5.65,1.475l-0.001-0.323c0-0.522-0.261-0.794-0.899-0.794
		c-0.228,0-3.04,0-3.04,0s0.001,15.108,0.001,15.606c0,0.779,0.198,1.108,1.027,1.108h1.973c0.846,0,1.019-0.296,1.019-1.158
		c0-0.446,0-7.915,0-7.915c0-2.706,1.711-4.298,4.338-4.298c2.348,0,3.461,1.393,3.461,3.781c0,0,0,5.948,0,8.433
		c0,1.045,0.26,1.161,1.305,1.161c0.342,0,0.914,0,1.446-0.001c1.046,0,1.268-0.138,1.268-1.184c0-0.851,0-8.726,0-8.726
		C159.046,16.808,156.498,14.259,152.798,14.181z"/>
	<path class="st0" d="M137.723,15.654c0,2.968,0,8.04,0,8.04c0,2.866-1.075,4.417-3.741,4.417c-2.666,0-3.741-1.552-3.741-4.417
		c0,0,0-7.588,0-8.051c0-0.846-0.235-1.102-1.04-1.102c-0.531,0-1.353,0-1.867,0c-0.886,0-1.111,0.282-1.111,1.114
		c0,0.382,0,8.158,0,8.158c0,4.895,2.706,7.84,7.601,7.84c4.974,0,7.919-2.945,7.919-7.84V14.54l-2.765,0.01
		C138.025,14.55,137.723,14.768,137.723,15.654z"/>
	<path class="st0" d="M97.666,14.133c-1.98,0-3.807,0.651-5.281,1.75c0.004-5.021,0.006-9.43,0.006-9.587
		c0-0.765-0.18-1.066-1.026-1.066c-0.272,0-1.449-0.008-1.996-0.008c-0.792,0-0.937,0.211-0.937,1.018c0,0.447,0,25.015,0,25.015
		s3.264,0,3.33,0c0.447,0,0.611-0.268,0.611-0.646c0-0.024,0-0.218,0-0.545c1.475,1.103,3.308,1.757,5.291,1.757
		c4.884,0,8.843-3.96,8.843-8.844C106.51,18.092,102.55,14.133,97.666,14.133z M97.622,28.194c-2.882,0-5.218-2.336-5.218-5.218
		c0-2.883,2.336-5.218,5.218-5.218c2.882,0,5.218,2.336,5.218,5.218C102.84,25.858,100.504,28.194,97.622,28.194z"/>
	<path class="st0" d="M80.72,14.181c-2.356-0.049-4.019,0.005-5.651,1.475l-0.001-0.323c0-0.522-0.261-0.794-0.899-0.794
		c-0.228,0-3.039,0-3.039,0s0,15.108,0,15.606c0,0.779,0.198,1.108,1.028,1.108h1.974c0.846,0,1.019-0.296,1.019-1.158
		c0-0.446,0-7.915,0-7.915c0-2.706,1.711-4.298,4.338-4.298c2.348,0,3.462,1.393,3.462,3.781c0,0,0,5.948,0,8.433
		c0,1.045,0.26,1.161,1.305,1.161c0.771,0,2.714-0.003,2.714-0.003v-9.909C86.968,16.808,84.42,14.259,80.72,14.181z"/>
	<path class="st0" d="M65.645,15.636c0,0.597,0,8.058,0,8.058c-0.172,2.866-1.075,4.417-3.74,4.417
		c-2.667,0-3.573-1.552-3.741-4.417c0,0,0-7.708,0-8.04c0-0.716-0.139-1.114-0.872-1.114H55.09c-0.733,0-0.935,0.325-0.935,1.077
		c0,0.315-0.011,8.195-0.011,8.195c0,4.895,2.706,7.84,7.601,7.84c4.974,0,7.919-2.945,7.919-7.84V14.54c0,0-2.672,0-3.092,0
		C65.912,14.54,65.645,14.865,65.645,15.636z"/>
	<g>
		<path class="st0" d="M122.748,29.241c-1.736,1.607-3.858,2.411-6.398,2.411s-4.662-0.804-6.398-2.411
			c-1.736-1.64-2.605-3.697-2.605-6.173c0-2.476,0.868-4.533,2.605-6.141c1.736-1.64,3.858-2.443,6.398-2.443
			c2.54,0,4.662,0.804,6.398,2.443c1.769,1.64,2.636,3.666,2.636,6.141C125.384,25.544,124.517,27.601,122.748,29.241z
			 M112.878,26.765c0.932,0.932,2.09,1.415,3.472,1.415s2.54-0.482,3.472-1.415c0.932-0.965,1.415-2.186,1.415-3.697
			c0-1.479-0.482-2.701-1.447-3.665c-0.932-0.965-2.09-1.447-3.44-1.447c-1.35,0-2.508,0.482-3.44,1.447
			c-0.932,0.965-1.415,2.186-1.415,3.665C111.496,24.579,111.946,25.801,112.878,26.765z"/>
	</g>
</g>
<path class="st1" d="z"/>
</svg>
