<svg xmlns="http://www.w3.org/2000/svg" xmlns:xlink="http://www.w3.org/1999/xlink" viewBox="0 0 76.71 92.31"><defs><style>.cls-1,.cls-12,.cls-14,.cls-15,.cls-6{fill:#fff;}.cls-1,.cls-5{fill-opacity:0.7;}.cls-1,.cls-10,.cls-11,.cls-13,.cls-14,.cls-15,.cls-2,.cls-3,.cls-4,.cls-6,.cls-7,.cls-8{stroke-miterlimit:10;}.cls-1{stroke:url(#linear-gradient);}.cls-10,.cls-11,.cls-13,.cls-2,.cls-3,.cls-4,.cls-7,.cls-8{fill:none;}.cls-2{stroke:url(#linear-gradient-2);}.cls-3{stroke:url(#linear-gradient-3);}.cls-11,.cls-4{stroke-linecap:round;}.cls-4{stroke:url(#linear-gradient-4);}.cls-5{fill:#0dd7ff;}.cls-6,.cls-9{fill-opacity:0.9;}.cls-6{stroke:url(#linear-gradient-5);}.cls-7{stroke:url(#linear-gradient-6);}.cls-8{stroke:url(#linear-gradient-7);}.cls-9{fill:url(#linear-gradient-8);}.cls-10{opacity:0.2;}.cls-10,.cls-11{stroke:url(#linear-gradient-9);}.cls-12{opacity:0.9;}.cls-13{stroke:url(#linear-gradient-11);}.cls-14{stroke:url(#linear-gradient-12);}.cls-15{stroke:url(#linear-gradient-13);}</style><linearGradient id="linear-gradient" x1="3.26" y1="47.03" x2="39.34" y2="47.03" gradientUnits="userSpaceOnUse"><stop offset="0" stop-color="#1c79c4"/><stop offset="0.51" stop-color="#0389ff"/><stop offset="1" stop-color="#0dd7ff"/></linearGradient><linearGradient id="linear-gradient-2" x1="6.93" y1="44.84" x2="35.51" y2="44.84" xlink:href="#linear-gradient"/><linearGradient id="linear-gradient-3" x1="0" y1="46.15" x2="39.37" y2="46.15" xlink:href="#linear-gradient"/><linearGradient id="linear-gradient-4" x1="19.2" y1="76.78" x2="26.15" y2="76.78" xlink:href="#linear-gradient"/><linearGradient id="linear-gradient-5" x1="32.17" y1="36.82" x2="50.13" y2="36.82" xlink:href="#linear-gradient"/><linearGradient id="linear-gradient-6" x1="32.21" y1="37.21" x2="49.5" y2="37.21" xlink:href="#linear-gradient"/><linearGradient id="linear-gradient-7" x1="32.29" y1="36.63" x2="49.42" y2="36.63" xlink:href="#linear-gradient"/><linearGradient id="linear-gradient-8" x1="42.07" y1="29.9" x2="60.15" y2="29.9" xlink:href="#linear-gradient"/><linearGradient id="linear-gradient-9" x1="-4834.16" y1="3488.53" x2="-4817.7" y2="3488.53" gradientTransform="matrix(0.69, 0.36, -0.38, 1.07, 4692.01, -1959.45)" xlink:href="#linear-gradient"/><linearGradient id="linear-gradient-11" x1="45.03" y1="49.02" x2="65.33" y2="49.02" xlink:href="#linear-gradient"/><linearGradient id="linear-gradient-12" x1="45.14" y1="49.17" x2="64.91" y2="49.17" xlink:href="#linear-gradient"/><linearGradient id="linear-gradient-13" x1="45.47" y1="49.17" x2="64.58" y2="49.17" xlink:href="#linear-gradient"/></defs><title>home_icon_flexibility</title><g id="Layer_2" data-name="Layer 2"><g id="Art"><polygon class="cls-1" points="3.94 20.49 38.84 2.6 38.84 73.3 3.76 91.46 3.94 20.49"/><polygon class="cls-2" points="8.1 23.76 35.01 9.72 34.74 65.92 7.44 79.97 8.1 23.76"/><polyline class="cls-3" points="39.15 2.27 35.74 0.56 0.7 19.08 0.5 89.85 3.52 91.9"/><line class="cls-4" x1="19.7" y1="78.32" x2="25.65" y2="75.23"/><circle class="cls-5" cx="59.18" cy="45.58" r="1.35"/><circle class="cls-5" cx="65.01" cy="33.49" r="1.35"/><circle class="cls-5" cx="71.25" cy="38.77" r="1.35"/><circle class="cls-5" cx="75.36" cy="31.94" r="1.35"/><circle class="cls-5" cx="74.76" cy="21.8" r="1.35"/><polygon class="cls-6" points="32.67 27.12 32.67 56.51 49.63 46.52 49.63 17.12 32.67 27.12"/><line class="cls-7" x1="32.67" y1="56.51" x2="49.04" y2="17.91"/><line class="cls-8" x1="32.67" y1="27.27" x2="49.04" y2="45.99"/><polygon class="cls-9" points="42.06 28.72 42.06 41.31 60.16 31.08 60.16 18.5 42.06 28.72"/><path class="cls-10" d="M27,50.58c1.64-4.58.57-9.53-2.37-11.07S18,40.45,16.37,45s-.57,9.53,2.37,11.07S25.4,55.16,27,50.58Z"/><path class="cls-11" d="M24.67,39.51C21.72,38,18,40.45,16.37,45s-.57,9.53,2.37,11.07,6.66-.93,8.3-5.51"/><polygon class="cls-12" points="45.53 47.77 45.53 61.19 64.83 50.28 64.83 36.86 45.53 47.77"/><polygon class="cls-13" points="45.53 47.77 45.53 61.19 64.83 50.28 64.83 36.86 45.53 47.77"/><line class="cls-14" x1="45.53" y1="61.19" x2="64.52" y2="37.15"/><line class="cls-15" x1="45.53" y1="47.9" x2="64.52" y2="50.43"/></g></g></svg>