<svg xmlns="http://www.w3.org/2000/svg" xmlns:xlink="http://www.w3.org/1999/xlink" viewBox="0 0 56.14 102.64"><defs><style>.cls-1,.cls-2{fill:#fff;}.cls-1,.cls-2,.cls-4,.cls-5,.cls-6,.cls-7,.cls-8,.cls-9{stroke-miterlimit:10;}.cls-1{stroke:url(#linear-gradient);}.cls-2{stroke:url(#linear-gradient-2);}.cls-3{fill-opacity:0.9;fill:url(#linear-gradient-3);}.cls-10,.cls-11,.cls-4,.cls-5,.cls-6,.cls-7,.cls-8,.cls-9{fill:none;}.cls-4{stroke:url(#linear-gradient-4);}.cls-5{stroke:url(#linear-gradient-5);}.cls-6{stroke:url(#linear-gradient-6);}.cls-7{stroke:url(#linear-gradient-7);}.cls-8{stroke:url(#linear-gradient-8);}.cls-9{stroke:#fff;}.cls-10,.cls-11{stroke-linecap:round;stroke-linejoin:round;}.cls-10{opacity:0.2;stroke:url(#linear-gradient-9);}.cls-11{stroke:url(#linear-gradient-10);}.cls-12{fill:#0dd7ff;fill-opacity:0.7;}</style><linearGradient id="linear-gradient" x1="7.99" y1="27.92" x2="44.99" y2="27.92" gradientUnits="userSpaceOnUse"><stop offset="0" stop-color="#1c79c4"/><stop offset="0.51" stop-color="#0389ff"/><stop offset="1" stop-color="#0dd7ff"/></linearGradient><linearGradient id="linear-gradient-2" x1="6.99" y1="65.75" x2="43.99" y2="65.75" xlink:href="#linear-gradient"/><linearGradient id="linear-gradient-3" x1="16.99" y1="42.57" x2="52.99" y2="42.57" xlink:href="#linear-gradient"/><linearGradient id="linear-gradient-4" x1="12.25" y1="21.33" x2="39.73" y2="21.33" xlink:href="#linear-gradient"/><linearGradient id="linear-gradient-5" x1="12.25" y1="25.33" x2="39.73" y2="25.33" xlink:href="#linear-gradient"/><linearGradient id="linear-gradient-6" x1="12.24" y1="32.33" x2="28.73" y2="32.33" xlink:href="#linear-gradient"/><linearGradient id="linear-gradient-7" x1="14.25" y1="65.83" x2="36.73" y2="65.83" xlink:href="#linear-gradient"/><linearGradient id="linear-gradient-8" x1="20.25" y1="68.83" x2="31.73" y2="68.83" xlink:href="#linear-gradient"/><linearGradient id="linear-gradient-9" x1="-12.12" y1="85.13" x2="15.6" y2="34.04" xlink:href="#linear-gradient"/><linearGradient id="linear-gradient-10" x1="-3.32" y1="79.16" x2="6.8" y2="60.51" xlink:href="#linear-gradient"/></defs><title>home_icon_performance</title><g id="Layer_2" data-name="Layer 2"><g id="Art"><polygon class="cls-1" points="8.49 25.57 8.49 50.62 44.49 30.27 44.49 5.22 8.49 25.57"/><polygon class="cls-2" points="7.49 63.4 7.49 88.44 43.49 68.09 43.49 43.05 7.49 63.4"/><polygon class="cls-3" points="16.99 40.23 16.99 65.27 52.99 44.92 52.99 19.88 16.99 40.23"/><line class="cls-4" x1="12.49" y1="28.83" x2="39.49" y2="13.83"/><line class="cls-5" x1="12.49" y1="32.83" x2="39.49" y2="17.83"/><line class="cls-6" x1="12.49" y1="36.83" x2="28.49" y2="27.83"/><line class="cls-7" x1="14.49" y1="71.83" x2="36.49" y2="59.83"/><line class="cls-8" x1="20.49" y1="71.83" x2="31.49" y2="65.83"/><line class="cls-9" x1="23.49" y1="47.83" x2="45.49" y2="35.83"/><line class="cls-9" x1="29.49" y1="47.83" x2="40.49" y2="41.83"/><line class="cls-10" x1="1.74" y1="27.08" x2="1.74" y2="92.08"/><line class="cls-11" x1="1.74" y1="58.33" x2="1.74" y2="81.33"/><circle class="cls-12" cx="1.15" cy="101.49" r="1.15"/><circle class="cls-12" cx="6.14" cy="91.15" r="1.15"/><circle class="cls-12" cx="11.48" cy="95.67" r="1.15"/><circle class="cls-12" cx="14.99" cy="89.82" r="1.15"/><circle class="cls-12" cx="14.48" cy="81.15" r="1.15"/><circle class="cls-12" cx="41.15" cy="21.49" r="1.15"/><circle class="cls-12" cx="46.14" cy="11.15" r="1.15"/><circle class="cls-12" cx="51.48" cy="15.67" r="1.15"/><circle class="cls-12" cx="54.99" cy="9.82" r="1.15"/><circle class="cls-12" cx="54.48" cy="1.15" r="1.15"/></g></g></svg>