<svg xmlns="http://www.w3.org/2000/svg" viewBox="0 0 113.3 25.86"><defs><style>.cls-1,.cls-2{fill:#2479bd;}.cls-2{font-size:15.1px;font-family:Roboto-Light, Roboto;letter-spacing:0em;}.cls-3{letter-spacing:0em;}</style></defs><title>amp_page</title><g id="Layer_2" data-name="Layer 2"><g id="Layer_6" data-name="Layer 6"><path class="cls-1" d="M56.06,14.54q.14.31.27.64.13-.33.28-.65l.3-.61,2.86-5.56a.93.93,0,0,1,.16-.22A.52.52,0,0,1,60.12,8a.63.63,0,0,1,.22,0h2.27V19h-2.3V12.63q0-.46,0-1l-3,5.67a1,1,0,0,1-.37.41,1,1,0,0,1-.53.14h-.35a1,1,0,0,1-.53-.14,1,1,0,0,1-.34-.41l-3-5.68a2.93,2.93,0,0,0,0,.52,1.24,1.24,0,0,1,0,.48V19H50V8h2.27a.63.63,0,0,1,.22,0,.52.52,0,0,1,.18.12.93.93,0,0,1,.16.22l2.87,5.6q.15.29.29.6"/><path class="cls-1" d="M69.16,13.33h1.35A1.91,1.91,0,0,0,72,12.85a1.88,1.88,0,0,0,.45-1.34,2,2,0,0,0-.11-.69,1.41,1.41,0,0,0-.35-.53,1.59,1.59,0,0,0-.59-.34,2.63,2.63,0,0,0-.84-.12H69.17v3.5Zm0,1.93v3.69H66.57v-11h4a6.56,6.56,0,0,1,2,.28A3.89,3.89,0,0,1,74,9a3,3,0,0,1,.79,1.14A3.84,3.84,0,0,1,75,11.59a4.16,4.16,0,0,1-.27,1.52A3.05,3.05,0,0,1,74,14.29a3.87,3.87,0,0,1-1.4.79,6.46,6.46,0,0,1-2,.28Z"/><path class="cls-1" d="M17.31,11.74l-5.48,9h-1l1-5.86H8.74a.49.49,0,0,1-.49-.49h0a.91.91,0,0,1,.13-.3l5.44-9h1l-1,5.87h3.1a.49.49,0,0,1,.49.49h0a.48.48,0,0,1-.1.29ZM12.84,0a12.93,12.93,0,1,0,13,12.93A12.93,12.93,0,0,0,12.84,0Z"/><path class="cls-1" d="M39.83,14.77h3l-1-3-.23-.68q-.14-.39-.26-.84-.12.46-.25.86t-.25.68ZM47,19H45a.94.94,0,0,1-.56-.16.79.79,0,0,1-.3-.4l-.66-1.92H39.24l-.66,1.93a.85.85,0,0,1-.3.38.87.87,0,0,1-.54.17h-2L40,7.95h2.65Z"/><text class="cls-2" transform="translate(79.76 18.89)">P<tspan class="cls-3" x="9.23" y="0">age</tspan></text></g></g></svg>