<?xml version="1.0" encoding="utf-8"?>
<!-- Generator: Adobe Illustrator 21.0.0, SVG Export Plug-In . SVG Version: 6.00 Build 0)  -->
<svg version="1.1" id="Layer_1" xmlns="http://www.w3.org/2000/svg" xmlns:xlink="http://www.w3.org/1999/xlink" x="0px" y="0px"
	 viewBox="0 0 45 35" style="enable-background:new 0 0 45 35;" xml:space="preserve">
<style type="text/css">
	.st0{fill:#F4F4F4;}
</style>
<title>icon_twitter</title>
<g>
	<g id="Art">
		<path class="st0" d="M43.8,4.3c-1.6,0.7-3.3,1.2-5,1.4c1.8-1.1,3.2-2.8,3.8-4.9c-1.7,1-3.6,1.7-5.6,2.1c-3.3-3.5-8.9-3.7-12.4-0.4
			c-2.3,2.1-3.2,5.3-2.5,8.4c-7-0.4-13.6-3.7-18.1-9.2c-2.3,4-1.1,9.1,2.7,11.7c-1.4,0-2.8-0.4-4-1.1c0,0,0,0.1,0,0.1
			c0,4.2,2.9,7.8,7,8.6c-1.3,0.4-2.7,0.4-4,0.1c1.1,3.6,4.4,6,8.2,6.1C10.9,29.7,7.1,31,3.2,31c-0.7,0-1.4,0-2.1-0.1
			c4,2.6,8.7,3.9,13.4,3.9c16.1,0,24.9-13.3,24.9-24.9c0-0.4,0-0.8,0-1.1C41.2,7.6,42.7,6,43.8,4.3L43.8,4.3z"/>
	</g>
</g>
</svg>
