<svg xmlns="http://www.w3.org/2000/svg" xmlns:xlink="http://www.w3.org/1999/xlink" viewBox="0 0 87.92 125.14"><defs><style>.cls-1,.cls-10,.cls-12,.cls-13,.cls-14,.cls-16,.cls-17,.cls-6,.cls-8,.cls-9{fill:#fff;}.cls-1{fill-opacity:0.7;stroke:url(#linear-gradient);}.cls-1,.cls-11,.cls-15,.cls-2,.cls-3,.cls-4,.cls-7{stroke-miterlimit:10;}.cls-1,.cls-10,.cls-12,.cls-13,.cls-14,.cls-16,.cls-17,.cls-2,.cls-3,.cls-4,.cls-6,.cls-8,.cls-9{stroke-width:1.08px;}.cls-2,.cls-3,.cls-4{fill:none;}.cls-2{stroke:url(#linear-gradient-2);}.cls-3{stroke:url(#linear-gradient-3);}.cls-10,.cls-12,.cls-13,.cls-14,.cls-16,.cls-17,.cls-4,.cls-6,.cls-8,.cls-9{stroke-linecap:round;}.cls-4{stroke:url(#linear-gradient-4);}.cls-5{fill:#0dd7ff;opacity:0.7;}.cls-10,.cls-14,.cls-6{fill-opacity:0.9;}.cls-10,.cls-12,.cls-13,.cls-14,.cls-16,.cls-17,.cls-6,.cls-8,.cls-9{stroke-linejoin:round;}.cls-6{stroke:url(#linear-gradient-5);}.cls-11,.cls-15,.cls-7{stroke:#fff;stroke-width:0.62px;}.cls-7{fill:url(#linear-gradient-6);}.cls-8{stroke:url(#linear-gradient-7);}.cls-9{stroke:url(#linear-gradient-8);}.cls-10{stroke:url(#linear-gradient-9);}.cls-11{fill:url(#linear-gradient-10);}.cls-12{stroke:url(#linear-gradient-11);}.cls-13{stroke:url(#linear-gradient-12);}.cls-14{stroke:url(#linear-gradient-13);}.cls-15{fill:url(#linear-gradient-14);}.cls-16{stroke:url(#linear-gradient-15);}.cls-17{stroke:url(#linear-gradient-16);}</style><linearGradient id="linear-gradient" x1="-8.18" y1="172.41" x2="30.72" y2="172.41" gradientTransform="translate(-92.27 -37.87) rotate(-45)" gradientUnits="userSpaceOnUse"><stop offset="0" stop-color="#1c79c4"/><stop offset="0.51" stop-color="#0389ff"/><stop offset="1" stop-color="#0dd7ff"/></linearGradient><linearGradient id="linear-gradient-2" x1="50.69" y1="113.39" x2="21.45" y2="35.4" gradientUnits="userSpaceOnUse"><stop offset="0" stop-color="#1c79c4"/><stop offset="0.51" stop-color="#0389ff"/><stop offset="1" stop-color="#0dd4ff"/></linearGradient><linearGradient id="linear-gradient-3" x1="-11.69" y1="171.46" x2="30.75" y2="171.46" xlink:href="#linear-gradient"/><linearGradient id="linear-gradient-4" x1="9.01" y1="204.47" x2="16.5" y2="204.47" xlink:href="#linear-gradient"/><linearGradient id="linear-gradient-5" x1="27.15" y1="49.57" x2="71.35" y2="49.57" gradientTransform="matrix(1, 0, 0, 1, 0, 0)" xlink:href="#linear-gradient"/><linearGradient id="linear-gradient-6" x1="541.04" y1="1369.93" x2="549.66" y2="1369.93" gradientTransform="translate(1419.72 -495.25) rotate(90)" xlink:href="#linear-gradient"/><linearGradient id="linear-gradient-7" x1="61.11" y1="31.78" x2="67.58" y2="31.78" gradientTransform="matrix(1, 0, 0, 1, 0, 0)" xlink:href="#linear-gradient"/><linearGradient id="linear-gradient-8" x1="11403.34" y1="-2703.89" x2="11409.81" y2="-2703.89" gradientTransform="translate(11439.66 -2635.46) rotate(180)" xlink:href="#linear-gradient"/><linearGradient id="linear-gradient-9" x1="33.59" y1="55.34" x2="77.78" y2="55.34" gradientTransform="matrix(1, 0, 0, 1, 0, 0)" xlink:href="#linear-gradient"/><linearGradient id="linear-gradient-10" x1="548.67" y1="1373.99" x2="557.29" y2="1373.99" gradientTransform="translate(1430.22 -497.1) rotate(90)" xlink:href="#linear-gradient"/><linearGradient id="linear-gradient-11" x1="67.54" y1="37.55" x2="74.01" y2="37.55" gradientTransform="matrix(1, 0, 0, 1, 0, 0)" xlink:href="#linear-gradient"/><linearGradient id="linear-gradient-12" x1="11396.9" y1="-2709.66" x2="11403.37" y2="-2709.66" gradientTransform="translate(11439.66 -2635.46) rotate(180)" xlink:href="#linear-gradient"/><linearGradient id="linear-gradient-13" x1="40.06" y1="58.57" x2="84.25" y2="58.57" gradientTransform="matrix(1, 0, 0, 1, 0, 0)" xlink:href="#linear-gradient"/><linearGradient id="linear-gradient-14" x1="555.72" y1="1375.59" x2="564.35" y2="1375.59" gradientTransform="translate(1438.28 -500.92) rotate(90)" xlink:href="#linear-gradient"/><linearGradient id="linear-gradient-15" x1="74.01" y1="40.79" x2="80.48" y2="40.79" gradientTransform="matrix(1, 0, 0, 1, 0, 0)" xlink:href="#linear-gradient"/><linearGradient id="linear-gradient-16" x1="11390.44" y1="-2712.89" x2="11396.9" y2="-2712.89" gradientTransform="translate(11439.66 -2635.46) rotate(180)" xlink:href="#linear-gradient"/></defs><title>adtech_icon_revenue</title><g id="Layer_2" data-name="Layer 2"><g id="Art"><polygon class="cls-1" points="4.15 69.08 17.12 28.83 71.01 82.72 58.11 123.3 4.15 69.08"/><polygon class="cls-2" points="9.82 68.39 19.63 37.19 62.25 80.22 52.16 111.73 9.82 68.39"/><polyline class="cls-3" points="17.1 28.35 13.2 29.65 0.61 70.47 54.4 124.56 58.26 123.81"/><line class="cls-4" x1="60.25" y1="101.14" x2="62.42" y2="94.25"/><circle class="cls-5" cx="72" cy="1.25" r="1.24" transform="translate(43.05 67.18) rotate(-67.28)"/><circle class="cls-5" cx="80.2" cy="10.51" r="1.24" transform="translate(39.54 80.43) rotate(-67.28)"/><circle class="cls-5" cx="73.49" cy="13.93" r="1.24" transform="translate(32.26 76.34) rotate(-67.28)"/><circle class="cls-5" cx="77.84" cy="19.86" r="1.24" transform="translate(29.47 83.99) rotate(-67.28)"/><circle class="cls-5" cx="86.67" cy="22.95" r="1.24" transform="translate(32.03 94.04) rotate(-67.28)"/><polygon class="cls-6" points="27.69 46.76 27.69 76.75 70.81 52.38 70.81 22.39 27.69 46.76"/><ellipse class="cls-7" cx="49.79" cy="50.11" rx="5.39" ry="4.31" transform="translate(-10.77 86.47) rotate(-76.16)"/><polyline class="cls-8" points="61.65 32.86 67.04 29.63 67.04 33.94"/><polyline class="cls-9" points="35.78 67.35 30.39 70.58 30.39 66.27"/><polygon class="cls-10" points="34.13 52.53 34.13 82.52 77.25 58.15 77.25 28.16 34.13 52.53"/><ellipse class="cls-11" cx="56.23" cy="55.88" rx="5.39" ry="4.31" transform="translate(-11.48 97.11) rotate(-76.16)"/><polyline class="cls-12" points="68.08 38.63 73.47 35.4 73.47 39.71"/><polyline class="cls-13" points="42.21 73.12 36.82 76.36 36.82 72.05"/><polygon class="cls-14" points="40.6 55.76 40.6 85.75 83.71 61.38 83.71 31.39 40.6 55.76"/><ellipse class="cls-15" cx="62.69" cy="59.11" rx="5.39" ry="4.31" transform="translate(-9.7 105.85) rotate(-76.16)"/><polyline class="cls-16" points="74.55 41.87 79.94 38.63 79.94 42.94"/><polyline class="cls-17" points="48.68 76.36 43.29 79.59 43.29 75.28"/></g></g></svg>