<svg xmlns="http://www.w3.org/2000/svg" xmlns:xlink="http://www.w3.org/1999/xlink" viewBox="0 0 97.81 125.61"><defs><style>.cls-1,.cls-3{fill:none;}.cls-1,.cls-2,.cls-3,.cls-4,.cls-5{stroke-miterlimit:10;}.cls-1{stroke-width:5.98px;opacity:0.8;stroke:url(#linear-gradient);}.cls-2,.cls-7{fill-opacity:0.8;}.cls-2,.cls-3{stroke:#fff;}.cls-2,.cls-3,.cls-4,.cls-5{stroke-width:0.87px;}.cls-2{fill:url(#linear-gradient-2);}.cls-4,.cls-5{fill:#fff;fill-opacity:0.7;}.cls-4{stroke:url(#linear-gradient-3);}.cls-5{stroke-linecap:round;stroke:url(#linear-gradient-4);}.cls-6{fill:#0dd7ff;opacity:0.7;}.cls-7{fill:url(#linear-gradient-5);}</style><linearGradient id="linear-gradient" x1="-7884.64" y1="331.08" x2="-7828.38" y2="331.08" gradientTransform="translate(7749.25 -1661.2) rotate(-10.05)" gradientUnits="userSpaceOnUse"><stop offset="0" stop-color="#0389ff"/><stop offset="0.5" stop-color="#0dd7ff"/><stop offset="1" stop-color="#fff"/></linearGradient><linearGradient id="linear-gradient-2" x1="21.94" y1="70.58" x2="70.54" y2="21.99" gradientUnits="userSpaceOnUse"><stop offset="0" stop-color="#1c79c4"/><stop offset="0.51" stop-color="#0389ff"/><stop offset="1" stop-color="#0dd7ff"/></linearGradient><linearGradient id="linear-gradient-3" x1="-3" y1="121.11" x2="59.27" y2="58.84" xlink:href="#linear-gradient-2"/><linearGradient id="linear-gradient-4" x1="-6.46" y1="64.47" x2="43.31" y2="14.7" xlink:href="#linear-gradient-2"/><linearGradient id="linear-gradient-5" x1="17.02" y1="45.41" x2="32.82" y2="29.62" xlink:href="#linear-gradient-2"/></defs><title>adtech_icon_customize</title><g id="Layer_2" data-name="Layer 2"><g id="Art"><line class="cls-1" x1="96.4" y1="22.83" x2="45.98" y2="49.95"/><polygon class="cls-2" points="64.23 56.96 28.25 76.89 28.25 35.61 64.23 15.68 64.23 56.96"/><line class="cls-3" x1="46.55" y1="25.79" x2="46.55" y2="66.2"/><line class="cls-3" x1="46.55" y1="43.47" x2="64.23" y2="34.2"/><path class="cls-4" d="M54.35,96.36,1.93,124.87V83.6L54.35,55.08ZM32,76.53l-5.05,26.1M21,87.05l-9.26,13,10.94.42m13.47-8,10.1-13.47-10.1-.42"/><path class="cls-5" d="M36.42,50.26.43,70.19V28.91L36.42,9ZM4,35.44,29.86,21.15M11.76,39.58,4.36,43.8m0,4.24,7.4-4.21"/><circle class="cls-6" cx="43.61" cy="18.68" r="1"/><circle class="cls-6" cx="47.95" cy="9.7" r="1"/><circle class="cls-6" cx="52.58" cy="13.62" r="1"/><circle class="cls-6" cx="55.64" cy="8.54" r="1"/><circle class="cls-6" cx="55.19" cy="1" r="1"/><polygon class="cls-7" points="30.57 41.57 19.27 47.66 19.27 33.46 30.57 27.37 30.57 41.57"/></g></g></svg>