<svg xmlns="http://www.w3.org/2000/svg" xmlns:xlink="http://www.w3.org/1999/xlink" viewBox="0 0 143.7 98.71"><defs><style>.cls-1,.cls-11,.cls-2,.cls-4{fill:#fff;}.cls-1,.cls-11,.cls-2,.cls-4,.cls-5,.cls-6,.cls-7{stroke-miterlimit:10;}.cls-1{stroke:url(#linear-gradient);}.cls-2{stroke:url(#linear-gradient-2);}.cls-3{opacity:0.9;fill:url(#linear-gradient-3);}.cls-4{stroke:url(#linear-gradient-4);}.cls-10,.cls-5,.cls-6,.cls-7,.cls-8,.cls-9{fill:none;stroke-linecap:round;}.cls-5,.cls-6,.cls-7{stroke-width:1.4px;}.cls-5{stroke:url(#linear-gradient-5);}.cls-6{stroke-dasharray:0 3.7;stroke:url(#linear-gradient-6);}.cls-7{stroke:url(#linear-gradient-7);}.cls-10,.cls-8,.cls-9{stroke-linejoin:round;}.cls-8{stroke:url(#linear-gradient-8);}.cls-9{stroke:url(#linear-gradient-9);}.cls-10{stroke:url(#linear-gradient-10);}.cls-11{stroke:url(#linear-gradient-11);}</style><linearGradient id="linear-gradient" x1="105.5" y1="10.11" x2="110" y2="10.11" gradientUnits="userSpaceOnUse"><stop offset="0" stop-color="#1c79c4"/><stop offset="0.51" stop-color="#0389ff"/><stop offset="1" stop-color="#0dd7ff"/></linearGradient><linearGradient id="linear-gradient-2" x1="0" y1="44.36" x2="70" y2="44.36" xlink:href="#linear-gradient"/><linearGradient id="linear-gradient-3" x1="11" y1="48.36" x2="80" y2="48.36" xlink:href="#linear-gradient"/><linearGradient id="linear-gradient-4" x1="19" y1="54.36" x2="89" y2="54.36" xlink:href="#linear-gradient"/><linearGradient id="linear-gradient-5" x1="55.55" y1="60.08" x2="143.7" y2="60.08" xlink:href="#linear-gradient"/><linearGradient id="linear-gradient-6" x1="55.55" y1="45.13" x2="143.7" y2="45.13" xlink:href="#linear-gradient"/><linearGradient id="linear-gradient-7" x1="55.55" y1="10.09" x2="143.7" y2="10.09" xlink:href="#linear-gradient"/><linearGradient id="linear-gradient-8" x1="28" y1="44.86" x2="75" y2="44.86" xlink:href="#linear-gradient"/><linearGradient id="linear-gradient-9" x1="28" y1="53.36" x2="66" y2="53.36" xlink:href="#linear-gradient"/><linearGradient id="linear-gradient-10" x1="28" y1="69.86" x2="46" y2="69.86" xlink:href="#linear-gradient"/><linearGradient id="linear-gradient-11" x1="86.76" y1="7.92" x2="110.49" y2="7.92" xlink:href="#linear-gradient"/></defs><title>adtech_icon_reach</title><g id="Layer_2" data-name="Layer 2"><g id="Art"><polyline class="cls-1" points="109.5 7.86 109.5 11.86 105.5 11.86"/><polygon class="cls-2" points="0.5 39.86 0.5 87.86 69.5 48.86 69.5 0.86 0.5 39.86"/><polygon class="cls-3" points="11 43.86 11 91.86 80 52.86 80 4.86 11 43.86"/><polygon class="cls-4" points="19.5 49.86 19.5 97.86 88.5 58.86 88.5 10.86 19.5 49.86"/><line class="cls-5" x1="56.36" y1="60.08" x2="56.36" y2="60.08"/><path class="cls-6" d="M56.39,63.78a17,17,0,0,0,7,11.19c4.45,3.09,9.8,3.93,15,4.29,6.79.47,13.79.22,20.12-2.68a23.7,23.7,0,0,0,13.44-16.49c1-5.11-.83-11.81-5.34-12.55-3.76-.62-7,3.41-8,7.63C96.71,63,100.67,71.82,107,75.48S125.2,78,131,73.42s9.64-12.06,11.18-20a38.45,38.45,0,0,0,0-15.6c-2.95-13.15-17.2-22-28.61-27"/><line class="cls-7" x1="111.87" y1="10.09" x2="111.87" y2="10.09"/><line class="cls-8" x1="28.5" y1="57.86" x2="74.5" y2="31.86"/><line class="cls-9" x1="28.5" y1="63.86" x2="65.5" y2="42.86"/><line class="cls-10" x1="28.5" y1="74.86" x2="45.5" y2="64.86"/><polygon class="cls-11" points="88.5 2.86 109.5 2.86 109.5 7.86 88.5 2.86 109.5 7.86 104.5 12.86 88.5 2.86"/></g></g></svg>