<svg xmlns="http://www.w3.org/2000/svg" viewBox="0 0 75.33 28.19"><defs><style>.cls-1{fill:#61b4e4;}.cls-2{fill:#231f20;}.cls-3{fill:#fff;}</style></defs><title>teads_logo</title><g id="Layer_2" data-name="Layer 2"><g id="Art"><path class="cls-1" d="M69.41,3.9A5.92,5.92,0,0,0,65,13.81l-1.07,1.85,2.75-.56A5.93,5.93,0,1,0,69.41,3.9Z"/><path class="cls-2" d="M28.82.55c-.22-.15-.58.09-.59.09a11.21,11.21,0,0,1-3.35,1.1c-2.16.37-4.61.63-4.61.63q-1.74.14-3.36.33a2.53,2.53,0,0,0-.13-2C16.41.25,16,0,15.72,0s-.53.12-.74.67a10.43,10.43,0,0,1-1.43,2.49C5.14,4.53,0,6.94,0,9.14c-.06,2.73,4.5,4.56,4.5,4.56.19.06.25,0,.28,0s-.11-.27-.11-.27C2.11,11.42,2.28,10,2.28,10,2.41,8.31,6.44,7.26,11,6.63c-.82,1.22-1.8,2.79-2.73,4.53C5.8,15.76,4.62,19.74,4.75,23c0,.16.12,4,1.67,5a1.13,1.13,0,0,0,.56.19H7A.51.51,0,0,0,7.37,28a1.31,1.31,0,0,0,.21-1c0-.14,0-.29,0-.46-.15-1.77-.44-5.05,2.16-10.11,1.47-2.87,3-5.61,4.3-7.81.54-.95,1-1.8,1.43-2.53,3.53-.3,6.72-.39,8-.37C26.82,5.83,29,2.14,29,1A.57.57,0,0,0,28.82.55Z"/><path class="cls-2" d="M63.8,22.55a3.42,3.42,0,0,0-.51-1.71,9.86,9.86,0,0,0-2.41-2.46c-1.95-1.44-2.13-2.9-1.86-3.59s1-1.68.06-2.22-2.72,1.26-2.78,3a7.3,7.3,0,0,1-.77,2.78c-.7,1.31-3.51,6.28-5.28,5.73,0,0-.86-.39-.3-2.13s5.69-13.35,1.53-15.3c0,0-2.52-1-3.11.45,0,0,2-.24.63,5.72,0,0-6.86-.66-10,6.74,0,0-2.39,4.52-4.34,4.58,0,0-.78-.15-.36-2.42a32.84,32.84,0,0,1,2.57-7.54s-5.12-4.49-11.49,2.39a9.72,9.72,0,0,0-2.28,4.73s-2.84,3.32-5.93,2.66c0,0-2.69-.27-1.32-5.15,0,0,7.78.51,7.63-3.8,0,0-.12-2.81-4.19-2.19,0,0-4.5.43-7.09,6-.18.43-1.29,3.16-.81,4.76a4.2,4.2,0,0,0,4.39,3.2,9.65,9.65,0,0,0,7.1-3.63s0,3.51,2.87,3.67c0,0,2.37.08,4.35-3.8h0s.08-.16.15-.15a.1.1,0,0,1,.07.11h0c-.08.67-.34,4,2.57,3.88,0,0,2.56.4,5.43-4.47,0,0-.12,4.59,2.79,4.43,0,0,2.65.08,4.56-3.93h0s.06-.12.14-.08h0a.16.16,0,0,1,0,.16c-.13.65-.59,3.79,2.42,3.85h0a3.86,3.86,0,0,0,1.2-.12h0c1.25-.36,3.92-1.92,6.88-8.44,0,0,.18-.45.25-.45s.06,0,.09.12h0A15.07,15.07,0,0,0,58.61,21l.24.27h0c1,1.2,1.43,2.1.06,2.67-.25.08-2.77.88-3-.38,0,0-1.36.45-1.64,1.35a1.29,1.29,0,0,0,.53,1.54l.11.07h0a2.69,2.69,0,0,0,.69.21,9.21,9.21,0,0,0,4.58-.45l.57-.19.06,0h0a4.43,4.43,0,0,0,2.65-2.12h0a3.41,3.41,0,0,0,.3-1.3h0s0,0,0-.05v0Zm-44.62-8.4c1.77-.75,1.53.48,1.53.48-.18,2.6-4.28,3-4.28,3S17.41,14.9,19.18,14.15Zm11.29,6c-1.32,3.86-2.72,3.23-2.72,3.23-2-.9.15-5.21.15-5.21,2.69-5.06,5.33-4.22,5.33-4.22C32.59,14.78,31.78,16.28,30.47,20.14ZM43.4,23.4c-2.37-.32-.27-4.85-.27-4.85,2.6-5.27,5.51-4.64,5.51-4.64C45.94,23,43.4,23.4,43.4,23.4Z"/><path class="cls-3" d="M66.29,11.59a.47.47,0,0,1-.17.38.61.61,0,0,1-.41.15.49.49,0,0,1-.35-.14.46.46,0,0,1-.14-.35.51.51,0,0,1,.16-.39.56.56,0,0,1,.4-.15.5.5,0,0,1,.36.15A.47.47,0,0,1,66.29,11.59Z"/><path class="cls-3" d="M69.75,8.38l-.18.77H68.51L68.1,11a.41.41,0,0,0,0,.08q0,.23.3.23a1.62,1.62,0,0,0,.63-.15l.18.69a2.4,2.4,0,0,1-1,.21q-1,0-1-.8a1.82,1.82,0,0,1,0-.38l.38-1.77-.4,0,.15-.72.42,0,.21-1h.9l-.21,1Z"/><path class="cls-3" d="M73.69,8.38l-2.26,3.71a.81.81,0,0,1-.91-.69l-.56-3h.9L71.25,11h0l.11-.23,1.36-2.4Z"/></g></g></svg>