<?xml version="1.0" encoding="UTF-8" standalone="no"?>
<svg width="16px" height="16px" viewBox="0 0 16 16" version="1.1" xmlns="http://www.w3.org/2000/svg" xmlns:xlink="http://www.w3.org/1999/xlink">
    <!-- Generator: Sketch 39.1 (31720) - http://www.bohemiancoding.com/sketch -->
    <title>Group</title>
    <desc>Created with Sketch.</desc>
    <defs></defs>
    <g id="amp-logo-internal-site" stroke="none" stroke-width="1" fill="none" fill-rule="evenodd">
        <g id="AMP-Brand-Blue-Copy" fill="#0379C4">
            <g id="Group">
                <g id="Updated">
                    <path d="M10.7427746,7.2675 L7.38677457,12.8523889 L6.77877457,12.8523889 L7.37988568,9.21327778 L5.51833013,9.21594444 C5.51833013,9.21594444 5.50077457,9.21638889 5.49233013,9.21638889 C5.32477457,9.21638889 5.18877457,9.08038889 5.18877457,8.91283333 C5.18877457,8.84083333 5.25588568,8.71905556 5.25588568,8.71905556 L8.60077457,3.14061111 L9.21899679,3.14305556 L8.60277457,6.78794444 L10.4738857,6.78572222 C10.4738857,6.78572222 10.4941079,6.78527778 10.5036635,6.78527778 C10.671219,6.78527778 10.8069968,6.92105556 10.8069968,7.08883333 C10.8069968,7.15683333 10.7805524,7.21661111 10.7425524,7.26727778 L10.7427746,7.2675 Z M7.99966346,0.000166666667 C3.58144124,0.000166666667 -0.000336538462,3.58194444 -0.000336538462,8.00016667 C-0.000336538462,12.4183889 3.58144124,16.0001667 7.99966346,16.0001667 C12.4181079,16.0001667 15.9996635,12.4183889 15.9996635,8.00016667 C15.9996635,3.58194444 12.4181079,0.000166666667 7.99966346,0.000166666667 L7.99966346,0.000166666667 Z" id="Fill-7"></path>
                </g>
            </g>
        </g>
    </g>
</svg>