<?xml version="1.0" encoding="utf-8"?><svg width="99" height="74" viewBox="0 0 99 74" xmlns="http://www.w3.org/2000/svg" xmlns:xlink="http://www.w3.org/1999/xlink"><svg data-name="Layer 1" width="15.53" height="8.3" viewBox="0 0 15.53 8.3" id="carat" x="35.36" y="54.2"><title>carat</title><path fill="none" stroke="#1c79be" stroke-miterlimit="10" stroke-width=".75" d="M15.27 8.03L7.62.53.27 8.03" data-name="Layer 1-2"/></svg><svg id="carat-down" viewBox="0 0 16 8.3" width="16" height="8.3" x="60" y="43.66"><style>.bst0{fill:none;stroke:#000333;stroke-width:.75;stroke-miterlimit:10}</style><title>carat</title><g id="bLayer_2"><path class="bst0" d="M.3.5L7.9 8 15.3.5" id="bLayer_1-2"/></g></svg><svg viewBox="0 0 6.12 11.88" width="6.12" height="11.88" id="caret-right" x="84" y="14.93"><defs><style>.ccls-1{fill:none;stroke:#464646;stroke-miterlimit:10;opacity:.3}</style></defs><title>Asset 1</title><g id="cLayer_2" data-name="Layer 2"><path class="ccls-1" d="M.37 11.55l5.08-5.61L.37.34" id="cLayer_1-2" data-name="Layer 1"/></g></svg><svg width="15.71" height="15.71" viewBox="0 0 15.71 15.71" id="close" x="19.65" y="54.2"><defs><symbol id="da" data-name="New Symbol 1" viewBox="0 0 15.71 15.71"><path fill="none" stroke="#ccc" stroke-miterlimit="10" d="M15.35.35l-15 15M.43.43l14.85 14.85"/></symbol></defs><use width="15.71" height="15.71" xlink:href="#da" data-name="Layer 2"/></svg><svg height="24" viewBox="0 0 24 24" width="24" id="lang-icon" x="60"><path d="M0 0h24v24H0z" fill="none"/><path d="M11.99 2C6.47 2 2 6.48 2 12s4.47 10 9.99 10C17.52 22 22 17.52 22 12S17.52 2 11.99 2zm6.93 6h-2.95a15.65 15.65 0 0 0-1.38-3.56A8.03 8.03 0 0 1 18.92 8zM12 4.04c.83 1.2 1.48 2.53 1.91 3.96h-3.82c.43-1.43 1.08-2.76 1.91-3.96zM4.26 14C4.1 13.36 4 12.69 4 12s.1-1.36.26-2h3.38c-.08.66-.14 1.32-.14 2 0 .68.06 1.34.14 2H4.26zm.82 2h2.95c.32 1.25.78 2.45 1.38 3.56A7.987 7.987 0 0 1 5.08 16zm2.95-8H5.08a7.987 7.987 0 0 1 4.33-3.56A15.65 15.65 0 0 0 8.03 8zM12 19.96c-.83-1.2-1.48-2.53-1.91-3.96h3.82c-.43 1.43-1.08 2.76-1.91 3.96zM14.34 14H9.66c-.09-.66-.16-1.32-.16-2 0-.68.07-1.35.16-2h4.68c.09.65.16 1.32.16 2 0 .68-.07 1.34-.16 2zm.25 5.56c.6-1.11 1.06-2.31 1.38-3.56h2.95a8.03 8.03 0 0 1-4.33 3.56zM16.36 14c.08-.66.14-1.32.14-2 0-.68-.06-1.34-.14-2h3.38c.16.64.26 1.31.26 2s-.1 1.36-.26 2h-3.38z"/></svg><svg width="30" height="30" viewBox="0 0 30 30" id="logo-blue-standalone" x="30"><title>Slice 1</title><path d="M20.004 13.627l-6.25 10.47h-1.13l1.118-6.823-3.466.005h-.05a.568.568 0 0 1-.564-.57c0-.134.125-.363.125-.363l6.228-10.46 1.15.006-1.146 6.833 3.483-.004h.055c.312 0 .566.255.566.57a.56.56 0 0 1-.12.334zM14.896 0C6.67 0 0 6.716 0 15c0 8.285 6.67 15 14.896 15 8.228 0 14.896-6.715 14.896-15 0-8.284-6.668-15-14.896-15z" fill="#0379C4" fill-rule="evenodd"/></svg><svg width="6.05" height="10.71" viewBox="0 0 6.05 10.71" id="return" x="90.12" y="14.93"><path fill="none" stroke="#ccc" stroke-miterlimit="10" d="M5.7.35L.71 5.44l4.99 4.91" data-name="Layer 1"/></svg><svg id="search" viewBox="0 0 24.6 24.2" width="24.6" height="24.2" y="30"><style>.hst0{fill:none;stroke:#4d4d4d;stroke-miterlimit:10}</style><title>icon_search</title><ellipse transform="rotate(-45.001 13.451 10.816)" class="hst0" cx="13.5" cy="10.8" rx="5.8" ry="5.8"/><path class="hst0" d="M3.6 20.4l5.6-5.6"/></svg><svg width="19.65" height="19.04" viewBox="0 0 19.65 19.04" id="share" y="54.2"><title>Asset 14</title><path d="M10.88 3.64V1.87.36c0-.12.06-.33.12-.34a.49.49 0 0 1 .38.11Q13.56 2 15.72 4l3.68 3.21c.34.3.34.35 0 .64l-7.86 7a1 1 0 0 1-.22.19.45.45 0 0 1-.31 0 .32.32 0 0 1-.13-.25V12.2v-.88a12.28 12.28 0 0 0-1.5.08 11.24 11.24 0 0 0-8.1 5.6 15 15 0 0 0-.75 1.69 1.75 1.75 0 0 0-.06.18c0 .14-.11.24-.28.22S0 18.9 0 18.75c0-.56 0-1.12.06-1.68a19.72 19.72 0 0 1 1.07-5.49A12.52 12.52 0 0 1 4.89 6a9.83 9.83 0 0 1 5.85-2.35z" fill="#fff" data-name="Layer 2"/></svg><svg viewBox="0 0 14.93 14.93" width="14.93" height="14.93" id="share-close" x="84"><defs><style>.jcls-1{fill:none;stroke:#fff;stroke-miterlimit:10;stroke-width:1.32px}</style></defs><title>close</title><g id="jLayer_2" data-name="Layer 2"><g id="jLayer_1-2" data-name="Layer 1"><path class="jcls-1" d="M.47.47l14 14M14.47.47l-14 14"/></g></g></svg><svg viewBox="0 0 22.93 19.66" width="22.93" height="19.66" id="twitter" x="60" y="24"><defs><style>.kcls-1{fill:#ccc;fill-rule:evenodd}</style></defs><title>Asset 5</title><g id="kLayer_2" data-name="Layer 2"><path class="kcls-1" d="M20.23 3.11A4.93 4.93 0 0 0 22.3.36a9.13 9.13 0 0 1-3 1.2A4.58 4.58 0 0 0 15.88 0a4.84 4.84 0 0 0-4.7 5 5.19 5.19 0 0 0 .12 1.13A13.14 13.14 0 0 1 1.6.91 5.16 5.16 0 0 0 1 3.4a5 5 0 0 0 2.05 4.13 4.54 4.54 0 0 1-2.13-.62V7a4.9 4.9 0 0 0 3.78 4.84 4.38 4.38 0 0 1-1.24.16 4.43 4.43 0 0 1-.88-.09A4.75 4.75 0 0 0 7 15.37a9.13 9.13 0 0 1-5.88 2.13A8.88 8.88 0 0 1 0 17.43a12.83 12.83 0 0 0 7.21 2.23c8.66 0 13.39-7.56 13.39-14.12V4.9a9.84 9.84 0 0 0 2.35-2.57 9 9 0 0 1-2.7.78zm0 0" id="kLayer_1-2" data-name="Layer 1"/></g></svg><svg width="30" height="30" viewBox="0 0 30 30" id="video-play"><title>Group 2</title><g transform="translate(2 2)" fill="none" fill-rule="evenodd"><circle stroke="#FFF" stroke-width="3" cx="13" cy="13" r="13"/><path d="M19.172 13.197l-9.59 5.731V7.467l9.59 5.73z" fill="#FFF"/></g></svg><svg viewBox="0 0 24.03 24.03" width="24.03" height="24.03" id="wordpress" x="24.6" y="30"><defs><style>.mcls-1{fill:#ccc;fill-rule:evenodd}</style></defs><title>Asset 2</title><g id="mLayer_2" data-name="Layer 2"><path class="mcls-1" d="M22.55 6.25a8.91 8.91 0 0 1 .08 1.24 11.33 11.33 0 0 1-.92 4.3L18.06 22.4a12 12 0 0 0 4.5-16.15zm-10.32 6.82L8.62 23.54a12 12 0 0 0 7.38-.2 1 1 0 0 1-.09-.16l-3.68-10.11zm7.9-1.66a6.33 6.33 0 0 0-1-3.31A5.62 5.62 0 0 1 18 5.28a2.08 2.08 0 0 1 2-2.13h.15A12 12 0 0 0 2 5.42h.77C4 5.43 6 5.28 6 5.28a.5.5 0 0 1 .07 1s-.65.08-1.37.11l4.3 13 2.63-7.88-1.85-5.13c-.65 0-1.26-.11-1.26-.11a.5.5 0 0 1 .08-1s2 .15 3.16.15S15 5.28 15 5.28a.5.5 0 0 1 .07 1s-.65.08-1.37.11l4.3 12.9 1.2-4a11.23 11.23 0 0 0 .91-3.88zM0 12a12 12 0 0 0 6.77 10.82L1 7.12A11.94 11.94 0 0 0 0 12zm0 0" id="mLayer_1-2" data-name="Layer 1"/></g></svg></svg>