<?xml version="1.0" encoding="utf-8"?><svg width="84" height="78" viewBox="0 0 84 78" xmlns="http://www.w3.org/2000/svg" xmlns:xlink="http://www.w3.org/1999/xlink"><svg width="24" height="24" viewBox="0 0 24 24" id="check_circle" y="30"><path d="M12 2C6.48 2 2 6.48 2 12s4.48 10 10 10 10-4.48 10-10S17.52 2 12 2zm-2 15l-5-5 1.41-1.41L10 14.17l7.59-7.59L19 8l-9 9z"/></svg><svg width="24" height="24" viewBox="0 0 24 24" id="error" x="24" y="30"><path d="M12 2C6.48 2 2 6.48 2 12s4.48 10 10 10 10-4.48 10-10S17.52 2 12 2zm1 15h-2v-2h2v2zm0-4h-2V7h2v6z"/></svg><svg height="24" viewBox="0 0 24 24" width="24" id="lang-icon" x="60"><path d="M0 0h24v24H0z" fill="none"/><path d="M11.99 2C6.47 2 2 6.48 2 12s4.47 10 9.99 10C17.52 22 22 17.52 22 12S17.52 2 11.99 2zm6.93 6h-2.95a15.65 15.65 0 0 0-1.38-3.56A8.03 8.03 0 0 1 18.92 8zM12 4.04c.83 1.2 1.48 2.53 1.91 3.96h-3.82c.43-1.43 1.08-2.76 1.91-3.96zM4.26 14C4.1 13.36 4 12.69 4 12s.1-1.36.26-2h3.38c-.08.66-.14 1.32-.14 2 0 .68.06 1.34.14 2H4.26zm.82 2h2.95c.32 1.25.78 2.45 1.38 3.56A7.987 7.987 0 0 1 5.08 16zm2.95-8H5.08a7.987 7.987 0 0 1 4.33-3.56A15.65 15.65 0 0 0 8.03 8zM12 19.96c-.83-1.2-1.48-2.53-1.91-3.96h3.82c-.43 1.43-1.08 2.76-1.91 3.96zM14.34 14H9.66c-.09-.66-.16-1.32-.16-2 0-.68.07-1.35.16-2h4.68c.09.65.16 1.32.16 2 0 .68-.07 1.34-.16 2zm.25 5.56c.6-1.11 1.06-2.31 1.38-3.56h2.95a8.03 8.03 0 0 1-4.33 3.56zM16.36 14c.08-.66.14-1.32.14-2 0-.68-.06-1.34-.14-2h3.38c.16.64.26 1.31.26 2s-.1 1.36-.26 2h-3.38z"/></svg><svg width="30" height="30" viewBox="0 0 30 30" id="logo-blue-standalone"><title>Slice 1</title><path d="M20.004 13.627l-6.25 10.47h-1.13l1.118-6.823-3.466.005h-.05a.568.568 0 0 1-.564-.57c0-.134.125-.363.125-.363l6.228-10.46 1.15.006-1.146 6.833 3.483-.004h.055c.312 0 .566.255.566.57a.56.56 0 0 1-.12.334zM14.896 0C6.67 0 0 6.716 0 15c0 8.285 6.67 15 14.896 15 8.228 0 14.896-6.715 14.896-15 0-8.284-6.668-15-14.896-15z" fill="#0379C4" fill-rule="evenodd"/></svg><svg width="24" height="24" viewBox="0 0 24 24" id="star" x="60" y="24"><path d="M12 17.27L18.18 21l-1.64-7.03L22 9.24l-7.19-.61L12 2 9.19 8.63 2 9.24l5.46 4.73L5.82 21z"/></svg><svg width="30" height="30" viewBox="0 0 30 30" id="video-play" x="30"><title>Group 2</title><g transform="translate(2 2)" fill="none" fill-rule="evenodd"><circle stroke="#FFF" stroke-width="3" cx="13" cy="13" r="13"/><path d="M19.172 13.197l-9.59 5.731V7.467l9.59 5.73z" fill="#FFF"/></g></svg><svg width="24" height="24" viewBox="0 0 24 24" id="warning" y="54"><path d="M1 21h22L12 2 1 21zm12-3h-2v-2h2v2zm0-4h-2v-4h2v4z"/></svg></svg>