<svg xmlns="http://www.w3.org/2000/svg" xmlns:xlink="http://www.w3.org/1999/xlink" viewBox="0 0 271.823 68.98"><defs><linearGradient id="a" x1="219.647" x2="219.647" y2="68.98" gradientUnits="userSpaceOnUse"><stop offset="0" stop-color="#007e9a"/><stop offset="1" stop-color="#007e9a" stop-opacity="0"/></linearGradient></defs><title>logo-transparent</title><polygon points="18.396 38.44 18.396 0.721 0 0.721 0 10.629 7.351 10.629 7.351 38.44 0.269 38.44 0.269 47.835 24.938 47.835 24.938 38.44 18.396 38.44" fill="#00406d"/><path d="M66.487,23.677a10.885,10.885,0,0,0,4.939-8.837C71.355,4.644,61.505.08,51.774.08c-9.19,0-19.921,3.75-19.921,14.32v1.106H42.966V14.4c0-3.489,5.718-4.411,8.742-4.411,6.344,0,8.605,2.51,8.605,4.841-.063,3.882-6.181,4.3-8.808,4.3H45.611V28.27h6.434c5.934,0,8.943,1.657,8.943,4.925,0,4.036-5.631,5.5-9.415,5.5-3.028,0-9.281-1.251-9.281-5.117V32.474H31.1l.008,1.113c.072,10.991,11.031,14.89,20.393,14.89,10.185,0,21.068-4.031,21.068-15.346C72.573,29.432,70.081,25.706,66.487,23.677Z" fill="#00406d"/><path d="M114.814,23.677a10.884,10.884,0,0,0,4.939-8.837C119.683,4.644,109.832.08,100.1.08c-9.189,0-19.92,3.75-19.92,14.32v1.106H91.293V14.4c0-3.489,5.718-4.411,8.741-4.411,6.345,0,8.607,2.51,8.607,4.841-.063,3.882-6.181,4.3-8.809,4.3H93.938V28.27h6.433c5.934,0,8.943,1.657,8.943,4.925,0,4.036-5.63,5.5-9.414,5.5-3.028,0-9.282-1.251-9.282-5.117V32.474H79.43l.008,1.113c.073,10.991,11.032,14.89,20.394,14.89,10.185,0,21.067-4.031,21.067-15.346C120.9,29.432,118.408,25.707,114.814,23.677Z" fill="#00406d"/><polygon points="162.676 0.721 125.91 0.721 125.91 11.016 148.169 11.016 121.902 60.248 134.66 60.248 163.286 6.537 162.676 0.721" fill="#00406d"/><path d="M1.053,58.359a5.281,5.281,0,0,0,.042.682,1.531,1.531,0,0,0,.172.558.921.921,0,0,0,.391.375,1.494,1.494,0,0,0,.7.138,3.452,3.452,0,0,0,.682-.066,1.939,1.939,0,0,0,.485-.149V53.5a.217.217,0,0,1,.01-.077c.007-.017.03-.031.068-.041a.758.758,0,0,1,.177-.015h.328v6.92a2.415,2.415,0,0,1-.693.246,4.67,4.67,0,0,1-1.057.112,2.258,2.258,0,0,1-1.016-.189,1.419,1.419,0,0,1-.568-.5,1.753,1.753,0,0,1-.25-.732,7.139,7.139,0,0,1-.052-.882V53.511a.257.257,0,0,1,.01-.082.084.084,0,0,1,.062-.047.7.7,0,0,1,.172-.015h.339Z" fill="#004d8c"/><path d="M8.348,53.265a2.628,2.628,0,0,1,1,.138q.307.138.308.312a.467.467,0,0,1-.157.339,1.5,1.5,0,0,0-.411-.185,2.305,2.305,0,0,0-.7-.092,1.434,1.434,0,0,0-.866.236.736.736,0,0,0-.322.625,1.051,1.051,0,0,0,.161.574,3.965,3.965,0,0,0,.412.533l1.24,1.261a2.789,2.789,0,0,1,.594.861,2.466,2.466,0,0,1,.156.9,2.677,2.677,0,0,1-.1.744,1.535,1.535,0,0,1-.318.594,1.494,1.494,0,0,1-.562.4,2.164,2.164,0,0,1-.834.143,2.956,2.956,0,0,1-.62-.056,2.061,2.061,0,0,1-.427-.138.745.745,0,0,1-.251-.175.275.275,0,0,1-.078-.174.578.578,0,0,1,.042-.21.52.52,0,0,1,.125-.19,1.389,1.389,0,0,0,.443.262,2.022,2.022,0,0,0,.724.107,1.183,1.183,0,0,0,.964-.348,1.374,1.374,0,0,0,.287-.9,2.162,2.162,0,0,0-.037-.405A1.636,1.636,0,0,0,9,58.041a2.02,2.02,0,0,0-.224-.374,4.131,4.131,0,0,0-.349-.4L7.306,56.1a3.583,3.583,0,0,1-.532-.728,1.545,1.545,0,0,1-.177-.728,1.253,1.253,0,0,1,.453-.994A1.933,1.933,0,0,1,8.348,53.265Z" fill="#004d8c"/><path d="M14.85,60.02a3.321,3.321,0,0,1-.016.441.1.1,0,0,1-.109.082H12.234V53.511a.16.16,0,0,1,.021-.072.5.5,0,0,0,.042-.047.089.089,0,0,1,.073-.025h2.491c0,.232,0,.378-.011.436a.086.086,0,0,1-.094.087H12.8v2.47h1.834a3.646,3.646,0,0,1-.015.426.1.1,0,0,1-.11.1H12.8V60.02Z" fill="#004d8c"/><path d="M17.288,53.511a.16.16,0,0,1,.021-.072.5.5,0,0,0,.042-.047.089.089,0,0,1,.073-.025h1.084a1.7,1.7,0,0,1,1.4.523,2.2,2.2,0,0,1,.422,1.425,2.721,2.721,0,0,1-.286,1.363,1.6,1.6,0,0,1-.787.7,3.88,3.88,0,0,1,.271.405,5.107,5.107,0,0,1,.313.636,6.761,6.761,0,0,1,.286.866,6.393,6.393,0,0,1,.182,1.107q.011.093-.036.123a.623.623,0,0,1-.245.041h-.14a1.823,1.823,0,0,1-.183-.01,8.327,8.327,0,0,0-.209-1.22,7.105,7.105,0,0,0-.286-.892,4.082,4.082,0,0,0-.292-.595c-.093-.15-.168-.262-.224-.338a.576.576,0,0,1-.115.011h-.729v2.9a.217.217,0,0,1-.01.077c-.007.017-.028.03-.063.041a.658.658,0,0,1-.167.015h-.323Zm2.418,1.783a2.894,2.894,0,0,0-.052-.564,1.138,1.138,0,0,0-.188-.445.928.928,0,0,0-.354-.3,1.245,1.245,0,0,0-.552-.108h-.709v3.1h.657Q19.707,56.975,19.706,55.294Z" fill="#004d8c"/><path d="M28.157,53.265a1.861,1.861,0,0,1,.787.143q.308.144.307.328a.84.84,0,0,1-.083.348,1.443,1.443,0,0,0-.385-.2,1.557,1.557,0,0,0-.521-.078,1.733,1.733,0,0,0-.724.144,1.187,1.187,0,0,0-.532.508,3.047,3.047,0,0,0-.328.989,9.007,9.007,0,0,0-.115,1.589,10.042,10.042,0,0,0,.1,1.62,2.884,2.884,0,0,0,.287.922.894.894,0,0,0,.432.416,1.5,1.5,0,0,0,.542.1,1.045,1.045,0,0,0,.589-.144.816.816,0,0,0,.266-.246V56.945H27.761V56.6c0-.089.052-.133.157-.133h1.407v3.608c-.042.041-.1.094-.172.159a1.482,1.482,0,0,1-.282.19,1.949,1.949,0,0,1-.412.158,2.035,2.035,0,0,1-.552.067,2.31,2.31,0,0,1-.823-.138,1.268,1.268,0,0,1-.615-.528,3.091,3.091,0,0,1-.38-1.087,10.261,10.261,0,0,1-.131-1.824,9.66,9.66,0,0,1,.157-1.923,3.158,3.158,0,0,1,.448-1.158,1.5,1.5,0,0,1,.7-.569A2.527,2.527,0,0,1,28.157,53.265Z" fill="#004d8c"/><path d="M34.514,60.02a3.321,3.321,0,0,1-.016.441.1.1,0,0,1-.109.082H31.9V53.511a.16.16,0,0,1,.021-.072.5.5,0,0,0,.042-.047.089.089,0,0,1,.073-.025h2.49c0,.232,0,.378-.01.436a.086.086,0,0,1-.094.087H32.461v2.47H34.3a3.564,3.564,0,0,1-.016.426.1.1,0,0,1-.109.1H32.461V60.02Z" fill="#004d8c"/><path d="M38.745,57.662c-.021-.047-.059-.138-.115-.271s-.12-.3-.193-.487-.154-.4-.245-.626-.178-.449-.265-.671-.171-.434-.25-.636-.148-.374-.2-.518c0,.13,0,.3.005.508s.007.434.01.677.007.49.01.743.007.485.011.7.005.393.005.543V60.41a.217.217,0,0,1-.01.077c-.007.017-.028.03-.063.041a.658.658,0,0,1-.167.015h-.322V53.511c0-.1.044-.144.135-.144h.407l1.25,2.829.114.3q.084.215.2.512l.255.641c.09.229.18.454.271.677s.174.43.25.625.142.357.2.487c-.007-.1-.014-.255-.021-.457S40,58.554,40,58.308s0-.5,0-.758,0-.5-.006-.728-.005-.419-.005-.579V53.511A.228.228,0,0,1,40,53.429c.006-.021.027-.037.062-.047a.693.693,0,0,1,.172-.015h.328V60.41a.119.119,0,0,1-.135.133h-.4Z" fill="#004d8c"/><path d="M45.9,60.02a3.321,3.321,0,0,1-.016.441.1.1,0,0,1-.109.082H43.288V53.511a.16.16,0,0,1,.021-.072.5.5,0,0,0,.042-.047.089.089,0,0,1,.073-.025h2.49c0,.232,0,.378-.01.436a.086.086,0,0,1-.094.087H43.851v2.47h1.834a3.352,3.352,0,0,1-.016.426.1.1,0,0,1-.109.1H43.851V60.02Z" fill="#004d8c"/><path d="M48.342,53.511a.16.16,0,0,1,.021-.072.5.5,0,0,0,.042-.047.087.087,0,0,1,.072-.025h1.084a1.7,1.7,0,0,1,1.4.523,2.2,2.2,0,0,1,.422,1.425,2.732,2.732,0,0,1-.286,1.363,1.6,1.6,0,0,1-.788.7,3.727,3.727,0,0,1,.271.405,4.842,4.842,0,0,1,.313.636,6.754,6.754,0,0,1,.287.866,6.49,6.49,0,0,1,.182,1.107q.011.093-.036.123a.628.628,0,0,1-.245.041h-.141a1.82,1.82,0,0,1-.182-.01,8.327,8.327,0,0,0-.209-1.22,7.105,7.105,0,0,0-.286-.892,4.082,4.082,0,0,0-.292-.595c-.094-.15-.168-.262-.224-.338a.583.583,0,0,1-.115.011h-.729v2.9a.213.213,0,0,1-.011.077c-.006.017-.027.03-.062.041a.663.663,0,0,1-.167.015h-.323Zm2.418,1.783a2.815,2.815,0,0,0-.053-.564,1.137,1.137,0,0,0-.187-.445.935.935,0,0,0-.354-.3,1.245,1.245,0,0,0-.552-.108h-.709v3.1h.656Q50.76,56.975,50.76,55.294Z" fill="#004d8c"/><path d="M56.637,58.564H54.47l-.48,1.866a.136.136,0,0,1-.073.1.705.705,0,0,1-.208.02h-.146a1.264,1.264,0,0,1-.209-.02l1.97-7.115c.007-.061.073-.092.2-.092a.807.807,0,0,1,.25.031l1.97,7.053c.014.054.005.092-.026.112a.459.459,0,0,1-.214.031h-.141c-.059,0-.126,0-.2-.01Zm-2.032-.523h1.886l-.5-1.9q-.084-.3-.156-.6t-.13-.569c-.039-.177-.072-.338-.1-.481a3.12,3.12,0,0,1-.051-.359c-.015.095-.034.215-.058.359s-.057.3-.1.481-.087.368-.135.569-.1.4-.157.6Z" fill="#004d8c"/><path d="M60.961,53.9v6.51a.217.217,0,0,1-.01.077c-.007.017-.03.03-.068.041a.727.727,0,0,1-.172.015h-.322V53.9H58.856v-.389c0-.1.046-.144.136-.144h3.543v.4a.119.119,0,0,1-.135.134Z" fill="#004d8c"/><path d="M67.381,60.02a3.321,3.321,0,0,1-.016.441.1.1,0,0,1-.109.082H64.765V53.511a.16.16,0,0,1,.021-.072.5.5,0,0,0,.042-.047.089.089,0,0,1,.073-.025h2.491c0,.232,0,.378-.011.436a.086.086,0,0,1-.094.087H65.328v2.47h1.834a3.352,3.352,0,0,1-.016.426.1.1,0,0,1-.109.1H65.328V60.02Z" fill="#004d8c"/><path d="M71.132,53.367a2.147,2.147,0,0,1,.881.169,1.478,1.478,0,0,1,.63.543,2.844,2.844,0,0,1,.38.99,7.39,7.39,0,0,1,.131,1.507A10.249,10.249,0,0,1,73,58.559a3.688,3.688,0,0,1-.432,1.215,1.487,1.487,0,0,1-.656.6,2.054,2.054,0,0,1-.818.164H69.83v-7a.162.162,0,0,1,.052-.128.327.327,0,0,1,.208-.046Zm1.4,3.168a7.7,7.7,0,0,0-.084-1.241,2.456,2.456,0,0,0-.261-.815,1.1,1.1,0,0,0-.442-.451,1.327,1.327,0,0,0-.62-.138H70.4V60h.7a1.326,1.326,0,0,0,.531-.112,1.017,1.017,0,0,0,.459-.482,3.607,3.607,0,0,0,.318-1.051A10.948,10.948,0,0,0,72.529,56.535Z" fill="#004d8c"/><path d="M80.907,53.285a1.208,1.208,0,0,1,.739.179c.153.12.229.231.229.333a.648.648,0,0,1-.1.349.8.8,0,0,0-.1-.082,1.593,1.593,0,0,0-.172-.1,1.416,1.416,0,0,0-.229-.092.926.926,0,0,0-.276-.041,1.4,1.4,0,0,0-.542.113,1.079,1.079,0,0,0-.485.467,3.335,3.335,0,0,0-.349,1.045,10.077,10.077,0,0,0-.135,1.851,7.794,7.794,0,0,0,.1,1.419,2.686,2.686,0,0,0,.276.831.811.811,0,0,0,.4.374,1.358,1.358,0,0,0,.464.082,1.424,1.424,0,0,0,.656-.149,1.439,1.439,0,0,0,.428-.3.931.931,0,0,1,.072.165.594.594,0,0,1,.032.194.393.393,0,0,1-.1.246.989.989,0,0,1-.271.226,1.7,1.7,0,0,1-.406.169,1.907,1.907,0,0,1-.516.067,2.615,2.615,0,0,1-.625-.077.991.991,0,0,1-.558-.415,2.79,2.79,0,0,1-.4-1.01,8.7,8.7,0,0,1-.151-1.83,9.811,9.811,0,0,1,.187-2.152,3.441,3.441,0,0,1,.48-1.2,1.364,1.364,0,0,1,.651-.528A2.167,2.167,0,0,1,80.907,53.285Z" fill="#004d8c"/><path d="M83.846,56.9a9.7,9.7,0,0,1,.125-1.692,3.465,3.465,0,0,1,.375-1.128,1.563,1.563,0,0,1,.625-.625,1.873,1.873,0,0,1,.876-.194,1.851,1.851,0,0,1,.864.184,1.354,1.354,0,0,1,.574.61,3.578,3.578,0,0,1,.317,1.117,12.445,12.445,0,0,1,.1,1.717,11.4,11.4,0,0,1-.114,1.753,3.72,3.72,0,0,1-.355,1.164,1.48,1.48,0,0,1-.614.641,1.91,1.91,0,0,1-.886.194,1.957,1.957,0,0,1-.86-.174,1.315,1.315,0,0,1-.584-.6,3.76,3.76,0,0,1-.333-1.153A12.419,12.419,0,0,1,83.846,56.9Zm.635.174a11.91,11.91,0,0,0,.068,1.384,3.478,3.478,0,0,0,.219.923,1.1,1.1,0,0,0,.4.517,1.056,1.056,0,0,0,.589.159,1.074,1.074,0,0,0,.609-.169,1.19,1.19,0,0,0,.417-.548,3.68,3.68,0,0,0,.235-.985,15.228,15.228,0,0,0,.005-2.906,3.677,3.677,0,0,0-.214-.938A1.07,1.07,0,0,0,86.414,54a1.155,1.155,0,0,0-1.188.011,1.192,1.192,0,0,0-.417.553,4.034,4.034,0,0,0-.244,1.005A11.5,11.5,0,0,0,84.481,57.078Z" fill="#004d8c"/><path d="M92.026,57.662c-.021-.047-.059-.138-.114-.271s-.121-.3-.193-.487-.155-.4-.245-.626-.179-.449-.266-.671-.17-.434-.25-.636-.148-.374-.2-.518c0,.13,0,.3.005.508s.007.434.01.677.007.49.011.743.007.485.01.7.005.393.005.543V60.41a.217.217,0,0,1-.01.077c-.007.017-.028.03-.062.041a.668.668,0,0,1-.167.015h-.323V53.511q0-.144.135-.144h.407l1.25,2.829c.021.055.059.154.115.3s.123.314.2.512.165.412.255.641.181.454.271.677.174.43.251.625.142.357.2.487c-.007-.1-.014-.255-.021-.457s-.012-.425-.015-.671,0-.5,0-.758,0-.5-.006-.728,0-.419,0-.579V53.511a.228.228,0,0,1,.011-.082.082.082,0,0,1,.062-.047.693.693,0,0,1,.172-.015h.328V60.41a.119.119,0,0,1-.135.133h-.4Z" fill="#004d8c"/><path d="M98.153,53.9v6.51a.217.217,0,0,1-.01.077c-.007.017-.03.03-.068.041a.727.727,0,0,1-.172.015H97.58V53.9H96.048v-.389c0-.1.046-.144.136-.144h3.543v.4a.119.119,0,0,1-.135.134Z" fill="#004d8c"/><path d="M104.572,60.02a3.609,3.609,0,0,1-.015.441.1.1,0,0,1-.11.082h-2.491V53.511a.16.16,0,0,1,.021-.072.389.389,0,0,0,.042-.047.091.091,0,0,1,.073-.025h2.491c0,.232,0,.378-.011.436a.086.086,0,0,1-.094.087h-1.959v2.47h1.834a3.646,3.646,0,0,1-.015.426.1.1,0,0,1-.11.1h-1.709V60.02Z" fill="#004d8c"/><path d="M108.8,57.662c-.021-.047-.059-.138-.115-.271s-.12-.3-.192-.487-.155-.4-.246-.626-.178-.449-.265-.671-.171-.434-.25-.636-.148-.374-.2-.518c0,.13,0,.3.005.508s.007.434.01.677.007.49.011.743.006.485.01.7,0,.393,0,.543V60.41a.217.217,0,0,1-.01.077c-.007.017-.028.03-.063.041a.658.658,0,0,1-.167.015h-.322V53.511q0-.144.135-.144h.407L108.8,56.2l.114.3q.084.215.2.512t.255.641c.09.229.181.454.271.677s.174.43.25.625.142.357.2.487c-.007-.1-.014-.255-.021-.457s-.012-.425-.015-.671,0-.5,0-.758,0-.5-.006-.728,0-.419,0-.579V53.511a.228.228,0,0,1,.011-.082c.006-.021.027-.037.062-.047a.693.693,0,0,1,.172-.015h.328V60.41a.119.119,0,0,1-.135.133h-.4Z" fill="#004d8c"/><path d="M114.93,53.9v6.51a.217.217,0,0,1-.01.077c-.007.017-.03.03-.068.041a.727.727,0,0,1-.172.015h-.323V53.9h-1.532v-.389c0-.1.046-.144.136-.144H116.5v.4a.119.119,0,0,1-.135.134Z" fill="#004d8c"/><path d="M155.416,45.383a4.483,4.483,0,0,0-.922-.576,2.96,2.96,0,0,0-.544-.219,1.094,1.094,0,0,0-.4-.044.516.516,0,0,0-.282.121.879.879,0,0,0-.2.271,1.3,1.3,0,0,0-.129.414,1.008,1.008,0,0,0,.047.431l2.525,1.262a.615.615,0,0,0,.173-.126,1.162,1.162,0,0,0,.191-.286.957.957,0,0,0,.083-.317.728.728,0,0,0-.1-.423A1.826,1.826,0,0,0,155.416,45.383Z" fill="#007e9a"/><path d="M154.758,33.161,139.893,60.434h12.163l14.865-27.273Zm-3.168,22.8a1.585,1.585,0,0,1-.142.4,1.747,1.747,0,0,1-.375.513.963.963,0,0,1-.567.239,2.31,2.31,0,0,1-.87-.111,7.8,7.8,0,0,1-1.285-.531,7.331,7.331,0,0,1-1.255-.76,2.391,2.391,0,0,1-.636-.7,1.134,1.134,0,0,1-.149-.668,1.89,1.89,0,0,1,.2-.662,1.407,1.407,0,0,1,.366-.487c.135-.107.244-.14.327-.1a.663.663,0,0,1,.21.175,1.1,1.1,0,0,0-.268.2,1.178,1.178,0,0,0-.229.328,1.328,1.328,0,0,0-.149.542.9.9,0,0,0,.165.534,2.278,2.278,0,0,0,.562.559,6.874,6.874,0,0,0,1.041.619,7.469,7.469,0,0,0,1.138.479,2.184,2.184,0,0,0,.724.119.672.672,0,0,0,.43-.153,1.12,1.12,0,0,0,.251-.335.81.81,0,0,0,.1-.449.608.608,0,0,0-.078-.265l-1.877-.938-.346.7-.238-.119c-.059-.029-.073-.08-.038-.151l.479-.958,2.456,1.228c.014.042.03.1.049.171a1.084,1.084,0,0,1,.033.256A1.53,1.53,0,0,1,151.59,55.965ZM154.538,50l-.11.22-2.566-1.283a1.176,1.176,0,0,0-.534-.161q-.194.01-.342.308a1.522,1.522,0,0,0-.121.338,1.167,1.167,0,0,0-.016.409l2.928,1.464c.042.02.062.045.06.073l0,.007a.36.36,0,0,1-.043.121c-.026.052-.064.13-.117.234l-2.726-1.363a1.837,1.837,0,0,0-.229-.083.325.325,0,0,0-.185,0,.372.372,0,0,0-.164.1.818.818,0,0,0-.151.225,1.544,1.544,0,0,0-.122.329,2,2,0,0,0-.051.4l2.971,1.485a.127.127,0,0,1,.047.036.1.1,0,0,1,.005.061.524.524,0,0,1-.048.122l-.108.216L149.584,51.6a3.212,3.212,0,0,1,.091-.606,2.671,2.671,0,0,1,.2-.558,1.3,1.3,0,0,1,.279-.392.669.669,0,0,1,.312-.163,1.819,1.819,0,0,1,.032-.525,1.981,1.981,0,0,1,.167-.5,1.213,1.213,0,0,1,.276-.385.589.589,0,0,1,.315-.144.836.836,0,0,1,.373.049,3.667,3.667,0,0,1,.445.191l2.454,1.227a.194.194,0,0,1,.05.033.08.08,0,0,1,0,.061A.621.621,0,0,1,154.538,50Zm1.821-3.645a1.839,1.839,0,0,1-.16.5,1.478,1.478,0,0,1-.617.711l-4.8-2.4c-.093-.047-.135-.1-.125-.16a1.39,1.39,0,0,1,.132-.324l1.855.927a1.43,1.43,0,0,1-.023-.477,1.665,1.665,0,0,1,.177-.545,1.149,1.149,0,0,1,.262-.352.776.776,0,0,1,.374-.181,1.248,1.248,0,0,1,.5.021,2.972,2.972,0,0,1,.664.252,4.955,4.955,0,0,1,1.153.745,2.085,2.085,0,0,1,.521.685A1.06,1.06,0,0,1,156.359,46.359Zm2.427-4.856-2.477-1.238-.75,1.5,2.385,1.192a.169.169,0,0,1,.049.033.074.074,0,0,1,.008.057.563.563,0,0,1-.047.119l-.114.226L153.055,41A.2.2,0,0,1,153,40.97a.067.067,0,0,1-.011-.059.526.526,0,0,1,.047-.118c.026-.052.063-.128.113-.227l2.043,1.021.751-1.5L154,39.111a.354.354,0,0,1-.05-.029c-.011-.009-.012-.027-.006-.057a.57.57,0,0,1,.044-.124c.024-.053.061-.13.11-.228l4.791,2.394a.185.185,0,0,1,.049.033.066.066,0,0,1,.007.057.453.453,0,0,1-.047.118C158.874,41.328,158.836,41.4,158.786,41.5Z" fill="#007e9a"/><path d="M180.165,9.471a8.094,8.094,0,0,1-5.043-2.2c-.8-1.02.282-1.766,2.549-1.735s4.672.951,5.249,2.111S182.2,9.643,180.165,9.471Zm1.011,2.057c-1.981-.2-3.034.5-2.5,1.623a6.006,6.006,0,0,0,4.032,2.634c1.741.311,3.015-.459,2.706-1.689S183.151,11.734,181.176,11.528Zm5.272,9.326c-.031-1.268-1.533-2.552-3.211-2.885s-2.706.331-2.431,1.522a4.5,4.5,0,0,0,2.993,2.925C185.234,22.828,186.486,22.121,186.448,20.854Zm-2.61,3.813c-1.376-.427-2.371.211-2.367,1.438a3.526,3.526,0,0,0,1.95,3.085A1.864,1.864,0,0,0,186,27.74,2.945,2.945,0,0,0,183.838,24.667Zm-.871,6.782a1.618,1.618,0,0,0-2.3,1.368,2.988,2.988,0,0,0,.905,3.1c.819.488,2.006-.109,2.511-1.352A2.428,2.428,0,0,0,182.967,31.449Zm-2.333,6.676c-.761-.484-1.7.113-2.233,1.315s-.65,2.531-.126,3,1.674-.092,2.444-1.271S181.392,38.61,180.634,38.125Zm-3.775,6.4c-.46-.452-1.372.134-2.171,1.27s-1.359,2.354-1.129,2.75,1.354-.117,2.378-1.2S177.319,44.974,176.859,44.523Zm-5.177,5.935c-.175-.379-1.065.2-2.123,1.243a11.656,11.656,0,0,0-2.086,2.369c-.046.291,1.047-.188,2.317-1.146S171.853,50.835,171.682,50.458ZM194.393,7.975c-.308-1.338-2.566-2.372-4.9-2.352s-3.7.958-3.171,2.149,2.569,2.294,4.688,2.42S194.7,9.314,194.393,7.975Zm-2.877,4.553c-2.059-.163-3.405.691-3.149,1.945s1.838,2.52,3.663,2.8,3.392-.615,3.365-1.986S193.571,12.691,191.516,12.528Zm-2.585,8.892a3.386,3.386,0,0,0,2.618,3.038,2.6,2.6,0,0,0,3.324-1.771c.256-1.369-1.079-2.718-2.838-3.024S188.946,20.135,188.931,21.42Zm-.924,7.007a2.729,2.729,0,0,0,1.569,3.146A2.648,2.648,0,0,0,192.841,30a2.414,2.414,0,0,0-1.785-3.156A2.307,2.307,0,0,0,188.007,28.427Zm.584,5.471a2.346,2.346,0,0,0-2.976,1.417c-.554,1.249-.381,2.635.526,3.119s2.394-.117,3.19-1.378A2.07,2.07,0,0,0,188.591,33.9Zm-3.916,6.737c-.844-.487-2.08.1-2.9,1.274s-1.1,2.482-.5,2.955,2.051-.042,3.109-1.207S185.514,41.122,184.675,40.635ZM175.049,50.68c.308.418,1.713-.018,3.016-1.046s1.824-2.291,1.287-2.755-1.745.069-2.819,1.142S174.74,50.26,175.049,50.68Zm-2.367,1.77c-.252-.4-1.421.084-2.737,1.022s-2.453,1.9-2.423,2.23,1.387-.041,2.922-.9S172.928,52.853,172.682,52.45Zm33.58-44.4c-.04-1.529-2.152-2.682-4.564-2.606s-4.047,1.215-3.785,2.582,2.143,2.573,4.338,2.653S206.309,9.574,206.262,8.049Zm-4,5.263c-2.136-.12-3.77.893-3.8,2.29s1.391,2.735,3.3,2.976,3.768-.791,4.021-2.308S204.4,13.432,202.264,13.312ZM201.256,21.2c-1.841-.274-3.468.622-3.773,2.007a2.738,2.738,0,0,0,2.243,3.171,3.531,3.531,0,0,0,4-2C204.266,22.9,203.1,21.473,201.256,21.2Zm-1.145,10.983a2.114,2.114,0,0,0-1.406-3.259,3.231,3.231,0,0,0-3.729,1.741,2.29,2.29,0,0,0,1.187,3.228A3.623,3.623,0,0,0,200.111,32.183Zm-5.106,7.328c1.095-1.3.872-2.752-.358-3.208a3.3,3.3,0,0,0-3.658,1.49c-.848,1.273-.844,2.665.144,3.148S193.914,40.807,195.005,39.511ZM184.7,47.347c.683.482,2.43-.011,3.777-1.169s1.587-2.535.666-3.02-2.466.094-3.575,1.253S184.014,46.864,184.7,47.347Zm-7.758,5.581c.383.439,2.079.066,3.661-.918s2.272-2.227,1.653-2.7-2.118.012-3.471,1.03S176.551,52.486,176.941,52.928Zm-5.454,3.888c1.805-.773,2.912-1.822,2.589-2.245s-1.777-.023-3.361.821-2.869,1.748-2.766,2.107S169.684,57.6,171.487,56.816ZM214.293,4.977c-2.491.132-4.39,1.482-4.394,3.041s1.725,2.867,4,2.9,4.41-1.341,4.626-3.065S216.78,4.846,214.293,4.977Zm-5.31,11.548c-.3,1.547.95,2.97,2.935,3.175s4.142-.977,4.668-2.655-.956-3.1-3.167-3.175S209.287,14.98,208.983,16.525Zm-2.524,8.326a2.37,2.37,0,0,0,1.871,3.315,4.62,4.62,0,0,0,4.664-2.257c.832-1.6-.174-3.106-2.095-3.342A4.256,4.256,0,0,0,206.459,24.851Zm1.351,9.412c1.119-1.485.592-3.014-1.029-3.375a4.359,4.359,0,0,0-4.406,1.929c-.87,1.418-.574,2.889.808,3.319A4.758,4.758,0,0,0,207.81,34.263Zm-6.7,7.664c1.388-1.339,1.338-2.83.024-3.273s-3.2.285-4.344,1.588-1.307,2.708-.234,3.19S199.726,43.268,201.111,41.927ZM188.54,49.87c.763.487,2.812.009,4.451-1.153s2.048-2.551,1.043-3.037-2.85.106-4.248,1.259S187.775,49.376,188.54,49.87Zm-9.3,5.4c.463.458,2.448.141,4.315-.8s2.723-2.183,2.025-2.67-2.5-.028-4.133.946S178.77,54.807,179.238,55.266Zm-3.368,1.541c-.405-.45-2.141-.118-3.993.642s-3.294,1.613-3.117,2,2.089.22,4.163-.48S176.271,57.251,175.87,56.807Zm51.4-52.591c-2.563.191-4.726,1.763-4.991,3.522s1.308,3.178,3.658,3.162,4.762-1.591,5.235-3.524S229.826,4.025,227.268,4.216ZM227.8,17.6c.8-1.85-.529-3.385-2.819-3.408s-4.493,1.34-5.068,3.047.512,3.216,2.578,3.386A5.675,5.675,0,0,0,227.8,17.6Zm-5.108,9.681c1.117-1.731.274-3.326-1.727-3.527a5.509,5.509,0,0,0-5.1,2.588c-.872,1.621-.269,3.162,1.5,3.474A5.853,5.853,0,0,0,222.687,27.278Zm-6.749,8.959c1.412-1.578,1.053-3.173-.649-3.506a5.685,5.685,0,0,0-5.085,2.136c-1.163,1.5-1.036,3.015.428,3.428S214.535,37.813,215.938,36.237Zm-7.884,4.7c-1.4-.431-3.59.358-5.026,1.7s-1.773,2.775-.618,3.25,3.559-.21,5.237-1.6S209.448,41.365,208.054,40.938Zm-15.248,11.48c.845.494,3.195.021,5.124-1.156s2.514-2.586,1.425-3.066-3.239.127-4.927,1.286S191.958,51.922,192.806,52.418Zm-3.49,1.906c-.783-.495-2.878-.058-4.8.881S181.4,57.22,181.942,57.7s2.82.2,4.977-.724S190.1,54.818,189.316,54.324Zm-11.249,4.82c-.485-.467-2.509-.2-4.637.49s-3.722,1.494-3.467,1.906,2.442.335,4.8-.3S178.545,59.607,178.067,59.144Zm62.549-56c-2.633.253-5.059,2.056-5.578,4.026s.906,3.51,3.332,3.44A6.722,6.722,0,0,0,244.2,6.6C244.928,4.451,243.247,2.9,240.616,3.148Zm-7.151,18.183a6.973,6.973,0,0,0,5.946-3.416c1.07-2.031-.114-3.683-2.477-3.659a6.672,6.672,0,0,0-5.695,3.462C230.392,19.6,231.32,21.2,233.465,21.331Zm-2.03,3.414a6.919,6.919,0,0,0-5.754,2.91c-1.16,1.755-.722,3.367,1.129,3.65s4.6-.96,6-2.836S233.518,24.909,231.435,24.745Zm-7.212,9.689c-1.79-.309-4.3.779-5.759,2.371s-1.5,3.159.049,3.555,4.289-.591,5.983-2.271S226.005,34.742,224.223,34.434ZM208.7,48.313c1.234.467,3.948-.263,5.922-1.717s2.265-3.041.786-3.454-3.977.446-5.71,1.849S207.457,47.846,208.7,48.313Zm-11.2,6.671c.927.5,3.584.018,5.807-1.182s2.978-2.639,1.808-3.114-3.628.162-5.611,1.338S196.564,54.484,197.493,54.984Zm-4.015,1.91c-.867-.5-3.26-.075-5.467.842s-3.577,1.97-2.953,2.462,3.2.246,5.645-.662S194.342,57.391,193.478,56.894ZM177,63.613c2.635-.584,4.233-1.556,3.674-2.035s-2.881-.265-5.282.361-4.159,1.387-3.83,1.826S174.362,64.2,177,63.613Zm74.19-53.563A8.03,8.03,0,0,0,257.6,5.536c.976-2.386-.568-4.088-3.27-3.773a7.834,7.834,0,0,0-6.154,4.555C247.418,8.514,248.684,10.172,251.186,10.05Zm.234,7.939c1.338-2.224.305-4-2.134-3.922a8.126,8.126,0,0,0-6.317,3.9c-1.111,2.062-.344,3.769,1.881,3.851A8.344,8.344,0,0,0,251.42,17.989ZM236.684,32.632c1.928.247,4.979-1.133,6.65-3.159s1.151-3.815-1.011-3.936a8.489,8.489,0,0,0-6.405,3.255C234.48,30.69,234.752,32.382,236.684,32.632Zm-9.861,9.682c1.625.375,4.673-.707,6.661-2.5s1.962-3.541.094-3.817-4.681.926-6.429,2.625S225.191,41.939,226.823,42.314ZM215.41,50.683c1.319.456,4.34-.329,6.606-1.86s2.731-3.17,1.168-3.563-4.366.544-6.392,2.011S214.086,50.226,215.41,50.683Zm-12.8,6.874c1.009.5,3.97,0,6.491-1.233s3.444-2.708,2.189-3.174-4.018.208-6.293,1.41S201.6,57.058,202.609,57.557Zm-14.017,5.2c.7.5,3.581.285,6.317-.62s4.1-2.153,3.154-2.652-3.646-.081-6.142.825S187.886,62.26,188.592,62.76Zm-4.911,1.332c-.642-.5-3.253-.321-5.936.254s-4.6,1.3-4.195,1.764,3.17.518,6.086-.024S184.323,64.585,183.681,64.092Zm80.706-54.9a9.426,9.426,0,0,0,7-5.041c1.217-2.627-.195-4.484-2.967-4.1A9.32,9.32,0,0,0,261.7,5.155C260.688,7.582,261.813,9.372,264.387,9.193Zm-7.748,12.879c2.3.038,5.6-1.843,7.191-4.267s.709-4.332-1.8-4.2A9.73,9.73,0,0,0,255.1,17.96C253.725,20.217,254.334,22.032,256.639,22.072Zm-9.662,11.712c2.012.213,5.352-1.317,7.3-3.507s1.584-4.086-.657-4.164-5.326,1.572-7.048,3.624S244.963,33.568,246.977,33.784ZM235.563,44.148c1.707.351,5.06-.836,7.332-2.757s2.416-3.75.463-3.994-5.059,1.091-7.1,2.9S233.848,43.8,235.563,44.148Zm-13,8.843c1.4.444,4.728-.409,7.289-2.028s3.193-3.317,1.544-3.688-4.751.656-7.072,2.2S221.151,52.547,222.559,52.991Zm-14.406,7.137c1.09.494,4.36-.029,7.173-1.309s3.914-2.794,2.576-3.25-4.407.267-6.979,1.507S207.056,59.628,208.153,60.128Zm-15.61,5.251c.786.506,3.962.308,6.992-.606S204.1,62.6,203.073,62.1s-4.033-.073-6.821.832S191.755,64.867,192.543,65.379Zm-16.6,3.182c.483.48,3.542.6,6.745.085s5.141-1.463,4.421-1.967-3.634-.366-6.6.167S175.46,68.08,175.943,68.561Z" fill="url(#a)"/></svg>