<?xml version="1.0" encoding="utf-8"?>
<!-- Generator: Adobe Illustrator 18.0.0, SVG Export Plug-In . SVG Version: 6.00 Build 0)  -->
<!DOCTYPE svg PUBLIC "-//W3C//DTD SVG 1.1//EN" "http://www.w3.org/Graphics/SVG/1.1/DTD/svg11.dtd">
<svg version="1.1" id="Layer_1" xmlns="http://www.w3.org/2000/svg" xmlns:xlink="http://www.w3.org/1999/xlink" x="0px" y="0px"
	 viewBox="0 0 1000 215" enable-background="new 0 0 1000 215" xml:space="preserve">
<g>
	<g>
		<path fill-rule="evenodd" clip-rule="evenodd" d="M166.12,0H48.88C21.89,0,0,21.89,0,48.89v117.23c0,27,21.89,48.88,48.88,48.88
			h117.24c27,0,48.88-21.88,48.88-48.88V48.88C215,21.89,193.11,0,166.12,0z M134.43,57.85c5.36,0,9.7,4.34,9.7,9.7
			c0,5.36-4.34,9.7-9.7,9.7c-5.36,0-9.7-4.34-9.7-9.7C124.73,62.19,129.07,57.85,134.43,57.85z M134.43,85.25
			c5.36,0,9.7,4.34,9.7,9.7s-4.34,9.7-9.7,9.7c-5.36,0-9.7-4.34-9.7-9.7S129.07,85.25,134.43,85.25z M107.09,57.85
			c5.36,0,9.7,4.34,9.7,9.7c0,5.36-4.34,9.7-9.7,9.7c-5.36,0-9.7-4.34-9.7-9.7C97.39,62.19,101.73,57.85,107.09,57.85z
			 M107.09,85.25c5.36,0,9.7,4.34,9.7,9.7s-4.34,9.7-9.7,9.7c-5.36,0-9.7-4.34-9.7-9.7S101.73,85.25,107.09,85.25z M79.75,57.85
			c5.36,0,9.7,4.34,9.7,9.7c0,5.36-4.34,9.7-9.7,9.7c-5.36,0-9.7-4.34-9.7-9.7C70.05,62.19,74.39,57.85,79.75,57.85z M79.75,85.25
			c5.36,0,9.7,4.34,9.7,9.7s-4.34,9.7-9.7,9.7c-5.36,0-9.7-4.34-9.7-9.7S74.39,85.25,79.75,85.25z M53.46,187.72
			c-10.24,0-18.55-8.31-18.55-18.55c0-10.25,8.31-18.56,18.55-18.56c10.25,0,18.56,8.31,18.56,18.56
			C72.03,179.41,63.71,187.72,53.46,187.72z M160.68,188.55c-10.24,0-18.55-8.31-18.55-18.55c0-10.25,8.31-18.56,18.55-18.56
			c10.25,0,18.56,8.31,18.56,18.56C179.24,180.24,170.93,188.55,160.68,188.55z M193.27,37.66l-19.18,71.44
			c-5.12,19.07-21.28,31.04-41.03,31.04h-12.65c-4.18,0-10.23-2.26-12.74-4.62c-0.42-0.39-1.08-0.39-1.5,0
			c-2.51,2.36-8.56,4.62-12.74,4.62h-13.9c-19.12,0-33.61-10.9-39.41-29.12L23.81,59.86c-0.32-1.02-0.15-2.1,0.49-2.97
			c0.63-0.86,1.6-1.36,2.69-1.36l3.12,0.01c7.52,0.03,14.11,4.86,16.38,12.02l11.98,37.62c3.24,10.19,13.61,17.04,24.3,17.04
			l4.65-0.01c4.8,0,8.18-2.46,10.22-4.66c1.06-1.15,2.54-1.82,4.11-1.82l10.44,0.01c1.48,0,2.92,0.59,3.91,1.68
			c1.98,2.17,5.49,4.79,10.33,4.79l4.43,0.01c11.04,0,21.75-7.45,24.62-18.11l15.53-57.84c2.03-7.53,8.88-12.78,16.67-12.78l2.74,0
			c0.26,0,0.52,0.04,0.76,0.14C192.93,34.37,193.7,36.08,193.27,37.66z"/>
		<path fill-rule="evenodd" clip-rule="evenodd" d="M160.68,163.34c-3.67,0-6.65,2.98-6.65,6.66c0,3.68,2.98,6.66,6.65,6.66
			c3.68,0,6.66-2.98,6.66-6.66C167.34,166.32,164.36,163.34,160.68,163.34z"/>
		<path fill-rule="evenodd" clip-rule="evenodd" d="M53.46,162.51c-3.67,0-6.65,2.98-6.65,6.66c0,3.68,2.98,6.66,6.65,6.66
			c3.68,0,6.66-2.98,6.66-6.66C60.12,165.49,57.14,162.51,53.46,162.51z"/>
	</g>
	<g>
		<g>
			<path d="M574.08,162.64c-4.83,0-10.11-0.23-12.45,3.99c-7.34,13.26-24.1,17.42-37.87,17.42c-27.39,0-48.2-22.25-48.2-49.6
				c0-27.35,20.81-49.6,48.2-49.6c12.17,0,28.01,2.35,37.41,16.56c2.66,4.02,7.92,3.1,12.75,3.1c6.77,0,5.14-8.07,2.48-12.1
				c-13.68-20.68-36.17-25.03-52.63-25.03c-37.03,0-67.15,30.08-67.15,67.05c0,36.97,30.13,67.05,67.15,67.05
				c23.94,0,44.53-10.35,53.75-27C579.85,170.28,581.24,162.64,574.08,162.64z"/>
			<path d="M826.34,70.88c-4.83,0-8.74,2.12-8.74,6.94v115.72c0,4.82,3.91,6.32,8.74,6.32c4.83,0,8.74-1.5,8.74-6.32V77.82
				C835.09,73,831.17,70.88,826.34,70.88z"/>
			<path d="M826.34,14c-6.12,0-11.1,4.97-11.1,11.09c0,6.12,4.98,11.09,11.1,11.09c6.12,0,11.1-4.97,11.1-11.09
				C837.45,18.97,832.47,14,826.34,14z"/>
			<path d="M776.86,71.54c-0.17,0-0.51-0.02-0.52-0.02c-0.03,0-8.24,0-10.74,6.24c-2.41,6.05-15.54,47.37-29.44,87.64
				c-0.45,1.31-0.99,2.59-1.49,3.87l-29.89-75.09c-1.33-3.22-3.31-5.64-5.9-7.09c-1.49-0.86-3.15-1.46-5.21-1.46
				c-0.02,0-0.03,0.01-0.05,0.01c-0.02,0-0.03-0.01-0.05-0.01c-2.06,0-3.72,0.6-5.21,1.46c-2.6,1.45-4.57,3.86-5.9,7.09
				l-29.89,75.09c-0.5-1.28-1.04-2.56-1.49-3.87c-14.01-40.6-27.03-81.6-29.44-87.64c-2.49-6.24-11.08-6.23-11.25-6.22
				c-4.4,0.09-6.15,1.24-6.01,4.08c-0.02,0.65,0.03,1.35,0.25,2.18c0.67,2.57,21.58,66.29,38.61,114.65
				c1.11,3.15,3.51,7.63,9.18,7.63c3.76,0,6.55-2.48,7.56-5.03l31.96-81.47c0.31-0.75,0.99-1.12,1.67-1.14
				c0.69,0.02,1.37,0.39,1.67,1.14l31.96,81.47c1.01,2.55,4,5.03,7.56,5.03c5.78,0,8.14-4.45,9.18-7.63
				c15.98-48.57,37.94-112.08,38.61-114.65c0.22-0.83,0.27-1.53,0.25-2.18C783.01,72.78,781.26,71.63,776.86,71.54z"/>
			<path d="M431.46,181.83h-114.6c-1.92,0-3.47-1.55-3.47-3.46v-64.85h100.19c4.66,0,6.71-4.07,6.71-9.09
				c0-5.02-2.05-9.09-6.71-9.09H313.39V37.06c0-2.02,1.64-3.66,3.67-3.66h114.4c4.66,0,6.71-4.07,6.71-9.09
				c0-5.02-2.05-9.09-6.71-9.09H302.24c-5.02,0-8.24,4.76-8.24,12.21c0,0,0.01,162.78,0.01,162.88c0.08,4.83,2.83,9.71,7.36,9.71
				h130.09c4.66,0,6.71-4.07,6.71-9.09C438.17,185.9,436.12,181.83,431.46,181.83z"/>
			<path d="M991.26,14c-4.83,0-8.74,2.12-8.74,6.94v68.4c-9.93-16.23-29.12-21.8-46.02-21.8c-36.99,0-67.08,30.05-67.08,66.98
				c0,36.93,30.09,66.98,67.08,66.98c14.43,0,36.91-7.23,46.02-22.93v14.72c0,0.03,0.02,0.05,0.02,0.08c0,0.17,0.03,0.27,0.06,0.28
				c0.22,4.49,3.98,5.97,8.66,5.97c4.83,0,8.74-1.5,8.74-6.32v-18.35V32.99V20.94C1000,16.12,996.09,14,991.26,14z M936.49,184.06
				c-27.36,0-47.92-22.22-47.92-49.54s20.56-49.54,47.92-49.54c15.86,0,45.79,9.51,46.02,44.91v8
				C982.29,172.72,950.86,184.06,936.49,184.06z"/>
		</g>
	</g>
</g>
</svg>
