<svg xmlns="http://www.w3.org/2000/svg" xmlns:xlink="http://www.w3.org/1999/xlink" viewBox="0 0 127.86 80.95"><defs><style>.cls-1{fill-opacity:0.9;fill:url(#linear-gradient);}.cls-2,.cls-4,.cls-5,.cls-6,.cls-7{fill:#fff;}.cls-2,.cls-3,.cls-4,.cls-5,.cls-6,.cls-7{stroke-miterlimit:10;}.cls-2{stroke:url(#linear-gradient-2);}.cls-3{fill:none;stroke:url(#linear-gradient-3);}.cls-4{stroke:url(#linear-gradient-4);}.cls-5{stroke:url(#linear-gradient-5);}.cls-6{stroke:url(#linear-gradient-6);}.cls-7{stroke:url(#linear-gradient-7);}.cls-8{fill:#0dd7ff;fill-opacity:0.7;}</style><linearGradient id="linear-gradient" y1="35.53" x2="54.72" y2="35.53" gradientUnits="userSpaceOnUse"><stop offset="0" stop-color="#1c79c4"/><stop offset="0.51" stop-color="#0389ff"/><stop offset="1" stop-color="#0dd4ff"/></linearGradient><linearGradient id="linear-gradient-2" x1="17.5" y1="44.53" x2="73.22" y2="44.53" gradientUnits="userSpaceOnUse"><stop offset="0" stop-color="#1c79c4"/><stop offset="0.51" stop-color="#0389ff"/><stop offset="1" stop-color="#0dd7ff"/></linearGradient><linearGradient id="linear-gradient-3" x1="47.85" y1="56.08" x2="96.87" y2="7.06" xlink:href="#linear-gradient-2"/><linearGradient id="linear-gradient-4" x1="61.39" y1="29.54" x2="66.34" y2="24.59" xlink:href="#linear-gradient-2"/><linearGradient id="linear-gradient-5" x1="38.39" y1="51.54" x2="43.34" y2="46.59" xlink:href="#linear-gradient-2"/><linearGradient id="linear-gradient-6" x1="77.39" y1="39.54" x2="82.34" y2="34.59" xlink:href="#linear-gradient-2"/><linearGradient id="linear-gradient-7" x1="101.39" y1="16.54" x2="106.34" y2="11.59" xlink:href="#linear-gradient-2"/></defs><title>advertisers_icon_ROI</title><g id="Layer_2" data-name="Layer 2"><g id="Art"><polygon class="cls-1" points="0 33 0 71.07 54.72 38.07 54.72 0 0 33"/><polygon class="cls-2" points="18 42 18 80.07 72.72 47.07 72.72 9 18 42"/><polyline class="cls-3" points="40.86 49.07 63.86 27.07 79.86 37.07 103.86 14.07"/><circle class="cls-4" cx="63.86" cy="27.07" r="3"/><circle class="cls-5" cx="40.86" cy="49.07" r="3"/><circle class="cls-6" cx="79.86" cy="37.07" r="3"/><circle class="cls-7" cx="103.86" cy="14.07" r="3"/><circle class="cls-8" cx="112.87" cy="23.56" r="1.15"/><circle class="cls-8" cx="117.86" cy="13.22" r="1.15"/><circle class="cls-8" cx="123.2" cy="17.74" r="1.15"/><circle class="cls-8" cx="126.71" cy="11.89" r="1.15"/><circle class="cls-8" cx="126.2" cy="3.22" r="1.15"/></g></g></svg>