<svg xmlns="http://www.w3.org/2000/svg" xmlns:xlink="http://www.w3.org/1999/xlink" viewBox="0 0 112.67 77.34"><defs><style>.cls-1,.cls-2,.cls-9{fill:#fff;}.cls-1,.cls-2,.cls-3,.cls-4,.cls-5,.cls-9{stroke-miterlimit:10;}.cls-1,.cls-9{stroke-width:0.81px;}.cls-1{stroke:url(#linear-gradient);}.cls-2{stroke:url(#linear-gradient-2);}.cls-3,.cls-4,.cls-5,.cls-6,.cls-7,.cls-8{fill:none;stroke-linecap:round;}.cls-3,.cls-4,.cls-5{stroke-width:1.13px;}.cls-3{stroke:url(#linear-gradient-3);}.cls-4{stroke-dasharray:0 3;stroke:url(#linear-gradient-4);}.cls-5{stroke:url(#linear-gradient-5);}.cls-6,.cls-7,.cls-8{stroke-linejoin:round;}.cls-6{stroke:url(#linear-gradient-6);}.cls-7{stroke:url(#linear-gradient-7);}.cls-8{stroke:url(#linear-gradient-8);}.cls-9{stroke:url(#linear-gradient-9);}</style><linearGradient id="linear-gradient" x1="116.67" y1="6.28" x2="120.32" y2="6.28" gradientTransform="matrix(-1, 0, 0, 1, 147.63, 0)" gradientUnits="userSpaceOnUse"><stop offset="0" stop-color="#1c79c4"/><stop offset="0.51" stop-color="#0389ff"/><stop offset="1" stop-color="#0dd7ff"/></linearGradient><linearGradient id="linear-gradient-2" x1="34.97" y1="41.22" x2="91.89" y2="41.22" xlink:href="#linear-gradient"/><linearGradient id="linear-gradient-3" x1="71.45" y1="46.79" x2="0" y2="46.79" gradientTransform="matrix(1, 0, 0, 1, 0, 0)" xlink:href="#linear-gradient"/><linearGradient id="linear-gradient-4" x1="71.45" y1="34.67" x2="0" y2="34.67" gradientTransform="matrix(1, 0, 0, 1, 0, 0)" xlink:href="#linear-gradient"/><linearGradient id="linear-gradient-5" x1="71.45" y1="6.26" x2="0" y2="6.26" gradientTransform="matrix(1, 0, 0, 1, 0, 0)" xlink:href="#linear-gradient"/><linearGradient id="linear-gradient-6" x1="45.76" y1="32.27" x2="84.05" y2="32.27" xlink:href="#linear-gradient"/><linearGradient id="linear-gradient-7" x1="52.51" y1="39.54" x2="83.5" y2="39.54" xlink:href="#linear-gradient"/><linearGradient id="linear-gradient-8" x1="68.64" y1="43.91" x2="83.42" y2="43.91" xlink:href="#linear-gradient"/><linearGradient id="linear-gradient-9" x1="101.48" y1="4.51" x2="120.71" y2="4.51" xlink:href="#linear-gradient"/></defs><title>advertisers_icon_everywhere</title><g id="Layer_2" data-name="Layer 2"><g id="Art"><polyline class="cls-1" points="27.72 4.46 27.72 7.7 30.96 7.7"/><polygon class="cls-2" points="112.17 37.58 112.17 76.48 56.24 44.87 56.24 5.97 112.17 37.58"/><line class="cls-3" x1="70.79" y1="46.79" x2="70.79" y2="46.79"/><path class="cls-4" d="M70.77,49.78a13.76,13.76,0,0,1-5.67,9.07c-3.61,2.51-7.94,3.18-12.15,3.48-5.51.38-11.18.18-16.31-2.17A19.21,19.21,0,0,1,25.75,46.8c-.83-4.14.68-9.57,4.33-10.17,3-.5,5.7,2.77,6.51,6.18,1.5,6.35-1.71,13.49-6.81,16.46S15,61.28,10.26,57.6,2.44,47.82,1.2,41.4a31.16,31.16,0,0,1,0-12.65C3.62,18.1,15.17,10.89,24.42,6.85"/><line class="cls-5" x1="25.8" y1="6.26" x2="25.8" y2="6.26"/><line class="cls-6" x1="101.37" y1="42.81" x2="64.09" y2="21.74"/><line class="cls-7" x1="94.62" y1="48.05" x2="64.63" y2="31.03"/><line class="cls-8" x1="78.5" y1="47.97" x2="64.72" y2="39.86"/><polygon class="cls-9" points="44.74 0.41 27.72 0.41 27.72 4.46 44.74 0.41 27.72 4.46 31.77 8.51 44.74 0.41"/></g></g></svg>