<svg xmlns="http://www.w3.org/2000/svg" xmlns:xlink="http://www.w3.org/1999/xlink" viewBox="0 0 64.13 57.63"><defs><style>.cls-1,.cls-2,.cls-5{fill:#fff;}.cls-1,.cls-2,.cls-4{stroke-miterlimit:10;}.cls-1{stroke:url(#linear-gradient);}.cls-2,.cls-5,.cls-6,.cls-7{fill-opacity:0.7;}.cls-2{stroke:url(#linear-gradient-2);}.cls-3{opacity:0.9;fill:url(#linear-gradient-3);}.cls-4{fill:none;stroke:url(#linear-gradient-4);}.cls-4,.cls-5{stroke-linecap:round;}.cls-5{stroke-linejoin:round;stroke:url(#linear-gradient-5);}.cls-6{fill:#0dd4ff;}.cls-7{fill:url(#linear-gradient-6);}</style><linearGradient id="linear-gradient" x1="0.1" y1="44.98" x2="63.96" y2="44.98" gradientUnits="userSpaceOnUse"><stop offset="0" stop-color="#1c79c4"/><stop offset="0.51" stop-color="#0389ff"/><stop offset="1" stop-color="#0dd4ff"/></linearGradient><linearGradient id="linear-gradient-2" x1="0" y1="36.82" x2="64.13" y2="36.82" xlink:href="#linear-gradient"/><linearGradient id="linear-gradient-3" x1="17.33" y1="44.62" x2="42.34" y2="26.45" gradientUnits="userSpaceOnUse"><stop offset="0" stop-color="#1c79c4"/><stop offset="0.51" stop-color="#0389ff"/><stop offset="1" stop-color="#0dd4ff"/></linearGradient><linearGradient id="linear-gradient-4" x1="46.34" y1="44.05" x2="53.04" y2="44.05" xlink:href="#linear-gradient"/><linearGradient id="linear-gradient-5" x1="23.76" y1="17.55" x2="49.24" y2="17.55" xlink:href="#linear-gradient"/><linearGradient id="linear-gradient-6" x1="32.39" y1="16.1" x2="40.83" y2="18.38" xlink:href="#linear-gradient"/></defs><title>advertisers_icon_intro</title><g id="Layer_2" data-name="Layer 2"><g id="Art"><polyline class="cls-1" points="0.6 32.36 0.87 37.21 41.17 57.07 63.45 45.02 63.23 40.7"/><polygon class="cls-2" points="1.14 32.41 41.92 52.13 63.04 40.51 23.3 21.51 1.14 32.41"/><polygon class="cls-3" points="8.65 32.68 36.56 46.34 51.01 38.38 23.81 25.22 8.65 32.68"/><line class="cls-4" x1="46.84" y1="45.69" x2="52.54" y2="42.41"/><polygon class="cls-5" points="33.61 30.08 48.74 22.96 48.74 0.5 24.26 12.14 24.26 34.6 29.91 31.74 33.61 30.08"/><circle class="cls-6" cx="54.21" cy="23.38" r="0.72"/><circle class="cls-6" cx="57.34" cy="16.9" r="0.72"/><circle class="cls-6" cx="60.69" cy="19.73" r="0.72"/><circle class="cls-6" cx="62.89" cy="16.06" r="0.72"/><circle class="cls-6" cx="62.57" cy="10.62" r="0.72"/><polygon class="cls-7" points="38.73 10.05 38.29 14 40.9 12.12 39 15.6 41.43 16.14 38.8 17.83 40.12 20.58 37.76 19.83 37.47 23.75 36.27 20.84 34.48 24.43 34.92 20.47 32.31 22.36 34.21 18.87 31.78 18.34 34.42 16.65 33.1 13.89 35.46 14.65 35.75 10.73 36.94 13.64 38.73 10.05"/></g></g></svg>