<svg xmlns="http://www.w3.org/2000/svg" xmlns:xlink="http://www.w3.org/1999/xlink" viewBox="0 0 83.86 93.41"><defs><style>.cls-1{fill:#0dd7ff;}.cls-1,.cls-6{opacity:0.7;}.cls-10,.cls-2,.cls-3,.cls-6,.cls-8,.cls-9{fill:#fff;}.cls-10,.cls-2,.cls-3,.cls-5,.cls-7,.cls-8,.cls-9{stroke-miterlimit:10;}.cls-2{stroke:url(#linear-gradient);}.cls-10,.cls-3{fill-opacity:0.7;}.cls-3{stroke:url(#linear-gradient-2);}.cls-4{fill-opacity:0.9;fill:url(#linear-gradient-3);}.cls-5,.cls-7{fill:none;}.cls-10,.cls-5,.cls-8,.cls-9{stroke-linecap:round;}.cls-5{stroke:url(#linear-gradient-4);}.cls-7{stroke:url(#linear-gradient-5);}.cls-8{stroke:url(#linear-gradient-6);}.cls-9{stroke:url(#linear-gradient-7);}.cls-10{stroke:url(#linear-gradient-8);}</style><linearGradient id="linear-gradient" y1="76.82" x2="83.86" y2="76.82" gradientUnits="userSpaceOnUse"><stop offset="0" stop-color="#1c79c4"/><stop offset="0.51" stop-color="#0389ff"/><stop offset="1" stop-color="#0dd4ff"/></linearGradient><linearGradient id="linear-gradient-2" x1="0.07" y1="66.15" x2="83.74" y2="66.15" xlink:href="#linear-gradient"/><linearGradient id="linear-gradient-3" x1="11.12" y1="64.78" x2="66.96" y2="64.78" xlink:href="#linear-gradient"/><linearGradient id="linear-gradient-4" x1="60.96" y1="75.68" x2="69.46" y2="75.68" xlink:href="#linear-gradient"/><linearGradient id="linear-gradient-5" x1="5830.86" y1="21.36" x2="5859.86" y2="21.36" gradientTransform="matrix(-1, 0, 0, 1, 5902, 0)" gradientUnits="userSpaceOnUse"><stop offset="0" stop-color="#1c79c4"/><stop offset="0.51" stop-color="#0389ff"/><stop offset="1" stop-color="#0dd7ff"/></linearGradient><linearGradient id="linear-gradient-6" x1="5835.36" y1="16.86" x2="5855.36" y2="16.86" xlink:href="#linear-gradient-5"/><linearGradient id="linear-gradient-7" x1="5835.36" y1="21.86" x2="5855.36" y2="21.86" xlink:href="#linear-gradient-5"/><linearGradient id="linear-gradient-8" x1="28.24" y1="43.35" x2="56.78" y2="43.35" gradientTransform="matrix(1, 0, 0, 1, 0, 0)" xlink:href="#linear-gradient-5"/></defs><title>advertisers_icon_audience</title><g id="Layer_2" data-name="Layer 2"><g id="Art"><circle class="cls-1" cx="19.25" cy="6.03" r="1.15" transform="translate(6.25 21.46) rotate(-67.28)"/><circle class="cls-1" cx="26.86" cy="14.62" r="1.15" transform="translate(2.99 33.75) rotate(-67.28)"/><circle class="cls-1" cx="20.63" cy="17.8" r="1.15" transform="translate(-3.75 29.96) rotate(-67.28)"/><circle class="cls-1" cx="24.67" cy="23.3" r="1.15" transform="translate(-6.35 37.06) rotate(-67.28)"/><circle class="cls-1" cx="32.86" cy="26.17" r="1.15" transform="translate(-3.97 46.38) rotate(-67.28)"/><polyline class="cls-2" points="0.5 60.27 0.86 66.67 53.99 92.85 83.35 76.95 83.06 71.27"/><polygon class="cls-3" points="1.22 60.33 54.97 86.33 82.64 71.36 30.42 45.97 1.22 60.33"/><polygon class="cls-4" points="11.12 60.69 47.9 78.7 66.96 68.22 31.1 50.86 11.12 60.69"/><line class="cls-5" x1="61.46" y1="77.84" x2="68.96" y2="73.52"/><polygon class="cls-6" points="42.64 0.86 70.64 16.86 70.64 41.86 42.64 25.86 42.64 0.86"/><polygon class="cls-7" points="42.64 0.86 70.64 16.86 70.64 41.86 42.64 25.86 42.64 0.86"/><line class="cls-8" x1="66.14" y1="22.36" x2="47.14" y2="11.36"/><line class="cls-9" x1="66.14" y1="27.36" x2="47.14" y2="16.36"/><path class="cls-10" d="M56.28,47.78,28.74,63.52V38.93L56.28,23.19ZM33.16,44.34,51.85,33.52M33.16,49.26,51.85,38.44M33.16,54.17,43,48.27"/></g></g></svg>