<?xml version="1.0" encoding="UTF-8" standalone="no"?>
<svg
   xmlns:dc="http://purl.org/dc/elements/1.1/"
   xmlns:cc="http://creativecommons.org/ns#"
   xmlns:rdf="http://www.w3.org/1999/02/22-rdf-syntax-ns#"
   xmlns:svg="http://www.w3.org/2000/svg"
   xmlns="http://www.w3.org/2000/svg"
   xmlns:xlink="http://www.w3.org/1999/xlink"
   xmlns:sodipodi="http://sodipodi.sourceforge.net/DTD/sodipodi-0.dtd"
   xmlns:inkscape="http://www.inkscape.org/namespaces/inkscape"
   id="Layer_1"
   data-name="Layer 1"
   viewBox="0 0 80 76.725235"
   version="1.1"
   sodipodi:docname="studies.svg"
   width="80"
   height="76.725235"
   inkscape:version="0.92.2 5c3e80d, 2017-08-06">
  <metadata
     id="metadata43">
    <rdf:RDF>
      <cc:Work
         rdf:about="">
        <dc:format>image/svg+xml</dc:format>
        <dc:type
           rdf:resource="http://purl.org/dc/dcmitype/StillImage" />
        <dc:title>design_icon_whitelist</dc:title>
      </cc:Work>
    </rdf:RDF>
  </metadata>
  <sodipodi:namedview
     pagecolor="#ffffff"
     bordercolor="#666666"
     borderopacity="1"
     objecttolerance="10"
     gridtolerance="10"
     guidetolerance="10"
     inkscape:pageopacity="0"
     inkscape:pageshadow="2"
     inkscape:window-width="1376"
     inkscape:window-height="855"
     id="namedview41"
     showgrid="false"
     fit-margin-top="0"
     fit-margin-left="0"
     fit-margin-right="0"
     fit-margin-bottom="0"
     inkscape:zoom="4.4500587"
     inkscape:cx="45.805979"
     inkscape:cy="55.539236"
     inkscape:window-x="0"
     inkscape:window-y="1"
     inkscape:window-maximized="1"
     inkscape:current-layer="Layer_1" />
  <defs
     id="defs16">
    <style
       id="style2">.cls-1,.cls-2{fill:#fff;fill-opacity:0.9;}.cls-1,.cls-2,.cls-3,.cls-4,.cls-5,.cls-6{stroke-linecap:round;stroke-miterlimit:10;}.cls-1{stroke:url(#linear-gradient);}.cls-2{stroke:url(#linear-gradient-2);}.cls-3,.cls-4,.cls-5,.cls-6{fill:none;}.cls-3{stroke:url(#linear-gradient-3);}.cls-4{stroke:url(#linear-gradient-4);}.cls-5{stroke:url(#linear-gradient-5);}.cls-6{stroke:url(#linear-gradient-6);}.cls-7{fill:#1c79c4;}</style>
    <linearGradient
       id="linear-gradient"
       x1="55"
       y1="81.290001"
       x2="86.220001"
       y2="81.290001"
       gradientUnits="userSpaceOnUse">
      <stop
         offset="0"
         stop-color="#1c79c4"
         id="stop4" />
      <stop
         offset="0.51"
         stop-color="#0389ff"
         id="stop6" />
      <stop
         offset="1"
         stop-color="#0dd7ff"
         id="stop8" />
    </linearGradient>
    <linearGradient
       id="linear-gradient-2"
       x1="61.32"
       y1="66.779999"
       x2="97.449997"
       y2="74.639999"
       xlink:href="#linear-gradient" />
    <linearGradient
       id="linear-gradient-3"
       x1="73.93"
       y1="56.119999"
       x2="88.739998"
       y2="59.34"
       xlink:href="#linear-gradient" />
    <linearGradient
       id="linear-gradient-4"
       x1="73.93"
       y1="62.849998"
       x2="88.739998"
       y2="66.07"
       xlink:href="#linear-gradient" />
    <linearGradient
       id="linear-gradient-5"
       x1="73.93"
       y1="69.580002"
       x2="88.739998"
       y2="72.800003"
       xlink:href="#linear-gradient" />
    <linearGradient
       id="linear-gradient-6"
       x1="73.93"
       y1="76.309998"
       x2="88.739998"
       y2="79.529999"
       xlink:href="#linear-gradient" />
    <linearGradient
       inkscape:collect="always"
       xlink:href="#linear-gradient"
       id="linearGradient45"
       gradientUnits="userSpaceOnUse"
       x1="55"
       y1="81.290001"
       x2="86.220001"
       y2="81.290001" />
  </defs>
  <title
     id="title18">design_icon_whitelist</title>
  <polygon
     class="cls-1"
     points="55.5,113.5 55.5,66.39 85.72,49.08 85.72,96.19 "
     id="polygon20"
     style="fill:#ffffff;fill-opacity:0.9;stroke:url(#linearGradient45);stroke-linecap:round;stroke-miterlimit:10"
     transform="translate(-35,-37.637384)" />
  <polygon
     class="cls-2"
     points="64.28,102.92 64.28,55.81 94.5,38.5 94.5,85.61 "
     id="polygon22"
     style="fill:#ffffff;fill-opacity:0.9;stroke:url(#linear-gradient-2);stroke-linecap:round;stroke-miterlimit:10"
     transform="translate(-35,-37.637384)" />
  <line
     class="cls-3"
     x1="38.050003"
     y1="24.902617"
     x2="54.629997"
     y2="15.282614"
     id="line24"
     style="fill:none;stroke:url(#linear-gradient-3);stroke-linecap:round;stroke-miterlimit:10" />
  <line
     class="cls-4"
     x1="38.050003"
     y1="31.632612"
     x2="54.629997"
     y2="22.012617"
     id="line26"
     style="fill:none;stroke:url(#linear-gradient-4);stroke-linecap:round;stroke-miterlimit:10" />
  <line
     class="cls-5"
     x1="38.050003"
     y1="38.362617"
     x2="54.629997"
     y2="28.742613"
     id="line28"
     style="fill:none;stroke:url(#linear-gradient-5);stroke-linecap:round;stroke-miterlimit:10" />
  <line
     class="cls-6"
     x1="38.050003"
     y1="45.092621"
     x2="54.629997"
     y2="35.48262"
     id="line30"
     style="fill:none;stroke:url(#linear-gradient-6);stroke-linecap:round;stroke-miterlimit:10" />
  <path
     class="cls-7"
     d="m 32.46,26.742616 a 3.17,3.17 0 0 1 1.45,-2.38 c 0.8,-0.47 1.45,-0.15 1.45,0.71 a 3.17,3.17 0 0 1 -1.45,2.43 c -0.8,0.43 -1.45,0.1 -1.45,-0.76 z"
     id="path32"
     inkscape:connector-curvature="0"
     style="fill:#1c79c4" />
  <path
     class="cls-7"
     d="m 32.46,33.472616 a 3.17,3.17 0 0 1 1.45,-2.43 c 0.8,-0.47 1.45,-0.15 1.45,0.71 a 3.17,3.17 0 0 1 -1.45,2.43 c -0.8,0.48 -1.45,0.18 -1.45,-0.71 z"
     id="path34"
     inkscape:connector-curvature="0"
     style="fill:#1c79c4" />
  <path
     class="cls-7"
     d="m 32.46,40.202616 a 3.17,3.17 0 0 1 1.45,-2.43 c 0.8,-0.47 1.45,-0.15 1.45,0.71 a 3.17,3.17 0 0 1 -1.45,2.43 c -0.8,0.45 -1.45,0.16 -1.45,-0.71 z"
     id="path36"
     inkscape:connector-curvature="0"
     style="fill:#1c79c4" />
  <path
     class="cls-7"
     d="m 32.46,46.932616 a 3.17,3.17 0 0 1 1.45,-2.43 c 0.8,-0.47 1.45,-0.15 1.45,0.71 a 3.17,3.17 0 0 1 -1.45,2.43 c -0.8,0.48 -1.45,0.16 -1.45,-0.71 z"
     id="path38"
     inkscape:connector-curvature="0"
     style="fill:#1c79c4" />
</svg>
