<svg xmlns="http://www.w3.org/2000/svg" xmlns:xlink="http://www.w3.org/1999/xlink" width="104.68" height="95.73" viewBox="0 0 104.68 95.73">
  <defs>
    <linearGradient id="linear-gradient" x1="12.67" y1="45.79" x2="62.45" y2="9.62" gradientUnits="userSpaceOnUse">
      <stop offset="0" stop-color="#1c79c4"/>
      <stop offset="0.51" stop-color="#0389ff"/>
      <stop offset="1" stop-color="#0dd4ff"/>
    </linearGradient>
    <linearGradient id="linear-gradient-2" x1="11.92" y1="71.73" x2="50.47" y2="33.18" xlink:href="#linear-gradient"/>
    <linearGradient id="linear-gradient-3" x1="30.8" y1="66.75" x2="88.64" y2="8.91" gradientUnits="userSpaceOnUse">
      <stop offset="0" stop-color="#1c79c4"/>
      <stop offset="0.51" stop-color="#0389ff"/>
      <stop offset="1" stop-color="#0dd4ff"/>
    </linearGradient>
    <linearGradient id="linear-gradient-4" x1="37.58" y1="70.69" x2="84.92" y2="23.35" xlink:href="#linear-gradient"/>
    <linearGradient id="linear-gradient-5" x1="31.02" y1="90.85" x2="65.88" y2="65.53" xlink:href="#linear-gradient"/>
    <linearGradient id="linear-gradient-6" x1="50.27" y1="45.92" x2="69.44" y2="26.75" xlink:href="#linear-gradient"/>
    <linearGradient id="linear-gradient-7" x1="53.53" y1="60.82" x2="72.7" y2="41.65" xlink:href="#linear-gradient"/>
    <linearGradient id="linear-gradient-8" x1="59.9" y1="43.06" x2="72.13" y2="30.84" xlink:href="#linear-gradient"/>
    <linearGradient id="linear-gradient-9" x1="60.6" y1="50.74" x2="72.83" y2="38.52" xlink:href="#linear-gradient"/>
    <linearGradient id="linear-gradient-10" x1="66.39" y1="42.79" x2="74.96" y2="34.22" xlink:href="#linear-gradient"/>
  </defs>
  <title>Asset 18</title>
  <g id="Layer_2" data-name="Layer 2">
    <g id="Art">
      <polygon points="54.24 35.69 20.18 54.55 20.89 19.72 54.95 0.86 54.24 35.69" style="fill: #fff;fill-opacity: 0.7000000000000001;stroke-miterlimit: 10;stroke: url(#linear-gradient)"/>
      <polygon points="47.87 53.37 13.81 72.23 14.52 51.55 48.58 32.69 47.87 53.37" style="fill: #fff;fill-opacity: 0.7000000000000001;stroke-miterlimit: 10;stroke: url(#linear-gradient-2)"/>
      <polygon points="84.53 43.87 34.91 70.87 34.91 31.79 84.53 4.8 84.53 43.87" style="fill-opacity: 0.9;fill: url(#linear-gradient-3)"/>
      <polygon points="78.28 57.13 44.22 75.99 44.22 36.91 78.28 18.05 78.28 57.13" style="fill: #fff;fill-opacity: 0.7000000000000001;stroke-miterlimit: 10;stroke: url(#linear-gradient-4)"/>
      <polygon points="61.83 80.05 35.07 94.89 35.07 76.33 61.83 61.49 61.83 80.05" style="fill: #fff;fill-opacity: 0.7000000000000001;stroke-miterlimit: 10;stroke: url(#linear-gradient-5)"/>
      <line x1="47.64" y1="43.1" x2="72.07" y2="29.57" style="fill: #fff;stroke-miterlimit: 10;stroke: url(#linear-gradient-6)"/>
      <line x1="50.9" y1="58" x2="75.33" y2="44.47" style="fill: #fff;stroke-miterlimit: 10;stroke: url(#linear-gradient-7)"/>
      <line x1="58.33" y1="41.3" x2="73.7" y2="32.6" style="fill: #fff;stroke-miterlimit: 10;stroke: url(#linear-gradient-8)"/>
      <line x1="59.03" y1="48.99" x2="74.4" y2="40.28" style="fill: #fff;stroke-miterlimit: 10;stroke: url(#linear-gradient-9)"/>
      <line x1="65.32" y1="41.53" x2="76.03" y2="35.48" style="fill: #fff;stroke-miterlimit: 10;stroke: url(#linear-gradient-10)"/>
      <g>
        <circle cx="89.49" cy="47.75" r="1.08" style="fill: #0dd4ff;opacity: 0.7000000000000001"/>
        <circle cx="97.87" cy="45.58" r="1.08" style="fill: #0dd4ff;opacity: 0.7000000000000001"/>
        <circle cx="96" cy="53.03" r="1.08" style="fill: #0dd4ff;opacity: 0.7000000000000001"/>
        <circle cx="103.61" cy="30.84" r="1.08" style="fill: #0dd4ff;opacity: 0.7000000000000001"/>
        <circle cx="94" cy="37.97" r="1.08" style="fill: #0dd4ff;opacity: 0.7000000000000001"/>
      </g>
      <g>
        <circle cx="1.08" cy="51" r="1.08" style="fill: #0dd4ff;opacity: 0.7000000000000001"/>
        <circle cx="5.72" cy="41.38" r="1.08" style="fill: #0dd4ff;opacity: 0.7000000000000001"/>
        <circle cx="10.68" cy="45.58" r="1.08" style="fill: #0dd4ff;opacity: 0.7000000000000001"/>
        <circle cx="13.95" cy="40.14" r="1.08" style="fill: #0dd4ff;opacity: 0.7000000000000001"/>
        <circle cx="13.47" cy="32.07" r="1.08" style="fill: #0dd4ff;opacity: 0.7000000000000001"/>
      </g>
    </g>
  </g>
</svg>
