<?xml version="1.0" encoding="utf-8"?>
<!-- Generator: Adobe Illustrator 18.0.0, SVG Export Plug-In . SVG Version: 6.00 Build 0)  -->
<!DOCTYPE svg PUBLIC "-//W3C//DTD SVG 1.1//EN" "http://www.w3.org/Graphics/SVG/1.1/DTD/svg11.dtd">
<svg version="1.1" id="Layer_1" xmlns:sketch="http://www.bohemiancoding.com/sketch/ns"
     xmlns="http://www.w3.org/2000/svg" xmlns:xlink="http://www.w3.org/1999/xlink" x="0px" y="0px" viewBox="0 0 612 792"
     enable-background="new 0 0 612 792" xml:space="preserve">
<path d="M280.7,461.6H173.8c-4.5,0-7.5-4.7-5.5-8.8L344.7,90.9c-12.9-1.6-26-2.5-39.4-2.5C137.9,88.5,0.2,225.2-1,392.6
    c-1.1,146.7,101,269.8,238,301.1L280.7,461.6z"/>
<path d="M378.5,97.2l-44.3,235.6h106.9c4.5,0,7.5,4.8,5.5,8.8l-174.5,358c11,1.2,22.1,1.8,33.4,1.8c169.3,0,306.5-137.2,306.5-306.5
    C612,250.8,512.5,129.9,378.5,97.2"/>
</svg>