<?xml version="1.0" encoding="utf-8"?>
<!-- Generator: Adobe Illustrator 18.0.0, SVG Export Plug-In . SVG Version: 6.00 Build 0)  -->
<!DOCTYPE svg PUBLIC "-//W3C//DTD SVG 1.1//EN" "http://www.w3.org/Graphics/SVG/1.1/DTD/svg11.dtd">
<svg version="1.1" id="Layer_1" xmlns:sketch="http://www.bohemiancoding.com/sketch/ns"
	 xmlns="http://www.w3.org/2000/svg" xmlns:xlink="http://www.w3.org/1999/xlink" x="0px" y="0px" viewBox="0 0 40 40"
	 enable-background="new 0 0 40 40" xml:space="preserve">
<title>Logo</title>
<desc>Created with Sketch.</desc>
<g id="logo_1_" sketch:type="MSPage">
	<g id="logo-fill" transform="translate(-136.000000, -22.000000)" sketch:type="MSArtboardGroup">
		<g transform="translate(136.000000, 22.000000)" sketch:type="MSLayerGroup">
			<g id="logo" sketch:type="MSShapeGroup">
				<path fill="#0379C4" d="M26.6,1.1l-3.9,15.4h3.6c1,0,1.4,0.8,0.8,1.8L14.3,39.2C16.1,39.7,18,40,20,40c11,0,20-9,20-20
					C40,11.3,34.4,3.8,26.6,1.1z M17.3,23.4h-3.6c-1,0-1.4-0.8-0.8-1.8L25.7,0.8C23.9,0.3,22,0,20,0C9,0,0,9,0,20
					c0,8.7,5.6,16.2,13.4,18.9L17.3,23.4z"/>
			</g>
		</g>
	</g>
</g>
</svg>
