<svg width="134" height="54" xmlns="http://www.w3.org/2000/svg" xmlns:svg="http://www.w3.org/2000/svg">
 <g>
   <path d="m26.91,25.15c-0.26,-6 -5,-8.6 -9.6,-8.6c-5,0 -9.3,2.6 -10,8.6l20,0l0,0l0,0l-0.4,0zm-20,4.4c0.4,6 4.5,10 10.4,9.7c4,0 7.5,-1.6 8.7,-5.2l7,0c-1.3,7.2 -8.9,9.6 -15.5,9.6c-12,0 -17.2,-6.6 -17.2,-15.4c0,-9.7 5.5,-16 17.3,-16c9.4,0 16.3,5 16.3,15.7l0,1.8l-27,0l0,0" fill="#E43137" />
   <path d="m51,39.05c6,0 10.4,-4.5 10.4,-11.2c0,-6.7 -4.2,-11 -10.4,-11.2c-6,0 -11,4.5 -10.5,11.2c0,7 4,11 11,11.2l-0.5,0zm-17,-38.7l6.7,0l0,16.8c3,-4 8,-5 12.2,-5c7,0 16,5 15.7,15.9c0,9 -6.6,15.7 -15.8,15.7c-5,0 -9,-2 -12.2,-5.2c0,1.4 -0.1,2.8 -0.2,4l-6.6,0" fill="#0063D1" />
   <path d="m84.5,28.75c-6,0 -10,1 -9.8,5.3c0,3 2,5 7.3,5.4c7,0 11,-4 11,-10l0,-0.7c-2,0 0,0 -8,0l-0.5,0zm15,8.3c0,0 0,4 0.2,5.6l-6.2,0c0,0 0,0 -0.2,-4.2c-3,4 -7,5 -13,5.3c-8,0 -13,-4 -12.6,-9.4c0,-7 6,-10 16.4,-10c3,0 0,0 8.7,0l0,-1c0,-5 -3,-7 -8.5,-6.8c-4,0 -7,2 -7.3,4.5l-7,0c1,-7 8,-9 15,-9c8,0 15,3 14.6,11" fill="#F4AE01" />
   <path d="m133.5,13.25l-20.6,40.5l-7.5,0l6,-11.3l-15.5,-29.3l7.8,0l11.4,23l11.4,-23" fill="#85B716" />
 </g>
</svg>