<svg id="Layer_1" data-name="Layer 1" xmlns="http://www.w3.org/2000/svg" viewBox="0 0 1183.13 592.83"><defs><style>.cls-1{fill:#231f20;}</style></defs><title>logo-cursive</title><path class="cls-1" d="M444.18,482.44c1.37,3.68,3.66,11.95,14.69,5.56,5.62-3.25,11.38-6.73,15.07-9.13,4.55-3,6-6.62,2.73-12.53-2.32-4.22-5.25-7.65-8.29-11.4-3.53-4.35-6.5-3.46-11.94-.61a96.44,96.44,0,0,0-12.83,8.17C440,465.31,439.37,469.52,444.18,482.44Z" transform="translate(-56.43 -135.58)"/><path class="cls-1" d="M472.11,174.05c-52.26-3.73-112.65,15.13-142.93,31.65-78,42.81-93.45,104.29-82.42,145.64,7.28,27.09,26,45.8,47.58,48,7.13.85,12.4-2.24,11.17-4.41-1.47-3.09-2.29,1.46-12.63-1.58-14-3.76-23.63-16.57-27.92-33.07-11.76-43.6,21.1-99.16,73.53-135.22,48.33-33,96.35-45,132.63-44.28,4.89,0,7.26,1.44,8,3.77.29,1.47-2,3-5.87,6.66-10.24,9.89-28,24.87-45.1,45.11-33.85,39.06-62.85,81.12-76.52,106.7-25,46.57-55.16,109.67-83,178.71-50.44,23.3-90.42,44.39-123.62,65.33-62.52,39.13-95.8,78.21-87.25,109.7,7.24,27.11,33.65,31.6,46.61,31.6,18.42,0,38.95-7.49,59.44-20.39,42.47-27.09,86.06-78,117.48-131.4,12.31-20.27,24.31-46.49,31.69-62.32,10.2-5.3,20-11.25,35.07-21.81,8.07-5.3,28.87-22.5,38.75-33.74,10.11-10.54,20.34-23.33,28.92-34.65,5-6.7,7.79-11.19,5.19-13.46s-5,1.47-9.05,6.76A345.13,345.13,0,0,1,385.44,449c-13.86,14.26-26.6,25.54-36.85,33a173,173,0,0,1-31.48,19.53C329.9,473,365.46,397.09,393.7,340c18.66-37.41,36.26-69.06,57.6-101.28,10.62-15.84,22.66-32.43,30-40.67,4.66-5.12,9-9.67,8.86-12.72C489.81,176.32,478.51,174.8,472.11,174.05ZM245.49,580.46c-25.85,53.95-52.11,98.39-86.94,120.82-15.82,9.79-35.62,17.34-53.29,15.07-11.1-.76-22.75-6-27.48-18.74C67.49,669.8,91,633.07,147.86,595.47c27.82-18,78.66-45,117.69-62.34C259.86,547.38,251,568.38,245.49,580.46Z" transform="translate(-56.43 -135.58)"/><path class="cls-1" d="M1239,419.1c-.83-1.09-1.91-.92-3.13,1.42-4.94,9.46-9.57,17.2-14,22.66-7,8.55-13.47,12.29-18.76,11.35-6.91-1.23-10.5-13.18-10.92-27.76,4-7.34,6.29-11,14-26.86,9.56-20.3,14.35-34.7,14.23-43.89-.1-7.88-3-11.68-9.75-13-14.4-2.79-28.08,19.8-30.75,48.63-2,21.1-.71,31.54,1.13,41.46a114.57,114.57,0,0,1-27.7,34c-13,11.15-23.17,16.66-30.5,16.66q-22.26,0,5.77-64.25c11.73-27.05,16.26-41.45,19.31-53.33,1.36-5.3,6-22.54-7.55-19.71s-15.5,12.92-25.31,40.6c-4.37,12.34-9.42,29.33-10.76,31.77q-18.71,34-39.09,52.06c-9.37,8.55-16.64,12.86-21.39,12.86-4.16,0-6.22-3.22-6.22-9.54,0-9.8,5.67-28,16.74-54.71,11.65-27.56,17.6-47.36,17.6-59.13s-6.39-17.58-19.12-17.58c-9.52,0-18.11,5.27-26.06,15.79-4.06,5.31-9,14-15,26h0s-3.93,7.63-4.78,9.43C995.66,415.76,985.2,433.41,975.8,447a158.8,158.8,0,0,1-15.24,17.62c-13.74,13.69-26.44,20.91-38.17,21.5-11.59.33-17.47-8.14-17.47-25.2a115.45,115.45,0,0,1,4.27-29.54,25,25,0,0,0,15.09,4.78c15,0,29-7.54,42-22.41,11.76-13.65,17.6-28.37,17.6-44.32,0-17.08-7.93-25.69-23.82-25.69-14.94,0-29.12,7.43-42.81,21.87-6.38,6.73-17.92,23.43-21.72,30.46-22.1,41-35.62,61.75-50.26,74.78-10.19,8.55-17.27,12.86-21.4,12.86s-6.25-3.22-6.25-9.54c0-10.7,5.45-29,16.24-54.71,12.39-28.91,18.58-48.55,18.58-59.13,0-10.36-4.87-17.16-22.67-15.53-8.47.77-17.46,5.14-22.5,4.76a46.53,46.53,0,0,0,3-13.86c.91-13-4.5-17.89-11.53-17.39-11.29.8-16,6.33-14.29,17.58,2,13.13,9,17.52,14.7,20.22-1.93,5.06-11.2,24.19-17.89,36.76-13.57,25.52-30.91,49.47-51,68.68-20.8,19.9-48.14,39.05-88.32,39.05-34.19,0-63.34-17.34-75-60.84-13.14-48.86,5.41-117.12,43.54-168.22,30,20.28,72.89,30,111,30C773.47,301.55,839,279,834,232.45c-4.81-45.82-52.09-59.37-94.2-56.25a144.62,144.62,0,0,0-34.39,6.66c-26.24-29.21-63.84-47.27-96.57-47.27-36.77,0-62.16,27.77-50.92,69.82,4.72,17.29,16.67,33.81,29.8,47.33-44.48,45.13-82.63,116.47-63,182.5,17,55.61,62.62,78.15,118.68,75.82,39.66-2.19,68.07-20.3,91.49-42.84C755,448.9,772,422.9,781.12,406.34a463.45,463.45,0,0,0,23.7-49.21c10-1.42,15.6-5.43,24.3-5.75,4.21-.15,6.22,2.79,6.22,7.61,0,6-3.82,16.35-11.47,30.92-2.5,5.43-5.3,10.81-8.09,16.29-2.91,5.28-5.63,10.8-8.57,16-9.19,19.42-13.76,35-13.76,46.73,0,14.93,6.6,22.33,20,22.33,15.91,0,31-8.31,45.23-25.21,7.35-8.9,16.43-22.81,27.3-41.61a105.5,105.5,0,0,0-2.58,23.08c0,30.75,12.58,46.21,37.63,46.21,13.73,0,28.23-8.25,43.82-24.8a189.63,189.63,0,0,0,26.11-33.32A327.64,327.64,0,0,0,1011.73,397c.86-1.68,1.72-3.37,2.59-5.1,12.66-25.09,22.57-37.75,29.49-37.75,3.56,0,5.28,2.95,5.28,8.68,0,14.25-6.4,34.22-19.08,60-9.78,20.53-14.7,37-14.7,49,0,13.07,6.1,19.48,18.46,19.48,21.32,0,43.23-17.52,65.82-52.81-3.85,12.08-5.76,21.83-5.76,29.52,0,15.56,6.44,23.3,19.43,23.3q38.17,0,70.14-50.43a31.7,31.7,0,0,0,6.33,13.28c3.42,4.11,8,6.78,13,6.78,7.43,0,15-4.67,22.09-14.11,4.94-6.55,8.71-14.09,14.06-24C1239.83,421.17,1239.7,420,1239,419.1Zm-325.88-.7c.85-2.14,1.7-4.47,2.66-7a169.59,169.59,0,0,1,21.85-40.48c10.81-15.35,20.33-22.59,28.63-22,6,.29,9,5.5,9,15.29a35.21,35.21,0,0,1-1.89,11.92c-5.37,14-12.53,25.91-21.38,35.66-10.27,11.1-20.22,16.64-30,16.64a20.65,20.65,0,0,1-10.93-2.85C911.63,423.15,912.41,420.65,913.13,418.4ZM701.23,192.65c8.62,9,20.65,26.28,27.5,41.2,4.74,10.56,5.18,14.33,6.64,15.12,2.35.76,1.67-6.83-3-18.83-5-13.44-14.35-30.69-22.6-41.25,7.17-3.71,23.9-7.52,34.07-7.52,36-.83,62,15,64.54,49.64,2.33,36.62-37.75,63-87.53,63-36.9,0-77.2-8.14-106.4-27.66C636,237,669.1,207.63,701.23,192.65Zm-134.14,13.5c-10.09-37.56,9.63-60.77,38.9-60.77,28.69,0,61.4,14.92,89.35,40.55-35.08,11.94-73.68,35.31-103.33,62.3C579.68,235.5,570.89,220.42,567.08,206.15ZM804.15,334.32c-.25,7.32-.84,9.67-1.87,12.21-1.84-2.46-3.32-7.56-3.77-14.66-.43-6.82,1-8.94,2-9C803.17,322.78,804.34,328.72,804.15,334.32Zm390.63,52.41c4.4-18.19,11.26-31.51,16.19-29.56,3,1.17,2.94,3.73.73,11.54-1.32,4.66-3.23,9.87-4.71,13.65a239,239,0,0,1-15.79,33.46A122.83,122.83,0,0,1,1194.78,386.73Z" transform="translate(-56.43 -135.58)"/></svg>