<svg id="Layer_1" data-name="Layer 1" xmlns="http://www.w3.org/2000/svg" xmlns:xlink="http://www.w3.org/1999/xlink" viewBox="0 0 150 150"><defs><style>.cls-1,.cls-2{fill:#fff;fill-opacity:0.9;}.cls-1,.cls-2,.cls-3,.cls-4,.cls-5,.cls-6{stroke-linecap:round;stroke-miterlimit:10;}.cls-1{stroke:url(#linear-gradient);}.cls-2{stroke:url(#linear-gradient-2);}.cls-3,.cls-4,.cls-5,.cls-6{fill:none;}.cls-3{stroke:url(#linear-gradient-3);}.cls-4{stroke:url(#linear-gradient-4);}.cls-5{stroke:url(#linear-gradient-5);}.cls-6{stroke:url(#linear-gradient-6);}.cls-7{fill:#1c79c4;}</style><linearGradient id="linear-gradient" x1="55" y1="81.29" x2="86.22" y2="81.29" gradientUnits="userSpaceOnUse"><stop offset="0" stop-color="#1c79c4"/><stop offset="0.51" stop-color="#0389ff"/><stop offset="1" stop-color="#0dd7ff"/></linearGradient><linearGradient id="linear-gradient-2" x1="61.32" y1="66.78" x2="97.45" y2="74.64" xlink:href="#linear-gradient"/><linearGradient id="linear-gradient-3" x1="73.93" y1="56.12" x2="88.74" y2="59.34" xlink:href="#linear-gradient"/><linearGradient id="linear-gradient-4" x1="73.93" y1="62.85" x2="88.74" y2="66.07" xlink:href="#linear-gradient"/><linearGradient id="linear-gradient-5" x1="73.93" y1="69.58" x2="88.74" y2="72.8" xlink:href="#linear-gradient"/><linearGradient id="linear-gradient-6" x1="73.93" y1="76.31" x2="88.74" y2="79.53" xlink:href="#linear-gradient"/></defs><title>design_icon_whitelist</title><polygon class="cls-1" points="85.72 96.19 55.5 113.5 55.5 66.39 85.72 49.08 85.72 96.19"/><polygon class="cls-2" points="94.5 85.61 64.28 102.92 64.28 55.81 94.5 38.5 94.5 85.61"/><line class="cls-3" x1="73.05" y1="62.54" x2="89.63" y2="52.92"/><line class="cls-4" x1="73.05" y1="69.27" x2="89.63" y2="59.65"/><line class="cls-5" x1="73.05" y1="76" x2="89.63" y2="66.38"/><line class="cls-6" x1="73.05" y1="82.73" x2="89.63" y2="73.12"/><path class="cls-7" d="M67.46,64.38A3.17,3.17,0,0,1,68.91,62c.8-.47,1.45-.15,1.45.71a3.17,3.17,0,0,1-1.45,2.43C68.11,65.57,67.46,65.24,67.46,64.38Z"/><path class="cls-7" d="M67.46,71.11a3.17,3.17,0,0,1,1.45-2.43c.8-.47,1.45-.15,1.45.71a3.17,3.17,0,0,1-1.45,2.43C68.11,72.3,67.46,72,67.46,71.11Z"/><path class="cls-7" d="M67.46,77.84a3.17,3.17,0,0,1,1.45-2.43c.8-.47,1.45-.15,1.45.71a3.17,3.17,0,0,1-1.45,2.43C68.11,79,67.46,78.71,67.46,77.84Z"/><path class="cls-7" d="M67.46,84.57a3.17,3.17,0,0,1,1.45-2.43c.8-.47,1.45-.15,1.45.71a3.17,3.17,0,0,1-1.45,2.43C68.11,85.76,67.46,85.44,67.46,84.57Z"/></svg>