<svg id="Layer_1" data-name="Layer 1" xmlns="http://www.w3.org/2000/svg" xmlns:xlink="http://www.w3.org/1999/xlink" viewBox="0 0 150 150"><defs><style>.cls-1,.cls-2,.cls-5,.cls-6{fill:none;}.cls-1,.cls-2,.cls-3,.cls-4,.cls-5,.cls-6,.cls-7{stroke-miterlimit:10;}.cls-1,.cls-2{stroke-width:4.98px;opacity:0.8;}.cls-1{stroke:url(#linear-gradient);}.cls-2{stroke:url(#linear-gradient-2);}.cls-3,.cls-4,.cls-7{fill:#fff;}.cls-3,.cls-4{fill-opacity:0.7;}.cls-3{stroke:url(#linear-gradient-3);}.cls-4{stroke:url(#linear-gradient-4);}.cls-5{stroke-width:0.91px;stroke:url(#linear-gradient-5);}.cls-6{stroke-linecap:round;stroke:url(#linear-gradient-6);}.cls-7{stroke:url(#linear-gradient-7);}</style><linearGradient id="linear-gradient" x1="-11483.94" y1="1636.65" x2="-11449.41" y2="1636.65" gradientTransform="translate(-10945.82 3709.48) rotate(169.95)" gradientUnits="userSpaceOnUse"><stop offset="0" stop-color="#0389ff"/><stop offset="0.5" stop-color="#0dd7ff"/><stop offset="1" stop-color="#fff"/></linearGradient><linearGradient id="linear-gradient-2" x1="-11495.54" y1="1647.14" x2="-11437.04" y2="1647.14" xlink:href="#linear-gradient"/><linearGradient id="linear-gradient-3" x1="67" y1="73.4" x2="97.77" y2="73.4" gradientUnits="userSpaceOnUse"><stop offset="0" stop-color="#1c79c4"/><stop offset="0.51" stop-color="#0389ff"/><stop offset="1" stop-color="#0dd7ff"/></linearGradient><linearGradient id="linear-gradient-4" x1="70.82" y1="74.59" x2="97.77" y2="74.59" xlink:href="#linear-gradient-3"/><linearGradient id="linear-gradient-5" x1="74.54" y1="72.96" x2="93.94" y2="72.96" xlink:href="#linear-gradient-3"/><linearGradient id="linear-gradient-6" x1="82.61" y1="96.73" x2="88.02" y2="96.73" xlink:href="#linear-gradient-3"/><linearGradient id="linear-gradient-7" x1="79.31" y1="73.32" x2="89.29" y2="73.32" xlink:href="#linear-gradient-3"/></defs><title>design_icon_fast</title><line class="cls-1" x1="43.81" y1="104.56" x2="74.24" y2="87.66"/><line class="cls-2" x1="30.5" y1="100.35" x2="83.14" y2="71.35"/><polyline class="cls-3" points="97.5 41.26 93.85 38.97 67.93 52.76 67.5 105.5 71.15 107.99"/><polygon class="cls-4" points="71.45 54.83 97.28 41.51 97.28 94.15 71.32 107.67 71.45 54.83"/><polygon class="cls-5" points="75.44 58.73 93.49 49.25 93.31 87.19 75 96.67 75.44 58.73"/><line class="cls-6" x1="83.11" y1="97.89" x2="87.52" y2="95.58"/><polygon class="cls-7" points="88.42 71.69 85.3 71.69 85.68 65.55 80.18 74.95 83.31 74.95 82.93 81.08 88.42 71.69"/></svg>