<svg id="Layer_1" data-name="Layer 1" xmlns="http://www.w3.org/2000/svg" xmlns:xlink="http://www.w3.org/1999/xlink" viewBox="0 0 150 150"><defs><style>.cls-1,.cls-3{fill:#fff;stroke-miterlimit:10;}.cls-1,.cls-2,.cls-3{fill-opacity:0.8;}.cls-1{stroke:url(#linear-gradient);}.cls-2{fill:url(#linear-gradient-2);}.cls-3{stroke:url(#linear-gradient-3);}.cls-4{fill:#0dd7ff;opacity:0.7;}</style><linearGradient id="linear-gradient" x1="45.97" y1="92.08" x2="89.99" y2="92.08" gradientUnits="userSpaceOnUse"><stop offset="0" stop-color="#1c79c4"/><stop offset="0.51" stop-color="#0389ff"/><stop offset="1" stop-color="#0dd7ff"/></linearGradient><linearGradient id="linear-gradient-2" x1="47" y1="85.12" x2="89" y2="85.12" xlink:href="#linear-gradient"/><linearGradient id="linear-gradient-3" x1="45.97" y1="77.17" x2="89.99" y2="77.17" xlink:href="#linear-gradient"/></defs><title>design_icon_layers</title><polygon class="cls-1" points="47 92.08 68 80.15 89 92.08 69 104 47 92.08"/><polygon class="cls-2" points="47 85.12 68 73.2 89 85.12 69 97.05 47 85.12"/><polygon class="cls-3" points="47 77.17 68 65.25 89 77.17 69 89.1 47 77.17"/><ellipse class="cls-4" cx="73.02" cy="76.06" rx="1.43" ry="1.44" transform="translate(-11.07 139.67) rotate(-83.27)"/><ellipse class="cls-4" cx="80.69" cy="64.09" rx="1.43" ry="1.44" transform="translate(7.59 136.72) rotate(-83.27)"/><ellipse class="cls-4" cx="86.63" cy="70.41" rx="1.43" ry="1.44" transform="translate(6.55 148.2) rotate(-83.27)"/><ellipse class="cls-4" cx="91.82" cy="63.74" rx="1.43" ry="1.44" transform="translate(17.76 147.46) rotate(-83.27)"/><ellipse class="cls-4" cx="92.44" cy="53.02" rx="1.43" ry="1.44" transform="translate(28.96 138.61) rotate(-83.27)"/></svg>