<svg id="Layer_1" data-name="Layer 1" xmlns="http://www.w3.org/2000/svg" xmlns:xlink="http://www.w3.org/1999/xlink" viewBox="0 0 150 150"><defs><style>.cls-1,.cls-2,.cls-3{fill:#fff;fill-opacity:0.8;}.cls-1,.cls-2,.cls-3,.cls-4,.cls-6{stroke-miterlimit:10;}.cls-1{stroke:url(#linear-gradient);}.cls-2{stroke:url(#linear-gradient-2);}.cls-3{stroke:url(#linear-gradient-3);}.cls-4,.cls-6{fill:none;}.cls-4{stroke:url(#linear-gradient-4);}.cls-5{fill:url(#linear-gradient-5);}.cls-6{stroke:url(#linear-gradient-6);}.cls-7{fill:url(#linear-gradient-7);}.cls-8{fill:#0dd7ff;opacity:0.7;}</style><linearGradient id="linear-gradient" x1="54.5" y1="92.11" x2="82.17" y2="92.11" gradientUnits="userSpaceOnUse"><stop offset="0" stop-color="#1c79c4"/><stop offset="0.51" stop-color="#0389ff"/><stop offset="1" stop-color="#0dd7ff"/></linearGradient><linearGradient id="linear-gradient-2" x1="57.83" y1="76.51" x2="85.5" y2="76.51" xlink:href="#linear-gradient"/><linearGradient id="linear-gradient-3" x1="67.83" y1="78.97" x2="95.5" y2="78.97" xlink:href="#linear-gradient"/><linearGradient id="linear-gradient-4" x1="90.83" y1="74.87" x2="90.83" y2="54.12" xlink:href="#linear-gradient"/><linearGradient id="linear-gradient-5" x1="90.83" y1="74.87" x2="90.83" y2="54.12" xlink:href="#linear-gradient"/><linearGradient id="linear-gradient-6" x1="63.33" y1="96.63" x2="63.33" y2="113.5" xlink:href="#linear-gradient"/><linearGradient id="linear-gradient-7" x1="63.33" y1="96.63" x2="63.33" y2="113.5" xlink:href="#linear-gradient"/></defs><title>design_icon_priorities</title><polygon class="cls-1" points="55 94.99 55 104.84 81.67 89.24 81.67 79.38 55 94.99"/><polygon class="cls-2" points="58.33 79.38 58.33 89.24 85 73.64 85 63.78 58.33 79.38"/><polygon class="cls-3" points="68.33 81.85 68.33 91.7 95 76.1 95 66.24 68.33 81.85"/><line class="cls-4" x1="90.83" y1="74.87" x2="90.83" y2="55.2"/><polygon class="cls-5" points="94.92 58.51 94.19 59.2 90.83 55.58 87.48 59.2 86.74 58.51 90.83 54.12 94.92 58.51"/><line class="cls-6" x1="63.33" y1="96.63" x2="63.33" y2="112.42"/><polygon class="cls-7" points="59.24 109.1 59.98 108.42 63.33 112.03 66.69 108.42 67.42 109.1 63.33 113.5 59.24 109.1"/><ellipse class="cls-8" cx="72.19" cy="65.67" rx="1.44" ry="1.43" transform="translate(-25.4 65.94) rotate(-42.45)"/><ellipse class="cls-8" cx="68.14" cy="52.04" rx="1.44" ry="1.43" transform="translate(-17.27 59.64) rotate(-42.45)"/><ellipse class="cls-8" cx="76.8" cy="51.68" rx="1.44" ry="1.43" transform="translate(-14.75 65.39) rotate(-42.45)"/><ellipse class="cls-8" cx="75.15" cy="43.4" rx="1.44" ry="1.43" transform="translate(-9.59 62.1) rotate(-42.45)"/><ellipse class="cls-8" cx="67.44" cy="35.91" rx="1.44" ry="1.43" transform="translate(-6.56 54.94) rotate(-42.45)"/></svg>