<svg id="Layer_1" data-name="Layer 1" xmlns="http://www.w3.org/2000/svg" xmlns:xlink="http://www.w3.org/1999/xlink" viewBox="0 0 150 150"><defs><style>.cls-1,.cls-4,.cls-5,.cls-6,.cls-7{fill:#fff;}.cls-1,.cls-2,.cls-4,.cls-5,.cls-6,.cls-7,.cls-9{stroke-miterlimit:10;}.cls-1{stroke:url(#linear-gradient);}.cls-2,.cls-9{fill:none;}.cls-2{stroke:url(#linear-gradient-2);}.cls-10,.cls-3{fill:#0dd7ff;}.cls-3{fill-opacity:0.7;}.cls-4,.cls-5,.cls-6,.cls-9{stroke-linecap:round;}.cls-4{stroke:url(#linear-gradient-3);}.cls-5{stroke:url(#linear-gradient-4);}.cls-6{stroke:url(#linear-gradient-5);}.cls-7{fill-opacity:0.8;stroke:url(#linear-gradient-6);}.cls-8{fill:url(#linear-gradient-7);}.cls-9{stroke:#fff;}.cls-10{opacity:0.7;}</style><linearGradient id="linear-gradient" x1="50" y1="83.43" x2="91.22" y2="83.43" gradientUnits="userSpaceOnUse"><stop offset="0" stop-color="#1c79c4"/><stop offset="0.51" stop-color="#0389ff"/><stop offset="1" stop-color="#0dd7ff"/></linearGradient><linearGradient id="linear-gradient-2" x1="50.26" y1="67.4" x2="90.96" y2="67.4" xlink:href="#linear-gradient"/><linearGradient id="linear-gradient-3" x1="54.54" y1="80.56" x2="87.71" y2="80.56" xlink:href="#linear-gradient"/><linearGradient id="linear-gradient-4" x1="54.54" y1="85.57" x2="87.71" y2="85.57" xlink:href="#linear-gradient"/><linearGradient id="linear-gradient-5" x1="54.54" y1="90.58" x2="87.71" y2="90.58" xlink:href="#linear-gradient"/><linearGradient id="linear-gradient-6" x1="71.12" y1="80.36" x2="101.78" y2="80.36" xlink:href="#linear-gradient"/><linearGradient id="linear-gradient-7" x1="-73.09" y1="-625.91" x2="-64.04" y2="-625.91" gradientTransform="translate(-39.21 686.8) rotate(19.1)" xlink:href="#linear-gradient"/></defs><title>design_icon_ux</title><polygon class="cls-1" points="50.5 70.41 50.5 118.5 90.72 96.46 90.72 48.36 50.5 70.41"/><line class="cls-2" x1="50.5" y1="78.42" x2="90.72" y2="56.38"/><ellipse class="cls-3" cx="57.2" cy="71.06" rx="1.16" ry="1.16" transform="matrix(0.11, -0.99, 0.99, 0.11, -19.69, 120.14)"/><ellipse class="cls-3" cx="53.98" cy="72.72" rx="1.16" ry="1.16" transform="translate(-24.21 118.42) rotate(-83.72)"/><ellipse class="cls-3" cx="60.42" cy="69.4" rx="1.16" ry="1.16" transform="translate(-15.17 121.86) rotate(-83.72)"/><line class="cls-4" x1="55.04" y1="89.07" x2="87.21" y2="72.04"/><line class="cls-5" x1="55.04" y1="94.08" x2="87.21" y2="77.05"/><line class="cls-6" x1="55.04" y1="99.09" x2="87.21" y2="82.06"/><polygon class="cls-7" points="71.62 77.02 71.62 100.47 101.28 83.71 101.28 60.26 71.62 77.02"/><path class="cls-8" d="M105.05,74.39c-1.09,3.14-3.89,5-6.25,4.21s-3.39-4-2.3-7.16,3.89-5,6.25-4.21S106.14,71.25,105.05,74.39Z"/><polyline class="cls-9" points="99.13 73.77 100.54 74.9 102.51 70.06"/><ellipse class="cls-10" cx="96.02" cy="55.06" rx="1.43" ry="1.44" transform="translate(30.09 143.97) rotate(-83.27)"/><ellipse class="cls-10" cx="103.69" cy="43.09" rx="1.43" ry="1.44" transform="translate(48.75 141.02) rotate(-83.27)"/><ellipse class="cls-10" cx="109.63" cy="49.41" rx="1.43" ry="1.44" transform="translate(47.71 152.5) rotate(-83.27)"/><ellipse class="cls-10" cx="114.82" cy="42.74" rx="1.43" ry="1.44" transform="translate(58.92 151.76) rotate(-83.27)"/><ellipse class="cls-10" cx="115.44" cy="32.02" rx="1.43" ry="1.44" transform="translate(70.12 142.91) rotate(-83.27)"/></svg>