<svg id="Layer_1" data-name="Layer 1" xmlns="http://www.w3.org/2000/svg" xmlns:xlink="http://www.w3.org/1999/xlink" viewBox="0 0 150 150"><defs><style>.cls-1{fill:#0dd7ff;opacity:0.7;}.cls-2,.cls-3,.cls-5,.cls-6,.cls-8{fill:none;}.cls-10,.cls-2,.cls-3,.cls-4,.cls-5,.cls-6,.cls-8,.cls-9{stroke-miterlimit:10;}.cls-2{stroke:url(#linear-gradient);}.cls-3{stroke:url(#linear-gradient-2);}.cls-10,.cls-4,.cls-7,.cls-9{fill:#fff;}.cls-4{fill-opacity:0.9;stroke:url(#linear-gradient-3);}.cls-5{stroke:url(#linear-gradient-4);}.cls-6{stroke:url(#linear-gradient-5);}.cls-7{opacity:0.9;}.cls-8{stroke:url(#linear-gradient-6);}.cls-9{stroke:url(#linear-gradient-7);}.cls-10{stroke:url(#linear-gradient-8);}</style><linearGradient id="linear-gradient" x1="52.89" y1="73.99" x2="89.17" y2="79.64" gradientUnits="userSpaceOnUse"><stop offset="0" stop-color="#1c79c4"/><stop offset="0.51" stop-color="#0389ff"/><stop offset="1" stop-color="#0dd7ff"/></linearGradient><linearGradient id="linear-gradient-2" x1="76.56" y1="51.72" x2="87.22" y2="53.37" xlink:href="#linear-gradient"/><linearGradient id="linear-gradient-3" x1="71.4" y1="84.05" x2="89.38" y2="84.05" xlink:href="#linear-gradient"/><linearGradient id="linear-gradient-4" x1="71.44" y1="84.44" x2="88.76" y2="84.44" xlink:href="#linear-gradient"/><linearGradient id="linear-gradient-5" x1="71.53" y1="83.86" x2="88.68" y2="83.86" xlink:href="#linear-gradient"/><linearGradient id="linear-gradient-6" x1="82.29" y1="80.29" x2="102.61" y2="80.29" xlink:href="#linear-gradient"/><linearGradient id="linear-gradient-7" x1="82.39" y1="80.44" x2="102.18" y2="80.44" xlink:href="#linear-gradient"/><linearGradient id="linear-gradient-8" x1="82.72" y1="80.44" x2="101.86" y2="80.44" xlink:href="#linear-gradient"/></defs><title>design_icon_break</title><ellipse class="cls-1" cx="43.02" cy="89.06" rx="1.43" ry="1.44" transform="translate(-50.46 121.36) rotate(-83.27)"/><ellipse class="cls-1" cx="50.69" cy="77.09" rx="1.43" ry="1.44" transform="translate(-31.81 118.4) rotate(-83.27)"/><ellipse class="cls-1" cx="61.82" cy="76.74" rx="1.43" ry="1.44" transform="translate(-21.64 129.14) rotate(-83.27)"/><ellipse class="cls-1" cx="62.44" cy="66.02" rx="1.43" ry="1.44" transform="translate(-10.44 120.29) rotate(-83.27)"/><polygon class="cls-2" points="56 57.54 57.18 106.72 87.22 88.67 87.04 52.52 78.03 45.5 56 57.54"/><polyline class="cls-3" points="78.03 45.5 78.03 57.54 87.04 52.52"/><polygon class="cls-4" points="71.9 74.32 71.9 103.81 88.88 93.78 88.88 64.29 71.9 74.32"/><line class="cls-5" x1="71.9" y1="103.81" x2="88.3" y2="65.08"/><line class="cls-6" x1="71.9" y1="74.47" x2="88.3" y2="93.24"/><polygon class="cls-7" points="82.78 79.03 82.78 92.5 102.11 81.56 102.11 68.09 82.78 79.03"/><polygon class="cls-8" points="82.78 79.03 82.78 92.5 102.11 81.56 102.11 68.09 82.78 79.03"/><line class="cls-9" x1="82.79" y1="92.5" x2="101.79" y2="68.38"/><line class="cls-10" x1="82.79" y1="79.17" x2="101.79" y2="81.71"/></svg>