<svg id="Layer_1" data-name="Layer 1" xmlns="http://www.w3.org/2000/svg" xmlns:xlink="http://www.w3.org/1999/xlink" viewBox="0 0 150 150"><defs><style>.cls-1{fill:#fff;}.cls-1,.cls-5{opacity:0.7;}.cls-2,.cls-4{fill:none;stroke-linecap:round;stroke-miterlimit:10;}.cls-2{stroke:url(#linear-gradient);}.cls-3{fill:url(#linear-gradient-2);}.cls-4{stroke:url(#linear-gradient-3);}.cls-5{fill:#0dd7ff;}</style><linearGradient id="linear-gradient" x1="61.36" y1="79.2" x2="88.83" y2="85.17" gradientUnits="userSpaceOnUse"><stop offset="0" stop-color="#1c79c4"/><stop offset="0.51" stop-color="#0389ff"/><stop offset="1" stop-color="#0dd7ff"/></linearGradient><linearGradient id="linear-gradient-2" x1="63.79" y1="68.02" x2="91.26" y2="74" xlink:href="#linear-gradient"/><linearGradient id="linear-gradient-3" x1="63.6" y1="18.37" x2="71.82" y2="19.65" gradientTransform="translate(11.58 58.93) rotate(3.43)" xlink:href="#linear-gradient"/></defs><title>design_icon_future</title><path class="cls-1" d="M89,76.54c-.5-7.69-4.07-13.77-9.48-15C72.21,60,64.3,67.89,61.86,79.27s1.51,21.91,8.82,23.52S85.89,96.48,88.34,85.1"/><path class="cls-2" d="M88.91,75.46c-.75-7.17-4.23-12.74-9.39-13.88C72.21,60,64.3,67.89,61.86,79.27s1.51,21.91,8.82,23.52S85.89,96.48,88.34,85.1"/><polygon class="cls-3" points="92.43 71.61 91.61 71.04 88.79 75.09 84.96 71.99 84.33 72.77 89 76.54 92.43 71.61"/><polyline class="cls-4" points="75.52 76.26 74.95 86.03 81.58 82.87"/><ellipse class="cls-5" cx="98.02" cy="78.06" rx="1.43" ry="1.44" transform="translate(9.02 166.27) rotate(-83.27)"/><ellipse class="cls-5" cx="105.69" cy="66.09" rx="1.43" ry="1.44" transform="translate(27.67 163.31) rotate(-83.27)"/><ellipse class="cls-5" cx="106.63" cy="73.41" rx="1.43" ry="1.44" transform="translate(21.23 170.71) rotate(-83.27)"/><ellipse class="cls-5" cx="53.86" cy="92.31" rx="1.43" ry="1.44" transform="translate(-52.11 106.23) rotate(-67.22)"/><ellipse class="cls-5" cx="43.18" cy="101.7" rx="1.43" ry="1.44" transform="translate(-67.3 102.14) rotate(-67.22)"/><ellipse class="cls-5" cx="39.22" cy="93.98" rx="1.43" ry="1.44" transform="translate(-62.61 93.76) rotate(-67.22)"/></svg>