<svg height="699" width="843" xmlns="http://www.w3.org/2000/svg" xmlns:xlink="http://www.w3.org/1999/xlink"><defs><marker id="a" markerHeight="5" markerWidth="5" orient="auto" refX="2.5" refY="2.5"><use transform="matrix(-1 0 0 -1 5 5)" xlink:href="#h" xmlns:xlink="http://www.w3.org/1999/xlink"/></marker><marker id="b" markerHeight="5" markerWidth="5" orient="auto" refX="2.5" refY="2.5"><use transform="matrix(-1 0 0 -1 5 5)" xlink:href="#h" xmlns:xlink="http://www.w3.org/1999/xlink"/></marker><marker id="c" markerHeight="5" markerWidth="5" orient="auto" refX="2.5" refY="2.5"><use transform="matrix(-1 0 0 -1 5 5)" xlink:href="#h" xmlns:xlink="http://www.w3.org/1999/xlink"/></marker><marker id="d" markerHeight="5" markerWidth="5" orient="auto" refX="2.5" refY="2.5"><use transform="matrix(-1 0 0 -1 5 5)" xlink:href="#h" xmlns:xlink="http://www.w3.org/1999/xlink"/></marker><marker id="e" markerHeight="5" markerWidth="5" orient="auto" refX="2.5" refY="2.5"><use transform="matrix(-1 0 0 -1 5 5)" xlink:href="#h" xmlns:xlink="http://www.w3.org/1999/xlink"/></marker><marker id="f" markerHeight="5" markerWidth="5" orient="auto" refX="2.5" refY="2.5"><use transform="matrix(-1 0 0 -1 5 5)" xlink:href="#h" xmlns:xlink="http://www.w3.org/1999/xlink"/></marker><marker id="g" markerHeight="5" markerWidth="5" orient="auto" refX="2.5" refY="2.5"><use transform="matrix(-1 0 0 -1 5 5)" xlink:href="#h" xmlns:xlink="http://www.w3.org/1999/xlink"/></marker><path id="h" d="m5 0-5 2.5 5 2.5z" stroke-linecap="round"/></defs><path d="m10 20h106.813v57.188h-106.813z" fill="none" stroke="#000" stroke-width="2"/><path d="m20.188 39.594h86.813v18h-86.813z" fill="none"/><text font-family="&quot;Andale Mono&quot;, monospace" font-size="16" text-anchor="middle" x="63.406" y="48.594"><tspan dy="6">Publisher</tspan></text><path d="m10 622.313h106.813v57.188h-106.813z" fill="none" stroke="#000" stroke-width="2"/><path d="m20.188 641.906h86.813v18h-86.813z" fill="none"/><text font-family="&quot;Andale Mono&quot;, monospace" font-size="16" text-anchor="middle" x="63.406" y="650.906"><tspan dy="6">Publisher</tspan></text><path d="m63.406 77.188v545.125m192.625-602.313h154.813v57.188h-154.813z" fill="none" stroke="#000" stroke-width="2"/><path d="m266.219 30h134.813v37.188h-134.813z" fill="none"/><text font-family="&quot;Andale Mono&quot;, monospace" font-size="16" text-anchor="middle" x="333.438" y="48.594"><tspan dy="-3.594">Ad Network's</tspan><tspan dy="19.2" x="333.438">Fast Fetch ext</tspan></text><path d="m256.031 622.313h154.813v57.188h-154.813z" fill="none" stroke="#000" stroke-width="2"/><path d="m266.219 632.313h134.813v37.188h-134.813z" fill="none"/><text font-family="&quot;Andale Mono&quot;, monospace" font-size="16" text-anchor="middle" x="333.438" y="650.906"><tspan dy="-3.594">Ad Network's</tspan><tspan dy="19.2" x="333.438">Fast Fetch ext</tspan></text><path d="m333.438 77.188v545.125m168.921-602.313h107.813v57.188h-107.813z" fill="none" stroke="#000" stroke-width="2"/><path d="m512.047 39.594h87.813v18h-87.813z" fill="none"/><text font-family="&quot;Andale Mono&quot;, monospace" font-size="16" text-anchor="middle" x="556.266" y="48.594"><tspan dy="6">Ad Server</tspan></text><path d="m502.359 622.313h107.813v57.188h-107.813z" fill="none" stroke="#000" stroke-width="2"/><path d="m512.047 641.906h87.813v18h-87.813z" fill="none"/><text font-family="&quot;Andale Mono&quot;, monospace" font-size="16" text-anchor="middle" x="556.266" y="650.906"><tspan dy="6">Ad Server</tspan></text><path d="m556.266 77.188v545.125" fill="none" stroke="#000" stroke-width="2"/><path d="m73.594 93.188h250.031v18h-250.031z" fill="none"/><text font-family="&quot;Andale Mono&quot;, monospace" font-size="16" text-anchor="middle" x="198.422" y="102.188"><tspan dy="6">include amp-ad tag on page</tspan></text><path d="m63.406 115.188h265.026" fill="none" marker-end="url(#a)" stroke="#000" stroke-width="2"/><path d="m358.422 135.188h144.016v18h-144.016z" fill="none"/><text font-family="&quot;Andale Mono&quot;, monospace" font-size="16" text-anchor="middle" x="430.438" y="144.188"><tspan dy="6">generate ad url</tspan></text><g fill="none"><g stroke="#000" stroke-width="2"><path d="m333.438 130.188h20m0 0v33"/><path d="m353.438 163.188h-15.005" marker-end="url(#b)"/></g><path d="m382.438 169.188h126.219v18h-126.219z"/></g><text font-family="&quot;Andale Mono&quot;, monospace" font-size="16" text-anchor="middle" x="444.852" y="178.188"><tspan dy="6">send CORS XHR</tspan></text><path d="m333.438 191.188h217.835" fill="none" marker-end="url(#c)" stroke="#000" stroke-width="2"/><path d="m581.25 211.188h163.219v37.188h-163.219z" fill="none"/><text font-family="&quot;Andale Mono&quot;, monospace" font-size="16" text-anchor="middle" x="662.875" y="229.781"><tspan dy="-3.594">validate AMP</tspan><tspan dy="19.2" x="662.875">creative and sign</tspan></text><g fill="none"><path d="m556.266 206.188h20m0 0v52.187" stroke="#000" stroke-width="2"/><path d="m576.266 258.375h-15.006" marker-end="url(#d)" stroke="#000" stroke-width="2"/><path d="m392.031 264.375h106.016v18h-106.016z"/></g><text font-family="&quot;Andale Mono&quot;, monospace" font-size="16" text-anchor="middle" x="444.852" y="273.375"><tspan dy="6">ad response</tspan></text><g fill="none"><path d="m556.266 286.375h-217.836" marker-end="url(#e)" stroke="#000" stroke-width="2"/><path d="m353.438 306.375h164.016v47.188h-164.016z" stroke="#000" stroke-width="2"/><path d="m358.625 311.375h154.016v37.188h-154.016z"/></g><text font-family="&quot;Andale Mono&quot;, monospace" font-size="16" text-anchor="middle" x="435.445" y="329.969"><tspan dy="-3.594">verify signature</tspan><tspan dy="19.2" x="435.445">(if present)</tspan></text><path d="m226.234 373.563h87.203v47.188h-87.203z" fill="none" stroke="#000" stroke-width="2"/><path d="m231.422 378.563h77.203v37.188h-77.203z" fill="none"/><text font-family="&quot;Andale Mono&quot;, monospace" font-size="16" text-anchor="middle" x="269.836" y="397.156"><tspan dy="-3.594">HTML</tspan><tspan dy="19.2" x="269.836">creative</tspan></text><path d="m358.422 440.75h182.828v37.188h-182.828z" fill="none"/><text font-family="&quot;Andale Mono&quot;, monospace" font-size="16" text-anchor="middle" x="449.641" y="459.344"><tspan dy="-3.594">render creative in</tspan><tspan dy="19.2" x="449.641">cross-domain iframe</tspan></text><g fill="none"><g stroke="#000" stroke-width="2"><path d="m333.438 435.75h20m0 0v52.188"/><path d="m353.438 487.938h-15.005" marker-end="url(#f)"/><path d="m225.234 497.938h88.203v47.188h-88.203z"/></g><path d="m229.922 502.938h78.203v37.188h-78.203z"/></g><text font-family="&quot;Andale Mono&quot;, monospace" font-size="16" text-anchor="middle" x="269.336" y="521.531"><tspan dy="-3.594">AMPHTML</tspan><tspan dy="19.2" x="269.336">creative</tspan></text><path d="m358.422 565.125h182.422v37.188h-182.422z" fill="none"/><text font-family="&quot;Andale Mono&quot;, monospace" font-size="16" text-anchor="middle" x="449.641" y="583.719"><tspan dy="-3.594">render creative in</tspan><tspan dy="19.2" x="449.641">friendly iframe</tspan></text><g fill="none" stroke="#000" stroke-width="2"><path d="m333.438 560.125h20m0 0v52.188"/><path d="m353.438 612.313h-15.005" marker-end="url(#g)"/></g></svg>