<svg height="699" width="843" xmlns="http://www.w3.org/2000/svg" xmlns:xlink="http://www.w3.org/1999/xlink"><defs><path id="a" d="m5 0-5 2.5 5 2.5z" stroke-linecap="round"/><marker id="b" markerHeight="5" markerWidth="5" orient="auto" refX="2.5" refY="2.5"><use transform="matrix(-1 0 0 -1 5 5)" xlink:href="#a" xmlns:xlink="http://www.w3.org/1999/xlink"/></marker><marker id="c" markerHeight="5" markerWidth="5" orient="auto" refX="2.5" refY="2.5"><use transform="matrix(-1 0 0 -1 5 5)" xlink:href="#a" xmlns:xlink="http://www.w3.org/1999/xlink"/></marker><marker id="d" markerHeight="5" markerWidth="5" orient="auto" refX="2.5" refY="2.5"><use transform="matrix(-1 0 0 -1 5 5)" xlink:href="#a" xmlns:xlink="http://www.w3.org/1999/xlink"/></marker><marker id="e" markerHeight="5" markerWidth="5" orient="auto" refX="2.5" refY="2.5"><use transform="matrix(-1 0 0 -1 5 5)" xlink:href="#a" xmlns:xlink="http://www.w3.org/1999/xlink"/></marker><marker id="f" markerHeight="5" markerWidth="5" orient="auto" refX="2.5" refY="2.5"><use transform="matrix(-1 0 0 -1 5 5)" xlink:href="#a" xmlns:xlink="http://www.w3.org/1999/xlink"/></marker><marker id="g" markerHeight="5" markerWidth="5" orient="auto" refX="2.5" refY="2.5"><use transform="matrix(-1 0 0 -1 5 5)" xlink:href="#a" xmlns:xlink="http://www.w3.org/1999/xlink"/></marker><marker id="h" markerHeight="5" markerWidth="5" orient="auto" refX="2.5" refY="2.5"><use transform="matrix(-1 0 0 -1 5 5)" xlink:href="#a" xmlns:xlink="http://www.w3.org/1999/xlink"/></marker></defs><path d="m10 20h106.813v57.188h-106.813z" fill="none" stroke="#000" stroke-width="2"/><path d="m20.188 39.594h86.813v18h-86.813z" fill="none"/><text font-family="&quot;Andale Mono&quot;, monospace" font-size="16" text-anchor="middle" x="63.406" y="48.594"><tspan dy="6">Publisher</tspan></text><path d="m10 622.313h106.813v57.188h-106.813z" fill="none" stroke="#000" stroke-width="2"/><path d="m20.188 641.906h86.813v18h-86.813z" fill="none"/><text font-family="&quot;Andale Mono&quot;, monospace" font-size="16" text-anchor="middle" x="63.406" y="650.906"><tspan dy="6">Publisher</tspan></text><path d="m63.40625 77.1875v545.125" fill="none" stroke="#000" stroke-width="2"/><path d="m256.031 20h154.813v57.188h-154.813z" fill="none" stroke="#000" stroke-width="2"/><path d="m266.219 30h134.813v37.188h-134.813z" fill="none"/><text font-family="&quot;Andale Mono&quot;, monospace" font-size="16" text-anchor="middle" x="333.438" y="48.594"><tspan dy="-3.594">Ad Network's</tspan><tspan dy="19.2" x="333.438">Fast Fetch ext</tspan></text><path d="m256.031 622.313h154.813v57.188h-154.813z" fill="none" stroke="#000" stroke-width="2"/><path d="m266.219 632.313h134.813v37.188h-134.813z" fill="none"/><text font-family="&quot;Andale Mono&quot;, monospace" font-size="16" text-anchor="middle" x="333.438" y="650.906"><tspan dy="-3.594">Ad Network's</tspan><tspan dy="19.2" x="333.438">Fast Fetch ext</tspan></text><path d="m333.4375 77.1875v545.125" fill="none" stroke="#000" stroke-width="2"/><path d="m502.359 20h107.813v57.188h-107.813z" fill="none" stroke="#000" stroke-width="2"/><path d="m512.047 39.594h87.813v18h-87.813z" fill="none"/><text font-family="&quot;Andale Mono&quot;, monospace" font-size="16" text-anchor="middle" x="556.266" y="48.594"><tspan dy="6">Ad Server</tspan></text><path d="m502.359 622.313h107.813v57.188h-107.813z" fill="none" stroke="#000" stroke-width="2"/><path d="m512.047 641.906h87.813v18h-87.813z" fill="none"/><text font-family="&quot;Andale Mono&quot;, monospace" font-size="16" text-anchor="middle" x="556.266" y="650.906"><tspan dy="6">Ad Server</tspan></text><path d="m556.265625 77.1875v545.125" fill="none" stroke="#000" stroke-width="2"/><path d="m73.594 93.188h250.031v18h-250.031z" fill="none"/><text font-family="&quot;Andale Mono&quot;, monospace" font-size="16" text-anchor="middle" x="198.422" y="102.188"><tspan dy="6">include amp-ad tag on page</tspan></text><path d="m63.40625 115.1875h265.02606091" fill="none" marker-end="url(#b)" stroke="#000" stroke-width="2"/><path d="m358.422 135.188h144.016v18h-144.016z" fill="none"/><text font-family="&quot;Andale Mono&quot;, monospace" font-size="16" text-anchor="middle" x="430.438" y="144.188"><tspan dy="6">generate ad url</tspan></text><path d="m333.4375 130.1875h20" fill="none" stroke="#000" stroke-width="2"/><path d="m353.4375 130.1875v33" fill="none" stroke="#000" stroke-width="2"/><path d="m353.4375 163.1875s-9.08088684 0-15.00474662 0" fill="none" marker-end="url(#c)" stroke="#000" stroke-width="2"/><path d="m382.438 169.188h126.219v18h-126.219z" fill="none"/><text font-family="&quot;Andale Mono&quot;, monospace" font-size="16" text-anchor="middle" x="444.852" y="178.188"><tspan dy="6">send CORS XHR</tspan></text><path d="m333.4375 191.1875h217.83515932" fill="none" marker-end="url(#d)" stroke="#000" stroke-width="2"/><path d="m581.25 211.188h163.219v37.188h-163.219z" fill="none"/><text font-family="&quot;Andale Mono&quot;, monospace" font-size="16" text-anchor="middle" x="662.875" y="229.781"><tspan dy="-3.594">validate AMP</tspan><tspan dy="19.2" x="662.875">creative and sign</tspan></text><path d="m556.265625 206.1875h20" fill="none" stroke="#000" stroke-width="2"/><path d="m576.265625 206.1875v52.1875" fill="none" stroke="#000" stroke-width="2"/><path d="m576.265625 258.375s-9.08088684 0-15.00474662 0" fill="none" marker-end="url(#e)" stroke="#000" stroke-width="2"/><path d="m392.031 264.375h106.016v18h-106.016z" fill="none"/><text font-family="&quot;Andale Mono&quot;, monospace" font-size="16" text-anchor="middle" x="444.852" y="273.375"><tspan dy="6">ad response</tspan></text><path d="m556.265625 286.375s-184.88454467 0-217.83515932 0" fill="none" marker-end="url(#f)" stroke="#000" stroke-width="2"/><path d="m353.438 306.375h164.016v47.188h-164.016z" fill="none" stroke="#000" stroke-width="2"/><path d="m358.625 311.375h154.016v37.188h-154.016z" fill="none"/><text font-family="&quot;Andale Mono&quot;, monospace" font-size="16" text-anchor="middle" x="435.445" y="329.969"><tspan dy="-3.594">verify signature</tspan><tspan dy="19.2" x="435.445">(if present)</tspan></text><path d="m226.234 373.563h87.203v47.188h-87.203z" fill="none" stroke="#000" stroke-width="2"/><path d="m231.422 378.563h77.203v37.188h-77.203z" fill="none"/><text font-family="&quot;Andale Mono&quot;, monospace" font-size="16" text-anchor="middle" x="269.836" y="397.156"><tspan dy="-3.594">HTML</tspan><tspan dy="19.2" x="269.836">creative</tspan></text><path d="m358.422 440.75h182.828v37.188h-182.828z" fill="none"/><text font-family="&quot;Andale Mono&quot;, monospace" font-size="16" text-anchor="middle" x="449.641" y="459.344"><tspan dy="-3.594">render creative in</tspan><tspan dy="19.2" x="449.641">cross-domain iframe</tspan></text><g fill="none"><path d="m333.4375 435.75h20" stroke="#000" stroke-width="2"/><path d="m353.4375 435.75v52.1875" stroke="#000" stroke-width="2"/><path d="m353.4375 487.9375s-9.08088684 0-15.00474662 0" marker-end="url(#g)" stroke="#000" stroke-width="2"/><path d="m225.234 497.938h88.203v47.188h-88.203z" stroke="#000" stroke-width="2"/><path d="m229.922 502.938h78.203v37.188h-78.203z"/></g><text font-family="&quot;Andale Mono&quot;, monospace" font-size="16" text-anchor="middle" x="269.336" y="521.531"><tspan dy="-3.594">AMPHTML</tspan><tspan dy="19.2" x="269.336">creative</tspan></text><path d="m358.422 565.125h182.422v37.188h-182.422z" fill="none"/><text font-family="&quot;Andale Mono&quot;, monospace" font-size="16" text-anchor="middle" x="449.641" y="583.719"><tspan dy="-3.594">render creative in</tspan><tspan dy="19.2" x="449.641">friendly iframe</tspan></text><path d="m333.4375 560.125h20" fill="none" stroke="#000" stroke-width="2"/><path d="m353.4375 560.125v52.1875" fill="none" stroke="#000" stroke-width="2"/><path d="m353.4375 612.3125s-9.08088684 0-15.00474662 0" fill="none" marker-end="url(#h)" stroke="#000" stroke-width="2"/></svg>