<svg id="logo" viewBox="0 0 127 68" xmlns="http://www.w3.org/2000/svg">
  <g fill="none" fill-rule="evenodd">
    <path d="M39.5 15.8a13.7 13.7 0 1 0 0 27.3 13.7 13.7 0 0 0 0-27.3z" fill="#FFF"/>
    <path d="M44.1 27.6L38 38.1h-1.2l1.1-6.8h-3.5a.6.6 0 0 1-.6-.6l.2-.4L40 20h1.2L40 26.7h3.6c.3 0 .6.3.6.6 0 .1 0 .2-.2.3zM39 14a15 15 0 1 0 0 30 15 15 0 0 0 0-30z" fill="#005AF0" fill-rule="nonzero"/>
    <path d="M73 33.7h-4.8l-.8 2.3H64l4.7-12.6h3.6L77 36h-3.3l-.8-2.3zm-.8-2.4l-1.6-4.6-1.6 4.6h3.2zm20.3-8V36h-3v-7.9L86.7 36H84l-2.7-8v8h-3.1V23.4H82l3.4 8.8 3.4-8.8h3.7zm5.2 8.2V36h-3V23.3h5c1.4 0 2.6.3 3.4 1.1a4 4 0 0 1 1.2 3c0 .8-.2 1.5-.6 2.1-.3.7-.8 1.2-1.5 1.5-.7.4-1.6.5-2.6.5h-1.9zm3.4-4c0-1.2-.6-1.7-1.8-1.7h-1.6V29h1.6c1.2 0 1.8-.6 1.8-1.7z" fill="#005AF0"/>
  </g>
</svg>
