<svg xmlns="http://www.w3.org/2000/svg" width="175" height="60"><path d="M93 34.3h7l-2.4-7-.5-1.6-.6-2a34 34 0 0 1-1.2 3.6l-2.4 7zm16.6 9.8h-4.7c-.5 0-1-.2-1.3-.4-.3-.2-.5-.6-.7-1l-1.5-4.4h-9.8L90 42.8a2 2 0 0 1-.7.9 2 2 0 0 1-1.2.4h-4.7l10-25.7h6.1l10 25.7zm21-10.4l.6 1.5a26.2 26.2 0 0 1 1.3-3l6.7-12.9c0-.2.2-.4.3-.5l.5-.3h5.7V44h-5.2V29.3 27l-6.8 13.2a2.2 2.2 0 0 1-2.1 1.2h-.8c-.5 0-.9 0-1.2-.3-.4-.2-.7-.5-1-1L121.9 27a21.4 21.4 0 0 1 .1 2.3v14.8h-5.3V18.5h5.8l.4.3.4.5 6.7 13 .7 1.4M161 31h3.1c1.6 0 2.7-.4 3.4-1 .7-.8 1-1.9 1-3.2 0-.6 0-1.1-.2-1.6a3.3 3.3 0 0 0-2.2-2c-.6-.2-1.2-.3-2-.3H161V31zm0 4.5v8.6h-6V18.4h9.1c1.8 0 3.4.3 4.7.7a9 9 0 0 1 3.2 1.8c.9.7 1.5 1.6 2 2.6a9.7 9.7 0 0 1 0 6.8c-.5 1-1.1 2-2 2.8a9 9 0 0 1-3.2 1.8 15 15 0 0 1-4.7.6H161zM40.7 27.3L28 48.2h-2.3l2.2-13.7h-7.1c-.6 0-1.2-.5-1.2-1 0-.3.3-.8.3-.8l12.7-21h2.3l-2.3 13.8h7.2c.6 0 1.1.5 1.1 1 0 .3 0 .6-.2.8zM30.3 0A30.1 30.1 0 0 0 0 30c0 16.6 13.6 30 30.3 30a30.1 30.1 0 0 0 30.3-30C60.6 13.4 47 0 30.3 0z"/></svg>
