<svg id="logo" width="89" height="46" xmlns="http://www.w3.org/2000/svg" xmlns:xlink="http://www.w3.org/1999/xlink"><defs><path d="M19.234 16.322l-5.177 9.345h-.938l.928-6.09-2.872.005h-.04c-.259 0-.468-.227-.468-.507 0-.12.103-.324.103-.324l5.16-9.334.954.004-.95 6.098 2.885-.003.046-.001c.259 0 .468.227.468.508 0 .114-.04.214-.1.299h.001zM15 4C7.82 4 2 9.82 2 17s5.82 13 13 13 13-5.82 13-13S22.18 4 15 4z" id="b"/><filter x="-67.3%" y="-48.1%" width="234.6%" height="234.6%" filterUnits="objectBoundingBox" id="a"><feOffset dy="5" in="SourceAlpha" result="shadowOffsetOuter1"/><feGaussianBlur stdDeviation="5" in="shadowOffsetOuter1" result="shadowBlurOuter1"/><feColorMatrix values="0 0 0 0 0 0 0 0 0 0 0 0 0 0 0 0 0 0 0.196812726 0" in="shadowBlurOuter1"/></filter></defs><g fill="none" fill-rule="evenodd"><use filter="url(#a)" xlink:href="#b" fill-rule="nonzero" fill="#000" transform="translate(8 1)"/><path d="M8 16c0 8.284 6.716 15 15 15 8.285 0 15-6.716 15-15 0-8.284-6.715-15-15-15C14.716 1 8 7.716 8 16z" fill="#FFF"/><path d="M21.85 25.098h-1.14l1.128-6.823-3.49.005h-.05a.57.57 0 0 1-.568-.569c0-.135.125-.363.125-.363l6.272-10.46 1.16.005-1.156 6.834 3.508-.004h.056c.314 0 .569.254.569.568 0 .128-.05.24-.121.335L21.85 25.098zM23 1C14.716 1 8 7.716 8 16c0 8.284 6.716 15 15 15 8.285 0 15-6.716 15-15 0-8.284-6.715-15-15-15z" fill="#005AF0" fill-rule="nonzero"/><text font-family="Poppins-Bold, Poppins" font-size="18" font-weight="bold" fill="#005AF0" transform="translate(8 1)"><tspan x="40" y="22">AMP</tspan></text></g></svg>