<svg id="stories" xmlns="http://www.w3.org/2000/svg" viewBox="0 0 64 64"><path d="M31.889 64c-5.2 0-10.32-1.28-14.88-3.76-1.040-0.56-1.44-1.92-0.88-2.96s1.92-1.52 2.96-0.88c3.92 2.080 8.32 3.2 12.8 3.2 2.080 0 4.16-0.24 6.24-0.72 1.2-0.24 2.32 0.48 2.64 1.68 0.24 1.2-0.48 2.4-1.6 2.64-2.4 0.48-4.8 0.8-7.28 0.8zM11.649 55.84c-0.56 0-1.040-0.24-1.52-0.64-4.4-4.24-7.52-9.6-8.96-15.6-0.32-1.2 0.4-2.4 1.6-2.64 1.2-0.32 2.32 0.48 2.64 1.6 1.28 5.12 3.92 9.76 7.76 13.44 0.88 0.8 0.88 2.24 0.080 3.12-0.4 0.48-1.040 0.72-1.6 0.72zM2.609 31.28c-0.080 0-0.16 0-0.24 0-1.2-0.080-2.080-1.2-1.92-2.4 0.32-3.6 1.28-7.040 2.8-10.32 0.48-1.12 1.84-1.6 2.88-1.040 1.12 0.48 1.6 1.84 1.040 2.96-1.28 2.8-2.080 5.76-2.4 8.88-0.080 1.040-1.040 1.92-2.16 1.92zM11.809 12.56c-0.48 0-0.96-0.16-1.36-0.48-0.96-0.8-1.040-2.16-0.32-3.12 0.16-0.24 0.4-0.48 0.56-0.72 0.8-0.88 2.16-1.040 3.12-0.24 0.88 0.8 1.040 2.16 0.24 3.12-0.16 0.24-0.32 0.4-0.48 0.64-0.56 0.56-1.2 0.8-1.76 0.8zM47.009 59.76c-0.72 0-1.44-0.4-1.84-1.040-0.64-1.040-0.32-2.4 0.72-3.040 8.24-4.96 13.28-14 13.28-23.68 0-15.2-12.24-27.6-27.28-27.6-1.2 0-2.16-0.96-2.16-2.24s0.96-2.16 2.16-2.16c17.44 0 31.68 14.4 31.68 32 0 11.2-5.92 21.68-15.44 27.44-0.32 0.24-0.72 0.32-1.12 0.32z"></path></svg>
