<?xml version="1.0" encoding="utf-8"?>
<!-- Generator: Adobe Illustrator 21.0.0, SVG Export Plug-In . SVG Version: 6.00 Build 0)  -->
<svg version="1.1" id="Layer_1" xmlns="http://www.w3.org/2000/svg" xmlns:xlink="http://www.w3.org/1999/xlink" x="0px" y="0px"
	 viewBox="0 0 30.4 30.3" style="enable-background:new 0 0 30.4 30.3;" xml:space="preserve">
<style type="text/css">
	.st0{fill:none;stroke:#0DD6FF;stroke-linecap:round;stroke-miterlimit:10;}
	.st1{fill:#FFFFFF;fill-opacity:0.8;stroke:url(#SVGID_1_);stroke-miterlimit:10;}
	.st2{opacity:0.7;fill:#FFFFFF;enable-background:new    ;}
	.st3{fill:none;stroke:url(#SVGID_2_);stroke-miterlimit:10;}
	.st4{fill:#FFFFFF;fill-opacity:0.7;stroke:url(#SVGID_3_);stroke-miterlimit:10;}
	.st5{fill:none;stroke:url(#SVGID_4_);stroke-linejoin:round;}
	.st6{fill:none;stroke:url(#SVGID_5_);stroke-miterlimit:10;}
	.st7{fill:none;stroke:url(#SVGID_6_);stroke-miterlimit:10;}
	.st8{fill:none;stroke:url(#SVGID_7_);stroke-miterlimit:10;}
</style>
<symbol  id="New_Symbol_11" viewBox="-15.2 -15.2 30.4 30.3">
	<path class="st0" d="M-2.9-13.3c0.2-0.8,1-1.3,1.8-1.3l0,0"/>
	
		<linearGradient id="SVGID_1_" gradientUnits="userSpaceOnUse" x1="-117.8209" y1="-390.0036" x2="-87.8603" y2="-390.0036" gradientTransform="matrix(0.9987 -4.377932e-02 4.377932e-02 0.9987 118.9413 385.8035)">
		<stop  offset="0" style="stop-color:#1C79C4"/>
		<stop  offset="0.51" style="stop-color:#0389FF"/>
		<stop  offset="1" style="stop-color:#0DD6FF"/>
	</linearGradient>
	<rect x="-14.7" y="-13.1" class="st1" width="27.7" height="27.7"/>
	<g>
		<polygon class="st2" points="-11.2,-11.4 12.4,-14.2 14.7,5.4 10.9,9.8 -8.4,12.1 		"/>
		
			<linearGradient id="SVGID_2_" gradientUnits="userSpaceOnUse" x1="17912.207" y1="-3859.0457" x2="17936.8926" y2="-3859.0457" gradientTransform="matrix(-0.9927 0.1175 -0.1175 -0.9927 17343.0781 -5938.2319)">
			<stop  offset="0" style="stop-color:#1C79C4"/>
			<stop  offset="0.51" style="stop-color:#0389FF"/>
			<stop  offset="1" style="stop-color:#0DD6FF"/>
		</linearGradient>
		<polygon class="st3" points="-11.2,-11.4 12.4,-14.2 14.7,5.4 10.9,9.8 -8.4,12.1 		"/>
	</g>
	
		<linearGradient id="SVGID_3_" gradientUnits="userSpaceOnUse" x1="237806.6875" y1="-3859.0457" x2="238415.9219" y2="-3859.0457" gradientTransform="matrix(-0.9927 0.1175 -0.1175 -0.9927 17343.0781 -5938.2319)">
		<stop  offset="0" style="stop-color:#1C79C4"/>
		<stop  offset="1" style="stop-color:#0389FF"/>
	</linearGradient>
	<polygon class="st4" points="-11.2,-11.4 12.4,-14.2 14.7,5.4 10.9,9.8 -8.4,12.1 	"/>
	<path class="st0" d="M-1.1-14.7c1,0,1.9,0.8,1.9,1.9c0,0,0,0,0,0V-8c0,1-0.9,1.9-1.9,1.9l0,0C-2.1-6.2-3-7-3-8v-2.3"/>
	
		<linearGradient id="SVGID_4_" gradientUnits="userSpaceOnUse" x1="7.1352" y1="10.3734" x2="12.5252" y2="10.3734" gradientTransform="matrix(0.9997 0 0 0.9997 2.6577 -2.7925)">
		<stop  offset="0" style="stop-color:#1C79C4"/>
		<stop  offset="1" style="stop-color:#0389FF"/>
	</linearGradient>
	<polygon class="st5" points="14.7,5.4 10.3,6 10.9,9.8 	"/>
	
		<linearGradient id="SVGID_5_" gradientUnits="userSpaceOnUse" x1="-229.7166" y1="-1025.5111" x2="-215.224" y2="-1025.5111" gradientTransform="matrix(0.9933 -0.113 0.113 0.9933 337.8704 990.6819)">
		<stop  offset="0" style="stop-color:#1C79C4"/>
		<stop  offset="0.51" style="stop-color:#0389FF"/>
		<stop  offset="1" style="stop-color:#0DD6FF"/>
	</linearGradient>
	<line class="st6" x1="-6.2" y1="-2" x2="8.2" y2="-3.6"/>
	
		<linearGradient id="SVGID_6_" gradientUnits="userSpaceOnUse" x1="-229.4899" y1="-1018.8405" x2="-215.3983" y2="-1018.8405" gradientTransform="matrix(0.9933 -0.113 0.113 0.9933 337.8704 990.6819)">
		<stop  offset="0" style="stop-color:#1C79C4"/>
		<stop  offset="0.51" style="stop-color:#0389FF"/>
		<stop  offset="1" style="stop-color:#0DD6FF"/>
	</linearGradient>
	<line class="st7" x1="-5.2" y1="4.6" x2="8.8" y2="3"/>
	
		<linearGradient id="SVGID_7_" gradientUnits="userSpaceOnUse" x1="-229.6047" y1="-1022.1609" x2="-218.101" y2="-1022.1609" gradientTransform="matrix(0.9933 -0.113 0.113 0.9933 337.8704 990.6819)">
		<stop  offset="0" style="stop-color:#1C79C4"/>
		<stop  offset="0.51" style="stop-color:#0389FF"/>
		<stop  offset="1" style="stop-color:#0DD6FF"/>
	</linearGradient>
	<line class="st8" x1="-5.7" y1="1.3" x2="5.7" y2="0.1"/>
</symbol>
<g id="Layer_2">
	<g id="Art">
		
			<use xlink:href="#New_Symbol_11"  width="30.4" height="30.3" x="-15.2" y="-15.2" transform="matrix(1 0 0 1 15.205 15.165)" style="overflow:visible;"/>
	</g>
</g>
</svg>
