<?xml version="1.0" encoding="utf-8"?>
<!-- Generator: Adobe Illustrator 21.0.0, SVG Export Plug-In . SVG Version: 6.00 Build 0)  -->
<svg version="1.1" id="Layer_1" xmlns="http://www.w3.org/2000/svg" xmlns:xlink="http://www.w3.org/1999/xlink" x="0px" y="0px"
	 viewBox="0 0 90.6 81.3" style="enable-background:new 0 0 90.6 81.3;" xml:space="preserve">
<style type="text/css">
	.st0{fill:#FFFFFF;stroke:url(#SVGID_1_);stroke-width:1.1032;stroke-miterlimit:10;}
	.st1{fill:#FFFFFF;fill-opacity:0.7;stroke:url(#SVGID_2_);stroke-width:1.1032;stroke-miterlimit:10;}
	.st2{opacity:0.9;fill:url(#SVGID_3_);enable-background:new    ;}
	.st3{fill:none;stroke:url(#SVGID_4_);stroke-width:1.1032;stroke-linecap:round;stroke-miterlimit:10;}
	.st4{fill:#FFFFFF;fill-opacity:0.7;stroke:url(#SVGID_5_);stroke-width:1.1032;stroke-linecap:round;stroke-linejoin:round;}
	.st5{fill:#FFFFFF;fill-opacity:0.7;stroke:url(#SVGID_6_);stroke-width:1.1032;stroke-linecap:round;stroke-linejoin:round;}
	.st6{fill:#0DD4FF;fill-opacity:0.7;}
	.st7{fill:#FFFFFF;fill-opacity:0.7;stroke:url(#SVGID_7_);stroke-width:1.1032;stroke-linecap:round;stroke-linejoin:round;}
	.st8{fill:none;stroke:url(#SVGID_8_);stroke-width:1.1032;stroke-linecap:round;stroke-linejoin:round;}
	.st9{fill:none;stroke:url(#SVGID_9_);stroke-width:1.1032;stroke-linecap:round;stroke-linejoin:round;}
	.st10{fill:none;stroke:url(#SVGID_10_);stroke-width:1.1032;stroke-linecap:round;stroke-linejoin:round;}
	.st11{fill:#FFFFFF;fill-opacity:0.7;stroke:url(#SVGID_11_);stroke-width:0.9231;stroke-linecap:round;stroke-linejoin:round;}
</style>
<g id="Layer_2">
	<g id="Art">
		<g>
			<g>
				
					<linearGradient id="SVGID_1_" gradientUnits="userSpaceOnUse" x1="6.5093" y1="19.2851" x2="90.4786" y2="19.2851" gradientTransform="matrix(1 0 0 -1 0 84)">
					<stop  offset="0" style="stop-color:#1C79C4"/>
					<stop  offset="0.51" style="stop-color:#0389FF"/>
					<stop  offset="1" style="stop-color:#0DD4FF"/>
				</linearGradient>
				<polyline class="st0" points="7.1,48.1 7.4,54.5 60.5,80.7 89.9,64.8 89.6,59.1 				"/>
				
					<linearGradient id="SVGID_2_" gradientUnits="userSpaceOnUse" x1="6.5217" y1="29.9862" x2="90.5771" y2="29.9862" gradientTransform="matrix(1 0 0 -1 0 84)">
					<stop  offset="0" style="stop-color:#1C79C4"/>
					<stop  offset="0.51" style="stop-color:#0389FF"/>
					<stop  offset="1" style="stop-color:#0DD4FF"/>
				</linearGradient>
				<polygon class="st1" points="7.8,48.2 61.5,74.2 89.4,58.9 37,33.8 				"/>
				
					<linearGradient id="SVGID_3_" gradientUnits="userSpaceOnUse" x1="29.1142" y1="19.7094" x2="62.0858" y2="43.6606" gradientTransform="matrix(1 0 0 -1 0 84)">
					<stop  offset="0" style="stop-color:#1C79C4"/>
					<stop  offset="0.51" style="stop-color:#0389FF"/>
					<stop  offset="1" style="stop-color:#0DD4FF"/>
				</linearGradient>
				<polygon class="st2" points="17.7,48.5 54.5,66.6 73.5,56.1 37.7,38.7 				"/>
				
					<linearGradient id="SVGID_4_" gradientUnits="userSpaceOnUse" x1="67.4684" y1="20.46" x2="76.0816" y2="20.46" gradientTransform="matrix(1 0 0 -1 0 84)">
					<stop  offset="0" style="stop-color:#1C79C4"/>
					<stop  offset="0.51" style="stop-color:#0389FF"/>
					<stop  offset="1" style="stop-color:#0DD4FF"/>
				</linearGradient>
				<line class="st3" x1="68" y1="65.7" x2="75.5" y2="61.4"/>
			</g>
			
				<linearGradient id="SVGID_5_" gradientUnits="userSpaceOnUse" x1="11414.6592" y1="60.97" x2="17193.1094" y2="60.97" gradientTransform="matrix(-1 0 0 -1 17204.8496 84)">
				<stop  offset="0" style="stop-color:#1C79C4"/>
				<stop  offset="0.51" style="stop-color:#0389FF"/>
				<stop  offset="1" style="stop-color:#0DD4FF"/>
			</linearGradient>
			<polygon class="st4" points="32.2,39.5 12.3,30.2 12.3,0.6 44.6,15.9 44.6,45.5 37.1,41.7 			"/>
			
				<linearGradient id="SVGID_6_" gradientUnits="userSpaceOnUse" x1="40.7084" y1="49.385" x2="74.0816" y2="49.385" gradientTransform="matrix(1 0 0 -1 0 84)">
				<stop  offset="0" style="stop-color:#1C79C4"/>
				<stop  offset="0.51" style="stop-color:#0389FF"/>
				<stop  offset="1" style="stop-color:#0DD4FF"/>
			</linearGradient>
			<polygon class="st5" points="53.6,51.1 73.5,41.7 73.5,12.1 41.3,27.5 41.3,57.1 48.7,53.3 			"/>
			<g>
				<circle class="st6" cx="77.7" cy="36.3" r="1"/>
				<circle class="st6" cx="81.9" cy="27.8" r="1"/>
				<circle class="st6" cx="86.3" cy="31.5" r="1"/>
				<circle class="st6" cx="89.2" cy="26.6" r="1"/>
				<circle class="st6" cx="88.8" cy="19.5" r="1"/>
			</g>
			<g>
				<ellipse transform="matrix(0.6345 -0.773 0.773 0.6345 -1.6338 3.2849)" class="st6" cx="2.7" cy="3.4" rx="1" ry="1"/>
				<ellipse transform="matrix(0.6345 -0.773 0.773 0.6345 -6.8306 9.5132)" class="st6" cx="6.6" cy="12" rx="1" ry="1"/>
				<ellipse transform="matrix(0.6345 -0.773 0.773 0.6345 -9.7145 5.4954)" class="st6" cx="1" cy="13" rx="1" ry="1"/>
				<ellipse transform="matrix(0.6345 -0.773 0.773 0.6345 -13.1351 8.9113)" class="st6" cx="2.9" cy="18.3" rx="1" ry="1"/>
				<ellipse transform="matrix(0.6332 -0.774 0.774 0.6332 -14.2637 14.8693)" class="st6" cx="8.6" cy="22.5" rx="1" ry="1"/>
			</g>
			
				<linearGradient id="SVGID_7_" gradientUnits="userSpaceOnUse" x1="15.7484" y1="63.87" x2="28.9816" y2="63.87" gradientTransform="matrix(1 0 0 -1 0 84)">
				<stop  offset="0" style="stop-color:#1C79C4"/>
				<stop  offset="0.51" style="stop-color:#0389FF"/>
				<stop  offset="1" style="stop-color:#0DD4FF"/>
			</linearGradient>
			<polygon class="st7" points="28.4,33.9 16.3,27.9 16.3,6.3 28.4,12.4 			"/>
			
				<linearGradient id="SVGID_8_" gradientUnits="userSpaceOnUse" x1="30.9084" y1="66.075" x2="41.1216" y2="66.075" gradientTransform="matrix(1 0 0 -1 0 84)">
				<stop  offset="0" style="stop-color:#1C79C4"/>
				<stop  offset="0.51" style="stop-color:#0389FF"/>
				<stop  offset="1" style="stop-color:#0DD4FF"/>
			</linearGradient>
			<line class="st8" x1="31.5" y1="15.7" x2="40.6" y2="20.1"/>
			
				<linearGradient id="SVGID_9_" gradientUnits="userSpaceOnUse" x1="30.9084" y1="62.21" x2="41.1216" y2="62.21" gradientTransform="matrix(1 0 0 -1 0 84)">
				<stop  offset="0" style="stop-color:#1C79C4"/>
				<stop  offset="0.51" style="stop-color:#0389FF"/>
				<stop  offset="1" style="stop-color:#0DD4FF"/>
			</linearGradient>
			<line class="st9" x1="31.5" y1="19.6" x2="40.6" y2="24"/>
			
				<linearGradient id="SVGID_10_" gradientUnits="userSpaceOnUse" x1="30.9084" y1="58.955" x2="38.7016" y2="58.955" gradientTransform="matrix(1 0 0 -1 0 84)">
				<stop  offset="0" style="stop-color:#1C79C4"/>
				<stop  offset="0.51" style="stop-color:#0389FF"/>
				<stop  offset="1" style="stop-color:#0DD4FF"/>
			</linearGradient>
			<line class="st10" x1="31.5" y1="23.4" x2="38.2" y2="26.6"/>
			
				<linearGradient id="SVGID_11_" gradientUnits="userSpaceOnUse" x1="119.7425" y1="-1873.4385" x2="132.8925" y2="-1873.4385" gradientTransform="matrix(0.9 0.24 0.3 -1.03 514.08 -1923.5701)">
				<stop  offset="0" style="stop-color:#1C79C4"/>
				<stop  offset="0.51" style="stop-color:#0389FF"/>
				<stop  offset="1" style="stop-color:#0DD4FF"/>
			</linearGradient>
			<polygon class="st11" points="60.3,24.7 59.8,29.9 63.2,27.5 60.7,32 63.9,32.8 60.4,35 62.2,38.6 59,37.6 58.7,42.8 57.1,39 
				54.7,43.7 55.3,38.5 51.9,41 54.4,36.3 51.2,35.7 54.6,33.4 52.9,29.8 56,30.8 56.4,25.6 58,29.5 			"/>
		</g>
	</g>
</g>
</svg>
