<svg id="Layer_1" data-name="Layer 1" xmlns="http://www.w3.org/2000/svg" xmlns:xlink="http://www.w3.org/1999/xlink" viewBox="0 0 100 100"><defs><style>.cls-1{fill:#0dd7ff;opacity:0.7;}.cls-12,.cls-13,.cls-2,.cls-3,.cls-5,.cls-6,.cls-7,.cls-8{fill:#fff;}.cls-12,.cls-13,.cls-2,.cls-5,.cls-6,.cls-7,.cls-8,.cls-9{stroke-miterlimit:10;}.cls-2{stroke:url(#linear-gradient);}.cls-4{fill:url(#linear-gradient-2);}.cls-5{stroke:url(#linear-gradient-3);}.cls-6{stroke:url(#linear-gradient-4);}.cls-7{stroke:url(#linear-gradient-5);}.cls-8{stroke:url(#linear-gradient-6);}.cls-9{fill:none;stroke:url(#linear-gradient-7);}.cls-10{fill:url(#linear-gradient-8);}.cls-11{fill:url(#linear-gradient-9);}.cls-12{stroke:url(#linear-gradient-10);}.cls-13{stroke:url(#linear-gradient-11);}</style><linearGradient id="linear-gradient" x1="29.68" y1="50.86" x2="63.84" y2="50.86" gradientUnits="userSpaceOnUse"><stop offset="0" stop-color="#1c79c4"/><stop offset="0.51" stop-color="#0389ff"/><stop offset="1" stop-color="#0dd7ff"/></linearGradient><linearGradient id="linear-gradient-2" x1="47.82" y1="53.54" x2="57.87" y2="53.54" xlink:href="#linear-gradient"/><linearGradient id="linear-gradient-3" x1="45.74" y1="55.92" x2="51.66" y2="55.92" xlink:href="#linear-gradient"/><linearGradient id="linear-gradient-4" x1="54.21" y1="50.98" x2="60.13" y2="50.98" xlink:href="#linear-gradient"/><linearGradient id="linear-gradient-5" x1="37.09" y1="61.04" x2="43.02" y2="61.04" xlink:href="#linear-gradient"/><linearGradient id="linear-gradient-6" x1="29.93" y1="41.86" x2="63.59" y2="41.86" xlink:href="#linear-gradient"/><linearGradient id="linear-gradient-7" x1="29.62" y1="55.74" x2="68.84" y2="55.74" xlink:href="#linear-gradient"/><linearGradient id="linear-gradient-8" x1="32.29" y1="44.69" x2="33.71" y2="44.69" xlink:href="#linear-gradient"/><linearGradient id="linear-gradient-9" x1="60.17" y1="28.81" x2="61.58" y2="28.81" xlink:href="#linear-gradient"/><linearGradient id="linear-gradient-10" x1="31.69" y1="51.21" x2="65.01" y2="51.21" xlink:href="#linear-gradient"/><linearGradient id="linear-gradient-11" x1="33.1" y1="60.39" x2="67.12" y2="60.39" xlink:href="#linear-gradient"/></defs><title>design_icon_ux copy 21</title><circle class="cls-1" cx="82.18" cy="27.02" r="0.81" transform="translate(-1.28 4.25) rotate(-2.94)"/><circle class="cls-1" cx="79.04" cy="34.49" r="0.81" transform="translate(-1.66 4.09) rotate(-2.94)"/><circle class="cls-1" cx="75.12" cy="31.5" r="0.81" transform="translate(-1.51 3.89) rotate(-2.94)"/><circle class="cls-1" cx="72.86" cy="35.75" r="0.81" transform="translate(-1.74 3.78) rotate(-2.94)"/><circle class="cls-1" cx="73.53" cy="41.84" r="0.81" transform="translate(-2.05 3.82) rotate(-2.94)"/><circle class="cls-1" cx="8.64" cy="83.88" r="0.81" transform="translate(-75.08 73.81) rotate(-77.26)"/><circle class="cls-1" cx="13.69" cy="77.54" r="0.81" transform="translate(-64.97 73.79) rotate(-77.26)"/><circle class="cls-1" cx="16.65" cy="81.48" r="0.81" transform="translate(-66.49 79.75) rotate(-77.26)"/><circle class="cls-1" cx="19.98" cy="78" r="0.81" transform="translate(-60.51 80.28) rotate(-77.26)"/><circle class="cls-1" cx="20.98" cy="71.96" r="0.81" transform="translate(-53.83 76.54) rotate(-77.26)"/><polygon class="cls-2" points="30.18 41.87 30.18 78.91 63.34 59.86 63.34 22.81 30.18 41.87"/><polygon class="cls-3" points="30.18 51.39 35.09 79.16 68.26 60.11 63.34 32.34 30.18 51.39"/><polygon class="cls-4" points="57.88 55.68 49.29 60.56 47.82 51.39 56.41 46.51 57.88 55.68"/><line class="cls-5" x1="51.17" y1="69.8" x2="46.23" y2="42.04"/><line class="cls-6" x1="59.64" y1="64.86" x2="54.7" y2="37.1"/><line class="cls-7" x1="42.53" y1="74.91" x2="37.59" y2="47.16"/><line class="cls-8" x1="63.34" y1="32.34" x2="30.18" y2="51.39"/><polygon class="cls-9" points="30.18 51.39 35.12 79.15 68.28 60.09 63.34 32.34 30.18 51.39"/><ellipse class="cls-10" cx="33" cy="44.69" rx="0.71" ry="1.06"/><ellipse class="cls-11" cx="60.87" cy="28.81" rx="0.71" ry="1.06"/><line class="cls-12" x1="31.94" y1="60.92" x2="64.75" y2="41.51"/><line class="cls-13" x1="33.35" y1="70.09" x2="66.87" y2="50.69"/></svg>