<?xml version="1.0" encoding="UTF-8" standalone="no"?>
<!DOCTYPE svg PUBLIC "-//W3C//DTD SVG 1.1//EN" "http://www.w3.org/Graphics/SVG/1.1/DTD/svg11.dtd">
<svg width="100%" height="100%" viewBox="0 0 301 301" version="1.1" xmlns="http://www.w3.org/2000/svg" xmlns:xlink="http://www.w3.org/1999/xlink" xml:space="preserve" xmlns:serif="http://www.serif.com/" style="fill-rule:evenodd;clip-rule:evenodd;stroke-linejoin:round;stroke-miterlimit:1.41421;">
    <g>
        <g transform="matrix(1.62102,0,0,1.62102,-298.399,-464.249)">
            <path d="M282.475,355.726C283.56,354.641 283.56,352.881 282.475,351.797C281.389,350.711 279.631,350.711 278.546,351.797C277.46,352.881 277.46,354.641 278.546,355.726C279.631,356.81 281.389,356.81 282.475,355.726" style="fill-opacity:0.0941176;fill-rule:nonzero;"/>
        </g>
        <g transform="matrix(1.62102,0,0,1.62102,-298.399,-464.249)">
            <path d="M272.674,357.668C271.588,358.752 271.588,360.512 272.674,361.597C273.758,362.682 275.517,362.682 276.603,361.597C277.687,360.512 277.687,358.752 276.603,357.668C275.517,356.583 273.758,356.583 272.674,357.668" style="fill-opacity:0.0941176;fill-rule:nonzero;"/>
        </g>
        <g transform="matrix(1.62102,0,0,1.62102,-298.399,-464.249)">
            <path d="M289.721,359.113C288.023,357.414 285.27,357.416 283.573,359.113L279.956,362.729C278.258,364.428 278.258,367.181 279.956,368.878L283.927,372.849C285.625,374.548 288.378,374.547 290.075,372.849L293.691,369.233C295.389,367.534 295.389,364.781 293.691,363.083L289.721,359.113Z" style="fill-opacity:0.0941176;fill-rule:nonzero;"/>
        </g>
        <g transform="matrix(1.62102,0,0,1.62102,-298.399,-464.249)">
            <path d="M311.759,342.062C308.892,338.625 314.252,332.386 317.614,336.112C323.808,342.976 314.631,345.499 311.759,342.062M324.086,345.645C328.675,336.907 322.184,331.803 317.722,327.614C310.576,320.896 303.448,317.992 295.307,327.293C287.171,336.596 292.34,347.384 299.782,352.708C307.227,358.033 319.491,354.381 324.086,345.645" style="fill-opacity:0.0941176;fill-rule:nonzero;"/>
        </g>
        <g transform="matrix(1.62102,0,0,1.62102,-298.399,-464.249)">
            <path d="M327.001,394.761C317.328,388.368 311.801,382.967 306.987,373.282C303.693,379.918 296.006,389.784 283.037,397.546C276.563,417.687 245.766,456.232 235.798,450.768C232.847,449.152 232.287,447.023 232.953,444.826C233.668,439.321 245.058,426.666 245.058,426.666C245.058,426.666 245.298,429.322 248.942,434.915C244.129,419.975 256.895,401.54 260.275,395.265C265.588,393.572 265.973,386.749 265.973,386.749C266.313,376.204 261.603,368.569 257.038,364.003C260.318,368.006 261.38,374.055 261.535,379.595L261.535,379.626C261.551,380.252 261.551,380.866 261.549,381.479C261.393,386.065 260.006,392.4 257.038,392.4L257.046,392.44C253.995,392.309 250.227,392.96 246.861,394.013L239.419,395.791C239.419,395.791 243.388,395.61 245.531,397.461C243.144,401.348 237.839,406.171 231.923,408.911C223.314,412.904 220.84,404.96 225.211,399.794C226.284,398.532 227.368,397.467 228.393,396.595C227.733,395.912 227.317,394.998 227.208,393.838C227.207,393.832 227.203,393.826 227.201,393.821C226.601,391.185 226.932,387.763 230.662,382.324C231.398,381.173 232.281,379.993 233.338,378.794C233.372,378.753 233.4,378.715 233.435,378.675C233.48,378.62 233.531,378.568 233.578,378.514C233.605,378.484 233.63,378.454 233.658,378.423C233.924,378.12 234.208,377.824 234.51,377.539C238.955,372.987 245.975,368.252 257.038,364.003C269.939,345.04 274.664,341.483 274.664,341.483C276.092,340.022 278.588,338.206 279.506,337.743C272.769,326.036 271.408,309.533 273.174,305.086C273.03,305.326 272.9,305.573 272.79,305.827C273.444,304.304 273.882,303.815 274.562,303.013C276.402,300.837 282.638,299.696 284.877,304.307C286.071,306.766 286.295,309.95 286.256,312.338C281.318,312.081 276.838,317.719 276.838,317.719C276.838,317.719 280.929,315.789 286.011,315.755C286.011,315.755 287.364,316.933 289.054,319.145C286.773,323.429 283.023,332.506 285.738,342.035C286.188,343.913 286.869,345.527 287.715,346.9C287.746,346.959 287.773,347.018 287.806,347.079C287.874,347.168 287.935,347.242 287.999,347.324C292.489,354.086 300.722,354.877 300.722,354.877C296.847,352.943 293.689,349.864 291.634,346.13C290.566,344.133 289.912,342.447 289.511,341.116C287.33,332.698 290.539,327.783 292.376,324.488C296.603,317.932 304.302,313.963 312.578,314.908C324.193,316.234 332.535,326.724 331.208,338.336C330.398,345.43 326.167,351.299 320.352,354.492C321.751,358.277 320.256,362.865 320.256,362.865C323.777,367.295 323.932,369.849 323.811,372.221C319.335,371.468 314.987,374.489 314.987,374.489C314.987,374.489 323.621,372.428 328.638,376.902C331.9,380.41 334.075,383.581 335.372,385.923C337.229,389.263 345.852,389.501 344.869,395.508C343.888,401.506 337.311,401.563 327.001,394.761M276.841,286.802C225.61,286.802 184.08,328.332 184.08,379.558C184.08,430.788 225.61,472.322 276.841,472.322C328.068,472.322 369.599,430.788 369.599,379.558C369.599,328.332 328.068,286.802 276.841,286.802" style="fill-opacity:0.0941176;fill-rule:nonzero;"/>
        </g>
    </g>
    <g transform="matrix(0.466421,0,0,0.466421,69.1386,74.7818)">
        <g transform="matrix(1,0,0,1,-458.654,-216.902)">
            <path d="M498.522,382.22L487.883,382.22C486.266,382.22 484.953,383.536 484.953,385.158L484.953,405.594L484.744,405.77C478.482,411.052 470.564,413.956 462.45,413.956C443.311,413.956 427.739,398.384 427.739,379.241C427.739,360.097 443.311,344.527 462.45,344.527C469.893,344.527 477.01,346.883 483.034,351.344C484.203,352.21 485.825,352.091 486.856,351.064L494.441,343.477C495.034,342.888 495.342,342.07 495.294,341.235C495.248,340.4 494.847,339.627 494.189,339.106C485.176,331.956 473.905,328.021 462.45,328.021C434.21,328.021 411.232,350.998 411.232,379.241C411.232,407.485 434.21,430.46 462.45,430.46C477.032,430.46 490.979,424.187 500.713,413.242C501.191,412.705 501.455,412.014 501.455,411.295L501.455,385.158C501.455,383.536 500.142,382.22 498.522,382.22" style="fill:white;fill-opacity:0.784314;fill-rule:nonzero;"/>
        </g>
        <g transform="matrix(1,0,0,1,-458.654,-216.902)">
            <path d="M854.473,332.729C853.929,331.908 853.006,331.41 852.022,331.41L840.444,331.41C839.272,331.41 838.213,332.106 837.748,333.182L805.104,408.968L771.877,333.165C771.408,332.1 770.354,331.41 769.194,331.41L757.577,331.41C756.585,331.41 755.657,331.908 755.119,332.737C754.576,333.567 754.485,334.614 754.887,335.523L795.135,427.334C795.605,428.399 796.659,429.09 797.825,429.09L812.481,429.09C813.653,429.09 814.711,428.388 815.176,427.318L854.716,335.503C855.101,334.597 855.011,333.555 854.473,332.729" style="fill:white;fill-opacity:0.784314;fill-rule:nonzero;"/>
        </g>
        <g transform="matrix(1,0,0,1,-458.654,-216.902)">
            <path d="M702.324,333.164C701.854,332.1 700.801,331.409 699.635,331.409L684.984,331.409C683.812,331.409 682.754,332.105 682.289,333.181L642.749,424.996C642.358,425.896 642.448,426.943 642.992,427.765C643.535,428.591 644.453,429.09 645.443,429.09L657.021,429.09C658.193,429.09 659.252,428.388 659.717,427.317L692.355,351.528L725.582,427.334C726.052,428.398 727.105,429.09 728.265,429.09L739.888,429.09C740.88,429.09 741.808,428.591 742.345,427.765C742.889,426.933 742.974,425.885 742.578,424.974L702.324,333.164Z" style="fill:white;fill-opacity:0.784314;fill-rule:nonzero;"/>
        </g>
        <g transform="matrix(1,0,0,1,-458.654,-216.902)">
            <path d="M596.342,395.502L596.977,395.196C608.543,389.608 616.016,377.747 616.016,364.974C616.016,346.466 600.956,331.409 582.448,331.409L539.964,331.409C538.345,331.409 537.031,332.726 537.031,334.345L537.031,426.151C537.031,427.776 538.345,429.09 539.964,429.09L550.602,429.09C552.221,429.09 553.535,427.776 553.535,426.151L553.535,347.913L582.448,347.913C591.859,347.913 599.513,355.564 599.513,364.974C599.513,372.821 594.185,379.626 586.542,381.518C585.166,381.866 583.79,382.042 582.448,382.042L571.811,382.042C570.706,382.042 569.698,382.664 569.2,383.649C568.696,384.635 568.793,385.815 569.449,386.71L599.609,427.889C600.158,428.643 601.035,429.09 601.97,429.09L615.19,429.09C616.293,429.09 617.306,428.467 617.804,427.481C618.308,426.491 618.206,425.308 617.555,424.419L596.342,395.502Z" style="fill:white;fill-opacity:0.784314;fill-rule:nonzero;"/>
        </g>
    </g>
</svg>
