<?xml version="1.0" encoding="utf-8"?>
<!-- Generator: Adobe Illustrator 21.0.0, SVG Export Plug-In . SVG Version: 6.00 Build 0)  -->
<svg version="1.1" id="Layer_1" xmlns="http://www.w3.org/2000/svg" xmlns:xlink="http://www.w3.org/1999/xlink" x="0px" y="0px"
	 viewBox="0 0 1040 140" style="enable-background:new 0 0 1040 140;" xml:space="preserve">
<style type="text/css">
	.st0{fill:#8694A8;}
	.st1{fill:#4065A4;}
	.st2{fill:#90D9F8;}
	.st3{fill:#52C2E5;}
	.st4{fill:#7397CE;}
	.st5{fill:#204571;}
</style>
<g>
	<g>
		<path class="st0" d="M339.39,101.38V45.5l-23.61,55.87h-5.43L286.83,45.5v55.87h-6.28V38.63h9.76l22.84,53.41l22.76-53.41h9.77
			v62.75H339.39z"/>
		<path class="st0" d="M474.35,101.38l-9.09-21.14h-29.21l-9.17,21.14h-6.62l25.54-59.54c0.83-1.95,2.75-3.21,4.87-3.21h0.07
			c2.12,0,4.03,1.26,4.86,3.2l25.63,59.55H474.35z M450.74,45.76l-12.31,28.79h24.37L450.74,45.76z"/>
		<path class="st0" d="M583.83,102.48c-19.19,0-34.13-14.26-34.13-32.61c0-18.17,14.61-32.35,33.29-32.35
			c13.67,0,25.56,7.13,29.72,17.83h-7.05c-4.33-7.64-12.48-12.06-22.16-12.06c-15.46,0-27.43,11.63-27.43,26.75
			c0,14.94,12.14,26.66,27.51,26.66c12.4,0,23.1-8.66,25.39-18.6H573.9v-5.69h42.63C615.59,88.22,602.26,102.48,583.83,102.48z"/>
		<path class="st0" d="M693.66,101.38V38.63h34.3v5.69h-28.02v22.5h27.09v5.69h-27.09v23.18h28.02v5.69H693.66z"/>
		<path class="st0" d="M821.91,101.38h-15.54V38.63h14.69c15.29,0,21.48,5.52,21.48,16.3c0,6.2-2.12,10.27-6.96,12.99
			c7.3,2.97,10.53,7.81,10.53,15.46C846.11,95.77,839.31,101.38,821.91,101.38z M820.21,44.31h-7.56v21.31h7.64
			c11.8,0,15.88-2.72,15.88-10.61C836.17,47.37,832.86,44.31,820.21,44.31z M820.12,71.32h-7.47v24.37h8.58
			c12.82,0,18.51-2.89,18.51-11.97C839.74,71.99,831.25,71.32,820.12,71.32z"/>
		<path class="st0" d="M922.3,101.38V38.63h6.28v62.75H922.3z"/>
		<path class="st0" d="M1023.46,44.31v57.06h-6.28V44.31h-14.35v-5.69h34.98v5.69H1023.46z"/>
	</g>
	<polygon class="st1" points="2.19,83.93 2.19,139.66 49.96,111.79 	"/>
	<polygon class="st2" points="49.96,0.34 2.19,28.21 49.96,56.07 	"/>
	<polygon class="st3" points="49.96,111.79 97.73,139.66 97.73,83.93 	"/>
	<polygon class="st3" points="97.73,28.21 49.96,0.34 49.96,56.07 	"/>
	<polygon class="st2" points="97.73,83.93 97.73,139.66 145.51,111.79 	"/>
	<polygon class="st1" points="145.51,56.07 145.51,111.79 193.28,139.66 193.28,83.93 193.28,28.21 	"/>
	<polygon class="st4" points="145.51,0.34 97.73,28.21 49.96,56.07 2.19,28.21 2.19,83.93 49.96,111.79 97.73,83.93 145.51,56.07 
		193.28,28.21 	"/>
	<polygon class="st5" points="193.28,28.21 145.51,56.07 145.51,65.42 	"/>
	<polygon class="st5" points="2.31,84.15 43.13,115.78 49.96,111.79 	"/>
</g>
</svg>
