<svg version="1.1" id="Ebene_1" xmlns="http://www.w3.org/2000/svg" xmlns:xlink="http://www.w3.org/1999/xlink" x="0px" y="0px" width="153" height="18" viewBox="0 0 1111 134" xml:space="preserve">
<g>
  <g>
    <path fill="#292828" d="M81.3,116.1c-0.6,1.5-1.5,2.7-2.6,3.8c-1.1,1.1-2.3,1.9-3.8,2.5c-1.4,0.6-3,0.9-4.7,0.9H25.8
      c-1.7,0-3.3-0.3-4.7-1c-1.5-0.6-2.8-1.5-3.9-2.7c-1.1-1.1-2-2.4-2.6-3.9c-0.6-1.5-1-3.1-1-4.7V83.6h21.8v21.2h24.4v-31H13.6V22.4
      c0-1.6,0.3-3.2,1-4.6c0.6-1.5,1.5-2.7,2.6-3.8c1.1-1.1,2.3-2,3.8-2.6c1.4-0.6,3-1,4.7-1h44.5c1.7,0,3.2,0.3,4.7,0.9
      c1.5,0.6,2.7,1.5,3.9,2.5c1.1,1.1,2,2.3,2.6,3.7c0.6,1.4,1,3,1,4.7v22.6H59.9V29.2H35.4V55h46.8v56.5
      C82.2,113.1,81.9,114.6,81.3,116.1z"></path>
    <path fill="#292828" d="M174.4,61.5c0,1.7-0.3,3.3-0.9,4.7c-0.6,1.5-1.4,2.8-2.5,3.9c-1.1,1.1-2.4,2-3.9,2.7c-1.5,0.6-3.1,1-4.7,1
      h-35.1v31h8.3v18.5H96.3v-18.5h8.6V29.2h-8.7V10.4h66.2c1.7,0,3.3,0.3,4.7,1c1.5,0.6,2.8,1.5,3.9,2.6c1.1,1.1,1.9,2.3,2.5,3.8
      c0.6,1.4,0.9,3,0.9,4.7V61.5z M152.5,29.2h-25.2V55h25.2V29.2z"></path>
    <path fill="#292828" d="M186.3,123.3v-18.5h8.4V29.2h-8.4V10.4h38.7v18.8h-8.4v75.6h8.4v18.5H186.3z"></path>
    <path fill="#292828" d="M238,123.3v-18.5h8.1V29.2H238V10.4h77.2v34.4h-21.7V29.2h-25.6V55H302v18.8h-34.2v31h25.6V83.6h21.7v39.7
      H238z"></path>
    <path fill="#292828" d="M341.4,123.3c-1.6,0-3.2-0.3-4.7-0.9c-1.5-0.6-2.8-1.5-3.9-2.5c-1.1-1.1-2-2.3-2.7-3.7c-0.7-1.4-1-3-1-4.7
      V22.5c0-1.7,0.3-3.3,0.9-4.7c0.6-1.5,1.5-2.8,2.6-3.9c1.1-1.1,2.4-2,3.8-2.6c1.5-0.6,3-1,4.7-1h44.6c1.7,0,3.2,0.3,4.7,1
      c1.4,0.6,2.7,1.5,3.8,2.6c1.1,1.1,2,2.4,2.6,3.9c0.6,1.5,1,3.1,1,4.7v22.3h-22.8V29.2h-24.4v75.6h25.2v-31h-18V55h40.2v68.3H341.4
      z"></path>
    <path fill="#292828" d="M411.4,123.3v-18.5h8.1V29.2h-8.1V10.4h77.2v34.4h-21.7V29.2h-25.6V55h34.2v18.8h-34.2v31h25.6V83.6h21.7
      v39.7H411.4z"></path>
    <path fill="#292828" d="M502.2,123.3v-18.5h8.6V29.2h-8.4V10.4h40v18.8h-9.3v75.6h25.2V83.6h21.5v39.7H502.2z"></path>
  </g>
  <g>
    <path fill="#292828" d="M718.8,111.4c0,1.6-0.3,3.2-0.9,4.6c-0.6,1.5-1.4,2.7-2.5,3.8c-1.1,1.1-2.3,1.9-3.8,2.5
      c-1.4,0.6-3,0.9-4.7,0.9h-65.2v-18.5h9.2V29.2h-9.2V10.4h64.6c1.6,0,3.2,0.3,4.7,1c1.5,0.7,2.8,1.6,4,2.7c1.1,1.1,2,2.4,2.7,3.9
      c0.7,1.5,1,3.1,1,4.7V111.4z M696.8,29.2h-24.2v75.6h24.2V29.2z"></path>
    <path fill="#292828" d="M793.8,123.3v-18.5h8.9l-3.3-13h-29.3l-3,13h8.5v18.5h-39.2v-18.5h7.3l25.8-94.4h31l25.1,94.4h7.3v18.5H793.8
      z M784.8,29.1l-10.9,44.3H796L784.8,29.1z"></path>
  </g>
  <g>
    <path fill="#292828" d="M850.6,123.3v-18.5h8.4V29.2h-8.4V10.4h38.7v18.8h-8.4v75.6h8.4v18.5H850.6z"></path>
    <path fill="#292828" d="M912.7,123.3v-18.5h8.6V29.2h-8.4V10.4h40v18.8h-9.3v75.6h25.2V83.6h21.5v39.7H912.7z"></path>
  </g>
  <g>
    <path fill="#292828" d="M1073.9,29.1l-28,52.5v23.2h9v18.5h-40.7v-18.5h9.5V81.4l-26.2-52.4h-7.3V10.4h41v18.7h-9.4l14,31.1
      l13.8-31.1h-9V10.4h41v18.7H1073.9z"></path>
  </g>
</g>
</svg>
