<svg xmlns="http://www.w3.org/2000/svg" viewBox="0 0 150 76">
    <g fill="none" fill-rule="evenodd">
      <path fill="#FEFEFE" d="M113.9 40.23l-1.44.66-.46.2c-.64.3-1.3.6-1.97.97-.75.42-1.34.88-1.86 1.3-.15.1-.3.2-.45.33-.77.58-2 1.65-2.73 2.45-.03 0-.04.03-.06.05.02-.4.03-.83.02-1.3l-.08-4.83c0-.45-.02-.95-.04-1.42s-.04-.96-.04-1.35c0-.33.02-.74.04-1.18.02-.5.05-1.02.05-1.54v-1.1l.02-1.26c0-.84-.05-3.7-.07-4.53 0-.5-.04-1.13-.06-1.72l-.04-1.06-.07-1.36c-.03-.36-.05-.7-.06-1.07l-.12-2c-.04-.7-.1-1.4-.1-1.77 0-.32-.04-.88-.08-1.53l-.1-1.54v-.34l.7-.08.76-.07c.2 0 .37 0 .55-.02.78 0 1.85-.02 2.94-.5-.22 1.3-.52 3.3-.6 3.93-.1.68-.1 1.3-.08 1.8v.72l-.1.8c-.08.56-.15 1.14-.2 1.72l-.12.9c-.07.5-.15 1.04-.2 1.62-.03.64-.16 4.34-.06 5.42.13 1.46.5 2.76 1.06 3.76.44.8 1 1.7 1.7 2.5.8.87 1.54 1.38 2.4 1.86.28.16.62.34 1 .5l-.1.05zM90.08 21.6c0 .4-.05.88-.1 1.35l-.1 1.26c-.02.4-.13 1.63-.22 2.62l-.17 2.02-.08 1.3-.08 1.2c-.03.5-.04 1-.04 1.42 0 .35 0 .7-.04 1l-.1 1.1c-.08.53-.15 1.08-.18 1.6l-.25 2.85c-.2 2.33-.33 3.77-.35 4.27-.02.48 0 1.33 0 2.66 0 .8.03 1.8 0 2.1 0 .43 0 .9-.02 1.38 0 .43-.02.84-.03 1.22-.02.38-.1 1.56-.18 2.5l-.16 2.35c0 .1 0 .25-.02.43-.05-.4-.1-.82-.17-1.2v-.07c-.13-.85-.4-1.54-.63-2.1-.08-.2-.18-.44-.2-.56-.2-.82-.44-1.66-.72-2.58-.23-.74-.48-1.43-.73-2.1l-.15-.38c-.23-.62-.47-1.2-.7-1.78-.1-.2-.18-.4-.26-.6-.22-.5-1.57-3.76-1.97-4.65l-1.05-2.26-1.06-2.23c-.07-.14-.16-.42-.24-.7-.15-.45-.32-1-.6-1.6l-.48-1-.57-1.2c-.2-.43-.42-.84-.6-1.2-.2-.33-.36-.65-.5-.94l-.4-1c-.13-.38-.3-.8-.47-1.24-.15-.33-.3-.7-.44-1.1.02 0 .03.02.04.03.72.47 1.6 1.05 2.8 1.14h.44c2.03 0 3.4-1.03 3.84-1.37 1.13-.86 1.95-2.04 2.37-3.42l.08-.2c.23-.74.55-1.75.55-2.9v-1.15l.02-1.23c0-.38-.02-.75-.05-1.1.6.17 1.26.26 1.98.26.44 0 .9-.03 1.48-.08l.5-.05c0 .25 0 .53.02.83 0 .16 0 .34.02.5.02.65 0 3.87-.03 4.63zm59.07 10l-.42-2.36c-.46-1.26-1.08-2.3-1.87-3.14-1.15-1.23-2.53-1.85-4.1-1.85-.26 0-.52.02-.8.05-1.44.18-2.62.83-3.5 1.37l-.47.3c-.52.3-1.18.68-1.84 1.23l-.4.32c-.32.26-.78.73-1.1 1 .03-.17.2-.55.24-.74l.4-1.88.16-.73c.13-.63.23-1.2.3-1.64l.16-.85c.06-.23.1-.5.17-.8l.32-1.46.3-1.43.2-1c.2-.77.36-1.62.53-2.52.15-.76.23-1.52.3-2.18l.05-.48c.12-.97.16-1.93.15-2.85v-.52c0-.9 0-2.03-.46-3.15-.8-1.94-2.5-3.3-4.6-3.6-.83-.13-1.5-.2-2.1-.2-.57 0-1.1.06-1.58.17-1.87.4-2.97 1.64-3.55 2.3l-.17.18-.23.22c-.15.14-.34.3-.53.52-.12-.68-.4-1.32-.9-1.9-1.05-1.16-2.65-1.9-4.5-2.1-.2-.02-.42-.03-.63-.03-1.17 0-2.17.33-2.9.57l-.3.1-.15.04c-.83.26-2.08.65-3.07 1.62-.25-.5-.54-.95-.87-1.33-1.35-1.56-3.54-1.9-4.73-1.98-.17-.03-.35-.03-.54-.03-.64 0-1.2.06-1.66.1l-.43.06c-.32 0-.7-.04-1.12-.08-.5-.05-1.06-.1-1.65-.12-.93 0-1.85-.03-2.77-.04-.12-.02-.24-.02-.36-.02-.4 0-.8 0-1.18.02l-1 .02h-.4c-.6 0-1.12.05-1.6.1-.36.03-.7.06-1 .06h-.03l-.66-.05C91.8.9 91.23.83 90.6.83h-.47c-.93 0-1.78.06-2.54.2-.78.13-3.14.54-4.38 2.76l-.08.13c-.14.23-.32.53-.5.9-.75-.76-1.56-1.38-2.44-1.85-.74-.4-1.48-.62-2.06-.8-.24-.06-.47-.12-.65-.2-.44-.15-4.4-1.45-5.76-1.63-.5-.07-1-.1-1.47-.1-.9 0-1.8.12-2.6.35-1.6.46-2.7 1.44-3.56 2.23v.02c-.1.1-.2.17-.3.25-.55.47-1.3 1.12-2 2.32-.5.88-.88 1.8-1.2 2.6l-.1.18c-.32.82-1.55 4.38-1.8 5.53-.17.87-.35 1.8-.44 2.8-.1 1.05-.02 4.55.1 5.56.1.75.26 1.55.4 2.25l.15.6c.23 1.08 1.15 3.82 1.72 5.22.2.5.43.93.65 1.35.2.36.37.7.5 1.03l.35.96c.16.5.34 1.04.57 1.6.2.5.75 1.7 1.28 2.87l.86 1.88c.24.57.5 1.1.73 1.55.16.3.3.6.42.86.2.47.58 1.27 1 2.1-.4-.06-.83-.1-1.24-.1-1 0-1.8.2-2.4.35l-.25.07c-1.14.27-2.82.8-4.1 2.33l-.33.4-.15-.77c-.04-.3-.07-.66-.1-1.03-.04-.44-.08-.9-.15-1.37l-.26-1.6c-.15-1-.42-2.67-.46-3.1-.07-.7-.14-1.46-.2-2.4-.04-.3-.1-.92-.15-1.64l-.28-3.3-.1-1.72c-.1-1.6-.18-2.76-.23-3.28l-.07-.97c-.02-.47-.05-1-.1-1.57-.1-.87-.23-1.72-.35-2.55-.1-.6-.2-1.15-.32-1.65l-.18-.9c-.16-.9-.88-4.2-1.14-5.13-.26-.95-1.5-4.44-2.03-5.45-.5-.97-1.1-2.18-2.24-3.13-1.22-1.02-2.67-1.52-4.45-1.52h-.16c-1.25.02-2.5.34-3.83.98-1.02.5-2.33 1.25-3.35 2.65-.68.9-1 1.85-1.24 2.6l-.2.62-.35.76c-.27.58-.57 1.23-.8 2-.27.87-.53 1.68-.78 2.38l-.16.43c-.2.6-.5 1.4-.77 2.37-.13.5-.24 1.05-.35 1.56l-.25 1.12c-.2.82-.37 1.53-.57 2.45l-.4 1.84-.2.95-.37 1.95-.27 1.45c-.2.95-.72 3.8-.85 4.52l-.24 1.17c-.1.5-.22 1-.3 1.5-.13.76-.3 2.26-.45 3.6-.1.75-.17 1.48-.22 1.78l-.12.92c-.08.63-.17 1.28-.26 1.82l-.2 1.24c-.05.42-.1.8-.18 1.23-.16.87-.77 4.5-.9 5.45-.06.37-.3 1.58-.5 2.47-.24 1.15-.4 1.88-.45 2.3-.1.54-.2 1.26-.34 2l-.3 1.54c-.02-.6-.06-1.16-.1-1.68l-.38-3.32-.17-1.45c-.12-1.08-.38-4.04-.4-4.6 0-.77.08-6.57.1-7.36l.13-2.57c.13-2.57.2-4.42.22-4.96 0-.27 0-.84.02-1.5 0-1.28.03-3.02.05-3.55 0-.55 0-1.06-.03-1.5 0-.4-.03-.75 0-1.05 0-.5.07-1.88.13-3.1.05-.86.1-1.65.1-2 .03-.52.02-1 .02-1.47v-1.1c.03-.6 0-1.33-.03-2.2 0-.05 0-.12-.02-.2l2.13-.12 1.3-.06.4-.04c.9-.07 1.8-.15 2.68-.48 1.28-.5 2.9-1.73 3.42-4.88.18-1.17.18-2.37-.03-3.6-.27-2.3-1.32-3.7-2.16-4.45-.98-.9-2.24-1.48-3.96-1.84-.94-.2-2.05-.42-3.26-.42h-.08c-.8 0-1.56.12-2.23.22-.24.04-.5.08-.74.1-.74.1-4.5.6-5.5.84l-1.6.38c-1.13.27-2.86.7-3.48.8-.63.1-1.2.27-1.72.42-.38.1-.73.22-1.02.27-.68.12-4.85.98-5.9 1.33C2.06 7.52.63 9.37.3 11.87c-.15 1.24-.26 3.1.55 4.9 1.1 2.44 3.58 2.84 4.63 3l.3.05c.6.1 1.35.23 2.2.23.24 0 .46 0 .67-.02.27-.02.6-.03.93-.03h.34c.03 1.3.04 3.78.03 4.2-.02.54-.02 1.8-.02 3v1.97c0 .35-.04.82-.07 1.28-.04.56-.08 1.13-.1 1.67v5.24l-.07 2.58-.03.43L9.55 45c-.02.54-.02 1.85-.03 3.13v1.93l-.04 2.24c-.02.78-.12 3.97-.16 4.72l-.03.66-.1 1.65-.1.53c-.1.5-.2 1.2-.27 1.97-.05.7-.02 1.38 0 1.97l.03.78c0 1.63.4 2.93.76 3.73 1.3 3.02 3.6 3.34 4.54 3.34.43 0 .86-.06 1.3-.18l.37-.1c1.48-.43 2.25-.65 2.8-.94l.18-.08h.46l.44.02c.22.02.42.02.6.02 3.16 0 4.3-2.37 4.93-3.64.13-.26.3-.6.47-1.03-.04.68 0 1.33.17 1.95.5 2 1.25 2.86 1.97 3.58 1.58 1.6 4.1 1.7 4.84 1.7.32 0 .62 0 .9-.05 1.45-.22 6.32-1.14 8.2-3.92.9-1.36 1.18-4.25 1.25-6.44v-.13h.07c.5.03 1.2.08 1.98.1-.02 1.18-.06 4.42-.04 5.18v.45c-.02.73-.04 1.74.33 2.8.54 1.54 1.57 2.76 3 3.53 1.36.73 3.05.8 3.7.8.37 0 .72 0 1.07-.04 1.7-.2 3.42-.87 4.47-1.76 1.37-1.17 1.9-2.4 2.26-3.53.24-.76.47-2.57.6-3.98.4.76.82 1.44 1.12 1.82.64.84 1.3 1.58 2.04 2.26.82.77 1.72 1.35 2.44 1.82.78.5 4.3 2.17 6 2.4.58.06 1.27.13 2.03.13.47 0 .92-.03 1.37-.1 1.25-.15 2.36-.55 3.3-.92 1.22-.5 2.2-1.2 2.94-1.75 1.1-.82 3.55-3.85 4.17-5.13.1-.17.18-.35.27-.52.35-.7.75-1.46 1-2.36.1-.33.27-1.08.44-1.96.04.65.14 1.22.23 1.7.14.76.37 2.03 1.23 3.35.56.85 1.93 2.3 4.84 2.3.34 0 .7-.03 1.04-.07.98-.1 1.87-.37 2.65-.6l.5-.14c.5-.15.93-.3 1.3-.43l.64-.2c1.7-.1 2.9-.68 3.7-1.37l.15.3c.5 1 1.1 2.04 1.68 2.84.66.94 1.38 1.62 2.02 2.22l.15.15c.82.78 1.72 1.58 2.78 2.17 1.68.9 4.74 1.94 6.2 2.06.4.04.85.06 1.33.06 1.64 0 4.02-.24 5.2-.65 2.5-.86 4.33-2.77 5.12-3.6l.07-.07c.45-.47 1.33-1.4 2.03-2.33.8-1.06 2.42-4.28 2.7-4.93.5-1.1.8-2.28 1.05-3.28.27-1.1.45-2.13.55-3.17.1-.9.13-1.84.16-2.97 0-.55 0-1.1-.03-1.6l-.03-1.2c0-.24 0-.48.02-.73.02-.63.05-1.33 0-2.1-.04-.43-.1-.84-.14-1.2-.05-.4-.1-.77-.1-1 .02-.42 0-.87-.02-1.3.02 0 .03 0 .05-.02l.67-.48c.4-.3 2.28-1.36 3.2-1.87.6-.34 1.06-.6 1.33-.78.9-.53 1.6-1.13 2.24-1.65l.37-.3c.13-.12.35-.27.57-.44.42-.3.95-.68 1.48-1.14.26-.23 3.45-3.28 4.2-4.87.2-.48.35-.95.43-1.4V31.6z"></path>
      <path fill="#333" d="M32.46 9.64c-.1-1-.43-1.82-1.04-2.37-.6-.54-1.47-.84-2.4-1.04-.8-.17-1.67-.34-2.6-.34-.83 0-1.7.2-2.6.3-.86.1-4.37.6-5.14.77-1.06.24-4.17 1.02-5.25 1.2-.87.15-1.77.53-2.72.7-.93.16-4.72.98-5.4 1.2-.94.32-1.43 1.08-1.58 2.24-.12.95-.18 2.06.26 3.03.33.73 1.16.9 2.04 1.04.72.1 1.52.3 2.36.22.8-.08 1.66-.02 2.38-.1 1.14-.1 2.22-.34 2.37-.08.15.25.13 1.53.2 2.65.05.84.07 4.64.05 5.22-.02.86 0 4.05 0 4.93-.02.87-.16 2.06-.17 2.94v5.25c-.02.88-.06 2.18-.1 3.05 0 .88-.1 3.82-.1 4.63-.03.8-.04 4.03-.05 4.84l-.03 2.42c-.02.8-.12 4.04-.16 4.84-.05.8-.07 1.62-.14 2.42-.04.55-.28 1.45-.36 2.46-.05.8.04 1.7.04 2.5 0 1 .25 1.84.48 2.37.35.83.9 1.42 1.74 1.2.82-.25 2.2-.62 2.55-.8 1.04-.53 1.4-.46 2.24-.45 1.55.02 1.86.35 2.84-1.68.32-.64.67-1.4.72-2.26.05-.75 0-1.58-.06-2.4-.07-.78-.47-4-.54-4.68-.1-.83-.4-4.1-.4-4.94-.02-.83.06-6.7.1-7.52.02-.83.3-6.6.32-7.47.02-.85.04-4.27.07-5.12.03-.85-.06-1.7-.03-2.57.03-.85.2-4.26.25-5.12.03-.85-.02-1.7.02-2.55.04-1.17-.2-3.9-.03-4.98.08-.5 1.83-.45 2.16-.57.5-.2 3.64-.3 4.34-.35.86-.08 1.68-.12 2.2-.3.7-.28 1.06-1.18 1.23-2.22.12-.73.14-1.6-.04-2.54M57.14 64.2c.04-.84-.23-1.66-.26-2.47-.04-.84 0-1.67-.08-2.46-.1-.86-.35-4.2-.48-4.92-.18-.98-.65-4.03-.75-4.83-.1-.8-.33-1.6-.45-2.4-.12-.8-.14-1.6-.25-2.4-.12-.8-.68-4.02-.75-4.85l-.22-2.47c-.07-.82-.35-4.1-.4-4.93-.07-.82-.25-4.12-.33-4.94-.08-.82-.08-1.65-.17-2.47-.1-.82-.2-1.64-.33-2.46-.12-.82-.33-1.62-.48-2.43-.15-.8-.85-4.03-1.07-4.83-.23-.83-1.4-4.06-1.77-4.78-.43-.82-.82-1.58-1.42-2.08-.65-.55-1.4-.72-2.34-.7-.72 0-1.47.2-2.4.63-.8.4-1.55.87-2.1 1.6-.5.7-.68 1.6-1.02 2.46-.34.82-.78 1.62-1.04 2.47-.27.9-.55 1.76-.83 2.55-.2.6-.56 1.46-.84 2.5-.2.78-.36 1.66-.58 2.6-.2.8-.37 1.5-.57 2.4l-.57 2.76c-.2.87-.46 2.5-.63 3.37-.18.9-.7 3.63-.84 4.46-.17.95-.4 1.8-.53 2.6-.18 1.12-.52 4.4-.64 5.3-.14.9-.26 1.95-.4 2.84-.16.9-.24 1.63-.4 2.5-.16.9-.75 4.46-.88 5.34-.13.9-.85 4.07-.95 4.78-.1.72-.22 1.42-.36 2.13-.12.7-.27 1.4-.42 2.13-.18.9-.63 2.67-.4 3.6.33 1.24.68 1.6 1.1 2 .58.6 2.13.8 2.8.7 1.34-.22 4.9-1.07 5.84-2.45.43-.65.65-3.86.68-4.62.02-.82.13-3.1.28-3.32.2-.26 1.23-.18 2.88-.17.36.02 1.5.15 2.65.14 1.18 0 2.92-.03 3.02.13.14.25.12 2.05.1 3.22-.02 1.18-.06 4.52-.05 5.24.02.77-.07 1.52.15 2.16.24.68.67 1.24 1.38 1.62.53.3 1.66.5 2.76.37 1.08-.13 2.14-.57 2.6-.97.77-.65 1-1.25 1.22-1.95.2-.6.54-3.74.56-4.68m-9.4-11.98c-.77.2-3.8.1-4.6.02-1.12-.1-2.35.05-2.47-.27-.14-.38.26-2.02.3-3 .03-.9.22-3.16.37-4.37.1-.76.1-1.64.22-2.58.1-.8.4-4.3.54-5.16.12-.86.35-1.7.5-2.55.12-.86.26-1.72.4-2.55.15-.9.8-4.25 1-4.98.33-1.38.76-2.8 1.04-2.77.23.02.44 1.43.6 2.96l.68 8.14.4 5.28c.07.87.3 1.75.35 2.63.07.9.2 1.76.26 2.6.07.97.16 1.78.2 2.56.08 1.23.6 3.96.2 4.06m23.7-28.57c-.23-.62-.67-1.76-.8-2.83-.07-.8-.03-3.4.23-4.27.25-.84.83-2.54 1.33-3.28.47-.7.97-1.24 1.73-1.76.87-.58 1.8-.16 2.2.57.53 1 .18 3.83 0 4.67-.17.8-.7 1.55-.78 2.32-.08.87.34 1.62.7 2.3.18.3.7.77 1.38 1.17.64.38 1.26.88 1.67.9.85.08 1.46-.27 1.96-.66.55-.4.95-.97 1.17-1.7.2-.64.46-1.37.46-2.08V16.6c0-.8-.1-1.6-.15-2.37-.05-.8 0-1.62-.14-2.38-.12-.8-.38-1.57-.65-2.3-.32-.84-.8-1.5-1.3-2.03-.55-.6-1.17-1.14-1.87-1.52-.7-.37-1.5-.5-2.27-.8-.73-.26-4.17-1.34-5-1.45-.94-.12-1.86-.1-2.7.15-.83.24-1.5.84-2.2 1.5-.6.53-1.12.87-1.63 1.74-.42.73-.74 1.54-1.07 2.35-.33.8-1.45 4.12-1.62 4.94-.17.8-.32 1.6-.4 2.4-.07.8 0 4.05.1 4.85.1.78.33 1.76.5 2.55.15.8.98 3.27 1.53 4.6.3.72.78 1.48 1.15 2.37.32.77.56 1.7.9 2.53.35.8 1.8 3.95 2.14 4.72.37.87.8 1.65 1.12 2.36.48 1.06 2 4.12 2.43 4.96.46.86.75 1.8 1.12 2.68.38.9.7 1.8.93 2.75.14.6.96 3.75 1.03 4.53.07.8-.1 3.4-.86 4.48-.56.83-.93 1.2-1.86 1.13-1.13-.1-1.83-.94-2.15-1.86-.4-1.12-.25-2.48-.25-2.9 0-.6.13-1.5.1-2.5 0-.8-.23-1.64-.38-2.46-.16-.86-.43-1.63-.85-2.3-.44-.7-.97-1.34-1.85-1.54-1-.23-1.85.05-2.63.23-.94.22-1.7.53-2.27 1.2-.56.66-1.07 1.45-1.2 2.4 0 0 .12 4.05.24 4.97.1.77.4 1.55.6 2.4.18.78.45 1.55.75 2.35.28.75 1.78 3.66 2.3 4.33.48.64 1 1.24 1.63 1.82.6.54 1.26 1 1.97 1.45.67.43 3.66 1.75 4.57 1.86.8.1 1.65.18 2.53.07.83-.1 1.62-.38 2.44-.72.77-.3 1.45-.75 2.16-1.3.65-.5 2.75-3.07 3.15-3.9.37-.75.84-1.55 1.07-2.32.22-.8.8-3.92.77-4.74-.02-.82-.14-1.65-.26-2.48-.1-.8-.58-1.53-.77-2.35-.2-.77-.42-1.55-.66-2.35-.24-.76-.53-1.52-.82-2.3-.27-.76-.6-1.5-.9-2.27-.32-.75-1.57-3.76-1.92-4.52l-1.03-2.22-1.05-2.2c-.35-.74-.5-1.57-.85-2.32-.34-.73-.7-1.46-1.06-2.2-.33-.75-.76-1.45-1.1-2.2-.33-.74-.57-1.53-.9-2.3-.32-.73-.58-1.5-.9-2.27-.3-.75-.67-1.48-.96-2.25M109.2 9.5c.23-.54.5-1.4.44-2.22-.07-.85-.44-1.7-.82-2.14-.4-.46-1.4-.75-2.36-.8-.92-.07-1.86.15-2.43.14-.94 0-1.9-.18-2.8-.2-.94 0-1.86-.03-2.8-.04-.9-.02-1.84.05-2.77.03-.9 0-1.83.17-2.78.16-.54 0-1.42-.13-2.36-.15-.78-.02-1.6 0-2.34.14-.9.16-1.6.43-1.95 1.05-.23.4-.76 1.15-.9 2.07-.1.7.16 1.55.25 2.28.1.8.3 1.47.77 2 .5.58 1.66.56 2.87.44 1.14-.1 3.5-.36 3.84-.14.26.16.13 1.18.32 2.3.12.7.12 1.52.15 2.46.03.74.02 4.04-.02 4.9-.03.78-.14 1.8-.2 2.65-.04.8-.33 3.84-.4 4.67-.05.8-.08 1.67-.14 2.5-.07.8-.03 1.58-.08 2.4-.06.8-.24 1.87-.3 2.7-.04.8-.56 6.2-.6 7.02-.03.82.05 3.93.02 4.72l-.07 2.6c-.03.84-.3 4.1-.33 4.87-.04.87-.32 3.98-.38 4.6-.08.8.05 1.52.17 2.22.1.63.22 1.35.7 2.08.44.67 1.54.82 2.63.7.84-.1 1.73-.4 2.6-.64 1.1-.3 2.03-.7 2.55-.73 1.22-.04 1.92-.47 2.27-1.14.34-.67.45-1.54.4-2.6-.06-.8-.28-1.7-.35-2.64l-.17-2.55-.12-2.54c-.03-.86-.1-1.7-.14-2.56l-.08-2.55c-.03-.85.06-1.7.05-2.56-.02-.85-.1-4.04-.1-4.9 0-.84-.06-1.92-.07-2.8 0-.82.1-1.85.1-2.72l.02-2.36c0-.8-.05-3.66-.07-4.45 0-.8-.06-1.94-.08-2.74-.03-.8-.1-1.6-.12-2.42-.03-.78-.2-2.93-.22-3.74l-.16-3.06c-.04-.76-.26-2.92-.26-3.5 0-.48 1.2-.33 2.6-.36.85-.03 1.65-.18 2.36-.22.9-.05 1.73.05 2.35-.26.65-.32 1.05-1.03 1.33-1.95m36.4 20.94c-.35-.92-.74-1.52-1.16-1.97-.63-.68-1.2-.84-1.97-.74-.68.08-1.33.4-2.08.87-.63.4-1.35.74-2 1.27l-1.8 1.5c-.62.53-1.12 1.2-1.72 1.65-.7.53-1.44.88-2.08 1.16-1.1.48-2.27 1.16-2.27 1.16-.3-.2.02-2.34.13-3.06.1-.62.23-1.68.43-2.76.15-.82.33-1.53.5-2.43l.57-2.65c.22-1.07.34-1.9.48-2.53.13-.6.27-1.42.5-2.35.18-.72.32-1.53.5-2.36.2-.76.35-1.56.5-2.36.15-.8.22-1.63.3-2.4.1-.86.15-1.65.13-2.4-.02-.9.06-1.8-.2-2.44-.33-.82-1.06-1.36-1.92-1.5-.94-.13-1.78-.2-2.45-.06-.87.2-1.38.9-1.9 1.45-.52.56-1.04.82-1.3 1.63-.23.74-.1 1.28-.2 2.1-.1.8-.24 1.58-.28 2.36-.05.88-.17 2.66-.26 3.48-.08.8-.5 3.02-.65 3.82-.13.8-.25 3.24-.44 4.35-.12.64-.2 3.04-.83 3.88-.54.74-1.46 1.1-2.55 1.13-1.04.05-1.8-.5-2.54-1.06-.57-.43-.58-2.2-.63-3.4-.02-.86.18-1.8.3-2.8.1-.94.1-1.92.27-2.78.22-1.2.34-2.23.43-2.77.1-.52.7-3.68.88-4.46.16-.74.52-1.46.66-2.18.16-.8.23-1.63.33-2.3.18-1.16.27-2 .1-2.2-.48-.52-1.35-.88-2.3-.98-.83-.1-1.67.24-2.45.5-.87.27-1.77.5-2.13 1.22-.16.3-.5 1.13-.77 2.34-.15.7-.75 3.96-.9 4.8-.12.78-.63 4.02-.74 4.84-.1.8.02 1.65-.08 2.45-.1.8-.2 1.64-.28 2.43-.07.84-.25 1.63-.3 2.42-.05.85-.15 4.18-.08 4.9.1 1.04.35 1.87.63 2.38.37.67.78 1.35 1.24 1.85.5.56.93.85 1.54 1.2.63.35 1.6.75 2.33.88l2.33.42c.8.13 1.5.14 2.3.27 1.35.22 3.54-.1 3.54-.12.02.13-1.6 1.23-2.75 1.83-.64.33-1.36.7-2.1 1.04-.72.36-1.46.7-2.1 1-1.04.48-1.85.9-2.1 1.02-.74.33-1.48.66-2.2 1-.75.34-1.52.68-2.22 1.07-.72.38-1.28.88-1.93 1.37-.64.48-1.7 1.4-2.25 2-.58.64-1.8 3.14-2.02 4-.22.82-.38 1.67-.45 2.54-.06.86-.27 1.75-.2 2.62.06.86.24 1.73.4 2.58.2.85 1.28 4 1.67 4.76.4.78.92 1.7 1.4 2.38.52.72 1.14 1.3 1.75 1.87.64.62 1.32 1.23 2.06 1.64 1.37.75 3.98 1.58 4.84 1.65 1.7.14 4.35-.15 5.1-.4 1.8-.63 3.28-2.23 3.85-2.82.57-.6 1.26-1.36 1.76-2 .5-.67 1.98-3.52 2.3-4.25.38-.87.64-1.85.85-2.7.22-.87.38-1.75.47-2.7.08-.84.12-1.74.15-2.72.02-.83-.06-1.74-.05-2.72 0-.83.08-1.7.02-2.56-.06-.86-.25-1.72-.23-2.56 0-.9-.18-2.34-.1-2.66.13-.46 1.43-1.25 2.17-1.8.75-.56 4.03-2.37 4.8-2.84.83-.5 1.52-1.1 2.23-1.68.5-.4 1.27-.9 1.98-1.5.6-.53 3-3.02 3.3-3.7.4-.8.17-1.65-.1-2.44m-20.3 25.9c-.1 1.05-.2 1.92-.43 2.68-.25.82-.6 1.6-1.05 2.52-.4.8-.96 1.5-1.55 1.95-.65.5-1.5.66-2.34.75-.73.07-1.53-.05-2.4-.3-.83-.27-1.63-.56-2.12-1.08-.54-.6-.8-1.42-.96-2.2-.15-.74-.34-1.57-.14-2.37.42-1.6 1.65-3.85 2.2-4.42.38-.42 1.04-1.14 1.78-1.72.6-.45 1.12-.87 1.78-1.32.7-.45 1.43-.9 2.06-1.24.9-.5 2.95-2.03 3.1-1.6.32 1-.1 1.16.07 3.6.05.63.05 1.33 0 2.38-.03.72.12 1.4.02 2.35"></path>
    </g>
  </svg>
