<svg xmlns="http://www.w3.org/2000/svg" viewBox="0 0 270.88282 53.719249">
  <g fill="#3458b0">
    <path d="M-50.61452 946.82375h.0325V-63.01875h-.0325v1009.8425zm224.03175-926.353h-7.6l2.98875 4.2875h3.8525l-3.2375 18.445h6.7475l3.245-18.445h8.4175L174.54223 14.067l-1.125 6.40375zM41.50123 10H10.83748l-.8375 4.83h11.90625l-4.98875 28.37375h6.75L28.65623 14.83h12.0075l.8375-4.83z"/>
    <path d="M49.99123 29.42037h-11.7375c.705-2.325 2.985-5.53875 7.1375-5.53875 4.5175 0 4.995 3.43375 4.6 5.53875m-3.4975-9.46125c-8.58 0-14.07125 5.4-15.16125 11.6725-1.20875 6.96625 3.07125 12.065 11.72875 12.065 3.86875 0 7.48875-.7275 10.42875-2.3625l.91375-5.195c-2.8725 2.0575-6.5275 3.20875-9.62625 3.20875-4.31625 0-7.7475-1.7975-7.2075-5.92h17.835c.215-.48875.4725-1.34625.65875-2.41625.86375-4.97625-.90125-11.0525-9.57-11.0525m29.80713.0015c-4.2125 0-7.3675 1.74625-8.855 3.51125h-.1575l-5.94125-3.51125c-.21875 1.97-.51125 4.645-.9675 7.27125l-2.7725 15.97125h6.7475l2.3475-13.375c.1125-.65625.335-1.3525.62625-1.825 1.0075-1.755 3.12375-3.37125 5.805-3.37125 3.68375 0 4.68625 2.485 4.12 5.745l-2.25625 12.82625h6.75l2.37625-13.50125c1.24875-7.18875-3.1725-9.74125-7.8225-9.74125m80.96649 0c-4.21375 0-7.3675 1.74625-8.855 3.51125h-.1575l-5.94125-3.51125c-.21875 1.97-.51125 4.645-.96875 7.27125l-2.77125 15.97125h6.74625l2.34875-13.375c.11125-.65625.335-1.3525.62375-1.825 1.01-1.755 3.125-3.37125 5.805-3.37125 3.6875 0 4.68875 2.485 4.1225 5.745l-2.255 12.82625h6.74875l2.375-13.50125c1.2475-7.18875-3.17125-9.74125-7.82125-9.74125m-26.30962 9.45975h-11.7375c.705-2.325 2.985-5.53875 7.135-5.53875 4.52 0 4.9975 3.43375 4.6025 5.53875m-3.49875-9.46125c-8.57875 0-14.07 5.4-15.16 11.6725-1.20875 6.96625 3.07125 12.065 11.72875 12.065 3.8675 0 7.48875-.7275 10.42875-2.3625l.91375-5.195c-2.8725 2.0575-6.5275 3.20875-9.6275 3.20875-4.31375 0-7.7425-1.7975-7.20625-5.92h17.83875c.21125-.48875.47-1.34625.65875-2.41625.86-4.97625-.90625-11.0525-9.575-11.0525M86.9556 31.5315c-1.22375 7.05625 3.71625 12.1625 12.0775 12.1625 3.325 0 7.295-.955 8.79875-1.51375l1.09125-6.07625c-2.345 2.5225-5.52375 3.04625-7.77875 3.04625-4.59375 0-8.07125-2.675-7.2625-7.335.7025-4.1675 4.64875-7.37 9.79375-7.37 2.095 0 4.9375.70125 6.73 3.06l1.04625-6.18c-1.45125-.5575-3.775-1.3525-7.21375-1.3525-9.3825 0-16.1 4.75375-17.2825 11.55875m131.5575-6.22738c-.63875-.71375-1.31375-1.88-1.7275-2.705h-1.39125c-.7525.93875-1.88 1.99125-2.85625 2.705h5.975zm-1.39 2.81875h-8.23l2.48 1.1275-.45125 2.255h5.45l.75125-3.3825zm3.90875-.525l-.86375 3.9075h1.84125c1.24 0 2.1425.26375 1.91625 1.805-.41375 2.78-1.16375 6.65125-1.76625 9.9225h-9.9975l-.82625-2.96875h7.36625c.33875-1.58.7525-3.49625.9775-5.07375.075-.5275-.15-.71625-.6775-.71625h-12.4775l1.1275-6.05125c-.9025.41375-2.255.86625-3.57125 1.1275l.79-3.64375c2.33125-.56375 4.6975-1.69375 6.16375-3.3075h-5.5625l.63875-2.8575h6.87875c.375-.525.67625-1.2025.8275-1.69125h-7.4425l.56375-2.96875h2.66875l-.9775-4.39875h3.79625l.9025 4.39875h1.31375c.41375-1.46625.715-3.42125.7525-5.0375h3.87125c-.075 1.61625-.3 3.5325-.67625 5.0375h1.54c.6025-1.3525 1.2025-2.96875 1.69125-4.39875h3.87125c-.525 1.355-1.2025 3.0075-1.84125 4.39875h2.70625l-.71375 2.96875h-8.08c-.15125.48875-.4525 1.2025-.715 1.69125h9.9225l-.67625 2.8575h-5.7875c1.23875 1.84125 4.20875 3.2325 6.50125 3.71875l-1.2775 3.2325c-1.57875-.33625-3.3075-1.08875-4.69875-1.9525m-4.21 11.2H204.0806l-.525-2.89375h13.90625v.0362l-.64 2.8575zM201.8256 14.10412h-1.8775c-.3025 1.805-.6025 3.6825-.9775 5.6375h2.555l.94-4.92375c.1125-.56375-.1125-.71375-.64-.71375m-.78875 8.60625h-2.59375c-.375 1.955-.78875 3.985-1.2025 6.015h2.7075l1.08875-6.015zm5.22375-9.65875c-1.84125 10.11125-3.49375 20.10875-5.37375 30.18125h-3.79625c.7525-3.79625 1.61625-7.8175 2.255-11.53875h-2.705c-.8275 3.9075-1.69125 7.8175-2.51875 11.53875h-3.79625c3.19375-10.18625 4.77375-20.6725 6.57625-32.2475h7.10375c1.8425 0 2.59375.3 2.255 2.06625m52.18425-2.02987H240.8936l.75 3.34375h13.11875c.86375 0 1.2775.11375 1.08875 1.09125-.48875 2.705-1.01375 5.44875-1.54125 8.1175h-5.7125l.9775-5.7125-3.9825-2.33-1.46625 8.0425h-4.24875l-.56375 3.34625h4.17375c-.86625 5.4125-1.91875 10.93625-3.0075 16.34875h4.54625c1.0525-5.44875 2.105-10.9 3.0075-16.34875h5.67625c-.94125 5.44875-1.99375 11.05-3.04625 16.34875h8.045l1.38875-3.3825h-4.2825c1.69125-8.60625 3.4575-17.59 4.96-26.27125.33875-1.88-.0363-2.59375-2.33-2.59375m-19.28125 6.915c-.56375-2.63-1.2775-5.37375-1.88-7.92875h-4.24625c.56375 2.59125 1.16625 5.37375 1.655 7.92875h4.47125zm-9.28375 1.76625h7.8925c-.78875 5.2625-1.69125 10.6-2.705 15.9375 1.5025-1.1275 3.0825-2.33125 4.51-3.57125l-.8275 4.84875c-2.66875 2.255-6.35125 4.885-9.73375 6.80125 1.46625-6.80125 2.81875-14.01875 3.79625-20.67h-3.5325l.6-3.34625"/>
  </g>
</svg>
