<svg id="Layer_1" xmlns="http://www.w3.org/2000/svg" viewBox="0 0 242 121"><path fill="#444745" d="M110.674 3.528h3.474L114.564 2H71.63l-.418 1.528h6.253c5.418 0 9.726 3.75 9.726 11.255 0 4.168-1.8 9.587-4.72 16.118L54.82 92.32l-6.81-79.756c-.556-6.252 2.5-9.03 9.59-9.03h4.027L62.042 2H1.6l-.557 1.528h3.89c4.725 0 6.532 2.918 7.087 8.615l10.7 103.1h25.427l42.518-90.038c6.392-13.48 13.2-21.677 20.01-21.677zm-5.002 112.27c-3.89 0-6.253-1.25-6.253-7.642 0-8.06 2.91-23.76 6.11-38.072.41 6.67 5 13.2 11.81 13.2 1.67 0 3.06-.138 4.44-.417-6.26 27.236-8.76 32.932-16.12 32.932zm121.024-54.19c8.06 0 13.2-6.67 13.2-14.173 0-6.392-4.585-11.116-11.115-11.116-11.81 0-17.36 9.31-27.09 26.53-2.08-10.7-6.94-24.73-19.45-24.73-14.03 0-30.15 20.01-45.02 32.37-6.67 5.56-14.17 9.17-20.15 9.17-6.11 0-9.72-6.26-9.72-17.23 4.31-17.93 6.67-22.65 13.34-22.65 4.59 0 6.53 2.64 6.53 8.06 0 5.69-1.25 15.42-3.75 27.51 6.67-2.09 16.68-10.42 25.01-19.45-4.44-10.56-13.89-17.79-27.65-17.79-25.42 0-47.66 22.78-47.66 48.35 0 17.65 12.51 30.984 32.1 30.984 32.38 0 45.86-28.066 45.86-47.52 0-2.78-.14-4.86-.42-7.364C155.717 57.14 162.108 52 167.388 52c5.975 0 10.7 15.007 15.423 37.657-4.17 4.58-8.34 13.474-10.42 15.002-.836-8.06-6.115-13.06-13.2-13.06-7.92 0-13.48 7.5-13.48 13.893 0 7.226 5 11.95 11.53 11.95 13.76 0 17.65-13.062 26.265-24.595 2.64 12.363 8.754 24.59 19.313 24.59 12.506 0 24.178-10.7 30.15-18.34l-1.11-1.81c-3.89 3.753-7.642 6.254-11.95 6.254-7.78 0-13.34-16.81-17.645-37.1 2.5-3.47 6.53-12.225 9.31-15.28 1.95 3.612 5.978 10.42 15.15 10.42z"></path></svg>
