<svg xmlns="http://www.w3.org/2000/svg" xmlns:xlink="http://www.w3.org/1999/xlink" version="1.0" x="0px" y="0px" viewBox="0 0 100 100" xml:space="preserve"><path d="M94.1986084,37.4180145c-1.5149384-3.4936104-5.5750198-5.0952682-9.063118-3.5803986l-3.8762207,1.5906143  L67.42453,41.5315437L29.7274246,24.0684719c-0.7442017-0.4797554-1.6281147-0.7491932-2.577116-0.7491932  c-2.6473503,0-4.7878036,2.140379-4.7878036,4.7877274c0,1.1533489,0.40975,2.2155247,1.0893154,3.0403175l20.2825623,20.8546257  L30.762537,57.7331619l-18.0074692-9.7045784c-0.7011108-0.3616714-1.5044336-0.5663948-2.3507719-0.5663948  c-2.8575926,0-5.1757812,2.3181915-5.1757812,5.1758575c0,0.9595108,0.2693615,1.8549156,0.7221284,2.6257286l18.2018337,20.5685616  l66.0026093-29.1359711l0.4637299-0.2153091C94.1124268,44.9661903,95.707962,40.9060326,94.1986084,37.4180145z   M52.0132294,57.9974594c-1.4536285,0-2.6320763-1.1784477-2.6320763-2.6320801  c0-1.4536285,1.1784477-2.6320763,2.6320763-2.6320763c1.4536324,0,2.6320801,1.1784477,2.6320801,2.6320763  C54.6453094,56.8190117,53.4668617,57.9974594,52.0132294,57.9974594z M60.2191238,54.4364128  c-1.4536324,0-2.6320801-1.1784477-2.6320801-2.6320801c0-1.4536285,1.1784477-2.6320801,2.6320801-2.6320801  c1.4536285,0,2.6320763,1.1784515,2.6320763,2.6320801C62.8512001,53.2579651,61.6727524,54.4364128,60.2191238,54.4364128z   M68.5798416,50.7205353c-1.4536285,0-2.6320801-1.1784477-2.6320801-2.6320763  c0-1.4536324,1.1784515-2.6320801,2.6320801-2.6320801s2.6320801,1.1784477,2.6320801,2.6320801  C71.2119217,49.5420876,70.0334702,50.7205353,68.5798416,50.7205353z"/></svg>