<svg xmlns="http://www.w3.org/2000/svg" viewBox="0 0 1234 586" height="586" width="1234">
  <defs>
    <style>
<![CDATA[
       line {
         stroke: #737373;
         stroke-width: 6;
         stroke-linecap: round;
         stroke-dasharray: 0, 8.74;
       }

       path {
        fill: #f5f5f5;
       }
    ]]>
    </style>
  </defs>
  <line x1="3" x2="1230" y1="3" y2="3" />
  <line x1="3" x2="1230" y1="11.74" y2="11.74" />
  <line x1="3" x2="1230" y1="20.48" y2="20.48" />
  <line x1="3" x2="1230" y1="29.22" y2="29.22" />
  <line x1="3" x2="1230" y1="37.96" y2="37.96" />
  <line x1="3" x2="1230" y1="46.7" y2="46.7" />
  <line x1="3" x2="1230" y1="55.44" y2="55.44" />
  <line x1="3" x2="1230" y1="64.18" y2="64.18" />
  <line x1="3" x2="1230" y1="72.92" y2="72.92" />
  <line x1="3" x2="1230" y1="81.66" y2="81.66" />
  <line x1="3" x2="1230" y1="90.4" y2="90.4" />
  <line x1="3" x2="1230" y1="99.14" y2="99.14" />
  <line x1="3" x2="1230" y1="107.88" y2="107.88" />
  <line x1="3" x2="1230" y1="116.62" y2="116.62" />
  <line x1="3" x2="1230" y1="125.36" y2="125.36" />
  <line x1="3" x2="1230" y1="134.1" y2="134.1" />
  <line x1="3" x2="1230" y1="142.84" y2="142.84" />
  <line x1="3" x2="1230" y1="151.58" y2="151.58" />
  <line x1="3" x2="1230" y1="160.32" y2="160.32" />
  <line x1="3" x2="1230" y1="169.06" y2="169.06" />
  <line x1="3" x2="1230" y1="177.8" y2="177.8" />
  <line x1="3" x2="1230" y1="186.54" y2="186.54" />
  <line x1="3" x2="1230" y1="195.28" y2="195.28" />
  <line x1="3" x2="1230" y1="204.02" y2="204.02" />
  <line x1="3" x2="1230" y1="212.76" y2="212.76" />
  <line x1="3" x2="1230" y1="221.5" y2="221.5" />
  <line x1="3" x2="1230" y1="230.24" y2="230.24" />
  <line x1="3" x2="1230" y1="238.98" y2="238.98" />
  <line x1="3" x2="1230" y1="247.72" y2="247.72" />
  <line x1="3" x2="1230" y1="256.46" y2="256.46" />
  <line x1="3" x2="1230" y1="265.2" y2="265.2" />
  <line x1="3" x2="1230" y1="273.94" y2="273.94" />
  <line x1="3" x2="1230" y1="282.68" y2="282.68" />
  <line x1="3" x2="1230" y1="291.42" y2="291.42" />
  <line x1="3" x2="1230" y1="300.16" y2="300.16" />
  <line x1="3" x2="1230" y1="308.9" y2="308.9" />
  <line x1="3" x2="1230" y1="317.64" y2="317.64" />
  <line x1="3" x2="1230" y1="326.38" y2="326.38" />
  <line x1="3" x2="1230" y1="335.12" y2="335.12" />
  <line x1="3" x2="1230" y1="343.86" y2="343.86" />
  <line x1="3" x2="1230" y1="352.6" y2="352.6" />
  <line x1="3" x2="1230" y1="361.34" y2="361.34" />
  <line x1="3" x2="1230" y1="370.08" y2="370.08" />
  <line x1="3" x2="1230" y1="378.82" y2="378.82" />
  <line x1="3" x2="1230" y1="387.56" y2="387.56" />
  <line x1="3" x2="1230" y1="396.3" y2="396.3" />
  <line x1="3" x2="1230" y1="405.04" y2="405.04" />
  <line x1="3" x2="1230" y1="413.78" y2="413.78"/>
  <line x1="3" x2="1230" y1="422.52" y2="422.52"/>
  <line x1="3" x2="1230" y1="431.26" y2="431.26"/>
  <line x1="3" x2="1230" y1="440" y2="440"/>
  <line x1="3" x2="1230" y1="448.74" y2="448.74"/>
  <line x1="3" x2="1230" y1="457.48" y2="457.48"/>
  <line x1="3" x2="1230" y1="466.22" y2="466.22"/>
  <line x1="3" x2="1230" y1="474.96" y2="474.96"/>
  <line x1="3" x2="1230" y1="483.7" y2="483.7"/>
  <line x1="3" x2="1230" y1="492.44" y2="492.44"/>
  <line x1="3" x2="1230" y1="501.18" y2="501.18"/>
  <line x1="3" x2="1230" y1="509.92" y2="509.92"/>
  <line x1="3" x2="1230" y1="518.66" y2="518.66"/>
  <line x1="3" x2="1230" y1="527.4" y2="527.4"/>
  <line x1="3" x2="1230" y1="536.14" y2="536.14"/>
  <line x1="3" x2="1230" y1="544.88" y2="544.88"/>
  <line x1="3" x2="1230" y1="553.62" y2="553.62"/>
  <line x1="3" x2="1230" y1="562.36" y2="562.36"/>
  <line x1="3" x2="1230" y1="571.1" y2="571.1"/>
  <line x1="3" x2="1230" y1="579.84" y2="579.84"/>
  <path d="M1161.75 514h8.75v8.75h-8.75zm-105-166.25v8.75h8.75v-8.75zM908 304h8.75v17.5h8.75v8.75h-8.75v-8.75H908zm8.75-17.5h8.75v8.75h8.75V304H943v-8.75h43.75V304h8.75v8.75h-8.75v8.75h-17.5v8.75h-8.75v26.25h26.25v-8.75h8.75v17.5h17.5v17.5h-35V374h-26.25v-8.75H943v-17.5h-8.75v-35h-8.75V304h-8.75zM1083 417.75V391.5h8.75v-8.75h-17.5v-17.5h-17.5v-8.75H1048v-8.75h-17.5v-35H1013V304h-8.75v-8.75h8.75v-8.75h-8.75v-8.75h-8.75v-35h-8.75V234H978v8.75h-17.5v8.75h-26.25v8.75H943V269h8.75v17.5h8.75v8.75h35V339h8.75v8.75h8.75v35h8.75v8.75h43.75v8.75h-8.75V409h8.75v8.75zM908 339h8.75v8.75h8.75v17.5H943V374h17.5v8.75h52.5v8.75h35v8.75h-8.75V409h-8.75v-8.75h-8.75V409H1013v8.75h-8.75v8.75h-17.5v8.75h-17.5V444h-8.75v52.5H908zm78.75-122.5h8.75V234h-8.75zm148.75 140h96.25v61.25H1223v8.75h8.75v-8.75V444h-52.5v-8.75h-8.75v-8.75h-8.75v8.75h8.75V444h-61.25v-17.5h-8.75v-26.25h-8.75v-17.5h17.5v8.75h17.5v-8.75H1118V374h8.75v-8.75h8.75V374h8.75v-8.75h-8.75zm-35 0h26.25v8.75H1118V374h-8.75v-8.75h-8.75zM1231.75 584H1118v-35h17.5v-8.75h17.5v-8.75h8.75v-8.75h17.5V514h8.75v-8.75h-8.75V514h-17.5v8.75H1153v8.75h-17.5v8.75H1118V584H908v-87.5h78.75v-8.75h43.75v8.75h8.75v-8.75h8.75V514h8.75v17.5h8.75v-8.75h-8.75V514H1083v-8.75h8.75v-8.75h8.75v-8.75h8.75V479h8.75v-35h113.75zm0-227.5H1083v-8.75h-43.75v-17.5h-8.75V304H1013v-8.75h8.75v-8.75H1013v-8.75h-8.75v-17.5h-8.75v-52.5h-8.75V199H978v-35h8.75v17.5h8.75v8.75h17.5v-8.75h-8.75v-8.75h-8.75V164h8.75v-8.75h8.75v-17.5h17.5v17.5h17.5V164h-8.75v17.5h-17.5v8.75H1048V146.5h183.75zM1100.5-2.25v70h-8.75v8.75h-17.5v8.75h-17.5V94h8.75v17.5H1048V94h-8.75v-8.75h8.75V76.5h-26.25v8.75h-35v17.5h17.5v8.75h17.5v8.75h8.75v26.25h201.25V-2.25zm-735 393.75v8.75h-8.75V444H330.5v26.25h-8.75v17.5H313v8.75h-8.75V514h-17.5v8.75H278V549h8.75v8.75H278v17.5h17.5V584h8.75v-17.5H313v8.75h-8.75V584H663V426.5h-8.75v26.25h-8.75v17.5h-8.75V479H628v8.75h-8.75v8.75h-35v-26.25h-8.75v-35h-8.75v-17.5H558V409h8.75v-17.5zM663 417.75h26.25v35h17.5V426.5h8.75v-26.25h-8.75V409H698v8.75h-17.5v-35h-8.75V356.5h8.75v-8.75h8.75V339H698v-8.75h8.75v-8.75h8.75V304h8.75v-8.75h-35v-8.75h17.5v-8.75H733V269h8.75v-8.75h8.75V234h35v8.75h8.75v8.75H803V269h8.75v17.5h8.75V304H838l-2.345 8.75h11.095V304H838v-35h8.75v-8.75h8.75v-8.75h8.75v-8.75h17.5v8.75h8.75V269H908v315H663zm-105-420h201.25v17.5h26.25V24H768v8.75h-26.25v8.75H733v-8.75h-17.5v8.75h8.75v8.75h-8.75V41.5H698V24h-17.5v17.5h8.75v-8.75H698v17.5h-43.75V59h-8.75v8.75h-8.75V59h8.75v-8.75h-8.75V41.5h-35v-35h-17.5v8.75h-17.5V24h35v17.5H575.5v8.75h-8.75V59H558zm-367.5 210H173v8.75h-35v8.75h-8.75v26.25H138v8.75h17.5v-8.75h8.75v-8.75H173v17.5h-8.75V269h17.5v35H208v-8.75h8.75v-8.75h8.75v8.75h8.75v-8.75H243v8.75h26.25V304H278v8.75h26.25v8.75H313V339h8.75v8.75h17.5v8.75h26.25v8.75h8.75v26.25h192.5v-26.25H558v-8.75h-8.75V339H558v-8.75h-8.75v-8.75h-17.5v-8.75h-17.5v8.75H470.5v-8.75h-8.75v-17.5H453v-17.5h-8.75V269H453v-35h8.75v-17.5h17.5V199H488v-8.75h26.25v-8.75H488v-8.75h-8.75V164H488v-17.5h17.5v8.75h8.75v-17.5h-8.75V129H523v-8.75h-17.5v-8.75h-8.75v8.75H488v-17.5h17.5V94h8.75v8.75H523v17.5h8.75v-8.75h17.5V94H558v-8.75h-17.5v-17.5H558v-70h-78.75v70H453V59h26.25V24h-8.75v8.75h-8.75v8.75H453v8.75h-26.25V59H400.5v8.75h-8.75v8.75H383v8.75h-8.75V76.5h-8.75V50.25h8.75V24h-35v-8.75h-17.5V24H313v17.5h17.5V59h-8.75v8.75H313v8.75h-8.75v-8.75h-8.75v17.5H313v17.5h17.5v17.5h-8.75V129h8.75v8.75H313v-17.5h-26.25v17.5h8.75v8.75h-35v8.75h-8.75V164H243v8.75h-17.5v17.5h-8.75V199H208v8.75h-8.75v35h17.5v8.75h17.5v8.75h-8.75v-8.75h-26.25v-26.25h-8.75zm323.75-26.25h52.5v-8.75h8.75V164h8.75v8.75H593v-17.5h-17.5v-8.75h-8.75v8.75h8.75V164h-8.75v-8.75H558v17.5h-8.75V164H558v-17.5h-8.75v8.75h-17.5V164H523v8.75h-8.75zm140 0v26.25H610.5V199H593v8.75h-17.5V199H558v-17.5h17.5v-8.75h26.25v8.75h8.75v8.75h8.75v-8.75zM330.5-2.25V6.5H313v26.25h-26.25v17.5H260.5V41.5h-8.75v8.75H225.5V41.5h-8.75v-8.75h-17.5v8.75h-8.75v8.75H173V41.5h-43.75v8.75h-8.75V41.5H41.75v8.75H33V59H15.5v8.75H-2v-70zM-2 94h17.5v-8.75h26.25V76.5h17.5v8.75h17.5v52.5H68v8.75h-8.75V164H50.5v8.75h8.75V199H68v26.25h8.75v17.5h8.75V234h8.75v26.25h17.5V269H138v8.75h8.75v8.75h17.5v8.75H173V304h8.75v8.75h17.5v17.5h-8.75V374h8.75v17.5H208V409h8.75v8.75h17.5V479H243v43.75h8.75v35h8.75v8.75h8.75v8.75H278V584H-2zm603.75 70h17.5v17.5h-8.75v-8.75h-8.75zm-525 52.5h8.75V234h-8.75zM1100.5 59h-8.75v8.75h-17.5V59h8.75v-8.75h-26.25V41.5h-105v-8.75h-17.5V24h-8.75v17.5h-26.25v-8.75h-70v-17.5h-35V24h-8.75V6.5h-26.25v-8.75h341.25zM374.25-2.25h52.5V6.5h-52.5zm-87.5 43.75h17.5v8.75H313V59h-17.5v17.5H278v8.75h-8.75v17.5h-17.5v17.5h-17.5v-17.5h-8.75V94h-8.75V76.5h8.75v-8.75h26.25V59h8.75v-8.75h8.75V59H278v-8.75h8.75zm218.75 61.25h8.75v8.75h-8.75zM208 41.5v8.75h8.75V41.5zm805 78.75V129h8.75v-8.75zm-428.75-52.5H593v17.5h8.75V94H593v8.75h-17.5v-17.5h8.75zm43.75 70V164h8.75v-8.75h17.5V164h17.5v-8.75H663v-8.75h-8.75v-8.75h-8.75v8.75h-8.75v-8.75zm17.5 78.75v8.75h8.75v-8.75zm17.5 26.25h-8.75v-17.5H663zm26.25 35h-17.5v-17.5H663v-17.5h8.75v17.5h8.75V269h8.75zm17.5-70h8.75v17.5H733V234h-17.5v-8.75h-8.75zM348 6.5h8.75v8.75H348z"/>
</svg>
